<?xml version="1.0" encoding="utf-8"?>
<!-- Generator: Adobe Illustrator 24.1.0, SVG Export Plug-In . SVG Version: 6.00 Build 0)  -->
<svg version="1.1" id="Layer_1" xmlns="http://www.w3.org/2000/svg" xmlns:xlink="http://www.w3.org/1999/xlink" x="0px" y="0px"
	 viewBox="0 0 539 163" style="enable-background:new 0 0 539 163;" xml:space="preserve">
<style type="text/css">
	.st0{fill:url(#SVGID_1_);}
	.st1{fill:url(#SVGID_2_);}
	.st2{fill:#9E9E9E;}
	.st3{fill:url(#SVGID_3_);}
	.st4{fill:url(#SVGID_4_);}
	.st5{fill:#333333;}
	.st6{fill:#727272;}
</style>
<g>
	<g>
		
			<linearGradient id="SVGID_1_" gradientUnits="userSpaceOnUse" x1="108.2012" y1="1178.6451" x2="202.4124" y2="1318.4835" gradientTransform="matrix(1 0 0 -1 0 1352)">
			<stop  offset="0" style="stop-color:#AFE200"/>
			<stop  offset="1" style="stop-color:#FFF100"/>
		</linearGradient>
		<path class="st0" d="M117.8,62.7c1.8,8.1,3.2,15.7,4.9,23.8L160.4,49v64.5l-8.8-8.8L137.3,119l43.3,43.3V0L117.8,62.7z"/>
	</g>
	<g>
		
			<linearGradient id="SVGID_2_" gradientUnits="userSpaceOnUse" x1="91.4086" y1="1135.7996" x2="-11.3487" y2="1355.8341" gradientTransform="matrix(1 0 0 -1 0 1352)">
			<stop  offset="0" style="stop-color:#AFE200"/>
			<stop  offset="0.1104" style="stop-color:#B8E400"/>
			<stop  offset="1" style="stop-color:#FFF100"/>
		</linearGradient>
		<path class="st1" d="M11.7,0v162.6L32,142.3l0,0v-39.1l0,0V49l37.5,37.5c1.6-8.1,3.2-15.5,4.9-23.8L11.7,0z"/>
	</g>
</g>
<path class="st2" d="M261.9-133.3c0.7,0.4,1.5,0.8,2.5,1.2c1,0.3,2.2,0.5,3.4,0.5c1.6,0,2.9-0.3,3.8-0.9c1-0.6,1.7-1.4,2.2-2.6
	c0.5-1.1,0.8-2.5,1-4.2c0.1-1.6,0.2-3.5,0.2-5.6v-16h3.1v16c0,2.4-0.1,4.6-0.3,6.6c-0.2,2-0.7,3.7-1.4,5c-0.7,1.4-1.7,2.5-3.1,3.2
	c-1.4,0.8-3.2,1.2-5.5,1.2c-2.7,0-4.9-0.7-6.8-2L261.9-133.3z"/>
<path class="st2" d="M290.6-128.9c-1.1,0-2.1-0.2-3-0.6s-1.7-0.9-2.4-1.5c-0.7-0.7-1.2-1.4-1.6-2.3s-0.6-1.8-0.6-2.8
	s0.2-1.9,0.7-2.8c0.5-0.9,1.1-1.6,2-2.2s1.9-1.1,3.1-1.4c1.2-0.3,2.5-0.5,3.9-0.5c1.2,0,2.4,0.1,3.6,0.3c1.2,0.2,2.3,0.5,3.2,0.9
	v-2.1c0-2-0.6-3.7-1.7-4.9s-2.8-1.8-4.8-1.8c-1.2,0-2.4,0.2-3.6,0.7s-2.5,1.2-3.8,2l-1.1-2c3-2,5.9-3,8.7-3c2.9,0,5.2,0.8,6.8,2.4
	c1.7,1.6,2.5,3.9,2.5,6.8v10.4c0,0.8,0.4,1.2,1.1,1.2v2.7c-0.5,0.1-0.9,0.1-1.2,0.1c-0.8,0-1.4-0.2-1.8-0.6s-0.7-0.9-0.7-1.6
	l-0.1-1.8c-1.1,1.4-2.4,2.5-4,3.2C294.2-129.2,292.5-128.9,290.6-128.9z M291.3-131.2c1.6,0,3-0.3,4.3-0.9c1.3-0.6,2.3-1.4,3-2.4
	c0.3-0.3,0.5-0.6,0.6-0.9c0.1-0.3,0.2-0.6,0.2-0.9v-3.8c-1-0.4-2.1-0.7-3.1-0.9c-1.1-0.2-2.2-0.3-3.3-0.3c-2.1,0-3.9,0.4-5.2,1.3
	c-1.3,0.9-2,2.1-2,3.5c0,0.7,0.1,1.4,0.4,2s0.7,1.2,1.2,1.6c0.5,0.5,1.1,0.8,1.8,1.1C289.8-131.3,290.6-131.2,291.3-131.2z"/>
<path class="st2" d="M307.4-140.9c0-1.6,0.3-3.2,0.8-4.6c0.6-1.5,1.4-2.7,2.4-3.8c1-1.1,2.2-1.9,3.7-2.6c1.4-0.6,3-0.9,4.7-0.9
	c2.2,0,4.1,0.5,5.7,1.5s2.9,2.3,3.7,4l-2.9,0.9c-0.7-1.2-1.6-2.1-2.7-2.8c-1.2-0.7-2.5-1-3.9-1c-1.2,0-2.3,0.2-3.3,0.7
	s-1.9,1.1-2.7,1.9c-0.8,0.8-1.3,1.8-1.8,2.9c-0.4,1.1-0.6,2.4-0.6,3.7c0,1.3,0.2,2.5,0.7,3.7c0.4,1.2,1.1,2.2,1.8,3
	c0.8,0.8,1.7,1.5,2.7,2s2.1,0.7,3.3,0.7c0.7,0,1.5-0.1,2.2-0.3c0.7-0.2,1.4-0.5,2-0.9s1.2-0.8,1.6-1.3s0.8-1,0.9-1.5l3,0.9
	c-0.3,0.8-0.8,1.6-1.4,2.3c-0.6,0.7-1.4,1.3-2.2,1.8c-0.8,0.5-1.8,0.9-2.8,1.2c-1,0.3-2.1,0.4-3.2,0.4c-1.7,0-3.2-0.3-4.7-1
	s-2.7-1.5-3.7-2.6c-1-1.1-1.8-2.4-2.4-3.8C307.7-137.7,307.4-139.3,307.4-140.9z"/>
<path class="st2" d="M350-129.3l-8.5-11.9l-5,4.6v7.2h-3v-32.3h3v22l13-12.7h3.4l-9.5,9.5l9.8,13.6H350z"/>
<path class="st2" d="M358.3-122.2c0.2,0,0.5,0.1,0.7,0.1s0.4,0,0.6,0c0.5,0,1-0.1,1.3-0.2s0.6-0.5,0.9-1s0.6-1.2,1-2.2
	c0.4-0.9,0.9-2.2,1.6-3.8l-10.1-23.2h3.1l8.6,20.4l8-20.4h2.9l-12,29.9c-0.3,0.9-0.9,1.6-1.6,2.2c-0.8,0.6-1.8,1-3.1,1
	c-0.3,0-0.6,0-0.8,0c-0.3,0-0.6-0.1-1-0.1v-2.7H358.3z"/>
<path class="st2" d="M419.8-129.3v-25.9l-11.5,20h-1.8l-11.5-20v25.9h-3.1v-31.6h3.2l12.3,21.6l12.4-21.6h3.2v31.6H419.8z"/>
<path class="st2" d="M439.9-128.9c-1.7,0-3.2-0.3-4.6-1c-1.4-0.7-2.6-1.5-3.7-2.6s-1.8-2.4-2.4-3.8c-0.6-1.5-0.9-3-0.9-4.7
	c0-1.6,0.3-3.2,0.9-4.6s1.4-2.7,2.4-3.8c1-1.1,2.2-1.9,3.7-2.6c1.4-0.6,3-1,4.6-1c1.7,0,3.2,0.3,4.6,1c1.4,0.6,2.6,1.5,3.6,2.6
	c1,1.1,1.8,2.4,2.4,3.8c0.6,1.4,0.8,2.9,0.8,4.5c0,0.2,0,0.5,0,0.7c0,0.2,0,0.4,0,0.5h-19.8c0.1,1.2,0.4,2.4,0.9,3.4
	c0.5,1.1,1.1,2,1.9,2.7c0.8,0.8,1.7,1.4,2.6,1.8c1,0.4,2.1,0.6,3.2,0.6c0.7,0,1.5-0.1,2.2-0.3c0.7-0.2,1.4-0.5,2-0.8
	c0.6-0.3,1.2-0.8,1.7-1.3s0.9-1.1,1.2-1.7l2.6,0.7c-0.4,0.9-0.9,1.6-1.5,2.3c-0.7,0.7-1.4,1.3-2.3,1.8s-1.8,0.9-2.8,1.2
	C442.1-129,441-128.9,439.9-128.9z M448.4-142.1c-0.1-1.2-0.4-2.4-0.9-3.4s-1.1-1.9-1.9-2.6c-0.8-0.7-1.6-1.3-2.6-1.7
	c-1-0.4-2.1-0.6-3.2-0.6s-2.2,0.2-3.2,0.6c-1,0.4-1.9,1-2.6,1.7c-0.8,0.7-1.4,1.6-1.8,2.7c-0.5,1-0.7,2.2-0.8,3.4h17V-142.1z"/>
<path class="st2" d="M475.5-129.3h-3v-12.9c0-2.8-0.4-4.8-1.2-6c-0.8-1.2-2.1-1.9-3.8-1.9c-0.9,0-1.8,0.2-2.7,0.5
	c-0.9,0.3-1.7,0.8-2.5,1.4c-0.8,0.6-1.4,1.3-2,2.1c-0.6,0.8-1,1.7-1.3,2.6v14.2h-3v-23.2h2.8v5.2c0.9-1.7,2.3-3.1,4.1-4.1
	c1.8-1,3.7-1.6,5.8-1.6c1.3,0,2.4,0.2,3.2,0.7c0.9,0.5,1.6,1.1,2.1,2c0.5,0.9,0.9,1.9,1.2,3.2c0.2,1.2,0.4,2.6,0.4,4.1v13.7
	C475.6-129.3,475.5-129.3,475.5-129.3z"/>
<path class="st2" d="M491.2-129c-1.6,0-3.1-0.3-4.4-1s-2.5-1.5-3.4-2.6c-1-1.1-1.7-2.4-2.2-3.8c-0.5-1.4-0.8-2.9-0.8-4.4
	c0-1.6,0.3-3.1,0.8-4.6s1.3-2.7,2.2-3.8c0.9-1.1,2.1-2,3.4-2.6c1.3-0.6,2.8-1,4.4-1c2,0,3.7,0.5,5.2,1.5s2.7,2.2,3.7,3.8v-5h2.7
	v23.2c0,1.6-0.3,3-0.9,4.2s-1.4,2.3-2.4,3.1s-2.2,1.5-3.6,1.9s-2.8,0.6-4.4,0.6c-2.7,0-4.8-0.5-6.4-1.4s-2.9-2.2-4-3.8l1.9-1.5
	c0.9,1.5,2.1,2.6,3.6,3.3c1.5,0.7,3.1,1,4.9,1c1.1,0,2.2-0.2,3.2-0.5s1.9-0.8,2.6-1.4c0.8-0.6,1.4-1.4,1.8-2.3s0.7-2,0.7-3.3v-4.6
	c-0.9,1.5-2.1,2.7-3.6,3.5C494.5-129.4,492.9-129,491.2-129z M492-131.5c0.9,0,1.8-0.2,2.6-0.5c0.9-0.3,1.6-0.8,2.3-1.3
	s1.3-1.2,1.8-1.8c0.5-0.7,0.8-1.4,0.9-2.1v-7.2c-0.3-0.8-0.8-1.6-1.3-2.3c-0.6-0.7-1.2-1.3-1.9-1.8c-0.7-0.5-1.5-0.9-2.3-1.2
	c-0.8-0.3-1.6-0.4-2.5-0.4c-1.3,0-2.5,0.3-3.5,0.8s-1.9,1.3-2.6,2.2s-1.3,1.9-1.6,3c-0.4,1.1-0.6,2.3-0.6,3.4c0,1.2,0.2,2.4,0.7,3.6
	c0.4,1.1,1.1,2.1,1.8,3s1.7,1.5,2.7,2C489.7-131.8,490.8-131.5,492-131.5z"/>
<g>
	<g>
		
			<linearGradient id="SVGID_3_" gradientUnits="userSpaceOnUse" x1="108.2012" y1="1381.1451" x2="202.4124" y2="1520.9835" gradientTransform="matrix(1 0 0 -1 0 1352)">
			<stop  offset="0" style="stop-color:#AFE200"/>
			<stop  offset="1" style="stop-color:#FFF100"/>
		</linearGradient>
		<path class="st3" d="M117.8-139.8c1.8,8.1,3.2,15.7,4.9,23.8l37.7-37.5V-89l-8.8-8.8l-14.3,14.3l43.3,43.3v-162.3L117.8-139.8z"/>
	</g>
	<g>
		
			<linearGradient id="SVGID_4_" gradientUnits="userSpaceOnUse" x1="91.4086" y1="1338.2996" x2="-11.3487" y2="1558.3341" gradientTransform="matrix(1 0 0 -1 0 1352)">
			<stop  offset="0" style="stop-color:#AFE200"/>
			<stop  offset="0.1104" style="stop-color:#B8E400"/>
			<stop  offset="1" style="stop-color:#FFF100"/>
		</linearGradient>
		<path class="st4" d="M11.7-202.5v162.6L32-60.2l0,0v-39.1l0,0v-54.2L69.5-116c1.6-8.1,3.2-15.5,4.9-23.8L11.7-202.5z"/>
	</g>
</g>
<path class="st2" d="M274.4-87c1.6,0,3-0.3,4.1-0.9s2-1.4,2.6-2.5s1.1-2.2,1.4-3.5s0.4-2.6,0.4-3.9V-111h2.6v13.2
	c0,1.8-0.2,3.4-0.6,5s-1,3-1.9,4.2s-2,2.2-3.4,2.9c-1.4,0.7-3.1,1.1-5.1,1.1c-2.1,0-3.8-0.4-5.2-1.1c-1.4-0.7-2.5-1.7-3.4-3
	c-0.9-1.2-1.5-2.6-1.8-4.2c-0.4-1.6-0.6-3.2-0.6-4.9V-111h2.5v13.2c0,1.4,0.1,2.7,0.4,4s0.7,2.5,1.4,3.5c0.7,1,1.5,1.8,2.6,2.4
	C271.4-87.3,272.8-87,274.4-87z"/>
<path class="st2" d="M291.6-84.9V-111h2.6v26.1H291.6z"/>
<path class="st2" d="M318.6-111l-17.4,26.1h-2.8l17.4-26.1H318.6z"/>
<path class="st2" d="M333.5-87c1.6,0,3-0.3,4.1-0.9s2-1.4,2.6-2.5c0.7-1,1.1-2.2,1.4-3.5s0.4-2.6,0.4-3.9V-111h2.6v13.2
	c0,1.8-0.2,3.4-0.6,5s-1,3-1.9,4.2s-2,2.2-3.4,2.9c-1.4,0.7-3.1,1.1-5.1,1.1c-2.1,0-3.8-0.4-5.2-1.1c-1.4-0.7-2.5-1.7-3.4-3
	c-0.9-1.2-1.5-2.6-1.8-4.2c-0.4-1.6-0.6-3.2-0.6-4.9V-111h2.5v13.2c0,1.4,0.1,2.7,0.4,4s0.7,2.5,1.4,3.5c0.7,1,1.5,1.8,2.6,2.4
	S331.9-87,333.5-87z"/>
<path class="st2" d="M350.5-111l8.6,11.4l8.6-11.4h2.8l-10.1,13.3l9.8,12.9h-2.8l-8.3-11l-8.3,11h-2.9l9.8-12.9L347.6-111H350.5z"/>
<path class="st2" d="M382.9-84.9V-111h8.9c2.1,0,3.9,0.3,5.5,1s2.9,1.6,3.9,2.8c1,1.2,1.8,2.6,2.4,4.1c0.5,1.6,0.8,3.3,0.8,5.1
	c0,2-0.3,3.8-0.9,5.4s-1.4,3-2.5,4.1s-2.4,2-3.9,2.7c-1.5,0.6-3.3,0.9-5.2,0.9H382.9z M401.7-98c0-1.6-0.2-3-0.7-4.3
	c-0.4-1.3-1.1-2.4-1.9-3.4s-1.9-1.7-3.1-2.2s-2.6-0.8-4.2-0.8h-6.3v21.6h6.3c1.6,0,3-0.3,4.3-0.8c1.2-0.6,2.3-1.3,3.1-2.3
	c0.8-1,1.5-2.1,1.9-3.4C401.5-95,401.7-96.4,401.7-98z"/>
<path class="st2" d="M417-84.5c-1.4,0-2.7-0.3-3.8-0.8c-1.2-0.5-2.2-1.3-3-2.2c-0.9-0.9-1.5-2-2-3.2s-0.7-2.5-0.7-3.9
	s0.2-2.6,0.7-3.8c0.5-1.2,1.1-2.2,2-3.1c0.8-0.9,1.9-1.6,3-2.1c1.2-0.5,2.5-0.8,3.8-0.8c1.4,0,2.7,0.3,3.8,0.8
	c1.2,0.5,2.2,1.2,3,2.2c0.8,0.9,1.5,2,2,3.1c0.5,1.2,0.7,2.4,0.7,3.8c0,0.2,0,0.4,0,0.6s0,0.3,0,0.4H410c0.1,1,0.3,2,0.7,2.9
	c0.4,0.9,0.9,1.6,1.6,2.3c0.6,0.6,1.4,1.1,2.2,1.5c0.8,0.4,1.7,0.5,2.6,0.5c0.6,0,1.2-0.1,1.8-0.3c0.6-0.2,1.2-0.4,1.7-0.7
	c0.5-0.3,1-0.7,1.4-1.1s0.7-0.9,1-1.4l2.2,0.6c-0.3,0.7-0.7,1.4-1.3,1.9c-0.5,0.6-1.2,1.1-1.9,1.5c-0.7,0.4-1.5,0.8-2.4,1
	C418.9-84.6,418-84.5,417-84.5z M424.1-95.5c-0.1-1-0.3-2-0.7-2.8c-0.4-0.8-0.9-1.6-1.5-2.2s-1.4-1.1-2.2-1.4
	c-0.8-0.3-1.7-0.5-2.6-0.5s-1.8,0.2-2.7,0.5c-0.8,0.3-1.6,0.8-2.2,1.4s-1.1,1.4-1.5,2.2s-0.6,1.8-0.7,2.8H424.1z"/>
<path class="st2" d="M436.7-84.5c-1.5,0-3-0.2-4.4-0.7s-2.7-1.2-3.7-2.1l1.1-1.7c1.1,0.9,2.2,1.5,3.3,2c1.1,0.4,2.3,0.7,3.6,0.7
	c1.5,0,2.8-0.3,3.7-0.9c0.9-0.6,1.4-1.5,1.4-2.7c0-0.5-0.1-1-0.4-1.3c-0.2-0.4-0.6-0.7-1.1-0.9c-0.5-0.3-1.1-0.5-1.8-0.7
	s-1.6-0.4-2.5-0.6c-1.1-0.3-2.1-0.5-2.9-0.8s-1.5-0.6-2-0.9s-0.9-0.8-1.2-1.3c-0.3-0.5-0.4-1.1-0.4-1.9c0-1,0.2-1.8,0.6-2.5
	s0.9-1.3,1.5-1.8s1.4-0.8,2.3-1.1c0.9-0.2,1.8-0.4,2.8-0.4c1.5,0,2.8,0.2,4,0.7s2.2,1.1,2.9,1.9l-1.2,1.5c-0.7-0.7-1.6-1.3-2.6-1.7
	c-1-0.4-2.1-0.6-3.2-0.6c-0.7,0-1.3,0.1-1.8,0.2c-0.6,0.1-1.1,0.3-1.5,0.6c-0.4,0.3-0.8,0.7-1,1.1c-0.2,0.5-0.4,1-0.4,1.6
	c0,0.5,0.1,0.9,0.3,1.3c0.2,0.3,0.5,0.6,0.8,0.8c0.4,0.2,0.9,0.4,1.5,0.6s1.3,0.4,2.2,0.6c1.2,0.3,2.3,0.6,3.2,0.9
	c0.9,0.3,1.7,0.6,2.3,1c0.6,0.4,1.1,0.9,1.4,1.4c0.3,0.6,0.5,1.3,0.5,2.1c0,1.8-0.7,3.2-2,4.2C440.8-85,439-84.5,436.7-84.5z"/>
<path class="st2" d="M448.3-108.1v-3.7h2.5v3.7H448.3z M448.3-84.9V-104h2.5v19.2L448.3-84.9L448.3-84.9z"/>
<path class="st2" d="M464-84.6c-1.3,0-2.5-0.3-3.6-0.8c-1.1-0.6-2-1.3-2.8-2.2c-0.8-0.9-1.4-2-1.9-3.1c-0.4-1.2-0.7-2.4-0.7-3.6
	c0-1.3,0.2-2.6,0.6-3.8c0.4-1.2,1-2.3,1.8-3.2c0.8-0.9,1.7-1.6,2.8-2.2c1.1-0.5,2.3-0.8,3.6-0.8c1.6,0,3.1,0.4,4.3,1.2
	c1.2,0.8,2.2,1.9,3.1,3.1v-4h2.2v19.3c0,1.3-0.3,2.5-0.8,3.5s-1.2,1.9-2,2.6s-1.8,1.2-3,1.5c-1.1,0.3-2.4,0.5-3.6,0.5
	c-2.2,0-4-0.4-5.3-1.2c-1.4-0.8-2.4-1.8-3.3-3.2l1.5-1.2c0.8,1.2,1.8,2.1,3,2.7c1.3,0.6,2.6,0.9,4,0.9c0.9,0,1.8-0.1,2.7-0.4
	c0.8-0.3,1.6-0.6,2.2-1.1s1.1-1.1,1.5-1.9s0.6-1.7,0.6-2.7v-3.8c-0.7,1.2-1.7,2.2-3,2.9C466.7-85,465.4-84.6,464-84.6z M464.7-86.7
	c0.7,0,1.5-0.1,2.2-0.4s1.4-0.6,1.9-1.1c0.6-0.5,1.1-1,1.5-1.5c0.4-0.6,0.7-1.1,0.8-1.7v-5.9c-0.3-0.7-0.6-1.3-1.1-1.9
	s-1-1.1-1.6-1.5s-1.2-0.7-1.9-1c-0.7-0.2-1.4-0.4-2-0.4c-1.1,0-2,0.2-2.9,0.7c-0.8,0.5-1.6,1-2.2,1.8c-0.6,0.7-1,1.6-1.3,2.5
	s-0.5,1.9-0.5,2.8c0,1,0.2,2,0.6,2.9s0.9,1.7,1.5,2.4c0.7,0.7,1.4,1.3,2.3,1.7C462.8-86.9,463.7-86.7,464.7-86.7z"/>
<path class="st2" d="M495.2-84.9h-2.5v-10.7c0-2.3-0.3-3.9-1-5c-0.7-1-1.7-1.5-3.1-1.5c-0.7,0-1.5,0.1-2.2,0.4s-1.4,0.7-2,1.1
	c-0.6,0.5-1.2,1.1-1.7,1.7c-0.5,0.7-0.8,1.4-1.1,2.2V-85h-2.5v-19h2.3v4.3c0.8-1.4,1.9-2.5,3.4-3.4s3-1.3,4.8-1.3
	c1.1,0,2,0.2,2.7,0.6s1.3,0.9,1.8,1.7c0.4,0.7,0.8,1.6,1,2.6s0.3,2.2,0.3,3.4v11.2H495.2z"/>
<path class="st2" d="M508.8-84.5c-1.4,0-2.7-0.3-3.8-0.8c-1.2-0.5-2.2-1.3-3-2.2c-0.9-0.9-1.5-2-2-3.2s-0.7-2.5-0.7-3.9
	s0.2-2.6,0.7-3.8c0.5-1.2,1.1-2.2,2-3.1c0.8-0.9,1.9-1.6,3-2.1c1.2-0.5,2.5-0.8,3.8-0.8c1.4,0,2.7,0.3,3.8,0.8
	c1.2,0.5,2.2,1.2,3,2.2c0.8,0.9,1.5,2,2,3.1c0.5,1.2,0.7,2.4,0.7,3.8c0,0.2,0,0.4,0,0.6s0,0.3,0,0.4h-16.4c0.1,1,0.3,2,0.7,2.9
	c0.4,0.9,0.9,1.6,1.6,2.3c0.6,0.6,1.4,1.1,2.2,1.5c0.8,0.4,1.7,0.5,2.6,0.5c0.6,0,1.2-0.1,1.8-0.3c0.6-0.2,1.2-0.4,1.7-0.7
	s1-0.7,1.4-1.1s0.7-0.9,1-1.4l2.2,0.6c-0.3,0.7-0.7,1.4-1.3,1.9c-0.5,0.6-1.2,1.1-1.9,1.5s-1.5,0.8-2.4,1
	C510.6-84.6,509.7-84.5,508.8-84.5z M515.9-95.5c-0.1-1-0.3-2-0.7-2.8s-0.9-1.6-1.5-2.2s-1.4-1.1-2.2-1.4s-1.7-0.5-2.6-0.5
	s-1.8,0.2-2.7,0.5c-0.8,0.3-1.6,0.8-2.2,1.4s-1.1,1.4-1.5,2.2c-0.4,0.9-0.6,1.8-0.7,2.8H515.9z"/>
<path class="st2" d="M531.7-101.8c-1.7,0-3.2,0.5-4.4,1.4c-1.3,0.9-2.1,2.1-2.7,3.6v11.9h-2.5V-104h2.4v4.6c0.7-1.5,1.7-2.6,2.9-3.5
	c1.2-0.8,2.5-1.3,3.9-1.3c0.2,0,0.4,0,0.5,0v2.4H531.7z"/>
<path class="st5" d="M260.9,46.4h8.7v25.5c0,3.8-1.2,6.9-3.5,9.2c-2.4,2.3-5.4,3.4-9.1,3.4c-4.2,0-7.6-1-10.1-3s-3.7-5-3.6-8.9
	l0.1-0.2h8.5c0,1.8,0.5,3.2,1.4,4.1c0.9,0.9,2.1,1.3,3.6,1.3c1.1,0,2.1-0.5,2.8-1.6c0.7-1,1.1-2.5,1.1-4.3V46.4z"/>
<path class="st5" d="M291.2,83.9c-0.3-0.6-0.6-1.2-0.8-2c-0.2-0.7-0.4-1.5-0.5-2.3c-0.8,1.5-1.7,2.7-2.8,3.6
	c-1.1,0.9-2.6,1.3-4.3,1.3c-2.9,0-5.2-0.8-6.8-2.3s-2.4-3.6-2.4-6.2c0-2.8,1-4.9,3.1-6.4c2.1-1.5,5.2-2.3,9.5-2.3h3.6v-2
	c0-1.2-0.3-2.1-0.9-2.7s-1.4-1-2.6-1c-1,0-1.8,0.2-2.3,0.7c-0.5,0.5-0.7,1.2-0.7,2.2l-8.5,0l-0.1-0.2c-0.1-2.5,0.9-4.7,3.2-6.4
	c2.2-1.7,5.2-2.6,8.9-2.6c3.5,0,6.3,0.9,8.4,2.6c2.1,1.7,3.2,4.2,3.2,7.4V76c0,1.5,0.1,2.9,0.4,4.1c0.2,1.3,0.6,2.5,1.1,3.8
	L291.2,83.9z M285,78.3c1.1,0,2-0.2,2.8-0.7c0.8-0.5,1.4-1.1,1.7-1.8v-3.7H286c-1.4,0-2.4,0.3-3,1s-0.9,1.5-0.9,2.6
	c0,0.8,0.3,1.4,0.8,1.9C283.4,78,284.1,78.3,285,78.3z"/>
<path class="st5" d="M315,77.8c1.2,0,2.1-0.3,2.7-1s0.9-1.6,0.9-2.8h8l0.1,0.2c0.1,3-1,5.5-3.2,7.4c-2.2,1.9-5,2.9-8.4,2.9
	c-4.3,0-7.5-1.3-9.8-3.9s-3.4-6-3.4-10.3v-0.6c0-4.2,1.1-7.6,3.4-10.2s5.6-3.9,9.8-3.9c3.5,0,6.4,1,8.5,3c2.1,2,3.2,4.7,3.1,8.1
	l-0.1,0.2h-8c0-1.3-0.3-2.4-0.9-3.2c-0.6-0.8-1.5-1.3-2.7-1.3c-1.7,0-2.9,0.7-3.5,2c-0.7,1.4-1,3.2-1,5.5v0.6c0,2.3,0.3,4.2,1,5.5
	C312.1,77.1,313.3,77.8,315,77.8z"/>
<path class="st5" d="M340.4,72.9h-1.6V84h-8.7V43.7h8.7v22.6h1.2L346,56h10l-8.6,12.6l10,15.3h-9.9L340.4,72.9z"/>
<path class="st5" d="M369.8,71.6l0,0.2h0.2l4.6-15.8h9.3l-11.1,32.1c-0.9,2.1-2,3.8-3.3,5.1s-3.5,2-6.5,2c-0.8,0-1.4,0-1.9-0.1
	c-0.5-0.1-1.2-0.3-2.3-0.5l1.1-6.2c0.2,0.1,0.4,0.1,0.5,0.1c0.1,0,0.3,0,0.5,0c1.4,0,2.4-0.2,3-0.6c0.6-0.4,1.1-1,1.4-1.8l0.7-1.8
	L356.4,56h9.3L369.8,71.6z"/>
<path class="st5" d="M419.7,72.7h0.2l8.5-26.3h11.5V84h-8.7V59.7l-0.2,0L422.7,84h-5.9l-8.1-23.9l-0.2,0V84h-8.7V46.4h11.4
	L419.7,72.7z"/>
<path class="st5" d="M457.8,84.5c-4.2,0-7.6-1.3-10-3.8c-2.4-2.6-3.6-5.8-3.6-9.7v-1c0-4.3,1.1-7.7,3.4-10.4c2.3-2.7,5.5-4,9.8-4
	c3.8,0,6.7,1.1,8.8,3.4c2.1,2.3,3.1,5.3,3.1,9.3v4.6h-16l-0.1,0.2c0.1,1.5,0.7,2.6,1.6,3.5c0.9,0.9,2.3,1.4,4.1,1.4
	c1.7,0,3.1-0.1,4.2-0.4c1.1-0.3,2.4-0.7,3.8-1.3l2.1,5.3c-1.2,0.9-2.8,1.6-4.9,2.2S460,84.5,457.8,84.5z M457.4,62.2
	c-1.4,0-2.4,0.4-3.1,1.3c-0.7,0.9-1,2.1-1.1,3.6l0.1,0.1h7.5v-0.7c0-1.4-0.3-2.5-0.8-3.3C459.5,62.6,458.7,62.2,457.4,62.2z"/>
<path class="st5" d="M481,56l0.3,3.9c0.9-1.4,2-2.5,3.4-3.3c1.3-0.8,2.8-1.2,4.5-1.2c2.7,0,4.9,0.9,6.4,2.8c1.5,1.9,2.3,4.8,2.3,8.9
	V84h-8.7V67.1c0-1.8-0.3-3-0.9-3.8c-0.6-0.7-1.4-1.1-2.5-1.1c-0.9,0-1.8,0.2-2.5,0.5c-0.7,0.3-1.4,0.8-1.9,1.4V84h-8.7V56H481z"/>
<path class="st5" d="M501.5,70c0-4.4,1-7.9,2.9-10.5c1.9-2.7,4.6-4,8-4c1.5,0,2.8,0.3,3.9,1c1.1,0.7,2.1,1.7,2.9,3l0.6-3.5h7.7v27.6
	c0,3.7-1.3,6.5-3.8,8.6c-2.5,2-6,3-10.4,3c-1.4,0-3-0.2-4.5-0.6c-1.6-0.4-3.1-0.9-4.5-1.6l1.5-6.5c1.3,0.5,2.5,1,3.6,1.2
	c1.1,0.3,2.5,0.4,3.9,0.4c1.9,0,3.2-0.4,4.1-1.1c0.9-0.7,1.4-1.9,1.4-3.5v-2.2c-0.8,1-1.7,1.8-2.8,2.3c-1,0.5-2.2,0.8-3.6,0.8
	c-3.4,0-6.1-1.3-8-3.8c-1.9-2.5-2.8-5.9-2.8-10.1V70z M510.2,70.6c0,2.3,0.3,4,1,5.3c0.7,1.3,1.8,1.9,3.4,1.9c0.9,0,1.8-0.1,2.4-0.4
	c0.7-0.3,1.2-0.7,1.7-1.3V64.3c-0.4-0.7-1-1.2-1.7-1.5c-0.7-0.4-1.5-0.5-2.4-0.5c-1.5,0-2.7,0.7-3.4,2.2s-1,3.3-1,5.7V70.6z"/>
<path class="st6" d="M298.9,102.1l-2.6,17.5c-0.4,3-1.7,5.3-3.6,6.9c-2,1.6-4.4,2.4-7.2,2.4c-2.6,0-4.7-0.8-6.3-2.5
	c-1.6-1.6-2.1-3.9-1.7-6.8l2.6-17.5h2.2l-2.6,17.5c-0.4,2.4,0,4.2,1.2,5.5s2.8,1.9,4.9,1.9c2.1,0,3.9-0.7,5.5-2
	c1.6-1.3,2.6-3.1,2.9-5.4l2.6-17.5H298.9z"/>
<path class="st6" d="M304,128.4h-2.2l3.9-26.3h2.2L304,128.4z"/>
<path class="st6" d="M310.1,130.6h-2l15.3-28.6h2L310.1,130.6z"/>
<path class="st6" d="M348.4,102.1l-2.6,17.5c-0.4,3-1.7,5.3-3.6,6.9c-2,1.6-4.4,2.4-7.2,2.4c-2.6,0-4.7-0.8-6.3-2.5
	c-1.6-1.6-2.1-3.9-1.7-6.8l2.6-17.5h2.2l-2.6,17.5c-0.4,2.4,0,4.2,1.2,5.5s2.8,1.9,4.9,1.9c2.1,0,3.9-0.7,5.5-2
	c1.6-1.3,2.6-3.1,2.9-5.4l2.6-17.5H348.4z"/>
<path class="st6" d="M361.1,113.3l9.1-11.2h2.5l0.1,0.1L362.1,115l7,13.3h-2.6l-6-11.6l-9.4,11.6h-2.5l-0.1-0.1l11-13.2l-6.8-13h2.6
	L361.1,113.3z"/>
<path class="st6" d="M382.5,128.4l3.9-26.3h8c3.1,0,5.6,1.1,7.4,3.3c1.8,2.2,2.5,4.9,2,8.2l-0.5,3.4c-0.5,3.5-2,6.3-4.4,8.3
	c-2.4,2.1-5.2,3.1-8.5,3.1H382.5z M388.3,103.9l-3.4,22.6h5.9c2.5,0,4.8-0.9,6.8-2.7c2-1.8,3.2-4.1,3.6-6.9l0.5-3.4
	c0.4-2.9-0.1-5.2-1.5-6.9c-1.4-1.8-3.4-2.6-6-2.6H388.3z"/>
<path class="st6" d="M414.3,128.8c-2.4,0-4.3-0.9-5.7-2.7c-1.4-1.8-1.8-4.1-1.4-6.9l0.2-1c0.4-2.9,1.6-5.3,3.4-7.1s4-2.7,6.4-2.7
	c2.3,0,4,0.8,5.1,2.3c1.1,1.5,1.5,3.6,1.1,6.1l-0.3,1.7h-13.6l-0.1,0.6c-0.3,2.3-0.1,4.2,0.8,5.6c0.9,1.4,2.4,2.1,4.4,2.1
	c1.1,0,2.3-0.2,3.4-0.6c1.1-0.4,2-0.9,2.8-1.6l0.7,1.5c-0.8,0.7-1.8,1.3-3,1.8C417.2,128.5,415.8,128.8,414.3,128.8z M416.9,110.3
	c-1.6,0-3,0.6-4.3,1.8c-1.3,1.2-2.2,2.7-2.6,4.5l0,0.1h11.2l0.1-0.5c0.3-1.8,0-3.2-0.7-4.3C419.8,110.8,418.6,110.3,416.9,110.3z"/>
<path class="st6" d="M438.5,123.4c0.1-1-0.1-1.8-0.8-2.4c-0.7-0.7-1.9-1.2-3.8-1.6c-2.2-0.5-3.9-1.1-4.9-2c-1-0.8-1.4-2-1.2-3.5
	c0.2-1.6,1-2.8,2.4-3.8c1.4-1,3.1-1.5,5.2-1.5s3.7,0.6,4.9,1.7s1.6,2.5,1.4,4.1l0,0.1h-2c0.2-1.1-0.2-2.1-1-2.8
	c-0.8-0.8-2-1.2-3.5-1.2c-1.5,0-2.7,0.3-3.7,1c-0.9,0.7-1.5,1.5-1.6,2.4c-0.1,0.9,0.1,1.7,0.7,2.2c0.6,0.6,1.9,1.1,3.9,1.5
	c2.2,0.5,3.8,1.2,4.9,2.1c1,0.9,1.5,2.1,1.3,3.7c-0.3,1.7-1.1,3-2.5,4c-1.4,1-3.3,1.5-5.4,1.5c-2.3,0-4-0.6-5.3-1.7
	c-1.2-1.1-1.7-2.5-1.4-4l0-0.1h2c-0.1,1.4,0.3,2.4,1.3,3.1c1,0.6,2.2,1,3.6,1c1.5,0,2.8-0.4,3.8-1.1S438.3,124.3,438.5,123.4z"/>
<path class="st6" d="M447.2,128.4h-2.2l2.9-19.6h2.2L447.2,128.4z M451,103.2h-2.2l0.5-3h2.2L451,103.2z"/>
<path class="st6" d="M453.9,118.8c0.5-3.2,1.5-5.8,3.1-7.6c1.6-1.8,3.6-2.7,5.9-2.7c1.3,0,2.5,0.3,3.4,0.9c0.9,0.6,1.7,1.5,2.2,2.6
	l0.8-3.2h1.8l-2.9,19.7c-0.4,2.6-1.4,4.5-2.9,5.8c-1.6,1.3-3.6,2-6.1,2c-0.9,0-1.9-0.1-2.9-0.3c-1-0.2-1.9-0.5-2.7-0.9l0.7-1.8
	c0.7,0.4,1.5,0.7,2.4,0.9c0.9,0.2,1.8,0.3,2.8,0.3c1.9,0,3.3-0.5,4.5-1.5s1.8-2.5,2.1-4.4l0.4-2.8c-0.8,1-1.8,1.7-2.9,2.3
	c-1.1,0.5-2.3,0.8-3.7,0.8c-2.2,0-3.9-0.9-5-2.6c-1.1-1.8-1.4-4.1-1-7L453.9,118.8z M456,119.1c-0.4,2.4-0.2,4.3,0.6,5.7s2.1,2,4,2
	c1.3,0,2.5-0.3,3.6-0.9c1-0.6,1.9-1.5,2.6-2.6l1.4-9.3c-0.3-1.1-0.9-2-1.7-2.7c-0.8-0.7-1.9-1-3.4-1c-1.8,0-3.4,0.8-4.6,2.4
	c-1.2,1.6-2,3.6-2.4,6L456,119.1z"/>
<path class="st6" d="M478.4,112.1c0.8-1.2,1.8-2.1,2.9-2.7c1.2-0.6,2.5-0.9,3.9-0.9c2,0,3.5,0.7,4.5,2c1,1.3,1.2,3.3,0.8,6
	l-1.8,11.9h-2.2l1.8-11.9c0.3-2.3,0.2-3.9-0.5-4.8s-1.8-1.3-3.4-1.3c-1.5,0-2.8,0.4-3.9,1.2s-1.9,1.8-2.6,3.1l-2.1,13.7h-2.2
	l2.9-19.6h1.9L478.4,112.1z"/>
<path class="st6" d="M501.8,128.8c-2.4,0-4.3-0.9-5.7-2.7c-1.4-1.8-1.8-4.1-1.4-6.9l0.2-1c0.4-2.9,1.6-5.3,3.4-7.1s4-2.7,6.4-2.7
	c2.3,0,4,0.8,5.1,2.3c1.1,1.5,1.5,3.6,1.1,6.1l-0.3,1.7H497l-0.1,0.6c-0.3,2.3-0.1,4.2,0.8,5.6c0.9,1.4,2.4,2.1,4.4,2.1
	c1.1,0,2.3-0.2,3.4-0.6c1.1-0.4,2-0.9,2.8-1.6l0.7,1.5c-0.8,0.7-1.8,1.3-3,1.8C504.7,128.5,503.4,128.8,501.8,128.8z M504.4,110.3
	c-1.6,0-3,0.6-4.3,1.8c-1.3,1.2-2.2,2.7-2.6,4.5l0,0.1h11.2l0.1-0.5c0.3-1.8,0-3.2-0.7-4.3C507.3,110.8,506.1,110.3,504.4,110.3z"/>
<path class="st6" d="M525.1,110.7l-1.5-0.1c-1.3,0-2.5,0.4-3.5,1.2c-1,0.8-1.8,1.9-2.4,3.2l-2,13.4h-2.2l2.9-19.6h1.9l-0.2,3.3
	l0,0.1c0.7-1.2,1.6-2.1,2.7-2.7c1-0.7,2.2-1,3.6-1c0.3,0,0.5,0,0.8,0.1c0.2,0,0.4,0.1,0.6,0.1L525.1,110.7z"/>
</svg>
