<?xml version="1.0" encoding="utf-8"?>
<!-- Generator: Adobe Illustrator 22.1.0, SVG Export Plug-In . SVG Version: 6.00 Build 0)  -->
<svg version="1.1" id="Layer_1" xmlns="http://www.w3.org/2000/svg" xmlns:xlink="http://www.w3.org/1999/xlink" x="0px" y="0px"
	 viewBox="0 0 539 163" style="enable-background:new 0 0 539 163;" xml:space="preserve">
<style type="text/css">
	.st0{fill:#9E9E9E;}
	.st1{fill:url(#SVGID_1_);}
	.st2{fill:url(#SVGID_2_);}
</style>
<path class="st0" d="M261.9,69.2c0.7,0.4,1.5,0.8,2.5,1.2c1,0.3,2.2,0.5,3.4,0.5c1.6,0,2.9-0.3,3.8-0.9c1-0.6,1.7-1.4,2.2-2.6
	c0.5-1.1,0.8-2.5,1-4.2c0.1-1.6,0.2-3.5,0.2-5.6v-16h3.1v16c0,2.4-0.1,4.6-0.3,6.6c-0.2,2-0.7,3.7-1.4,5c-0.7,1.4-1.7,2.5-3.1,3.2
	c-1.4,0.8-3.2,1.2-5.5,1.2c-2.7,0-4.9-0.7-6.8-2L261.9,69.2z"/>
<path class="st0" d="M290.6,73.6c-1.1,0-2.1-0.2-3-0.6s-1.7-0.9-2.4-1.5c-0.7-0.7-1.2-1.4-1.6-2.3s-0.6-1.8-0.6-2.8s0.2-1.9,0.7-2.8
	c0.5-0.9,1.1-1.6,2-2.2c0.9-0.6,1.9-1.1,3.1-1.4c1.2-0.3,2.5-0.5,3.9-0.5c1.2,0,2.4,0.1,3.6,0.3s2.3,0.5,3.2,0.9v-2.1
	c0-2-0.6-3.7-1.7-4.9s-2.8-1.8-4.8-1.8c-1.2,0-2.4,0.2-3.6,0.7s-2.5,1.2-3.8,2l-1.1-2c3-2,5.9-3,8.7-3c2.9,0,5.2,0.8,6.8,2.4
	c1.7,1.6,2.5,3.9,2.5,6.8v10.4c0,0.8,0.4,1.2,1.1,1.2v2.7c-0.5,0.1-0.9,0.1-1.2,0.1c-0.8,0-1.4-0.2-1.8-0.6s-0.7-0.9-0.7-1.6
	l-0.1-1.8c-1.1,1.4-2.4,2.5-4,3.2C294.2,73.3,292.5,73.6,290.6,73.6z M291.3,71.3c1.6,0,3-0.3,4.3-0.9s2.3-1.4,3-2.4
	c0.3-0.3,0.5-0.6,0.6-0.9s0.2-0.6,0.2-0.9v-3.8c-1-0.4-2.1-0.7-3.1-0.9c-1.1-0.2-2.2-0.3-3.3-0.3c-2.1,0-3.9,0.4-5.2,1.3
	c-1.3,0.9-2,2.1-2,3.5c0,0.7,0.1,1.4,0.4,2s0.7,1.2,1.2,1.6c0.5,0.5,1.1,0.8,1.8,1.1C289.8,71.2,290.6,71.3,291.3,71.3z"/>
<path class="st0" d="M307.4,61.6c0-1.6,0.3-3.2,0.8-4.6c0.6-1.5,1.4-2.7,2.4-3.8s2.2-1.9,3.7-2.6c1.4-0.6,3-0.9,4.7-0.9
	c2.2,0,4.1,0.5,5.7,1.5s2.9,2.3,3.7,4l-2.9,0.9c-0.7-1.2-1.6-2.1-2.7-2.8c-1.2-0.7-2.5-1-3.9-1c-1.2,0-2.3,0.2-3.3,0.7
	s-1.9,1.1-2.7,1.9c-0.8,0.8-1.3,1.8-1.8,2.9c-0.4,1.1-0.6,2.4-0.6,3.7s0.2,2.5,0.7,3.7c0.4,1.2,1.1,2.2,1.8,3c0.8,0.8,1.7,1.5,2.7,2
	s2.1,0.7,3.3,0.7c0.7,0,1.5-0.1,2.2-0.3c0.7-0.2,1.4-0.5,2-0.9s1.2-0.8,1.6-1.3s0.8-1,0.9-1.5l3,0.9c-0.3,0.8-0.8,1.6-1.4,2.3
	c-0.6,0.7-1.4,1.3-2.2,1.8c-0.8,0.5-1.8,0.9-2.8,1.2c-1,0.3-2.1,0.4-3.2,0.4c-1.7,0-3.2-0.3-4.7-1s-2.7-1.5-3.7-2.6
	s-1.8-2.4-2.4-3.8C307.7,64.8,307.4,63.2,307.4,61.6z"/>
<path class="st0" d="M350,73.2l-8.5-11.9l-5,4.6v7.2h-3V40.8h3v22l13-12.7h3.4l-9.5,9.5l9.8,13.6H350z"/>
<path class="st0" d="M358.3,80.3c0.2,0,0.5,0.1,0.7,0.1s0.4,0,0.6,0c0.5,0,1-0.1,1.3-0.2s0.6-0.5,0.9-1s0.6-1.2,1-2.2
	c0.4-0.9,0.9-2.2,1.6-3.8L354.3,50h3.1l8.6,20.4l8-20.4h2.9l-12,29.9c-0.3,0.9-0.9,1.6-1.6,2.2c-0.8,0.6-1.8,1-3.1,1
	c-0.3,0-0.6,0-0.8,0c-0.3,0-0.6-0.1-1-0.1v-2.7H358.3z"/>
<path class="st0" d="M419.8,73.2V47.3l-11.5,20h-1.8l-11.5-20v25.9h-3.1V41.6h3.2l12.3,21.6l12.4-21.6h3.2v31.6H419.8z"/>
<path class="st0" d="M439.9,73.6c-1.7,0-3.2-0.3-4.6-1s-2.6-1.5-3.7-2.6s-1.8-2.4-2.4-3.8c-0.6-1.5-0.9-3-0.9-4.7
	c0-1.6,0.3-3.2,0.9-4.6c0.6-1.4,1.4-2.7,2.4-3.8s2.2-1.9,3.7-2.6c1.4-0.6,3-1,4.6-1c1.7,0,3.2,0.3,4.6,1c1.4,0.6,2.6,1.5,3.6,2.6
	s1.8,2.4,2.4,3.8c0.6,1.4,0.8,2.9,0.8,4.5c0,0.2,0,0.5,0,0.7s0,0.4,0,0.5h-19.8c0.1,1.2,0.4,2.4,0.9,3.4c0.5,1.1,1.1,2,1.9,2.7
	c0.8,0.8,1.7,1.4,2.6,1.8c1,0.4,2.1,0.6,3.2,0.6c0.7,0,1.5-0.1,2.2-0.3c0.7-0.2,1.4-0.5,2-0.8s1.2-0.8,1.7-1.3s0.9-1.1,1.2-1.7
	l2.6,0.7c-0.4,0.9-0.9,1.6-1.5,2.3c-0.7,0.7-1.4,1.3-2.3,1.8s-1.8,0.9-2.8,1.2C442.1,73.5,441,73.6,439.9,73.6z M448.4,60.4
	c-0.1-1.2-0.4-2.4-0.9-3.4s-1.1-1.9-1.9-2.6c-0.8-0.7-1.6-1.3-2.6-1.7s-2.1-0.6-3.2-0.6s-2.2,0.2-3.2,0.6c-1,0.4-1.9,1-2.6,1.7
	c-0.8,0.7-1.4,1.6-1.8,2.7c-0.5,1-0.7,2.2-0.8,3.4h17V60.4z"/>
<path class="st0" d="M475.5,73.2h-3V60.3c0-2.8-0.4-4.8-1.2-6c-0.8-1.2-2.1-1.9-3.8-1.9c-0.9,0-1.8,0.2-2.7,0.5
	c-0.9,0.3-1.7,0.8-2.5,1.4c-0.8,0.6-1.4,1.3-2,2.1s-1,1.7-1.3,2.6v14.2h-3V50h2.8v5.2c0.9-1.7,2.3-3.1,4.1-4.1
	c1.8-1,3.7-1.6,5.8-1.6c1.3,0,2.4,0.2,3.2,0.7c0.9,0.5,1.6,1.1,2.1,2s0.9,1.9,1.2,3.2c0.2,1.2,0.4,2.6,0.4,4.1v13.7H475.5z"/>
<path class="st0" d="M491.2,73.5c-1.6,0-3.1-0.3-4.4-1s-2.5-1.5-3.4-2.6c-1-1.1-1.7-2.4-2.2-3.8s-0.8-2.9-0.8-4.4
	c0-1.6,0.3-3.1,0.8-4.6s1.3-2.7,2.2-3.8c0.9-1.1,2.1-2,3.4-2.6s2.8-1,4.4-1c2,0,3.7,0.5,5.2,1.5s2.7,2.2,3.7,3.8v-5h2.7v23.2
	c0,1.6-0.3,3-0.9,4.2s-1.4,2.3-2.4,3.1s-2.2,1.5-3.6,1.9s-2.8,0.6-4.4,0.6c-2.7,0-4.8-0.5-6.4-1.4s-2.9-2.2-4-3.8l1.9-1.5
	c0.9,1.5,2.1,2.6,3.6,3.3c1.5,0.7,3.1,1,4.9,1c1.1,0,2.2-0.2,3.2-0.5s1.9-0.8,2.6-1.4c0.8-0.6,1.4-1.4,1.8-2.3s0.7-2,0.7-3.3v-4.6
	c-0.9,1.5-2.1,2.7-3.6,3.5C494.5,73.1,492.9,73.5,491.2,73.5z M492,71c0.9,0,1.8-0.2,2.6-0.5c0.9-0.3,1.6-0.8,2.3-1.3
	s1.3-1.2,1.8-1.8c0.5-0.7,0.8-1.4,0.9-2.1v-7.2c-0.3-0.8-0.8-1.6-1.3-2.3c-0.6-0.7-1.2-1.3-1.9-1.8c-0.7-0.5-1.5-0.9-2.3-1.2
	s-1.6-0.4-2.5-0.4c-1.3,0-2.5,0.3-3.5,0.8s-1.9,1.3-2.6,2.2s-1.3,1.9-1.6,3c-0.4,1.1-0.6,2.3-0.6,3.4c0,1.2,0.2,2.4,0.7,3.6
	c0.4,1.1,1.1,2.1,1.8,3s1.7,1.5,2.7,2C489.7,70.7,490.8,71,492,71z"/>
<g>
	<g>
		
			<linearGradient id="SVGID_1_" gradientUnits="userSpaceOnUse" x1="108.2012" y1="-1014.6452" x2="202.4124" y2="-1154.4835" gradientTransform="matrix(1 0 0 1 0 1188)">
			<stop  offset="0" style="stop-color:#AFE200"/>
			<stop  offset="1" style="stop-color:#FFF100"/>
		</linearGradient>
		<path class="st1" d="M117.8,62.7c1.8,8.1,3.2,15.7,4.9,23.8L160.4,49v64.5l-8.8-8.8L137.3,119l43.3,43.3V0L117.8,62.7z"/>
	</g>
	<g>
		
			<linearGradient id="SVGID_2_" gradientUnits="userSpaceOnUse" x1="91.4086" y1="-971.7995" x2="-11.3487" y2="-1191.8341" gradientTransform="matrix(1 0 0 1 0 1188)">
			<stop  offset="0" style="stop-color:#AFE200"/>
			<stop  offset="0.1104" style="stop-color:#B8E400"/>
			<stop  offset="1" style="stop-color:#FFF100"/>
		</linearGradient>
		<path class="st2" d="M11.7,0v162.6L32,142.3l0,0v-39.1l0,0V49l37.5,37.5c1.6-8.1,3.2-15.5,4.9-23.8L11.7,0z"/>
	</g>
</g>
<path class="st0" d="M274.4,115.5c1.6,0,3-0.3,4.1-0.9c1.1-0.6,2-1.4,2.6-2.5s1.1-2.2,1.4-3.5c0.3-1.3,0.4-2.6,0.4-3.9V91.5h2.6
	v13.2c0,1.8-0.2,3.4-0.6,5c-0.4,1.6-1,3-1.9,4.2c-0.9,1.2-2,2.2-3.4,2.9c-1.4,0.7-3.1,1.1-5.1,1.1c-2.1,0-3.8-0.4-5.2-1.1
	c-1.4-0.7-2.5-1.7-3.4-3c-0.9-1.2-1.5-2.6-1.8-4.2c-0.4-1.6-0.6-3.2-0.6-4.9V91.5h2.5v13.2c0,1.4,0.1,2.7,0.4,4
	c0.3,1.3,0.7,2.5,1.4,3.5c0.7,1,1.5,1.8,2.6,2.4C271.4,115.2,272.8,115.5,274.4,115.5z"/>
<path class="st0" d="M291.6,117.6V91.5h2.6v26.1H291.6z"/>
<path class="st0" d="M318.6,91.5l-17.4,26.1h-2.8l17.4-26.1H318.6z"/>
<path class="st0" d="M333.5,115.5c1.6,0,3-0.3,4.1-0.9c1.1-0.6,2-1.4,2.6-2.5c0.7-1,1.1-2.2,1.4-3.5c0.3-1.3,0.4-2.6,0.4-3.9V91.5
	h2.6v13.2c0,1.8-0.2,3.4-0.6,5s-1,3-1.9,4.2c-0.9,1.2-2,2.2-3.4,2.9c-1.4,0.7-3.1,1.1-5.1,1.1c-2.1,0-3.8-0.4-5.2-1.1
	c-1.4-0.7-2.5-1.7-3.4-3c-0.9-1.2-1.5-2.6-1.8-4.2c-0.4-1.6-0.6-3.2-0.6-4.9V91.5h2.5v13.2c0,1.4,0.1,2.7,0.4,4
	c0.3,1.3,0.7,2.5,1.4,3.5c0.7,1,1.5,1.8,2.6,2.4C330.6,115.2,331.9,115.5,333.5,115.5z"/>
<path class="st0" d="M350.5,91.5l8.6,11.4l8.6-11.4h2.8l-10.1,13.3l9.8,12.9h-2.8l-8.3-11l-8.3,11h-2.9l9.8-12.9l-10.1-13.3H350.5z"
	/>
<path class="st0" d="M382.9,117.6V91.5h8.9c2.1,0,3.9,0.3,5.5,1c1.6,0.7,2.9,1.6,3.9,2.8c1,1.2,1.8,2.6,2.4,4.1
	c0.5,1.6,0.8,3.3,0.8,5.1c0,2-0.3,3.8-0.9,5.4c-0.6,1.6-1.4,3-2.5,4.1c-1.1,1.1-2.4,2-3.9,2.7c-1.5,0.6-3.3,0.9-5.2,0.9H382.9z
	 M401.7,104.5c0-1.6-0.2-3-0.7-4.3c-0.4-1.3-1.1-2.4-1.9-3.4c-0.8-1-1.9-1.7-3.1-2.2c-1.2-0.5-2.6-0.8-4.2-0.8h-6.3v21.6h6.3
	c1.6,0,3-0.3,4.3-0.8c1.2-0.6,2.3-1.3,3.1-2.3c0.8-1,1.5-2.1,1.9-3.4C401.5,107.5,401.7,106.1,401.7,104.5z"/>
<path class="st0" d="M417,118c-1.4,0-2.7-0.3-3.8-0.8c-1.2-0.5-2.2-1.3-3-2.2c-0.9-0.9-1.5-2-2-3.2c-0.5-1.2-0.7-2.5-0.7-3.9
	c0-1.4,0.2-2.6,0.7-3.8c0.5-1.2,1.1-2.2,2-3.1c0.8-0.9,1.9-1.6,3-2.1c1.2-0.5,2.5-0.8,3.8-0.8c1.4,0,2.7,0.3,3.8,0.8
	c1.2,0.5,2.2,1.2,3,2.2c0.8,0.9,1.5,2,2,3.1c0.5,1.2,0.7,2.4,0.7,3.8c0,0.2,0,0.4,0,0.6c0,0.2,0,0.3,0,0.4H410c0.1,1,0.3,2,0.7,2.9
	c0.4,0.9,0.9,1.6,1.6,2.3c0.6,0.6,1.4,1.1,2.2,1.5c0.8,0.4,1.7,0.5,2.6,0.5c0.6,0,1.2-0.1,1.8-0.3c0.6-0.2,1.2-0.4,1.7-0.7
	c0.5-0.3,1-0.7,1.4-1.1c0.4-0.4,0.7-0.9,1-1.4l2.2,0.6c-0.3,0.7-0.7,1.4-1.3,1.9c-0.5,0.6-1.2,1.1-1.9,1.5c-0.7,0.4-1.5,0.8-2.4,1
	C418.9,117.9,418,118,417,118z M424.1,107c-0.1-1-0.3-2-0.7-2.8c-0.4-0.8-0.9-1.6-1.5-2.2c-0.6-0.6-1.4-1.1-2.2-1.4
	c-0.8-0.3-1.7-0.5-2.6-0.5s-1.8,0.2-2.7,0.5c-0.8,0.3-1.6,0.8-2.2,1.4c-0.6,0.6-1.1,1.4-1.5,2.2s-0.6,1.8-0.7,2.8H424.1z"/>
<path class="st0" d="M436.7,118c-1.5,0-3-0.2-4.4-0.7c-1.4-0.5-2.7-1.2-3.7-2.1l1.1-1.7c1.1,0.9,2.2,1.5,3.3,2
	c1.1,0.4,2.3,0.7,3.6,0.7c1.5,0,2.8-0.3,3.7-0.9c0.9-0.6,1.4-1.5,1.4-2.7c0-0.5-0.1-1-0.4-1.3c-0.2-0.4-0.6-0.7-1.1-0.9
	c-0.5-0.3-1.1-0.5-1.8-0.7s-1.6-0.4-2.5-0.6c-1.1-0.3-2.1-0.5-2.9-0.8c-0.8-0.3-1.5-0.6-2-0.9c-0.5-0.3-0.9-0.8-1.2-1.3
	c-0.3-0.5-0.4-1.1-0.4-1.9c0-1,0.2-1.8,0.6-2.5c0.4-0.7,0.9-1.3,1.5-1.8s1.4-0.8,2.3-1.1c0.9-0.2,1.8-0.4,2.8-0.4
	c1.5,0,2.8,0.2,4,0.7c1.2,0.5,2.2,1.1,2.9,1.9l-1.2,1.5c-0.7-0.7-1.6-1.3-2.6-1.7c-1-0.4-2.1-0.6-3.2-0.6c-0.7,0-1.3,0.1-1.8,0.2
	c-0.6,0.1-1.1,0.3-1.5,0.6c-0.4,0.3-0.8,0.7-1,1.1c-0.2,0.5-0.4,1-0.4,1.6c0,0.5,0.1,0.9,0.3,1.3c0.2,0.3,0.5,0.6,0.8,0.8
	c0.4,0.2,0.9,0.4,1.5,0.6c0.6,0.2,1.3,0.4,2.2,0.6c1.2,0.3,2.3,0.6,3.2,0.9c0.9,0.3,1.7,0.6,2.3,1c0.6,0.4,1.1,0.9,1.4,1.4
	c0.3,0.6,0.5,1.3,0.5,2.1c0,1.8-0.7,3.2-2,4.2C440.8,117.5,439,118,436.7,118z"/>
<path class="st0" d="M448.3,94.4v-3.7h2.5v3.7H448.3z M448.3,117.6V98.5h2.5v19.2H448.3z"/>
<path class="st0" d="M464,117.9c-1.3,0-2.5-0.3-3.6-0.8c-1.1-0.6-2-1.3-2.8-2.2c-0.8-0.9-1.4-2-1.9-3.1c-0.4-1.2-0.7-2.4-0.7-3.6
	c0-1.3,0.2-2.6,0.6-3.8c0.4-1.2,1-2.3,1.8-3.2c0.8-0.9,1.7-1.6,2.8-2.2c1.1-0.5,2.3-0.8,3.6-0.8c1.6,0,3.1,0.4,4.3,1.2
	c1.2,0.8,2.2,1.9,3.1,3.1v-4h2.2v19.3c0,1.3-0.3,2.5-0.8,3.5s-1.2,1.9-2,2.6c-0.8,0.7-1.8,1.2-3,1.5c-1.1,0.3-2.4,0.5-3.6,0.5
	c-2.2,0-4-0.4-5.3-1.2c-1.4-0.8-2.4-1.8-3.3-3.2l1.5-1.2c0.8,1.2,1.8,2.1,3,2.7c1.3,0.6,2.6,0.9,4,0.9c0.9,0,1.8-0.1,2.7-0.4
	c0.8-0.3,1.6-0.6,2.2-1.1c0.6-0.5,1.1-1.1,1.5-1.9c0.4-0.8,0.6-1.7,0.6-2.7v-3.8c-0.7,1.2-1.7,2.2-3,2.9
	C466.7,117.5,465.4,117.9,464,117.9z M464.7,115.8c0.7,0,1.5-0.1,2.2-0.4c0.7-0.3,1.4-0.6,1.9-1.1c0.6-0.5,1.1-1,1.5-1.5
	c0.4-0.6,0.7-1.1,0.8-1.7v-5.9c-0.3-0.7-0.6-1.3-1.1-1.9s-1-1.1-1.6-1.5c-0.6-0.4-1.2-0.7-1.9-1c-0.7-0.2-1.4-0.4-2-0.4
	c-1.1,0-2,0.2-2.9,0.7c-0.8,0.5-1.6,1-2.2,1.8c-0.6,0.7-1,1.6-1.3,2.5c-0.3,0.9-0.5,1.9-0.5,2.8c0,1,0.2,2,0.6,2.9
	c0.4,0.9,0.9,1.7,1.5,2.4c0.7,0.7,1.4,1.3,2.3,1.7C462.8,115.6,463.7,115.8,464.7,115.8z"/>
<path class="st0" d="M495.2,117.6h-2.5v-10.7c0-2.3-0.3-3.9-1-5c-0.7-1-1.7-1.5-3.1-1.5c-0.7,0-1.5,0.1-2.2,0.4
	c-0.7,0.3-1.4,0.7-2,1.1c-0.6,0.5-1.2,1.1-1.7,1.7c-0.5,0.7-0.8,1.4-1.1,2.2v11.7h-2.5V98.5h2.3v4.3c0.8-1.4,1.9-2.5,3.4-3.4
	c1.5-0.9,3-1.3,4.8-1.3c1.1,0,2,0.2,2.7,0.6c0.7,0.4,1.3,0.9,1.8,1.7c0.4,0.7,0.8,1.6,1,2.6c0.2,1,0.3,2.2,0.3,3.4V117.6z"/>
<path class="st0" d="M508.8,118c-1.4,0-2.7-0.3-3.8-0.8c-1.2-0.5-2.2-1.3-3-2.2c-0.9-0.9-1.5-2-2-3.2c-0.5-1.2-0.7-2.5-0.7-3.9
	c0-1.4,0.2-2.6,0.7-3.8c0.5-1.2,1.1-2.2,2-3.1c0.8-0.9,1.9-1.6,3-2.1c1.2-0.5,2.5-0.8,3.8-0.8c1.4,0,2.7,0.3,3.8,0.8
	c1.2,0.5,2.2,1.2,3,2.2c0.8,0.9,1.5,2,2,3.1c0.5,1.2,0.7,2.4,0.7,3.8c0,0.2,0,0.4,0,0.6c0,0.2,0,0.3,0,0.4h-16.4
	c0.1,1,0.3,2,0.7,2.9c0.4,0.9,0.9,1.6,1.6,2.3c0.6,0.6,1.4,1.1,2.2,1.5c0.8,0.4,1.7,0.5,2.6,0.5c0.6,0,1.2-0.1,1.8-0.3
	c0.6-0.2,1.2-0.4,1.7-0.7s1-0.7,1.4-1.1c0.4-0.4,0.7-0.9,1-1.4l2.2,0.6c-0.3,0.7-0.7,1.4-1.3,1.9c-0.5,0.6-1.2,1.1-1.9,1.5
	c-0.7,0.4-1.5,0.8-2.4,1C510.6,117.9,509.7,118,508.8,118z M515.9,107c-0.1-1-0.3-2-0.7-2.8c-0.4-0.8-0.9-1.6-1.5-2.2
	s-1.4-1.1-2.2-1.4c-0.8-0.3-1.7-0.5-2.6-0.5s-1.8,0.2-2.7,0.5c-0.8,0.3-1.6,0.8-2.2,1.4c-0.6,0.6-1.1,1.4-1.5,2.2
	c-0.4,0.9-0.6,1.8-0.7,2.8H515.9z"/>
<path class="st0" d="M531.7,100.7c-1.7,0-3.2,0.5-4.4,1.4c-1.3,0.9-2.1,2.1-2.7,3.6v11.9h-2.5V98.5h2.4v4.6c0.7-1.5,1.7-2.6,2.9-3.5
	c1.2-0.8,2.5-1.3,3.9-1.3c0.2,0,0.4,0,0.5,0V100.7z"/>
</svg>
