<?xml version="1.0" encoding="utf-8"?>
<!-- Generator: Adobe Illustrator 22.1.0, SVG Export Plug-In . SVG Version: 6.00 Build 0)  -->
<svg version="1.1" id="Capa_1" xmlns="http://www.w3.org/2000/svg" xmlns:xlink="http://www.w3.org/1999/xlink" x="0px" y="0px"
	 viewBox="0 0 396.7 396.7" style="enable-background:new 0 0 396.7 396.7;" xml:space="preserve">
<style type="text/css">
	.st0{fill:#9E9E9E;}
</style>
<g>
	<g>
		<path class="st0" d="M17,87.8h362.7c9.4,0,17-7.7,17-17s-7.6-17-17-17H17c-9.4,0-17,7.7-17,17S7.7,87.8,17,87.8z"/>
		<path class="st0" d="M17,215.3h362.7c9.4,0,17-7.6,17-17s-7.6-17-17-17H17c-9.4,0-17,7.6-17,17S7.7,215.3,17,215.3z"/>
		<path class="st0" d="M17,342.8h362.7c9.4,0,17-7.6,17-17s-7.6-17-17-17H17c-9.4,0-17,7.6-17,17S7.7,342.8,17,342.8z"/>
	</g>
</g>
</svg>
