<?xml version="1.0" encoding="utf-8"?>
<!-- Generator: Adobe Illustrator 22.1.0, SVG Export Plug-In . SVG Version: 6.00 Build 0)  -->
<svg version="1.1" id="图层_1" xmlns="http://www.w3.org/2000/svg" xmlns:xlink="http://www.w3.org/1999/xlink" x="0px" y="0px"
	 viewBox="0 0 580.9 371.7" style="enable-background:new 0 0 580.9 371.7;" xml:space="preserve">
<style type="text/css">
	.st0{fill:#A8CE38;}
	.st1{fill:#FFC910;}
	.st2{fill:#834C9E;}
	.st3{fill:#F26924;}
	.st4{enable-background:new    ;}
	.st5{fill:#FFFFFF;}
	.st6{fill:#7F7F7F;}
	.st7{fill:#E01B8D;}
	.st8{fill:#F69321;}
	.st9{fill:#F9EB06;}
	.st10{fill:#00AE70;}
</style>
<title>pj1_3</title>
<g>
	<path class="st0" d="M129.3,248.4c-19.2,19.2-19.2,50.4,0,69.6l34.8-34.8L129.3,248.4z"/>
</g>
<g>
	<path class="st1" d="M212.4,235.2c-19.2-19.2-50.4-19.2-69.6,0l34.8,34.8L212.4,235.2z"/>
</g>
<g>
	<path class="st2" d="M142.8,331c19.2,19.2,50.4,19.2,69.6,0l-34.8-34.8L142.8,331z"/>
</g>
<g>
	<path class="st3" d="M225.4,248.4l-34.8,34.8l34.8,34.8C244.6,298.8,244.6,267.6,225.4,248.4z"/>
</g>
<g class="st4">
	<path class="st5" d="M150.7,250.5v-18.9h0.7v18.2h10.2v0.8H150.7z"/>
	<path class="st5" d="M164.7,250.5v-18.9h10.9v0.6h-10.1v8.5h7.1v0.6h-7.1v8.6h10.1v0.6H164.7z"/>
	<path class="st5" d="M190.5,245.3c0,3.5-2.7,5.5-5.9,5.5c-2.2,0-4.5-0.9-5.9-2.7l0.7-0.4c1.2,1.6,3.2,2.3,5.1,2.3
		c2.8,0,5.2-1.5,5.2-4.6c0-5.9-11.3-2.3-11.3-9c0-3.5,2.7-5,5.9-5c2.3,0,4.5,1,5.8,2.9l-0.6,0.4c-1.1-1.7-3-2.6-5.1-2.6
		c-2.8,0-5.3,1.1-5.3,4.1C179.1,242.2,190.5,238.6,190.5,245.3z"/>
	<path class="st5" d="M204.7,245.3c0,3.5-2.7,5.5-5.9,5.5c-2.2,0-4.5-0.9-5.9-2.7l0.7-0.4c1.2,1.6,3.2,2.3,5.1,2.3
		c2.8,0,5.2-1.5,5.2-4.6c0-5.9-11.3-2.3-11.3-9c0-3.5,2.7-5,5.9-5c2.3,0,4.5,1,5.8,2.9l-0.6,0.4c-1.1-1.7-3-2.6-5.1-2.6
		c-2.8,0-5.3,1.1-5.3,4.1C193.4,242.2,204.7,238.6,204.7,245.3z"/>
</g>
<g class="st4">
	<path class="st5" d="M160.8,336H160v-16.4l-6.9,11.8l-6.9-11.8V336h-0.7v-18.9h0.1l7.5,12.9l7.5-12.9l0.2,0L160.8,336z"/>
	<path class="st5" d="M164.2,326.6c0-5.5,3.8-9.7,8.9-9.7c5.1,0,8.9,4.1,8.9,9.7c0,5.5-3.9,9.7-8.9,9.7
		C168,336.3,164.2,332.1,164.2,326.6z M164.9,326.6c0,5.1,3.5,8.9,8.1,8.9c4.6,0,8.1-3.8,8.1-8.9c0-5.1-3.5-8.9-8.1-8.9
		C168.4,317.7,164.9,321.5,164.9,326.6z"/>
	<path class="st5" d="M194.7,336c-1.3-2.5-2.6-5.2-4.5-9.1h-5.1v9.1h-0.7v-18.9h6c2.7,0,4.8,2.3,4.8,4.9c0,2.4-1.8,4.5-4.3,4.9
		l4.5,9.1H194.7z M185.1,317.8v8.4h5.3c2.3,0,4.1-1.8,4.1-4.1c0-2.3-1.8-4.2-4.1-4.2H185.1z"/>
	<path class="st5" d="M198.3,336v-18.9h10.9v0.6H199v8.5h7.1v0.6H199v8.6h10.1v0.6H198.3z"/>
</g>
<g>
	<path class="st0" d="M355.5,238.4c-19.2,19.2-19.2,50.4,0,69.6l34.8-34.8L355.5,238.4z"/>
</g>
<g>
	<path class="st1" d="M448.6,235.2c-19.2-19.2-50.4-19.2-69.6,0l34.8,34.8L448.6,235.2z"/>
</g>
<g>
	<path class="st2" d="M359,331c19.2,19.2,50.4,19.2,69.6,0l-34.8-34.8L359,331z"/>
</g>
<g>
	<path class="st3" d="M451.6,258.4l-34.8,34.8l34.8,34.8C470.8,308.8,470.8,277.6,451.6,258.4L451.6,258.4z"/>
</g>
<g class="st4">
	<path class="st5" d="M398.1,244.3v-12.6h0.5v12.1h6.8v0.5H398.1z"/>
	<path class="st5" d="M407.4,244.3v-12.6h7.3v0.4h-6.8v5.7h4.8v0.4h-4.8v5.8h6.8v0.4H407.4z"/>
	<path class="st5" d="M424.6,240.8c0,2.3-1.8,3.6-3.9,3.6c-1.5,0-3-0.6-3.9-1.8l0.4-0.3c0.8,1.1,2.1,1.6,3.4,1.6
		c1.8,0,3.5-1,3.5-3.1c0-4-7.6-1.6-7.6-6c0-2.3,1.8-3.3,3.9-3.3c1.6,0,3,0.6,3.9,1.9l-0.4,0.3c-0.8-1.1-2-1.7-3.4-1.7
		c-1.8,0-3.5,0.7-3.5,2.7C417,238.8,424.6,236.4,424.6,240.8z"/>
	<path class="st5" d="M434.1,240.8c0,2.3-1.8,3.6-3.9,3.6c-1.5,0-3-0.6-3.9-1.8l0.4-0.3c0.8,1.1,2.1,1.6,3.4,1.6
		c1.8,0,3.5-1,3.5-3.1c0-4-7.6-1.6-7.6-6c0-2.3,1.8-3.3,3.9-3.3c1.6,0,3,0.6,3.9,1.9l-0.4,0.3c-0.8-1.1-2-1.7-3.4-1.7
		c-1.8,0-3.5,0.7-3.5,2.7C426.5,238.8,434.1,236.4,434.1,240.8z"/>
</g>
<g class="st4">
	<path class="st5" d="M383.9,335.8h-0.5v-10.9l-4.6,7.8l-4.6-7.8v10.9h-0.5v-12.6h0.1l5,8.6l5-8.6l0.1,0L383.9,335.8z"/>
	<path class="st5" d="M386.1,329.5c0-3.7,2.6-6.4,5.9-6.4s6,2.8,6,6.4c0,3.7-2.6,6.4-6,6.4S386.1,333.2,386.1,329.5z M386.7,329.5
		c0,3.4,2.3,5.9,5.4,5.9s5.4-2.5,5.4-5.9c0-3.4-2.3-5.9-5.4-5.9S386.7,326.1,386.7,329.5z"/>
	<path class="st5" d="M406.5,335.8c-0.9-1.6-1.7-3.4-3-6h-3.4v6h-0.5v-12.6h4c1.8,0,3.2,1.5,3.2,3.3c0,1.6-1.2,3-2.9,3.3l3,6.1
		H406.5z M400.1,323.7v5.6h3.6c1.5,0,2.7-1.2,2.7-2.8c0-1.6-1.2-2.8-2.7-2.8H400.1z"/>
	<path class="st5" d="M408.9,335.8v-12.6h7.3v0.4h-6.8v5.7h4.8v0.4h-4.8v5.8h6.8v0.4H408.9z"/>
</g>
<g class="st4">
	<path class="st6" d="M400.1,277.7h0.5v1.3h-0.5V277.7z M400.2,280.6h0.5v8.5h-0.5V280.6z"/>
</g>
<g class="st4">
	<path class="st6" d="M408.6,286.9c0,1.3-0.9,2.3-3,2.3c-1.1,0-2-0.2-2.8-0.5v-0.5c0.8,0.3,1.7,0.6,2.8,0.6c1.7,0,2.5-0.8,2.5-1.8
		c0-2.8-5.1-1.2-5.1-4.2c0-1.2,0.8-2.2,2.7-2.2c0.9,0,1.7,0.2,2.4,0.5v0.5c-0.6-0.3-1.5-0.5-2.4-0.5c-1.4,0-2.3,0.6-2.3,1.7
		C403.4,285.2,408.6,283.6,408.6,286.9z"/>
</g>
<g class="st4">
	<path class="st6" d="M173.9,277.7h0.5v1.3h-0.5V277.7z M173.9,280.6h0.5v8.5h-0.5V280.6z"/>
</g>
<g class="st4">
	<path class="st6" d="M182.3,286.9c0,1.3-0.9,2.3-3,2.3c-1.1,0-2-0.2-2.8-0.5v-0.5c0.8,0.3,1.7,0.6,2.8,0.6c1.7,0,2.5-0.8,2.5-1.8
		c0-2.8-5.1-1.2-5.1-4.2c0-1.2,0.8-2.2,2.7-2.2c0.9,0,1.7,0.2,2.4,0.5v0.5c-0.6-0.3-1.5-0.5-2.4-0.5c-1.4,0-2.3,0.6-2.3,1.7
		C177.2,285.2,182.3,283.6,182.3,286.9z"/>
</g>
<g>
	<path class="st0" d="M131.3,46.8c-19.2,19.2-19.2,50.4,0,69.6l34.8-34.8L131.3,46.8z"/>
</g>
<g>
	<path class="st1" d="M211.8,36c-19.2-19.2-50.4-19.2-69.6,0l34.8,34.8L211.8,36z"/>
</g>
<g>
	<path class="st2" d="M142.1,127.2c19.2,19.2,50.4,19.2,69.6,0l-34.8-34.8L142.1,127.2z"/>
</g>
<g>
	<path class="st3" d="M222.6,46.8l-34.8,34.8l34.8,34.8C241.8,97.2,241.8,66,222.6,46.8L222.6,46.8z"/>
</g>
<g class="st4">
	<path class="st5" d="M162.6,46.2V29.7h0.6v16.6H162.6z"/>
	<path class="st5" d="M175.1,42h-8.4c0.2,2.2,1.8,3.7,3.8,3.7c1,0,2.2-0.1,3-0.9l0.5,0.5c-1,0.8-2.3,1-3.5,1c-1.1,0-2.3-0.4-3.1-1.2
		c-1-0.9-1.3-2.1-1.3-3.4c0-2.6,1.8-4.7,4.5-4.7c1.3,0,2.5,0.6,3.4,1.5v0c0.8,0.9,1.3,2,1.2,3.1L175.1,42z M166.6,41.4h7.8
		c-0.2-2.1-1.9-3.7-4-3.7C168.4,37.6,166.8,39.2,166.6,41.4z"/>
	<path class="st5" d="M177.3,44.9l0.5-0.4c0.6,0.7,1.6,1.2,2.5,1.2c1.2,0,2.4-0.6,2.4-2c0-2.7-5.4-1-5.4-4.3c0-1.8,1.3-2.7,3-2.7
		c1.2,0,2.3,0.6,2.9,1.6l-0.5,0.3c-0.5-0.8-1.4-1.3-2.4-1.3c-1.2,0-2.4,0.6-2.4,2c0,2.7,5.4,1,5.4,4.3c0,1.8-1.4,2.7-3,2.7
		C179.2,46.3,178,45.8,177.3,44.9z"/>
	<path class="st5" d="M185.7,44.9l0.5-0.4c0.6,0.7,1.6,1.2,2.5,1.2c1.2,0,2.4-0.6,2.4-2c0-2.7-5.4-1-5.4-4.3c0-1.8,1.3-2.7,3-2.7
		c1.2,0,2.3,0.6,2.9,1.6l-0.5,0.3c-0.5-0.8-1.4-1.3-2.4-1.3c-1.2,0-2.4,0.6-2.4,2c0,2.7,5.4,1,5.4,4.3c0,1.8-1.4,2.7-3,2.7
		C187.6,46.3,186.4,45.8,185.7,44.9z"/>
</g>
<g class="st4">
	<path class="st5" d="M169.3,127.9v-5.1c0-1.2-0.9-2.1-2.1-2.1c-1.2,0-2.3,0.8-2.3,2v5.3h-0.5v-5.2c0-1.2-0.8-2.1-2-2.1
		c-1.2,0-2.5,0.7-2.5,1.8v5.4h-0.5v-7.8h0.5v1.1c0.7-0.8,1.7-1.1,2.5-1.1c1,0,1.7,0.6,2.3,1.5c0.5-1,1.5-1.5,2.5-1.5
		c1.5,0,2.6,1.2,2.6,2.6v5.1H169.3z"/>
	<path class="st5" d="M171.9,124c0-2.2,1.5-4.1,3.8-4.1s3.8,1.9,3.8,4.1c0,2.3-1.5,4-3.8,4S171.9,126.2,171.9,124z M172.4,124
		c0,1.9,1.3,3.5,3.2,3.5c1.9,0,3.2-1.6,3.2-3.5c0-1.9-1.3-3.6-3.2-3.6C173.7,120.4,172.4,122,172.4,124z"/>
	<path class="st5" d="M181.9,127.9h-0.5v-8h0.5v2c0.8-1.3,2-2,3.4-2v0.5c-1.9,0.1-3.4,1.7-3.4,3.5V127.9z"/>
	<path class="st5" d="M194.8,124.3h-7.2c0.2,1.9,1.5,3.2,3.3,3.2c0.8,0,1.9-0.1,2.6-0.7l0.4,0.4c-0.9,0.7-2,0.9-3,0.9
		c-1,0-2-0.3-2.7-1c-0.8-0.8-1.1-1.8-1.1-2.9c0-2.2,1.6-4,3.8-4c1.1,0,2.1,0.5,2.9,1.3v0c0.7,0.8,1.1,1.7,1,2.7L194.8,124.3z
		 M187.6,123.8h6.7c-0.2-1.8-1.7-3.2-3.4-3.2C189.1,120.6,187.8,121.9,187.6,123.8z"/>
</g>
<g>
	<path class="st0" d="M357.6,46.8c-19.2,19.2-19.2,50.4,0,69.6l34.8-34.8L357.6,46.8z"/>
</g>
<g>
	<path class="st1" d="M438,36c-19.2-19.2-50.4-19.2-69.6,0l34.8,34.8L438,36z"/>
</g>
<g>
	<path class="st2" d="M368.4,127.2c19.2,19.2,50.4,19.2,69.6,0l-34.8-34.8L368.4,127.2z"/>
</g>
<g>
	<path class="st3" d="M448.8,46.8L414,81.6l34.8,34.8C468,97.2,468,66,448.8,46.8L448.8,46.8z"/>
</g>
<g class="st4">
	<path class="st5" d="M385.3,45.7V33.1h0.5v12.1h6.8v0.5H385.3z"/>
	<path class="st5" d="M394.6,45.7V33.1h7.3v0.4h-6.8v5.7h4.8v0.4h-4.8v5.8h6.8v0.4H394.6z"/>
	<path class="st5" d="M411.8,42.2c0,2.3-1.8,3.6-3.9,3.6c-1.5,0-3-0.6-3.9-1.8l0.4-0.3c0.8,1.1,2.1,1.6,3.4,1.6c1.8,0,3.5-1,3.5-3.1
		c0-4-7.6-1.6-7.6-6c0-2.3,1.8-3.3,3.9-3.3c1.6,0,3,0.6,3.9,1.9l-0.4,0.3c-0.8-1.1-2-1.7-3.4-1.7c-1.8,0-3.5,0.7-3.5,2.7
		C404.2,40.2,411.8,37.8,411.8,42.2z"/>
	<path class="st5" d="M421.3,42.2c0,2.3-1.8,3.6-3.9,3.6c-1.5,0-3-0.6-3.9-1.8l0.4-0.3c0.8,1.1,2.1,1.6,3.4,1.6c1.8,0,3.5-1,3.5-3.1
		c0-4-7.6-1.6-7.6-6c0-2.3,1.8-3.3,3.9-3.3c1.6,0,3,0.6,3.9,1.9l-0.4,0.3c-0.8-1.1-2-1.7-3.4-1.7c-1.8,0-3.5,0.7-3.5,2.7
		C413.7,40.2,421.3,37.8,421.3,42.2z"/>
</g>
<g class="st4">
	<path class="st5" d="M392,130.8h-0.5v-10.9l-4.6,7.8l-4.6-7.8v10.9h-0.5v-12.6h0.1l5,8.6l5-8.6l0.1,0L392,130.8z"/>
	<path class="st5" d="M394.3,124.5c0-3.7,2.6-6.4,5.9-6.4s6,2.8,6,6.4c0,3.7-2.6,6.4-6,6.4S394.3,128.2,394.3,124.5z M394.8,124.5
		c0,3.4,2.3,5.9,5.4,5.9s5.4-2.5,5.4-5.9c0-3.4-2.3-5.9-5.4-5.9S394.8,121.1,394.8,124.5z"/>
	<path class="st5" d="M414.6,130.8c-0.9-1.6-1.7-3.4-3-6h-3.4v6h-0.5v-12.6h4c1.8,0,3.2,1.5,3.2,3.3c0,1.6-1.2,3-2.9,3.3l3,6.1
		H414.6z M408.2,118.7v5.6h3.6c1.5,0,2.7-1.2,2.7-2.8c0-1.6-1.2-2.8-2.7-2.8H408.2z"/>
	<path class="st5" d="M417,130.8v-12.6h7.3v0.4h-6.8v5.7h4.8v0.4h-4.8v5.8h6.8v0.4H417z"/>
</g>
<g class="st4">
	<path class="st6" d="M399.5,76.1h0.5v1.3h-0.5V76.1z M399.5,79h0.5v8.5h-0.5V79z"/>
</g>
<g class="st4">
	<path class="st6" d="M408,85.3c0,1.3-0.9,2.3-3,2.3c-1.1,0-2-0.2-2.8-0.5v-0.5c0.8,0.3,1.7,0.6,2.8,0.6c1.7,0,2.5-0.8,2.5-1.8
		c0-2.8-5.1-1.2-5.1-4.2c0-1.2,0.8-2.2,2.7-2.2c0.9,0,1.7,0.2,2.4,0.5v0.5c-0.6-0.3-1.5-0.5-2.4-0.5c-1.4,0-2.3,0.6-2.3,1.7
		C402.8,83.6,408,82.1,408,85.3z"/>
</g>
<g>
	<polygon class="st7" points="416.3,85.9 407.6,94.7 435.8,122.9 444.8,114.1 	"/>
</g>
<g>
	
		<rect x="406.1" y="52.6" transform="matrix(0.7071 -0.7071 0.7071 0.7071 83.2045 318.4529)" class="st8" width="39.9" height="12.4"/>
</g>
<g>
	
		<rect x="374.2" y="38.9" transform="matrix(0.7071 -0.7071 0.7071 0.7071 69.8324 286.1946)" class="st9" width="12.4" height="39.9"/>
</g>
<g>
	<polygon class="st10" points="390.1,85.9 398.8,94.7 370.6,122.9 361.6,114.1 	"/>
</g>
<g>
	<circle class="st5" cx="177.3" cy="81.6" r="19.8"/>
</g>
<g class="st4">
	<path class="st6" d="M173.3,76.1h0.5v1.3h-0.5V76.1z M173.3,79h0.5v8.5h-0.5V79z"/>
</g>
<g class="st4">
	<path class="st6" d="M181.7,85.3c0,1.3-0.9,2.3-3,2.3c-1.1,0-2-0.2-2.8-0.5v-0.5c0.8,0.3,1.7,0.6,2.8,0.6c1.7,0,2.5-0.8,2.5-1.8
		c0-2.8-5.1-1.2-5.1-4.2c0-1.2,0.8-2.2,2.7-2.2c0.9,0,1.7,0.2,2.4,0.5v0.5c-0.6-0.3-1.5-0.5-2.4-0.5c-1.4,0-2.3,0.6-2.3,1.7
		C176.6,83.6,181.7,82.1,181.7,85.3z"/>
</g>
</svg>
