<?xml version="1.0" encoding="utf-8"?>
<!-- Generator: Adobe Illustrator 22.1.0, SVG Export Plug-In . SVG Version: 6.00 Build 0)  -->
<svg version="1.1" id="图层_1" xmlns="http://www.w3.org/2000/svg" xmlns:xlink="http://www.w3.org/1999/xlink" x="0px" y="0px"
	 viewBox="0 0 674.6 359" style="enable-background:new 0 0 674.6 359;" xml:space="preserve">
<style type="text/css">
	.st0{enable-background:new    ;}
	.st1{fill:#38A338;}
</style>
<title>pj1_1</title>
<g class="st0">
	<path d="M93.3,39.6c-1.5,0-2.8-0.5-3.8-1.6c-1-1-1.5-2.3-1.5-3.9c0-1.6,0.5-2.9,1.5-3.9c1-1,2.3-1.6,3.8-1.6c1.1,0,2.1,0.3,2.9,0.8
		c0.8,0.6,1.3,1.3,1.7,2.1l-1.8,0.7c-0.5-1.3-1.5-1.9-2.9-1.9c-0.9,0-1.6,0.4-2.3,1.1s-1,1.6-1,2.7s0.3,2,1,2.7s1.4,1,2.3,1
		c1.4,0,2.4-0.6,3-1.9l1.7,0.7c-0.4,0.8-0.9,1.5-1.7,2.1C95.4,39.3,94.5,39.6,93.3,39.6z"/>
</g>
<g class="st0">
	<path d="M102.7,39.6c-1.1,0-2-0.3-2.7-0.9c-0.7-0.6-1.1-1.5-1.1-2.5c0-1.1,0.4-2,1.3-2.6c0.9-0.6,1.9-1,3.2-1
		c1.1,0,2.1,0.2,2.8,0.6v-0.3c0-0.8-0.3-1.4-0.8-1.8c-0.5-0.5-1.2-0.7-1.9-0.7c-0.6,0-1.1,0.1-1.5,0.4c-0.5,0.3-0.8,0.6-0.9,1.1
		l-1.8-0.8c0.2-0.6,0.7-1.2,1.4-1.7c0.7-0.5,1.6-0.8,2.8-0.8c1.3,0,2.4,0.4,3.3,1.2c0.9,0.8,1.3,1.9,1.3,3.3v6.2h-1.8v-1.4h-0.1
		C105.3,39,104.2,39.6,102.7,39.6z M103,37.8c0.8,0,1.5-0.3,2.2-0.9s1-1.3,1-2.1c-0.5-0.4-1.4-0.7-2.5-0.7c-0.9,0-1.6,0.2-2.1,0.6
		c-0.5,0.4-0.7,0.9-0.7,1.4c0,0.5,0.2,0.9,0.7,1.2S102.5,37.8,103,37.8z"/>
</g>
<g class="st0">
	<path d="M112.1,39.3h-1.9V29h1.8v1.7h0.1c0.2-0.6,0.6-1,1.2-1.4s1.2-0.5,1.8-0.5s1.1,0.1,1.4,0.3l-0.7,1.8c-0.3-0.1-0.6-0.1-1-0.1
		c-0.7,0-1.3,0.3-1.9,0.8c-0.5,0.6-0.8,1.3-0.8,2.2V39.3z"/>
</g>
<g class="st0">
	<path d="M123.4,39.6c-0.8,0-1.5-0.2-2.1-0.5s-1.1-0.8-1.4-1.3h-0.1v1.4h-1.8v-15h1.9V29l-0.1,1.4h0.1c0.3-0.5,0.8-0.9,1.4-1.3
		s1.3-0.5,2.1-0.5c1.3,0,2.5,0.5,3.4,1.6c1,1,1.4,2.4,1.4,3.9c0,1.6-0.5,2.9-1.4,3.9C125.9,39.1,124.7,39.6,123.4,39.6z M123.1,37.8
		c0.9,0,1.7-0.3,2.3-1s1-1.6,1-2.7s-0.3-2-1-2.7c-0.6-0.7-1.4-1-2.3-1c-0.9,0-1.7,0.3-2.3,1c-0.6,0.7-1,1.6-1,2.7c0,1.1,0.3,2,1,2.7
		C121.4,37.5,122.2,37.8,123.1,37.8z"/>
</g>
<g class="st0">
	<path d="M130.9,30.2c1-1,2.3-1.6,3.8-1.6s2.8,0.5,3.8,1.6c1,1,1.5,2.3,1.5,3.9c0,1.6-0.5,2.9-1.5,3.9c-1,1-2.3,1.6-3.8,1.6
		s-2.8-0.5-3.8-1.6c-1-1-1.5-2.3-1.5-3.9C129.4,32.6,129.9,31.3,130.9,30.2z M132.4,36.8c0.7,0.7,1.5,1,2.4,1s1.7-0.3,2.4-1
		c0.7-0.7,1-1.6,1-2.7s-0.3-2-1-2.7c-0.7-0.7-1.5-1-2.4-1s-1.7,0.3-2.4,1c-0.7,0.7-1,1.6-1,2.7S131.7,36.1,132.4,36.8z"/>
</g>
<g class="st0">
	<path d="M143.4,29v1.4h0.1c0.3-0.5,0.7-0.9,1.3-1.2c0.6-0.3,1.2-0.5,1.9-0.5c1.3,0,2.2,0.4,2.9,1.2c0.7,0.8,1,1.8,1,3.2v6.3h-1.9
		v-6c0-1.9-0.8-2.9-2.5-2.9c-0.8,0-1.4,0.3-2,1c-0.5,0.6-0.8,1.4-0.8,2.2v5.7h-1.9V29H143.4z"/>
	<path d="M153,33.6V32h6.7v1.6H153z"/>
	<path d="M166.7,39.6c-1.6,0-2.8-0.5-3.8-1.6s-1.5-2.3-1.5-3.9c0-1.5,0.5-2.8,1.4-3.9c0.9-1.1,2.2-1.6,3.6-1.6
		c1.5,0,2.7,0.5,3.7,1.5s1.4,2.3,1.4,4l0,0.4h-8.1c0.1,1,0.4,1.9,1,2.5c0.6,0.6,1.4,0.9,2.2,0.9c1.4,0,2.3-0.6,2.8-1.8l1.7,0.7
		c-0.3,0.8-0.9,1.5-1.7,2S167.8,39.6,166.7,39.6z M169.5,32.9c0-0.6-0.3-1.1-0.8-1.7c-0.5-0.5-1.2-0.8-2.2-0.8
		c-0.7,0-1.3,0.2-1.9,0.7c-0.5,0.4-0.9,1.1-1.1,1.8H169.5z"/>
	<path d="M173.3,39.3V29h1.8v1.4h0.1c0.3-0.5,0.7-0.9,1.4-1.2s1.2-0.5,1.8-0.5c1.6,0,2.7,0.7,3.3,2c0.8-1.3,2-2,3.6-2
		c1.2,0,2.1,0.4,2.8,1.2c0.6,0.8,0.9,1.8,0.9,3.2v6.3H187v-6c0-1-0.2-1.8-0.6-2.2c-0.4-0.4-1-0.7-1.7-0.7c-0.8,0-1.4,0.3-1.9,1
		c-0.5,0.6-0.7,1.4-0.7,2.2v5.7h-1.9v-6c0-1-0.2-1.8-0.6-2.2s-1-0.7-1.7-0.7c-0.8,0-1.4,0.3-1.9,1c-0.5,0.6-0.7,1.4-0.7,2.2v5.7
		H173.3z"/>
	<path d="M193.3,26.4c-0.3,0.3-0.6,0.4-1,0.4s-0.7-0.1-1-0.4c-0.3-0.3-0.4-0.6-0.4-1s0.1-0.7,0.4-1c0.3-0.3,0.6-0.4,1-0.4
		s0.7,0.1,1,0.4s0.4,0.6,0.4,1S193.6,26.1,193.3,26.4z M193.3,39.3h-1.9V29h1.9V39.3z"/>
	<path d="M199.6,39.6c-1.1,0-2.1-0.3-2.8-0.8s-1.3-1.3-1.6-2.1l1.7-0.7c0.5,1.3,1.5,1.9,2.8,1.9c0.6,0,1.1-0.1,1.5-0.4
		c0.4-0.3,0.6-0.6,0.6-1c0-0.7-0.5-1.1-1.4-1.4l-2.1-0.5c-0.7-0.2-1.3-0.5-1.9-1c-0.6-0.5-0.9-1.1-0.9-1.9c0-0.9,0.4-1.6,1.2-2.2
		c0.8-0.6,1.8-0.9,2.9-0.9c0.9,0,1.7,0.2,2.4,0.6c0.7,0.4,1.2,1,1.5,1.8l-1.7,0.7c-0.4-0.9-1.2-1.4-2.4-1.4c-0.6,0-1.1,0.1-1.4,0.4
		s-0.6,0.6-0.6,1c0,0.6,0.5,1,1.4,1.2l2,0.5c1,0.2,1.7,0.6,2.1,1.2s0.7,1.2,0.7,1.8c0,0.9-0.4,1.7-1.1,2.3S200.8,39.6,199.6,39.6z"
		/>
</g>
<g class="st0">
	<path d="M209.2,39.6c-1.1,0-2.1-0.3-2.8-0.8s-1.3-1.3-1.6-2.1l1.7-0.7c0.5,1.3,1.5,1.9,2.8,1.9c0.6,0,1.1-0.1,1.5-0.4
		c0.4-0.3,0.6-0.6,0.6-1c0-0.7-0.5-1.1-1.4-1.4l-2.1-0.5c-0.7-0.2-1.3-0.5-1.9-1c-0.6-0.5-0.9-1.1-0.9-1.9c0-0.9,0.4-1.6,1.2-2.2
		c0.8-0.6,1.8-0.9,2.9-0.9c0.9,0,1.7,0.2,2.4,0.6c0.7,0.4,1.2,1,1.5,1.8l-1.7,0.7c-0.4-0.9-1.2-1.4-2.4-1.4c-0.6,0-1.1,0.1-1.4,0.4
		s-0.6,0.6-0.6,1c0,0.6,0.5,1,1.4,1.2l2,0.5c1,0.2,1.7,0.6,2.1,1.2s0.7,1.2,0.7,1.8c0,0.9-0.4,1.7-1.1,2.3S210.4,39.6,209.2,39.6z"
		/>
	<path d="M216.9,26.4c-0.3,0.3-0.6,0.4-1,0.4s-0.7-0.1-1-0.4c-0.3-0.3-0.4-0.6-0.4-1s0.1-0.7,0.4-1c0.3-0.3,0.6-0.4,1-0.4
		s0.7,0.1,1,0.4s0.4,0.6,0.4,1S217.2,26.1,216.9,26.4z M216.9,39.3H215V29h1.9V39.3z"/>
</g>
<g class="st0">
	<path d="M220.2,30.2c1-1,2.3-1.6,3.8-1.6s2.8,0.5,3.8,1.6c1,1,1.5,2.3,1.5,3.9c0,1.6-0.5,2.9-1.5,3.9c-1,1-2.3,1.6-3.8,1.6
		s-2.8-0.5-3.8-1.6c-1-1-1.5-2.3-1.5-3.9C218.7,32.6,219.2,31.3,220.2,30.2z M221.7,36.8c0.7,0.7,1.5,1,2.4,1s1.7-0.3,2.4-1
		c0.7-0.7,1-1.6,1-2.7s-0.3-2-1-2.7c-0.7-0.7-1.5-1-2.4-1s-1.7,0.3-2.4,1c-0.7,0.7-1,1.6-1,2.7S221,36.1,221.7,36.8z"/>
</g>
<g class="st0">
	<path d="M232.7,29v1.4h0.1c0.3-0.5,0.7-0.9,1.3-1.2c0.6-0.3,1.2-0.5,1.9-0.5c1.3,0,2.2,0.4,2.9,1.2c0.7,0.8,1,1.8,1,3.2v6.3h-1.9
		v-6c0-1.9-0.8-2.9-2.5-2.9c-0.8,0-1.4,0.3-2,1c-0.5,0.6-0.8,1.4-0.8,2.2v5.7h-1.9V29H232.7z"/>
</g>
<g class="st0">
	<path d="M93.1,81.7c-1.2,0-2.2-0.3-3-0.9c-0.8-0.6-1.3-1.3-1.7-2.1l1.8-0.7c0.2,0.6,0.6,1,1.1,1.4s1.1,0.6,1.8,0.6
		c1.1,0,1.9-0.3,2.5-1c0.6-0.6,0.9-1.5,0.9-2.6v-1h-0.1c-0.3,0.5-0.8,0.9-1.4,1.3c-0.6,0.3-1.3,0.5-2.1,0.5c-1.3,0-2.5-0.5-3.4-1.6
		c-1-1-1.4-2.4-1.4-3.9c0-1.6,0.5-2.9,1.4-3.9c1-1,2.1-1.6,3.4-1.6c0.8,0,1.5,0.2,2.1,0.5c0.6,0.3,1.1,0.8,1.4,1.3h0.1v-1.4h1.8v9.8
		c0,1.8-0.5,3.1-1.5,4C95.8,81.3,94.5,81.7,93.1,81.7z M93.2,75.4c0.9,0,1.7-0.3,2.3-1c0.6-0.7,1-1.6,1-2.7c0-1.1-0.3-2-1-2.7
		c-0.6-0.7-1.4-1-2.3-1c-0.9,0-1.7,0.3-2.3,1c-0.6,0.7-1,1.6-1,2.7s0.3,2,1,2.7S92.3,75.4,93.2,75.4z"/>
</g>
<g class="st0">
	<path d="M102.6,76.9h-1.9v-15h1.9V76.9z"/>
	<path d="M105.8,67.8c1-1,2.3-1.6,3.8-1.6s2.8,0.5,3.8,1.6c1,1,1.5,2.3,1.5,3.9c0,1.6-0.5,2.9-1.5,3.9c-1,1-2.3,1.6-3.8,1.6
		s-2.8-0.5-3.8-1.6c-1-1-1.5-2.3-1.5-3.9C104.3,70.2,104.8,68.9,105.8,67.8z M107.2,74.4c0.7,0.7,1.5,1,2.4,1s1.7-0.3,2.4-1
		c0.7-0.7,1-1.6,1-2.7s-0.3-2-1-2.7c-0.7-0.7-1.5-1-2.4-1s-1.7,0.3-2.4,1c-0.7,0.7-1,1.6-1,2.7S106.6,73.7,107.2,74.4z"/>
</g>
<g class="st0">
	<path d="M122,77.2c-0.8,0-1.5-0.2-2.1-0.5s-1.1-0.8-1.4-1.3h-0.1v1.4h-1.8v-15h1.9v4.7l-0.1,1.4h0.1c0.3-0.5,0.8-0.9,1.4-1.3
		s1.3-0.5,2.1-0.5c1.3,0,2.5,0.5,3.4,1.6c1,1,1.4,2.4,1.4,3.9c0,1.6-0.5,2.9-1.4,3.9C124.5,76.7,123.3,77.2,122,77.2z M121.7,75.4
		c0.9,0,1.7-0.3,2.3-1s1-1.6,1-2.7s-0.3-2-1-2.7c-0.6-0.7-1.4-1-2.3-1c-0.9,0-1.7,0.3-2.3,1c-0.6,0.7-1,1.6-1,2.7c0,1.1,0.3,2,1,2.7
		C120,75.1,120.7,75.4,121.7,75.4z"/>
	<path d="M131.9,77.2c-1.1,0-2-0.3-2.7-0.9c-0.7-0.6-1.1-1.5-1.1-2.5c0-1.1,0.4-2,1.3-2.6c0.9-0.6,1.9-1,3.2-1
		c1.1,0,2.1,0.2,2.8,0.6v-0.3c0-0.8-0.3-1.4-0.8-1.8c-0.5-0.5-1.2-0.7-1.9-0.7c-0.6,0-1.1,0.1-1.5,0.4c-0.5,0.3-0.8,0.6-0.9,1.1
		l-1.8-0.8c0.2-0.6,0.7-1.2,1.4-1.7c0.7-0.5,1.6-0.8,2.8-0.8c1.3,0,2.4,0.4,3.3,1.2c0.9,0.8,1.3,1.9,1.3,3.3v6.2h-1.8v-1.4h-0.1
		C134.5,76.6,133.4,77.2,131.9,77.2z M132.2,75.4c0.8,0,1.5-0.3,2.2-0.9s1-1.3,1-2.1c-0.5-0.4-1.4-0.7-2.5-0.7
		c-0.9,0-1.6,0.2-2.1,0.6c-0.5,0.4-0.7,0.9-0.7,1.4c0,0.5,0.2,0.9,0.7,1.2S131.6,75.4,132.2,75.4z"/>
	<path d="M141.3,76.9h-1.9v-15h1.9V76.9z"/>
</g>
<g class="st0">
	<path d="M159.5,76.9h-2L155,69l-2.5,7.9h-2l-3.3-10.3h2l2.3,7.8h0l2.5-7.8h2l2.5,7.8h0l2.3-7.8h2L159.5,76.9z"/>
</g>
<g class="st0">
	<path d="M167.2,77.2c-1.1,0-2-0.3-2.7-0.9c-0.7-0.6-1.1-1.5-1.1-2.5c0-1.1,0.4-2,1.3-2.6c0.9-0.6,1.9-1,3.2-1
		c1.1,0,2.1,0.2,2.8,0.6v-0.3c0-0.8-0.3-1.4-0.8-1.8c-0.5-0.5-1.2-0.7-1.9-0.7c-0.6,0-1.1,0.1-1.5,0.4c-0.5,0.3-0.8,0.6-0.9,1.1
		l-1.8-0.8c0.2-0.6,0.7-1.2,1.4-1.7c0.7-0.5,1.6-0.8,2.8-0.8c1.3,0,2.4,0.4,3.3,1.2c0.9,0.8,1.3,1.9,1.3,3.3v6.2h-1.8v-1.4h-0.1
		C169.8,76.6,168.6,77.2,167.2,77.2z M167.5,75.4c0.8,0,1.5-0.3,2.2-0.9s1-1.3,1-2.1c-0.5-0.4-1.4-0.7-2.5-0.7
		c-0.9,0-1.6,0.2-2.1,0.6c-0.5,0.4-0.7,0.9-0.7,1.4c0,0.5,0.2,0.9,0.7,1.2S166.9,75.4,167.5,75.4z"/>
	<path d="M176.6,76.9h-1.9V66.6h1.8v1.7h0.1c0.2-0.6,0.6-1,1.2-1.4s1.2-0.5,1.8-0.5s1.1,0.1,1.4,0.3l-0.7,1.8
		c-0.3-0.1-0.6-0.1-1-0.1c-0.7,0-1.3,0.3-1.9,0.8c-0.5,0.6-0.8,1.3-0.8,2.2V76.9z"/>
	<path d="M182.3,76.9V66.6h1.8V68h0.1c0.3-0.5,0.7-0.9,1.4-1.2s1.2-0.5,1.8-0.5c1.6,0,2.7,0.7,3.3,2c0.8-1.3,2-2,3.6-2
		c1.2,0,2.1,0.4,2.8,1.2c0.6,0.8,0.9,1.8,0.9,3.2v6.3H196v-6c0-1-0.2-1.8-0.6-2.2c-0.4-0.4-1-0.7-1.7-0.7c-0.8,0-1.4,0.3-1.9,1
		c-0.5,0.6-0.7,1.4-0.7,2.2v5.7h-1.9v-6c0-1-0.2-1.8-0.6-2.2s-1-0.7-1.7-0.7c-0.8,0-1.4,0.3-1.9,1c-0.5,0.6-0.7,1.4-0.7,2.2v5.7
		H182.3z"/>
</g>
<g class="st0">
	<path d="M93.3,114.8c-1.6,0-2.8-0.5-3.8-1.6s-1.5-2.3-1.5-3.9c0-1.5,0.5-2.8,1.4-3.9c0.9-1.1,2.2-1.6,3.6-1.6
		c1.5,0,2.7,0.5,3.7,1.5s1.4,2.3,1.4,4l0,0.4H90c0.1,1,0.4,1.9,1,2.5c0.6,0.6,1.4,0.9,2.2,0.9c1.4,0,2.3-0.6,2.8-1.8l1.7,0.7
		c-0.3,0.8-0.9,1.5-1.7,2S94.4,114.8,93.3,114.8z M96,108.1c0-0.6-0.3-1.1-0.8-1.7c-0.5-0.5-1.2-0.8-2.2-0.8c-0.7,0-1.3,0.2-1.9,0.7
		c-0.5,0.4-0.9,1.1-1.1,1.8H96z"/>
</g>
<g class="st0">
	<path d="M101.7,104.2v1.4h0.1c0.3-0.5,0.7-0.9,1.3-1.2c0.6-0.3,1.2-0.5,1.9-0.5c1.3,0,2.2,0.4,2.9,1.2c0.7,0.8,1,1.8,1,3.2v6.3H107
		v-6c0-1.9-0.8-2.9-2.5-2.9c-0.8,0-1.4,0.3-2,1c-0.5,0.6-0.8,1.4-0.8,2.2v5.7h-1.9v-10.3H101.7z"/>
</g>
<g class="st0">
	<path d="M113.9,114.5l-4.2-10.3h2.1l3,8h0l3.1-8h2.1l-4.2,10.3H113.9z"/>
	<path d="M123.4,101.6c-0.3,0.3-0.6,0.4-1,0.4s-0.7-0.1-1-0.4c-0.3-0.3-0.4-0.6-0.4-1s0.1-0.7,0.4-1c0.3-0.3,0.6-0.4,1-0.4
		s0.7,0.1,1,0.4s0.4,0.6,0.4,1S123.6,101.3,123.4,101.6z M123.4,114.5h-1.9v-10.3h1.9V114.5z"/>
</g>
<g class="st0">
	<path d="M127.8,114.5h-1.9v-10.3h1.8v1.7h0.1c0.2-0.6,0.6-1,1.2-1.4s1.2-0.5,1.8-0.5s1.1,0.1,1.4,0.3l-0.7,1.8
		c-0.3-0.1-0.6-0.1-1-0.1c-0.7,0-1.3,0.3-1.9,0.8c-0.5,0.6-0.8,1.3-0.8,2.2V114.5z"/>
</g>
<g class="st0">
	<path d="M133.8,105.4c1-1,2.3-1.6,3.8-1.6s2.8,0.5,3.8,1.6c1,1,1.5,2.3,1.5,3.9c0,1.6-0.5,2.9-1.5,3.9c-1,1-2.3,1.6-3.8,1.6
		s-2.8-0.5-3.8-1.6c-1-1-1.5-2.3-1.5-3.9C132.3,107.8,132.8,106.5,133.8,105.4z M135.2,112c0.7,0.7,1.5,1,2.4,1s1.7-0.3,2.4-1
		c0.7-0.7,1-1.6,1-2.7s-0.3-2-1-2.7c-0.7-0.7-1.5-1-2.4-1s-1.7,0.3-2.4,1c-0.7,0.7-1,1.6-1,2.7S134.6,111.3,135.2,112z"/>
</g>
<g class="st0">
	<path d="M146.3,104.2v1.4h0.1c0.3-0.5,0.7-0.9,1.3-1.2c0.6-0.3,1.2-0.5,1.9-0.5c1.3,0,2.2,0.4,2.9,1.2c0.7,0.8,1,1.8,1,3.2v6.3
		h-1.9v-6c0-1.9-0.8-2.9-2.5-2.9c-0.8,0-1.4,0.3-2,1c-0.5,0.6-0.8,1.4-0.8,2.2v5.7h-1.9v-10.3H146.3z"/>
	<path d="M155.8,114.5v-10.3h1.8v1.4h0.1c0.3-0.5,0.7-0.9,1.4-1.2s1.2-0.5,1.8-0.5c1.6,0,2.7,0.7,3.3,2c0.8-1.3,2-2,3.6-2
		c1.2,0,2.1,0.4,2.8,1.2c0.6,0.8,0.9,1.8,0.9,3.2v6.3h-1.9v-6c0-1-0.2-1.8-0.6-2.2c-0.4-0.4-1-0.7-1.7-0.7c-0.8,0-1.4,0.3-1.9,1
		c-0.5,0.6-0.7,1.4-0.7,2.2v5.7h-1.9v-6c0-1-0.2-1.8-0.6-2.2s-1-0.7-1.7-0.7c-0.8,0-1.4,0.3-1.9,1c-0.5,0.6-0.7,1.4-0.7,2.2v5.7
		H155.8z"/>
	<path d="M178.4,114.8c-1.6,0-2.8-0.5-3.8-1.6s-1.5-2.3-1.5-3.9c0-1.5,0.5-2.8,1.4-3.9c0.9-1.1,2.2-1.6,3.6-1.6
		c1.5,0,2.7,0.5,3.7,1.5s1.4,2.3,1.4,4l0,0.4h-8.1c0.1,1,0.4,1.9,1,2.5c0.6,0.6,1.4,0.9,2.2,0.9c1.4,0,2.3-0.6,2.8-1.8l1.7,0.7
		c-0.3,0.8-0.9,1.5-1.7,2S179.5,114.8,178.4,114.8z M181.2,108.1c0-0.6-0.3-1.1-0.8-1.7c-0.5-0.5-1.2-0.8-2.2-0.8
		c-0.7,0-1.3,0.2-1.9,0.7c-0.5,0.4-0.9,1.1-1.1,1.8H181.2z"/>
</g>
<g class="st0">
	<path d="M186.8,104.2v1.4h0.1c0.3-0.5,0.7-0.9,1.3-1.2c0.6-0.3,1.2-0.5,1.9-0.5c1.3,0,2.2,0.4,2.9,1.2c0.7,0.8,1,1.8,1,3.2v6.3
		h-1.9v-6c0-1.9-0.8-2.9-2.5-2.9c-0.8,0-1.4,0.3-2,1c-0.5,0.6-0.8,1.4-0.8,2.2v5.7H185v-10.3H186.8z"/>
</g>
<g class="st0">
	<path d="M200.3,114.6c-1.1,0-1.9-0.3-2.5-0.9c-0.6-0.6-0.9-1.4-0.9-2.4v-5.4h-1.8v-1.8h1.8V101h1.9v3.2h2.5v1.8h-2.5v5.3
		c0,1.1,0.5,1.7,1.4,1.7c0.3,0,0.6-0.1,0.9-0.2l0.7,1.7C201.4,114.5,200.9,114.6,200.3,114.6z"/>
</g>
<g class="st0">
	<path class="st1" d="M94,152.4c-0.8,0-1.5-0.2-2.1-0.5s-1.1-0.8-1.4-1.3h-0.1l0.1,1.4v4.5h-1.9v-14.8h1.8v1.4h0.1
		c0.3-0.5,0.8-0.9,1.4-1.3s1.3-0.5,2.1-0.5c1.3,0,2.5,0.5,3.4,1.6c1,1,1.4,2.4,1.4,3.9c0,1.6-0.5,2.9-1.4,3.9
		C96.4,151.9,95.3,152.4,94,152.4z M93.6,150.6c0.9,0,1.7-0.3,2.3-1s1-1.6,1-2.7s-0.3-2-1-2.7c-0.6-0.7-1.4-1-2.3-1
		c-0.9,0-1.7,0.3-2.3,1c-0.6,0.7-1,1.6-1,2.7c0,1.1,0.3,2,1,2.7C92,150.3,92.7,150.6,93.6,150.6z"/>
</g>
<g class="st0">
	<path class="st1" d="M109.5,152.1h-1.8v-1.4h-0.1c-0.3,0.5-0.7,0.9-1.3,1.2c-0.6,0.3-1.2,0.5-1.9,0.5c-1.3,0-2.3-0.4-2.9-1.2
		s-1-1.8-1-3.2v-6.3h1.9v6c0,1.9,0.8,2.9,2.5,2.9c0.8,0,1.4-0.3,2-1c0.5-0.6,0.8-1.4,0.8-2.2v-5.7h1.9V152.1z"/>
</g>
<g class="st0">
	<path class="st1" d="M117.3,152.4c-0.8,0-1.5-0.2-2.1-0.5s-1.1-0.8-1.4-1.3h-0.1v1.4h-1.8v-15h1.9v4.7l-0.1,1.4h0.1
		c0.3-0.5,0.8-0.9,1.4-1.3s1.3-0.5,2.1-0.5c1.3,0,2.5,0.5,3.4,1.6c1,1,1.4,2.4,1.4,3.9c0,1.6-0.5,2.9-1.4,3.9
		C119.8,151.9,118.7,152.4,117.3,152.4z M117,150.6c0.9,0,1.7-0.3,2.3-1s1-1.6,1-2.7s-0.3-2-1-2.7c-0.6-0.7-1.4-1-2.3-1
		c-0.9,0-1.7,0.3-2.3,1c-0.6,0.7-1,1.6-1,2.7c0,1.1,0.3,2,1,2.7C115.3,150.3,116.1,150.6,117,150.6z"/>
</g>
<g class="st0">
	<path class="st1" d="M125.8,152.1h-1.9v-15h1.9V152.1z"/>
</g>
<g class="st0">
	<path class="st1" d="M130.3,139.2c-0.3,0.3-0.6,0.4-1,0.4s-0.7-0.1-1-0.4c-0.3-0.3-0.4-0.6-0.4-1s0.1-0.7,0.4-1
		c0.3-0.3,0.6-0.4,1-0.4s0.7,0.1,1,0.4s0.4,0.6,0.4,1S130.5,138.9,130.3,139.2z M130.3,152.1h-1.9v-10.3h1.9V152.1z"/>
</g>
<g class="st0">
	<path class="st1" d="M137.4,152.4c-1.5,0-2.8-0.5-3.8-1.6s-1.5-2.3-1.5-3.9c0-1.6,0.5-2.9,1.5-3.9s2.3-1.6,3.8-1.6
		c1.1,0,2.1,0.3,2.9,0.8c0.8,0.6,1.3,1.3,1.7,2.1l-1.8,0.7c-0.5-1.3-1.5-1.9-2.9-1.9c-0.9,0-1.6,0.4-2.3,1.1c-0.7,0.7-1,1.6-1,2.7
		s0.3,2,1,2.7c0.7,0.7,1.4,1,2.3,1c1.4,0,2.4-0.6,3-1.9l1.7,0.7c-0.3,0.8-0.9,1.5-1.7,2.1C139.5,152.1,138.5,152.4,137.4,152.4z"/>
</g>
<g class="st0">
	<path d="M93.3,190c-1.5,0-2.8-0.5-3.8-1.6c-1-1-1.5-2.3-1.5-3.9c0-1.6,0.5-2.9,1.5-3.9c1-1,2.3-1.6,3.8-1.6c1.1,0,2.1,0.3,2.9,0.8
		c0.8,0.6,1.3,1.3,1.7,2.1l-1.8,0.7c-0.5-1.3-1.5-1.9-2.9-1.9c-0.9,0-1.6,0.4-2.3,1.1s-1,1.6-1,2.7s0.3,2,1,2.7s1.4,1,2.3,1
		c1.4,0,2.4-0.6,3-1.9l1.7,0.7c-0.4,0.8-0.9,1.5-1.7,2.1C95.4,189.7,94.5,190,93.3,190z"/>
</g>
<g class="st0">
	<path d="M102.7,190c-1.1,0-2-0.3-2.7-0.9c-0.7-0.6-1.1-1.5-1.1-2.5c0-1.1,0.4-2,1.3-2.6c0.9-0.6,1.9-1,3.2-1c1.1,0,2.1,0.2,2.8,0.6
		v-0.3c0-0.8-0.3-1.4-0.8-1.8c-0.5-0.5-1.2-0.7-1.9-0.7c-0.6,0-1.1,0.1-1.5,0.4c-0.5,0.3-0.8,0.6-0.9,1.1l-1.8-0.8
		c0.2-0.6,0.7-1.2,1.4-1.7c0.7-0.5,1.6-0.8,2.8-0.8c1.3,0,2.4,0.4,3.3,1.2c0.9,0.8,1.3,1.9,1.3,3.3v6.2h-1.8v-1.4h-0.1
		C105.3,189.4,104.2,190,102.7,190z M103,188.2c0.8,0,1.5-0.3,2.2-0.9s1-1.3,1-2.1c-0.5-0.4-1.4-0.7-2.5-0.7c-0.9,0-1.6,0.2-2.1,0.6
		c-0.5,0.4-0.7,0.9-0.7,1.4c0,0.5,0.2,0.9,0.7,1.2S102.5,188.2,103,188.2z"/>
	<path d="M112.1,189.7h-1.9v-10.3h1.8v1.7h0.1c0.2-0.6,0.6-1,1.2-1.4s1.2-0.5,1.8-0.5s1.1,0.1,1.4,0.3l-0.7,1.8
		c-0.3-0.1-0.6-0.1-1-0.1c-0.7,0-1.3,0.3-1.9,0.8c-0.5,0.6-0.8,1.3-0.8,2.2V189.7z"/>
</g>
<g class="st0">
	<path d="M90.5,227.3h-1.9V217h1.8v1.7h0.1c0.2-0.6,0.6-1,1.2-1.4c0.6-0.4,1.2-0.5,1.8-0.5s1.1,0.1,1.4,0.3l-0.7,1.8
		c-0.3-0.1-0.6-0.1-1-0.1c-0.7,0-1.3,0.3-1.9,0.8c-0.5,0.6-0.8,1.3-0.8,2.2V227.3z"/>
</g>
<g class="st0">
	<path d="M100.3,227.6c-1.6,0-2.8-0.5-3.8-1.6c-1-1-1.5-2.3-1.5-3.9c0-1.5,0.5-2.8,1.4-3.9c0.9-1.1,2.2-1.6,3.6-1.6
		c1.5,0,2.7,0.5,3.7,1.5s1.4,2.3,1.4,4l0,0.4h-8.1c0.1,1,0.4,1.9,1,2.5c0.6,0.6,1.4,0.9,2.2,0.9c1.4,0,2.3-0.6,2.8-1.8l1.7,0.7
		c-0.3,0.8-0.9,1.5-1.7,2S101.4,227.6,100.3,227.6z M103,220.9c0-0.6-0.3-1.1-0.8-1.7c-0.5-0.5-1.2-0.8-2.2-0.8
		c-0.7,0-1.3,0.2-1.9,0.7s-0.9,1.1-1.1,1.8H103z"/>
	<path d="M110.8,227.6c-1.1,0-2.1-0.3-2.8-0.8c-0.7-0.6-1.3-1.3-1.6-2.1l1.7-0.7c0.5,1.3,1.5,1.9,2.8,1.9c0.6,0,1.1-0.1,1.5-0.4
		c0.4-0.3,0.6-0.6,0.6-1c0-0.7-0.5-1.1-1.4-1.4l-2.1-0.5c-0.7-0.2-1.3-0.5-1.9-1c-0.6-0.5-0.9-1.1-0.9-1.9c0-0.9,0.4-1.7,1.2-2.2
		s1.8-0.8,2.9-0.8c0.9,0,1.7,0.2,2.4,0.6s1.2,1,1.5,1.8l-1.7,0.7c-0.4-0.9-1.2-1.4-2.4-1.4c-0.6,0-1.1,0.1-1.4,0.4s-0.6,0.6-0.6,1
		c0,0.6,0.5,1,1.4,1.2l2,0.5c1,0.2,1.7,0.6,2.1,1.2c0.5,0.5,0.7,1.2,0.7,1.8c0,0.9-0.4,1.7-1.1,2.3
		C112.9,227.3,112,227.6,110.8,227.6z"/>
</g>
<g class="st0">
	<path d="M117.5,218.2c1-1,2.3-1.6,3.8-1.6s2.8,0.5,3.8,1.6c1,1,1.5,2.3,1.5,3.9s-0.5,2.9-1.5,3.9c-1,1-2.3,1.6-3.8,1.6
		s-2.8-0.5-3.8-1.6c-1-1-1.5-2.3-1.5-3.9S116.5,219.3,117.5,218.2z M119,224.8c0.7,0.7,1.5,1,2.4,1s1.7-0.3,2.4-1
		c0.7-0.7,1-1.6,1-2.7c0-1.1-0.3-2-1-2.7c-0.7-0.7-1.5-1-2.4-1s-1.7,0.3-2.4,1c-0.7,0.7-1,1.6-1,2.7
		C118,223.2,118.3,224.1,119,224.8z"/>
</g>
<g class="st0">
	<path d="M137.3,227.3h-1.8v-1.4h-0.1c-0.3,0.5-0.7,0.9-1.3,1.3c-0.6,0.3-1.2,0.5-1.9,0.5c-1.3,0-2.3-0.4-2.9-1.2
		c-0.7-0.8-1-1.8-1-3.2V217h1.9v6c0,1.9,0.8,2.9,2.5,2.9c0.8,0,1.4-0.3,2-1c0.5-0.6,0.8-1.4,0.8-2.2V217h1.9V227.3z"/>
</g>
<g class="st0">
	<path d="M141.6,227.3h-1.9V217h1.8v1.7h0.1c0.2-0.6,0.6-1,1.2-1.4c0.6-0.4,1.2-0.5,1.8-0.5s1.1,0.1,1.4,0.3l-0.7,1.8
		c-0.3-0.1-0.6-0.1-1-0.1c-0.7,0-1.3,0.3-1.9,0.8c-0.5,0.6-0.8,1.3-0.8,2.2V227.3z"/>
</g>
<g class="st0">
	<path d="M151.4,227.6c-1.5,0-2.8-0.5-3.8-1.6c-1-1-1.5-2.3-1.5-3.9s0.5-2.9,1.5-3.9c1-1,2.3-1.6,3.8-1.6c1.1,0,2.1,0.3,2.9,0.8
		c0.8,0.6,1.3,1.3,1.7,2.1l-1.8,0.7c-0.5-1.3-1.5-1.9-2.9-1.9c-0.9,0-1.6,0.3-2.3,1.1c-0.7,0.7-1,1.6-1,2.7s0.3,2,1,2.7
		c0.7,0.7,1.4,1,2.3,1c1.4,0,2.4-0.6,3-1.9l1.7,0.7c-0.4,0.8-0.9,1.5-1.7,2.1S152.5,227.6,151.4,227.6z"/>
</g>
<g class="st0">
	<path d="M162.2,227.6c-1.6,0-2.8-0.5-3.8-1.6c-1-1-1.5-2.3-1.5-3.9c0-1.5,0.5-2.8,1.4-3.9c0.9-1.1,2.2-1.6,3.6-1.6
		c1.5,0,2.7,0.5,3.7,1.5s1.4,2.3,1.4,4l0,0.4h-8.1c0.1,1,0.4,1.9,1,2.5c0.6,0.6,1.4,0.9,2.2,0.9c1.4,0,2.3-0.6,2.8-1.8l1.7,0.7
		c-0.3,0.8-0.9,1.5-1.7,2S163.3,227.6,162.2,227.6z M164.9,220.9c0-0.6-0.3-1.1-0.8-1.7c-0.5-0.5-1.2-0.8-2.2-0.8
		c-0.7,0-1.3,0.2-1.9,0.7s-0.9,1.1-1.1,1.8H164.9z"/>
</g>
<g class="st0">
	<path d="M93.3,265.2c-1.6,0-2.8-0.5-3.8-1.6s-1.5-2.3-1.5-3.9c0-1.5,0.5-2.8,1.4-3.9c0.9-1.1,2.2-1.6,3.6-1.6
		c1.5,0,2.7,0.5,3.7,1.5s1.4,2.3,1.4,4l0,0.4H90c0.1,1,0.4,1.9,1,2.5c0.6,0.6,1.4,0.9,2.2,0.9c1.4,0,2.3-0.6,2.8-1.8l1.7,0.7
		c-0.3,0.8-0.9,1.5-1.7,2S94.4,265.2,93.3,265.2z M96,258.5c0-0.6-0.3-1.1-0.8-1.7c-0.5-0.5-1.2-0.8-2.2-0.8c-0.7,0-1.3,0.2-1.9,0.7
		c-0.5,0.4-0.9,1.1-1.1,1.8H96z"/>
	<path d="M101.7,254.6v1.4h0.1c0.3-0.5,0.7-0.9,1.3-1.2c0.6-0.3,1.2-0.5,1.9-0.5c1.3,0,2.2,0.4,2.9,1.2c0.7,0.8,1,1.8,1,3.2v6.3H107
		v-6c0-1.9-0.8-2.9-2.5-2.9c-0.8,0-1.4,0.3-2,1c-0.5,0.6-0.8,1.4-0.8,2.2v5.7h-1.9v-10.3H101.7z"/>
	<path d="M115.9,265.2c-1.6,0-2.8-0.5-3.8-1.6s-1.5-2.3-1.5-3.9c0-1.5,0.5-2.8,1.4-3.9c0.9-1.1,2.2-1.6,3.6-1.6
		c1.5,0,2.7,0.5,3.7,1.5s1.4,2.3,1.4,4l0,0.4h-8.1c0.1,1,0.4,1.9,1,2.5c0.6,0.6,1.4,0.9,2.2,0.9c1.4,0,2.3-0.6,2.8-1.8l1.7,0.7
		c-0.3,0.8-0.9,1.5-1.7,2S117,265.2,115.9,265.2z M118.7,258.5c0-0.6-0.3-1.1-0.8-1.7c-0.5-0.5-1.2-0.8-2.2-0.8
		c-0.7,0-1.3,0.2-1.9,0.7c-0.5,0.4-0.9,1.1-1.1,1.8H118.7z"/>
</g>
<g class="st0">
	<path d="M124.4,264.9h-1.9v-10.3h1.8v1.7h0.1c0.2-0.6,0.6-1,1.2-1.4s1.2-0.5,1.8-0.5s1.1,0.1,1.4,0.3l-0.7,1.8
		c-0.3-0.1-0.6-0.1-1-0.1c-0.7,0-1.3,0.3-1.9,0.8c-0.5,0.6-0.8,1.3-0.8,2.2V264.9z"/>
</g>
<g class="st0">
	<path d="M134.1,269.7c-1.2,0-2.2-0.3-3-0.9c-0.8-0.6-1.3-1.3-1.7-2.1l1.8-0.7c0.2,0.6,0.6,1,1.1,1.4s1.1,0.6,1.8,0.6
		c1.1,0,1.9-0.3,2.5-1c0.6-0.6,0.9-1.5,0.9-2.6v-1h-0.1c-0.3,0.5-0.8,0.9-1.4,1.3c-0.6,0.3-1.3,0.5-2.1,0.5c-1.3,0-2.5-0.5-3.4-1.6
		c-1-1-1.4-2.4-1.4-3.9c0-1.6,0.5-2.9,1.4-3.9c1-1,2.1-1.6,3.4-1.6c0.8,0,1.5,0.2,2.1,0.5c0.6,0.3,1.1,0.8,1.4,1.3h0.1v-1.4h1.8v9.8
		c0,1.8-0.5,3.1-1.5,4C136.8,269.3,135.5,269.7,134.1,269.7z M134.2,263.4c0.9,0,1.7-0.3,2.3-1c0.6-0.7,1-1.6,1-2.7
		c0-1.1-0.3-2-1-2.7c-0.6-0.7-1.4-1-2.3-1c-0.9,0-1.7,0.3-2.3,1c-0.6,0.7-1,1.6-1,2.7s0.3,2,1,2.7S133.3,263.4,134.2,263.4z"/>
	<path d="M144.4,269.4h-2l2.4-5.2l-4.2-9.6h2.1l3.1,7.4h0l3-7.4h2.1L144.4,269.4z"/>
</g>
<g class="st0">
	<path d="M93.1,302.6c-1.1,0-1.9-0.3-2.5-0.9c-0.6-0.6-0.9-1.4-0.9-2.4v-5.4h-1.8v-1.8h1.8V289h1.9v3.2h2.5v1.8h-2.5v5.3
		c0,1.1,0.5,1.7,1.4,1.7c0.3,0,0.6-0.1,0.9-0.2l0.7,1.7C94.2,302.5,93.7,302.6,93.1,302.6z"/>
</g>
<g class="st0">
	<path d="M98,302.5H96v-10.3h1.8v1.7H98c0.2-0.6,0.6-1,1.2-1.4s1.2-0.5,1.8-0.5s1.1,0.1,1.4,0.3l-0.7,1.8c-0.3-0.1-0.6-0.1-1-0.1
		c-0.7,0-1.3,0.3-1.9,0.8c-0.5,0.6-0.8,1.3-0.8,2.2V302.5z"/>
</g>
<g class="st0">
	<path d="M106.5,302.8c-1.1,0-2-0.3-2.7-0.9c-0.7-0.6-1.1-1.5-1.1-2.5c0-1.1,0.4-2,1.3-2.6c0.9-0.6,1.9-1,3.2-1
		c1.1,0,2.1,0.2,2.8,0.6v-0.3c0-0.8-0.3-1.4-0.8-1.8c-0.5-0.5-1.2-0.7-1.9-0.7c-0.6,0-1.1,0.1-1.5,0.4c-0.5,0.3-0.8,0.6-0.9,1.1
		l-1.8-0.8c0.2-0.6,0.7-1.2,1.4-1.7c0.7-0.5,1.6-0.8,2.8-0.8c1.3,0,2.4,0.4,3.3,1.2c0.9,0.8,1.3,1.9,1.3,3.3v6.2H110V301h-0.1
		C109.1,302.2,108,302.8,106.5,302.8z M106.8,301c0.8,0,1.5-0.3,2.2-0.9s1-1.3,1-2.1c-0.5-0.4-1.4-0.7-2.5-0.7
		c-0.9,0-1.6,0.2-2.1,0.6c-0.5,0.4-0.7,0.9-0.7,1.4c0,0.5,0.2,0.9,0.7,1.2S106.3,301,106.8,301z"/>
</g>
<g class="st0">
	<path d="M125.3,287.3c0.6,0,1.1,0.1,1.6,0.3l-0.7,1.7c-0.2-0.1-0.5-0.2-0.9-0.2c-0.5,0-0.9,0.2-1.2,0.5s-0.5,0.7-0.5,1.3v1.3h6.6
		v10.3h-1.9v-8.5h-4.6v8.5h-1.9v-8.5H117v8.5H115v-8.5h-1.9v-1.8h1.9v-1.4c0-1,0.3-1.9,1-2.5c0.7-0.6,1.6-0.9,2.6-0.9
		c0.6,0,1.1,0.1,1.6,0.3l-0.7,1.7c-0.2-0.1-0.5-0.2-0.9-0.2c-0.5,0-0.9,0.2-1.2,0.5c-0.3,0.3-0.5,0.7-0.5,1.3v1.3h2.7h1.9v-1.4
		c0-1,0.3-1.9,1-2.5S124.2,287.3,125.3,287.3z M130.1,289.6c-0.3,0.3-0.6,0.4-1,0.4s-0.7-0.1-1-0.4c-0.3-0.3-0.4-0.6-0.4-1
		s0.1-0.7,0.4-1c0.3-0.3,0.6-0.4,1-0.4s0.7,0.1,1,0.4c0.3,0.3,0.4,0.6,0.4,1S130.3,289.3,130.1,289.6z"/>
</g>
<g class="st0">
	<path d="M137.2,302.8c-1.5,0-2.8-0.5-3.8-1.6c-1-1-1.5-2.3-1.5-3.9c0-1.6,0.5-2.9,1.5-3.9c1-1,2.3-1.6,3.8-1.6
		c1.1,0,2.1,0.3,2.9,0.8c0.8,0.6,1.3,1.3,1.7,2.1l-1.8,0.7c-0.5-1.3-1.5-1.9-2.9-1.9c-0.9,0-1.6,0.4-2.3,1.1s-1,1.6-1,2.7
		s0.3,2,1,2.7s1.4,1,2.3,1c1.4,0,2.4-0.6,3-1.9l1.7,0.7c-0.4,0.8-0.9,1.5-1.7,2.1C139.3,302.5,138.3,302.8,137.2,302.8z"/>
</g>
<g class="st0">
	<path d="M147.1,307.2c-0.4,0-0.8-0.1-1.1-0.2l0.5-1.7c0.2,0.1,0.4,0.1,0.6,0.1c0.8,0,1.2-0.5,1.2-1.6v-11.7h1.9v11.7
		c0,1.1-0.3,2-0.8,2.5C148.8,306.9,148.1,307.2,147.1,307.2z M150.2,289.6c-0.3,0.3-0.6,0.4-1,0.4s-0.7-0.1-1-0.4
		c-0.3-0.3-0.4-0.6-0.4-1s0.1-0.7,0.4-1c0.3-0.3,0.6-0.4,1-0.4s0.7,0.1,1,0.4s0.4,0.6,0.4,1S150.4,289.3,150.2,289.6z"/>
</g>
<g class="st0">
	<path d="M155.9,302.8c-1.1,0-2-0.3-2.7-0.9c-0.7-0.6-1.1-1.5-1.1-2.5c0-1.1,0.4-2,1.3-2.6c0.9-0.6,1.9-1,3.2-1
		c1.1,0,2.1,0.2,2.8,0.6v-0.3c0-0.8-0.3-1.4-0.8-1.8c-0.5-0.5-1.2-0.7-1.9-0.7c-0.6,0-1.1,0.1-1.5,0.4c-0.5,0.3-0.8,0.6-0.9,1.1
		l-1.8-0.8c0.2-0.6,0.7-1.2,1.4-1.7c0.7-0.5,1.6-0.8,2.8-0.8c1.3,0,2.4,0.4,3.3,1.2c0.9,0.8,1.3,1.9,1.3,3.3v6.2h-1.8V301h-0.1
		C158.5,302.2,157.3,302.8,155.9,302.8z M156.2,301c0.8,0,1.5-0.3,2.2-0.9s1-1.3,1-2.1c-0.5-0.4-1.4-0.7-2.5-0.7
		c-0.9,0-1.6,0.2-2.1,0.6c-0.5,0.4-0.7,0.9-0.7,1.4c0,0.5,0.2,0.9,0.7,1.2S155.6,301,156.2,301z"/>
	<path d="M163.3,302.5v-10.3h1.8v1.4h0.1c0.3-0.5,0.7-0.9,1.4-1.2s1.2-0.5,1.8-0.5c1.6,0,2.7,0.7,3.3,2c0.8-1.3,2-2,3.6-2
		c1.2,0,2.1,0.4,2.8,1.2c0.6,0.8,0.9,1.8,0.9,3.2v6.3H177v-6c0-1-0.2-1.8-0.6-2.2c-0.4-0.4-1-0.7-1.7-0.7c-0.8,0-1.4,0.3-1.9,1
		c-0.5,0.6-0.7,1.4-0.7,2.2v5.7h-1.9v-6c0-1-0.2-1.8-0.6-2.2s-1-0.7-1.7-0.7c-0.8,0-1.4,0.3-1.9,1c-0.5,0.6-0.7,1.4-0.7,2.2v5.7
		H163.3z"/>
</g>
<g class="st0">
	<path d="M309.4,39.6c-0.8,0-1.5-0.2-2.1-0.5s-1.1-0.8-1.4-1.3h-0.1l0.1,1.4v4.5H304V29h1.8v1.4h0.1c0.3-0.5,0.8-0.9,1.4-1.3
		s1.3-0.5,2.1-0.5c1.3,0,2.5,0.5,3.4,1.6c1,1,1.4,2.4,1.4,3.9c0,1.6-0.5,2.9-1.4,3.9C311.9,39.1,310.7,39.6,309.4,39.6z M309.1,37.8
		c0.9,0,1.7-0.3,2.3-1s1-1.6,1-2.7s-0.3-2-1-2.7c-0.6-0.7-1.4-1-2.3-1c-0.9,0-1.7,0.3-2.3,1c-0.6,0.7-1,1.6-1,2.7c0,1.1,0.3,2,1,2.7
		C307.4,37.5,308.2,37.8,309.1,37.8z"/>
</g>
<g class="st0">
	<path d="M317.9,39.3h-1.9V29h1.8v1.7h0.1c0.2-0.6,0.6-1,1.2-1.4s1.2-0.5,1.8-0.5s1.1,0.1,1.4,0.3l-0.7,1.8c-0.3-0.1-0.6-0.1-1-0.1
		c-0.7,0-1.3,0.3-1.9,0.8c-0.5,0.6-0.8,1.3-0.8,2.2V39.3z"/>
</g>
<g class="st0">
	<path d="M327.6,39.6c-1.6,0-2.8-0.5-3.8-1.6s-1.5-2.3-1.5-3.9c0-1.5,0.5-2.8,1.4-3.9c0.9-1.1,2.2-1.6,3.6-1.6
		c1.5,0,2.7,0.5,3.7,1.5s1.4,2.3,1.4,4l0,0.4h-8.1c0.1,1,0.4,1.9,1,2.5c0.6,0.6,1.4,0.9,2.2,0.9c1.4,0,2.3-0.6,2.8-1.8l1.7,0.7
		c-0.3,0.8-0.9,1.5-1.7,2S328.7,39.6,327.6,39.6z M330.4,32.9c0-0.6-0.3-1.1-0.8-1.7c-0.5-0.5-1.2-0.8-2.2-0.8
		c-0.7,0-1.3,0.2-1.9,0.7c-0.5,0.4-0.9,1.1-1.1,1.8H330.4z"/>
	<path d="M338.1,39.6c-1.1,0-2.1-0.3-2.8-0.8s-1.3-1.3-1.6-2.1l1.7-0.7c0.5,1.3,1.5,1.9,2.8,1.9c0.6,0,1.1-0.1,1.5-0.4
		c0.4-0.3,0.6-0.6,0.6-1c0-0.7-0.5-1.1-1.4-1.4l-2.1-0.5c-0.7-0.2-1.3-0.5-1.9-1c-0.6-0.5-0.9-1.1-0.9-1.9c0-0.9,0.4-1.6,1.2-2.2
		c0.8-0.6,1.8-0.9,2.9-0.9c0.9,0,1.7,0.2,2.4,0.6c0.7,0.4,1.2,1,1.5,1.8l-1.7,0.7c-0.4-0.9-1.2-1.4-2.4-1.4c-0.6,0-1.1,0.1-1.4,0.4
		s-0.6,0.6-0.6,1c0,0.6,0.5,1,1.4,1.2l2,0.5c1,0.2,1.7,0.6,2.1,1.2s0.7,1.2,0.7,1.8c0,0.9-0.4,1.7-1.1,2.3S339.3,39.6,338.1,39.6z"
		/>
</g>
<g class="st0">
	<path d="M348.6,39.6c-1.6,0-2.8-0.5-3.8-1.6c-1-1-1.5-2.3-1.5-3.9c0-1.5,0.5-2.8,1.4-3.9c0.9-1.1,2.2-1.6,3.6-1.6
		c1.5,0,2.7,0.5,3.7,1.5s1.4,2.3,1.4,4l0,0.4h-8.1c0.1,1,0.4,1.9,1,2.5c0.6,0.6,1.4,0.9,2.2,0.9c1.4,0,2.3-0.6,2.8-1.8l1.7,0.7
		c-0.3,0.8-0.9,1.5-1.7,2C350.7,39.3,349.7,39.6,348.6,39.6z M351.4,32.9c0-0.6-0.3-1.1-0.8-1.7c-0.5-0.5-1.2-0.8-2.2-0.8
		c-0.7,0-1.3,0.2-1.9,0.7c-0.5,0.4-0.9,1.1-1.1,1.8H351.4z"/>
</g>
<g class="st0">
	<path d="M357.1,39.3h-1.9V29h1.8v1.7h0.1c0.2-0.6,0.6-1,1.2-1.4c0.6-0.4,1.2-0.5,1.8-0.5s1.1,0.1,1.4,0.3l-0.7,1.8
		c-0.3-0.1-0.6-0.1-1-0.1c-0.7,0-1.3,0.3-1.9,0.8c-0.5,0.6-0.8,1.3-0.8,2.2V39.3z"/>
</g>
<g class="st0">
	<path d="M366.1,39.3L362,29h2.1l3,8h0l3.1-8h2.1L368,39.3H366.1z"/>
</g>
<g class="st0">
	<path d="M377.8,39.6c-1.6,0-2.8-0.5-3.8-1.6c-1-1-1.5-2.3-1.5-3.9c0-1.5,0.5-2.8,1.4-3.9s2.2-1.6,3.6-1.6c1.5,0,2.7,0.5,3.7,1.5
		s1.4,2.3,1.4,4l0,0.4h-8.1c0.1,1,0.4,1.9,1,2.5c0.6,0.6,1.4,0.9,2.2,0.9c1.4,0,2.3-0.6,2.8-1.8l1.7,0.7c-0.3,0.8-0.9,1.5-1.7,2
		C379.9,39.3,379,39.6,377.8,39.6z M380.6,32.9c0-0.6-0.3-1.1-0.8-1.7c-0.5-0.5-1.2-0.8-2.2-0.8c-0.7,0-1.3,0.2-1.9,0.7
		c-0.5,0.4-0.9,1.1-1.1,1.8H380.6z"/>
</g>
<g class="st0">
	<path d="M308.5,81.7c-1.2,0-2.2-0.3-3-0.9c-0.8-0.6-1.3-1.3-1.7-2.1l1.8-0.7c0.2,0.6,0.6,1,1.1,1.4s1.1,0.6,1.8,0.6
		c1.1,0,1.9-0.3,2.5-1c0.6-0.6,0.9-1.5,0.9-2.6v-1h-0.1c-0.3,0.5-0.8,0.9-1.4,1.3c-0.6,0.3-1.3,0.5-2.1,0.5c-1.3,0-2.5-0.5-3.4-1.6
		c-1-1-1.4-2.4-1.4-3.9c0-1.6,0.5-2.9,1.4-3.9c1-1,2.1-1.6,3.4-1.6c0.8,0,1.5,0.2,2.1,0.5c0.6,0.3,1.1,0.8,1.4,1.3h0.1v-1.4h1.8v9.8
		c0,1.8-0.5,3.1-1.5,4C311.2,81.3,310,81.7,308.5,81.7z M308.7,75.4c0.9,0,1.7-0.3,2.3-1c0.6-0.7,1-1.6,1-2.7c0-1.1-0.3-2-1-2.7
		c-0.6-0.7-1.4-1-2.3-1c-0.9,0-1.7,0.3-2.3,1c-0.6,0.7-1,1.6-1,2.7s0.3,2,1,2.7S307.8,75.4,308.7,75.4z"/>
</g>
<g class="st0">
	<path d="M318.1,76.9h-1.9V66.6h1.8v1.7h0.1c0.2-0.6,0.6-1,1.2-1.4s1.2-0.5,1.8-0.5s1.1,0.1,1.4,0.3l-0.7,1.8
		c-0.3-0.1-0.6-0.1-1-0.1c-0.7,0-1.3,0.3-1.9,0.8c-0.5,0.6-0.8,1.3-0.8,2.2V76.9z"/>
</g>
<g class="st0">
	<path d="M327.8,77.2c-1.6,0-2.8-0.5-3.8-1.6s-1.5-2.3-1.5-3.9c0-1.5,0.5-2.8,1.4-3.9c0.9-1.1,2.2-1.6,3.6-1.6
		c1.5,0,2.7,0.5,3.7,1.5s1.4,2.3,1.4,4l0,0.4h-8.1c0.1,1,0.4,1.9,1,2.5c0.6,0.6,1.4,0.9,2.2,0.9c1.4,0,2.3-0.6,2.8-1.8l1.7,0.7
		c-0.3,0.8-0.9,1.5-1.7,2S328.9,77.2,327.8,77.2z M330.6,70.5c0-0.6-0.3-1.1-0.8-1.7c-0.5-0.5-1.2-0.8-2.2-0.8
		c-0.7,0-1.3,0.2-1.9,0.7c-0.5,0.4-0.9,1.1-1.1,1.8H330.6z"/>
</g>
<g class="st0">
	<path d="M339.1,77.2c-1.6,0-2.8-0.5-3.8-1.6s-1.5-2.3-1.5-3.9c0-1.5,0.5-2.8,1.4-3.9c0.9-1.1,2.2-1.6,3.6-1.6
		c1.5,0,2.7,0.5,3.7,1.5s1.4,2.3,1.4,4l0,0.4h-8.1c0.1,1,0.4,1.9,1,2.5c0.6,0.6,1.4,0.9,2.2,0.9c1.4,0,2.3-0.6,2.8-1.8l1.7,0.7
		c-0.3,0.8-0.9,1.5-1.7,2C341.2,76.9,340.3,77.2,339.1,77.2z M341.9,70.5c0-0.6-0.3-1.1-0.8-1.7c-0.5-0.5-1.2-0.8-2.2-0.8
		c-0.7,0-1.3,0.2-1.9,0.7c-0.5,0.4-0.9,1.1-1.1,1.8H341.9z"/>
	<path d="M347.6,66.6V68h0.1c0.3-0.5,0.7-0.9,1.3-1.2c0.6-0.3,1.2-0.5,1.9-0.5c1.3,0,2.2,0.4,2.9,1.2s1,1.8,1,3.2v6.3h-1.9v-6
		c0-1.9-0.8-2.9-2.5-2.9c-0.8,0-1.4,0.3-2,1s-0.8,1.4-0.8,2.2v5.7h-1.9V66.6H347.6z"/>
</g>
<g class="st0">
	<path class="st1" d="M308.3,114.8c-1.3,0-2.5-0.5-3.4-1.6c-1-1-1.4-2.4-1.4-3.9c0-1.6,0.5-2.9,1.4-3.9c1-1,2.1-1.6,3.4-1.6
		c0.8,0,1.5,0.2,2.1,0.5s1.1,0.8,1.4,1.3h0.1l-0.1-1.4v-4.7h1.9v15h-1.8V113h-0.1c-0.3,0.5-0.8,0.9-1.4,1.3S309.1,114.8,308.3,114.8
		z M308.7,113c0.9,0,1.7-0.3,2.3-1c0.6-0.7,1-1.6,1-2.7c0-1.1-0.3-2-1-2.7c-0.6-0.7-1.4-1-2.3-1c-0.9,0-1.7,0.3-2.3,1
		c-0.6,0.7-1,1.6-1,2.7s0.3,2,1,2.7S307.8,113,308.7,113z"/>
</g>
<g class="st0">
	<path class="st1" d="M316.9,105.4c1-1,2.3-1.6,3.8-1.6s2.8,0.5,3.8,1.6c1,1,1.5,2.3,1.5,3.9c0,1.6-0.5,2.9-1.5,3.9
		c-1,1-2.3,1.6-3.8,1.6s-2.8-0.5-3.8-1.6c-1-1-1.5-2.3-1.5-3.9C315.4,107.8,315.9,106.5,316.9,105.4z M318.4,112
		c0.7,0.7,1.5,1,2.4,1s1.7-0.3,2.4-1c0.7-0.7,1-1.6,1-2.7s-0.3-2-1-2.7c-0.7-0.7-1.5-1-2.4-1s-1.7,0.3-2.4,1c-0.7,0.7-1,1.6-1,2.7
		S317.7,111.3,318.4,112z"/>
	<path class="st1" d="M331,114.8c-1.1,0-2-0.3-2.7-0.9c-0.7-0.6-1.1-1.5-1.1-2.5c0-1.1,0.4-2,1.3-2.6c0.9-0.6,1.9-1,3.2-1
		c1.1,0,2.1,0.2,2.8,0.6v-0.3c0-0.8-0.3-1.4-0.8-1.8c-0.5-0.5-1.2-0.7-1.9-0.7c-0.6,0-1.1,0.1-1.5,0.4c-0.5,0.3-0.8,0.6-0.9,1.1
		l-1.8-0.8c0.2-0.6,0.7-1.2,1.4-1.7c0.7-0.5,1.6-0.8,2.8-0.8c1.3,0,2.4,0.4,3.3,1.2c0.9,0.8,1.3,1.9,1.3,3.3v6.2h-1.8V113h-0.1
		C333.7,114.2,332.5,114.8,331,114.8z M331.4,113c0.8,0,1.5-0.3,2.2-0.9s1-1.3,1-2.1c-0.5-0.4-1.4-0.7-2.5-0.7
		c-0.9,0-1.6,0.2-2.1,0.6c-0.5,0.4-0.7,0.9-0.7,1.4c0,0.5,0.2,0.9,0.7,1.2S330.8,113,331.4,113z"/>
</g>
<g class="st0">
	<path class="st1" d="M344,114.8c-0.8,0-1.5-0.2-2.1-0.5s-1.1-0.8-1.4-1.3h-0.1v1.4h-1.8v-15h1.9v4.7l-0.1,1.4h0.1
		c0.3-0.5,0.8-0.9,1.4-1.3s1.3-0.5,2.1-0.5c1.3,0,2.5,0.5,3.4,1.6s1.4,2.4,1.4,3.9c0,1.6-0.5,2.9-1.4,3.9S345.3,114.8,344,114.8z
		 M343.7,113c0.9,0,1.7-0.3,2.3-1c0.6-0.7,1-1.6,1-2.7s-0.3-2-1-2.7c-0.6-0.7-1.4-1-2.3-1c-0.9,0-1.7,0.3-2.3,1
		c-0.6,0.7-1,1.6-1,2.7c0,1.1,0.3,2,1,2.7C342,112.7,342.8,113,343.7,113z"/>
	<path class="st1" d="M352.5,114.5h-1.9v-15h1.9V114.5z"/>
</g>
<g class="st0">
	<path class="st1" d="M359.4,114.8c-1.6,0-2.8-0.5-3.8-1.6c-1-1-1.5-2.3-1.5-3.9c0-1.5,0.5-2.8,1.4-3.9c0.9-1.1,2.2-1.6,3.6-1.6
		c1.5,0,2.7,0.5,3.7,1.5s1.4,2.3,1.4,4l0,0.4H356c0.1,1,0.4,1.9,1,2.5c0.6,0.6,1.4,0.9,2.2,0.9c1.4,0,2.3-0.6,2.8-1.8l1.7,0.7
		c-0.3,0.8-0.9,1.5-1.7,2C361.4,114.5,360.5,114.8,359.4,114.8z M362.1,108.1c0-0.6-0.3-1.1-0.8-1.7c-0.5-0.5-1.2-0.8-2.2-0.8
		c-0.7,0-1.3,0.2-1.9,0.7c-0.5,0.4-0.9,1.1-1.1,1.8H362.1z"/>
</g>
<g class="st0">
	<path d="M307.9,152.4c-1.1,0-2.1-0.3-2.8-0.8s-1.3-1.3-1.6-2.1l1.7-0.7c0.5,1.3,1.5,1.9,2.8,1.9c0.6,0,1.1-0.1,1.5-0.4
		c0.4-0.3,0.6-0.6,0.6-1c0-0.7-0.5-1.1-1.4-1.4l-2.1-0.5c-0.7-0.2-1.3-0.5-1.9-1c-0.6-0.5-0.9-1.1-0.9-1.9c0-0.9,0.4-1.6,1.2-2.2
		c0.8-0.6,1.8-0.9,2.9-0.9c0.9,0,1.7,0.2,2.4,0.6c0.7,0.4,1.2,1,1.5,1.8l-1.7,0.7c-0.4-0.9-1.2-1.4-2.4-1.4c-0.6,0-1.1,0.1-1.4,0.4
		s-0.6,0.6-0.6,1c0,0.6,0.5,1,1.4,1.2l2,0.5c1,0.2,1.7,0.6,2.1,1.2s0.7,1.2,0.7,1.8c0,0.9-0.4,1.7-1.1,2.3S309,152.4,307.9,152.4z"
		/>
	<path d="M315.5,137v4.7l-0.1,1.4h0.1c0.3-0.5,0.7-0.9,1.3-1.2c0.6-0.3,1.2-0.5,1.9-0.5c1.3,0,2.2,0.4,2.9,1.2c0.7,0.8,1,1.8,1,3.2
		v6.3h-1.9v-6c0-1.9-0.8-2.9-2.5-2.9c-0.8,0-1.4,0.3-2,1c-0.5,0.6-0.8,1.4-0.8,2.2v5.7h-1.9v-15H315.5z"/>
</g>
<g class="st0">
	<path d="M325.9,143c1-1,2.3-1.6,3.8-1.6s2.8,0.5,3.8,1.6c1,1,1.5,2.3,1.5,3.9c0,1.6-0.5,2.9-1.5,3.9c-1,1-2.3,1.6-3.8,1.6
		s-2.8-0.5-3.8-1.6c-1-1-1.5-2.3-1.5-3.9C324.4,145.4,324.9,144.1,325.9,143z M327.3,149.6c0.7,0.7,1.5,1,2.4,1s1.7-0.3,2.4-1
		c0.7-0.7,1-1.6,1-2.7s-0.3-2-1-2.7c-0.7-0.7-1.5-1-2.4-1s-1.7,0.3-2.4,1c-0.7,0.7-1,1.6-1,2.7S326.7,148.9,327.3,149.6z"/>
	<path d="M338.2,141.8v1.7h0.1c0.2-0.6,0.6-1.1,1.2-1.4c0.6-0.3,1.3-0.5,2-0.5c0.2,0,0.4,0,0.7,0v1.9c-0.3,0-0.5,0-0.8,0
		c-0.9,0-1.7,0.3-2.3,0.8c-0.6,0.5-0.9,1.3-0.9,2.2v5.6h-1.9v-10.3H338.2z M348.7,152.2c-1.1,0-1.9-0.3-2.5-0.9
		c-0.6-0.6-0.9-1.4-0.9-2.4v-5.4h-1.8v-1.8h1.8v-3.2h1.9v3.2h2.5v1.8h-2.5v5.3c0,1.1,0.5,1.7,1.4,1.7c0.3,0,0.6-0.1,0.9-0.2l0.7,1.7
		C349.9,152.1,349.4,152.2,348.7,152.2z"/>
</g>
<g class="st0">
	<path d="M355,152.4c-1.1,0-2-0.3-2.7-0.9c-0.7-0.6-1.1-1.5-1.1-2.5c0-1.1,0.4-2,1.3-2.6c0.9-0.6,1.9-1,3.2-1c1.1,0,2.1,0.2,2.8,0.6
		v-0.3c0-0.8-0.3-1.4-0.8-1.8s-1.2-0.7-1.9-0.7c-0.6,0-1.1,0.1-1.5,0.4s-0.8,0.6-0.9,1.1l-1.8-0.8c0.2-0.6,0.7-1.2,1.4-1.7
		c0.7-0.5,1.6-0.8,2.8-0.8c1.3,0,2.4,0.4,3.3,1.2c0.9,0.8,1.3,1.9,1.3,3.3v6.2h-1.8v-1.4h-0.1C357.6,151.8,356.5,152.4,355,152.4z
		 M355.3,150.6c0.8,0,1.5-0.3,2.2-0.9c0.7-0.6,1-1.3,1-2.1c-0.5-0.4-1.4-0.7-2.5-0.7c-0.9,0-1.6,0.2-2.1,0.6
		c-0.5,0.4-0.7,0.9-0.7,1.4c0,0.5,0.2,0.9,0.7,1.2C354.2,150.5,354.7,150.6,355.3,150.6z"/>
	<path d="M366.8,156.9c-1.2,0-2.2-0.3-3-0.9c-0.8-0.6-1.3-1.3-1.7-2.1l1.8-0.7c0.2,0.6,0.6,1,1.1,1.4c0.5,0.4,1.1,0.6,1.8,0.6
		c1.1,0,1.9-0.3,2.5-1s0.9-1.5,0.9-2.6v-1h-0.1c-0.3,0.5-0.8,0.9-1.4,1.3s-1.3,0.5-2.1,0.5c-1.3,0-2.5-0.5-3.4-1.6
		c-1-1-1.4-2.4-1.4-3.9c0-1.6,0.5-2.9,1.4-3.9c1-1,2.1-1.6,3.4-1.6c0.8,0,1.5,0.2,2.1,0.5s1.1,0.8,1.4,1.3h0.1v-1.4h1.8v9.8
		c0,1.8-0.5,3.1-1.5,4C369.6,156.5,368.3,156.9,366.8,156.9z M367,150.6c0.9,0,1.7-0.3,2.3-1c0.6-0.7,1-1.6,1-2.7c0-1.1-0.3-2-1-2.7
		c-0.6-0.7-1.4-1-2.3-1c-0.9,0-1.7,0.3-2.3,1c-0.6,0.7-1,1.6-1,2.7s0.3,2,1,2.7C365.3,150.3,366.1,150.6,367,150.6z"/>
</g>
<g class="st0">
	<path d="M379,152.4c-1.6,0-2.8-0.5-3.8-1.6c-1-1-1.5-2.3-1.5-3.9c0-1.5,0.5-2.8,1.4-3.9c0.9-1.1,2.2-1.6,3.6-1.6
		c1.5,0,2.7,0.5,3.7,1.5s1.4,2.3,1.4,4l0,0.4h-8.1c0.1,1,0.4,1.9,1,2.5c0.6,0.6,1.4,0.9,2.2,0.9c1.4,0,2.3-0.6,2.8-1.8l1.7,0.7
		c-0.3,0.8-0.9,1.5-1.7,2C381.1,152.1,380.1,152.4,379,152.4z M381.8,145.7c0-0.6-0.3-1.1-0.8-1.7c-0.5-0.5-1.2-0.8-2.2-0.8
		c-0.7,0-1.3,0.2-1.9,0.7c-0.5,0.4-0.9,1.1-1.1,1.8H381.8z"/>
</g>
<g class="st0">
	<path d="M315.3,189.7h-2l-2.6-7.9l-2.5,7.9h-2l-3.3-10.3h2l2.3,7.8h0l2.5-7.8h2l2.5,7.8h0l2.3-7.8h2L315.3,189.7z"/>
</g>
<g class="st0">
	<path d="M324.3,190c-1.6,0-2.8-0.5-3.8-1.6s-1.5-2.3-1.5-3.9c0-1.5,0.5-2.8,1.4-3.9c0.9-1.1,2.2-1.6,3.6-1.6c1.5,0,2.7,0.5,3.7,1.5
		s1.4,2.3,1.4,4l0,0.4H321c0.1,1,0.4,1.9,1,2.5c0.6,0.6,1.4,0.9,2.2,0.9c1.4,0,2.3-0.6,2.8-1.8l1.7,0.7c-0.3,0.8-0.9,1.5-1.7,2
		S325.4,190,324.3,190z M327.1,183.3c0-0.6-0.3-1.1-0.8-1.7c-0.5-0.5-1.2-0.8-2.2-0.8c-0.7,0-1.3,0.2-1.9,0.7
		c-0.5,0.4-0.9,1.1-1.1,1.8H327.1z"/>
</g>
<g class="st0">
	<path d="M334.3,190c-1.1,0-2-0.3-2.7-0.9c-0.7-0.6-1.1-1.5-1.1-2.5c0-1.1,0.4-2,1.3-2.6c0.9-0.6,1.9-1,3.2-1c1.1,0,2.1,0.2,2.8,0.6
		v-0.3c0-0.8-0.3-1.4-0.8-1.8c-0.5-0.5-1.2-0.7-1.9-0.7c-0.6,0-1.1,0.1-1.5,0.4c-0.5,0.3-0.8,0.6-0.9,1.1l-1.8-0.8
		c0.2-0.6,0.7-1.2,1.4-1.7c0.7-0.5,1.6-0.8,2.8-0.8c1.3,0,2.4,0.4,3.3,1.2c0.9,0.8,1.3,1.9,1.3,3.3v6.2h-1.8v-1.4h-0.1
		C336.9,189.4,335.8,190,334.3,190z M334.6,188.2c0.8,0,1.5-0.3,2.2-0.9s1-1.3,1-2.1c-0.5-0.4-1.4-0.7-2.5-0.7
		c-0.9,0-1.6,0.2-2.1,0.6c-0.5,0.4-0.7,0.9-0.7,1.4c0,0.5,0.2,0.9,0.7,1.2S334,188.2,334.6,188.2z"/>
</g>
<g class="st0">
	<path d="M346,189.8c-1.1,0-1.9-0.3-2.5-0.9c-0.6-0.6-0.9-1.4-0.9-2.4v-5.4h-1.8v-1.8h1.8v-3.2h1.9v3.2h2.5v1.8h-2.5v5.3
		c0,1.1,0.5,1.7,1.4,1.7c0.3,0,0.6-0.1,0.9-0.2l0.7,1.7C347.2,189.7,346.6,189.8,346,189.8z"/>
</g>
<g class="st0">
	<path d="M351,174.6v4.7l-0.1,1.4h0.1c0.3-0.5,0.7-0.9,1.3-1.2c0.6-0.3,1.2-0.5,1.9-0.5c1.3,0,2.2,0.4,2.9,1.2s1,1.8,1,3.2v6.3h-1.9
		v-6c0-1.9-0.8-2.9-2.5-2.9c-0.8,0-1.4,0.3-2,1s-0.8,1.4-0.8,2.2v5.7h-1.9v-15H351z"/>
	<path d="M365.1,190c-1.6,0-2.8-0.5-3.8-1.6c-1-1-1.5-2.3-1.5-3.9c0-1.5,0.5-2.8,1.4-3.9s2.2-1.6,3.6-1.6c1.5,0,2.7,0.5,3.7,1.5
		s1.4,2.3,1.4,4l0,0.4h-8.1c0.1,1,0.4,1.9,1,2.5c0.6,0.6,1.4,0.9,2.2,0.9c1.4,0,2.3-0.6,2.8-1.8l1.7,0.7c-0.3,0.8-0.9,1.5-1.7,2
		C367.2,189.7,366.3,190,365.1,190z M367.9,183.3c0-0.6-0.3-1.1-0.8-1.7c-0.5-0.5-1.2-0.8-2.2-0.8c-0.7,0-1.3,0.2-1.9,0.7
		c-0.5,0.4-0.9,1.1-1.1,1.8H367.9z"/>
	<path d="M373.7,189.7h-1.9v-10.3h1.8v1.7h0.1c0.2-0.6,0.6-1,1.2-1.4c0.6-0.4,1.2-0.5,1.8-0.5s1.1,0.1,1.4,0.3l-0.7,1.8
		c-0.3-0.1-0.6-0.1-1-0.1c-0.7,0-1.3,0.3-1.9,0.8c-0.5,0.6-0.8,1.3-0.8,2.2V189.7z"/>
</g>
<g class="st0">
	<path d="M308.7,227.6c-1.5,0-2.8-0.5-3.8-1.6c-1-1-1.5-2.3-1.5-3.9s0.5-2.9,1.5-3.9c1-1,2.3-1.6,3.8-1.6c1.1,0,2.1,0.3,2.9,0.8
		c0.8,0.6,1.3,1.3,1.7,2.1l-1.8,0.7c-0.5-1.3-1.5-1.9-2.9-1.9c-0.9,0-1.6,0.3-2.3,1.1c-0.7,0.7-1,1.6-1,2.7s0.3,2,1,2.7
		c0.7,0.7,1.4,1,2.3,1c1.4,0,2.4-0.6,3-1.9l1.7,0.7c-0.4,0.8-0.9,1.5-1.7,2.1S309.9,227.6,308.7,227.6z"/>
	<path d="M315.8,218.2c1-1,2.3-1.6,3.8-1.6s2.8,0.5,3.8,1.6c1,1,1.5,2.3,1.5,3.9s-0.5,2.9-1.5,3.9c-1,1-2.3,1.6-3.8,1.6
		s-2.8-0.5-3.8-1.6c-1-1-1.5-2.3-1.5-3.9S314.8,219.3,315.8,218.2z M317.2,224.8c0.7,0.7,1.5,1,2.4,1s1.7-0.3,2.4-1
		c0.7-0.7,1-1.6,1-2.7c0-1.1-0.3-2-1-2.7c-0.7-0.7-1.5-1-2.4-1s-1.7,0.3-2.4,1c-0.7,0.7-1,1.6-1,2.7
		C316.2,223.2,316.6,224.1,317.2,224.8z"/>
	<path d="M330.4,227.6c-1.1,0-2.1-0.3-2.8-0.8c-0.7-0.6-1.3-1.3-1.6-2.1l1.7-0.7c0.5,1.3,1.5,1.9,2.8,1.9c0.6,0,1.1-0.1,1.5-0.4
		c0.4-0.3,0.6-0.6,0.6-1c0-0.7-0.5-1.1-1.4-1.4l-2.1-0.5c-0.7-0.2-1.3-0.5-1.9-1c-0.6-0.5-0.9-1.1-0.9-1.9c0-0.9,0.4-1.7,1.2-2.2
		s1.8-0.8,2.9-0.8c0.9,0,1.7,0.2,2.4,0.6s1.2,1,1.5,1.8l-1.7,0.7c-0.4-0.9-1.2-1.4-2.4-1.4c-0.6,0-1.1,0.1-1.4,0.4s-0.6,0.6-0.6,1
		c0,0.6,0.5,1,1.4,1.2l2,0.5c1,0.2,1.7,0.6,2.1,1.2c0.5,0.5,0.7,1.2,0.7,1.8c0,0.9-0.4,1.7-1.1,2.3
		C332.5,227.3,331.6,227.6,330.4,227.6z"/>
</g>
<g class="st0">
	<path d="M340.4,227.4c-1.1,0-1.9-0.3-2.5-0.9c-0.6-0.6-0.9-1.4-0.9-2.4v-5.4h-1.8V217h1.8v-3.2h1.9v3.2h2.5v1.8h-2.5v5.3
		c0,1.1,0.5,1.7,1.4,1.7c0.3,0,0.6-0.1,0.9-0.2l0.7,1.7C341.6,227.3,341.1,227.4,340.4,227.4z"/>
</g>
<g class="st0">
	<path d="M311.4,265.2c-2.2,0-4.1-0.7-5.6-2.2s-2.2-3.4-2.2-5.6c0-2.2,0.7-4.1,2.2-5.6s3.4-2.2,5.6-2.2c2.3,0,4.1,0.8,5.5,2.5
		l-1.3,1.3c-1-1.3-2.4-1.9-4.2-1.9c-1.6,0-3,0.6-4.1,1.7c-1.1,1.1-1.7,2.6-1.7,4.3s0.6,3.2,1.7,4.3c1.1,1.1,2.5,1.7,4.1,1.7
		c1.8,0,3.3-0.7,4.6-2.2l1.3,1.3c-0.7,0.8-1.5,1.5-2.6,2C313.8,265,312.7,265.2,311.4,265.2z"/>
</g>
<g class="st0">
	<path d="M332,262.9c-1.5,1.5-3.3,2.3-5.5,2.3s-4-0.8-5.5-2.3c-1.5-1.5-2.2-3.4-2.2-5.6c0-2.2,0.7-4.1,2.2-5.6
		c1.5-1.5,3.3-2.3,5.5-2.3c2.2,0,4,0.8,5.5,2.3c1.5,1.5,2.2,3.4,2.2,5.6C334.2,259.5,333.5,261.4,332,262.9z M322.4,261.7
		c1.1,1.1,2.5,1.7,4.1,1.7s3-0.6,4.1-1.7c1.1-1.1,1.7-2.6,1.7-4.3s-0.6-3.2-1.7-4.3c-1.1-1.1-2.5-1.7-4.1-1.7s-3,0.6-4.1,1.7
		c-1.1,1.1-1.7,2.6-1.7,4.3S321.3,260.5,322.4,261.7z"/>
	<path d="M345,264.9h-9.2v-1.9c2.7-2.8,4.5-4.6,5.3-5.4c0.7-0.8,1.1-1.4,1.4-1.8c0.2-0.4,0.4-0.9,0.4-1.5c0-0.6-0.2-1.1-0.7-1.6
		c-0.5-0.5-1.1-0.7-1.9-0.7c-0.7,0-1.3,0.2-1.8,0.6c-0.4,0.4-0.7,0.9-0.9,1.4l-1.8-0.7c0.2-0.8,0.7-1.5,1.5-2.1c0.8-0.7,1.7-1,2.9-1
		c1.3,0,2.4,0.4,3.3,1.2c0.9,0.8,1.3,1.8,1.3,2.9c0,1.4-0.8,2.9-2.3,4.5l-4.2,4.2h6.7V264.9z"/>
</g>
<g class="st0">
	<path d="M307.9,302.8c-1.1,0-2.1-0.3-2.8-0.8s-1.3-1.3-1.6-2.1l1.7-0.7c0.5,1.3,1.5,1.9,2.8,1.9c0.6,0,1.1-0.1,1.5-0.4
		c0.4-0.3,0.6-0.6,0.6-1c0-0.7-0.5-1.1-1.4-1.4l-2.1-0.5c-0.7-0.2-1.3-0.5-1.9-1c-0.6-0.5-0.9-1.1-0.9-1.9c0-0.9,0.4-1.6,1.2-2.2
		c0.8-0.6,1.8-0.9,2.9-0.9c0.9,0,1.7,0.2,2.4,0.6c0.7,0.4,1.2,1,1.5,1.8l-1.7,0.7c-0.4-0.9-1.2-1.4-2.4-1.4c-0.6,0-1.1,0.1-1.4,0.4
		s-0.6,0.6-0.6,1c0,0.6,0.5,1,1.4,1.2l2,0.5c1,0.2,1.7,0.6,2.1,1.2s0.7,1.2,0.7,1.8c0,0.9-0.4,1.7-1.1,2.3S309,302.8,307.9,302.8z"
		/>
</g>
<g class="st0">
	<path d="M314.6,293.4c1-1,2.3-1.6,3.8-1.6s2.8,0.5,3.8,1.6c1,1,1.5,2.3,1.5,3.9c0,1.6-0.5,2.9-1.5,3.9c-1,1-2.3,1.6-3.8,1.6
		s-2.8-0.5-3.8-1.6c-1-1-1.5-2.3-1.5-3.9C313.1,295.8,313.6,294.5,314.6,293.4z M316,300c0.7,0.7,1.5,1,2.4,1s1.7-0.3,2.4-1
		c0.7-0.7,1-1.6,1-2.7s-0.3-2-1-2.7c-0.7-0.7-1.5-1-2.4-1s-1.7,0.3-2.4,1c-0.7,0.7-1,1.6-1,2.7S315.4,299.3,316,300z"/>
	<path d="M327.3,302.5h-1.9v-15h1.9V302.5z"/>
</g>
<g class="st0">
	<path d="M332.8,302.8c-1.1,0-2-0.3-2.7-0.9c-0.7-0.6-1.1-1.5-1.1-2.5c0-1.1,0.4-2,1.3-2.6c0.9-0.6,1.9-1,3.2-1
		c1.1,0,2.1,0.2,2.8,0.6v-0.3c0-0.8-0.3-1.4-0.8-1.8c-0.5-0.5-1.2-0.7-1.9-0.7c-0.6,0-1.1,0.1-1.5,0.4c-0.5,0.3-0.8,0.6-0.9,1.1
		l-1.8-0.8c0.2-0.6,0.7-1.2,1.4-1.7c0.7-0.5,1.6-0.8,2.8-0.8c1.3,0,2.4,0.4,3.3,1.2c0.9,0.8,1.3,1.9,1.3,3.3v6.2h-1.8V301h-0.1
		C335.4,302.2,334.3,302.8,332.8,302.8z M333.1,301c0.8,0,1.5-0.3,2.2-0.9s1-1.3,1-2.1c-0.5-0.4-1.4-0.7-2.5-0.7
		c-0.9,0-1.6,0.2-2.1,0.6c-0.5,0.4-0.7,0.9-0.7,1.4c0,0.5,0.2,0.9,0.7,1.2S332.5,301,333.1,301z"/>
	<path d="M342.2,302.5h-1.9v-10.3h1.8v1.7h0.1c0.2-0.6,0.6-1,1.2-1.4c0.6-0.4,1.2-0.5,1.8-0.5s1.1,0.1,1.4,0.3l-0.7,1.8
		c-0.3-0.1-0.6-0.1-1-0.1c-0.7,0-1.3,0.3-1.9,0.8c-0.5,0.6-0.8,1.3-0.8,2.2V302.5z"/>
</g>
<g class="st0">
	<path d="M518.7,39.6c-1.5,0-2.8-0.5-3.8-1.6s-1.5-2.3-1.5-3.9c0-1.6,0.5-2.9,1.5-3.9s2.3-1.6,3.8-1.6c1.1,0,2.1,0.3,2.9,0.8
		c0.8,0.6,1.3,1.3,1.7,2.1l-1.8,0.7c-0.5-1.3-1.5-1.9-2.9-1.9c-0.9,0-1.6,0.4-2.3,1.1c-0.7,0.7-1,1.6-1,2.7s0.3,2,1,2.7
		c0.7,0.7,1.4,1,2.3,1c1.4,0,2.4-0.6,3-1.9l1.7,0.7c-0.3,0.8-0.9,1.5-1.7,2.1C520.8,39.3,519.9,39.6,518.7,39.6z"/>
	<path d="M526.9,24.2V29l-0.1,1.4h0.1c0.3-0.5,0.7-0.9,1.3-1.2c0.6-0.3,1.2-0.5,1.9-0.5c1.3,0,2.2,0.4,2.9,1.2s1,1.8,1,3.2v6.3h-1.9
		v-6c0-1.9-0.8-2.9-2.5-2.9c-0.8,0-1.4,0.3-2,1s-0.8,1.4-0.8,2.2v5.7H525v-15H526.9z"/>
</g>
<g class="st0">
	<path d="M541,39.6c-1.6,0-2.8-0.5-3.8-1.6c-1-1-1.5-2.3-1.5-3.9c0-1.5,0.5-2.8,1.4-3.9s2.2-1.6,3.6-1.6c1.5,0,2.7,0.5,3.7,1.5
		s1.4,2.3,1.4,4l0,0.4h-8.1c0.1,1,0.4,1.9,1,2.5c0.6,0.6,1.4,0.9,2.2,0.9c1.4,0,2.3-0.6,2.8-1.8l1.7,0.7c-0.3,0.8-0.9,1.5-1.7,2
		C543.1,39.3,542.1,39.6,541,39.6z M543.8,32.9c0-0.6-0.3-1.1-0.8-1.7c-0.5-0.5-1.2-0.8-2.2-0.8c-0.7,0-1.3,0.2-1.9,0.7
		c-0.5,0.4-0.9,1.1-1.1,1.8H543.8z"/>
</g>
<g class="st0">
	<path d="M551,39.6c-1.1,0-2-0.3-2.7-0.9c-0.7-0.6-1.1-1.5-1.1-2.5c0-1.1,0.4-2,1.3-2.6c0.9-0.6,1.9-1,3.2-1c1.1,0,2.1,0.2,2.8,0.6
		v-0.3c0-0.8-0.3-1.4-0.8-1.8c-0.5-0.5-1.2-0.7-1.9-0.7c-0.6,0-1.1,0.1-1.5,0.4c-0.5,0.3-0.8,0.6-0.9,1.1l-1.8-0.8
		c0.2-0.6,0.7-1.2,1.4-1.7c0.7-0.5,1.6-0.8,2.8-0.8c1.3,0,2.4,0.4,3.3,1.2c0.9,0.8,1.3,1.9,1.3,3.3v6.2h-1.8v-1.4h-0.1
		C553.6,39,552.5,39.6,551,39.6z M551.3,37.8c0.8,0,1.5-0.3,2.2-0.9c0.7-0.6,1-1.3,1-2.1c-0.5-0.4-1.4-0.7-2.5-0.7
		c-0.9,0-1.6,0.2-2.1,0.6c-0.5,0.4-0.7,0.9-0.7,1.4c0,0.5,0.2,0.9,0.7,1.2S550.7,37.8,551.3,37.8z"/>
	<path d="M563.8,39.6c-0.8,0-1.5-0.2-2.1-0.5s-1.1-0.8-1.4-1.3h-0.1l0.1,1.4v4.5h-1.9V29h1.8v1.4h0.1c0.3-0.5,0.8-0.9,1.4-1.3
		s1.3-0.5,2.1-0.5c1.3,0,2.5,0.5,3.4,1.6c1,1,1.4,2.4,1.4,3.9c0,1.6-0.5,2.9-1.4,3.9C566.3,39.1,565.2,39.6,563.8,39.6z M563.5,37.8
		c0.9,0,1.7-0.3,2.3-1c0.6-0.7,1-1.6,1-2.7s-0.3-2-1-2.7c-0.6-0.7-1.4-1-2.3-1c-0.9,0-1.7,0.3-2.3,1c-0.6,0.7-1,1.6-1,2.7
		c0,1.1,0.3,2,1,2.7C561.8,37.5,562.6,37.8,563.5,37.8z"/>
</g>
<g class="st0">
	<path d="M519.4,77.2c-0.8,0-1.5-0.2-2.1-0.5s-1.1-0.8-1.4-1.3h-0.1l0.1,1.4v4.5h-1.9V66.6h1.8V68h0.1c0.3-0.5,0.8-0.9,1.4-1.3
		s1.3-0.5,2.1-0.5c1.3,0,2.5,0.5,3.4,1.6c1,1,1.4,2.4,1.4,3.9c0,1.6-0.5,2.9-1.4,3.9C521.8,76.7,520.7,77.2,519.4,77.2z M519.1,75.4
		c0.9,0,1.7-0.3,2.3-1c0.6-0.7,1-1.6,1-2.7s-0.3-2-1-2.7c-0.6-0.7-1.4-1-2.3-1c-0.9,0-1.7,0.3-2.3,1c-0.6,0.7-1,1.6-1,2.7
		c0,1.1,0.3,2,1,2.7C517.4,75.1,518.1,75.4,519.1,75.4z"/>
</g>
<g class="st0">
	<path d="M527.9,76.9h-1.9V66.6h1.8v1.7h0.1c0.2-0.6,0.6-1,1.2-1.4s1.2-0.5,1.8-0.5s1.1,0.1,1.4,0.3l-0.7,1.8
		c-0.3-0.1-0.6-0.1-1-0.1c-0.7,0-1.3,0.3-1.9,0.8c-0.5,0.6-0.8,1.3-0.8,2.2V76.9z"/>
</g>
<g class="st0">
	<path d="M533.8,67.8c1-1,2.3-1.6,3.8-1.6s2.8,0.5,3.8,1.6s1.5,2.3,1.5,3.9c0,1.6-0.5,2.9-1.5,3.9s-2.3,1.6-3.8,1.6
		s-2.8-0.5-3.8-1.6c-1-1-1.5-2.3-1.5-3.9C532.3,70.2,532.8,68.9,533.8,67.8z M535.3,74.4c0.7,0.7,1.5,1,2.4,1s1.7-0.3,2.4-1
		s1-1.6,1-2.7s-0.3-2-1-2.7c-0.7-0.7-1.5-1-2.4-1s-1.7,0.3-2.4,1c-0.7,0.7-1,1.6-1,2.7S534.6,73.7,535.3,74.4z"/>
</g>
<g class="st0">
	<path d="M548.8,77c-1.1,0-1.9-0.3-2.5-0.9c-0.6-0.6-0.9-1.4-0.9-2.4v-5.4h-1.8v-1.8h1.8v-3.2h1.9v3.2h2.5v1.8h-2.5v5.3
		c0,1.1,0.5,1.7,1.4,1.7c0.3,0,0.6-0.1,0.9-0.2l0.7,1.7C549.9,76.9,549.4,77,548.8,77z"/>
</g>
<g class="st0">
	<path d="M556.3,77.2c-1.6,0-2.8-0.5-3.8-1.6c-1-1-1.5-2.3-1.5-3.9c0-1.5,0.5-2.8,1.4-3.9s2.2-1.6,3.6-1.6c1.5,0,2.7,0.5,3.7,1.5
		s1.4,2.3,1.4,4l0,0.4H553c0.1,1,0.4,1.9,1,2.5c0.6,0.6,1.4,0.9,2.2,0.9c1.4,0,2.3-0.6,2.8-1.8l1.7,0.7c-0.3,0.8-0.9,1.5-1.7,2
		C558.4,76.9,557.5,77.2,556.3,77.2z M559.1,70.5c0-0.6-0.3-1.1-0.8-1.7c-0.5-0.5-1.2-0.8-2.2-0.8c-0.7,0-1.3,0.2-1.9,0.7
		c-0.5,0.4-0.9,1.1-1.1,1.8H559.1z"/>
</g>
<g class="st0">
	<path d="M567.8,77.2c-1.5,0-2.8-0.5-3.8-1.6c-1-1-1.5-2.3-1.5-3.9c0-1.6,0.5-2.9,1.5-3.9c1-1,2.3-1.6,3.8-1.6
		c1.1,0,2.1,0.3,2.9,0.8c0.8,0.6,1.3,1.3,1.7,2.1l-1.8,0.7c-0.5-1.3-1.5-1.9-2.9-1.9c-0.9,0-1.6,0.4-2.3,1.1c-0.7,0.7-1,1.6-1,2.7
		s0.3,2,1,2.7c0.7,0.7,1.4,1,2.3,1c1.4,0,2.4-0.6,3-1.9l1.7,0.7c-0.4,0.8-0.9,1.5-1.7,2.1C569.9,76.9,568.9,77.2,567.8,77.2z"/>
</g>
<g class="st0">
	<path d="M578.4,77c-1.1,0-1.9-0.3-2.5-0.9c-0.6-0.6-0.9-1.4-0.9-2.4v-5.4h-1.8v-1.8h1.8v-3.2h1.9v3.2h2.5v1.8H577v5.3
		c0,1.1,0.5,1.7,1.4,1.7c0.3,0,0.6-0.1,0.9-0.2l0.7,1.7C579.5,76.9,579,77,578.4,77z"/>
</g>
<g class="st0">
	<path d="M519.4,114.8c-0.8,0-1.5-0.2-2.1-0.5s-1.1-0.8-1.4-1.3h-0.1l0.1,1.4v4.5h-1.9v-14.8h1.8v1.4h0.1c0.3-0.5,0.8-0.9,1.4-1.3
		s1.3-0.5,2.1-0.5c1.3,0,2.5,0.5,3.4,1.6c1,1,1.4,2.4,1.4,3.9c0,1.6-0.5,2.9-1.4,3.9C521.8,114.3,520.7,114.8,519.4,114.8z
		 M519.1,113c0.9,0,1.7-0.3,2.3-1c0.6-0.7,1-1.6,1-2.7s-0.3-2-1-2.7c-0.6-0.7-1.4-1-2.3-1c-0.9,0-1.7,0.3-2.3,1
		c-0.6,0.7-1,1.6-1,2.7c0,1.1,0.3,2,1,2.7C517.4,112.7,518.1,113,519.1,113z"/>
</g>
<g class="st0">
	<path d="M527.9,114.5h-1.9v-10.3h1.8v1.7h0.1c0.2-0.6,0.6-1,1.2-1.4s1.2-0.5,1.8-0.5s1.1,0.1,1.4,0.3l-0.7,1.8
		c-0.3-0.1-0.6-0.1-1-0.1c-0.7,0-1.3,0.3-1.9,0.8c-0.5,0.6-0.8,1.3-0.8,2.2V114.5z"/>
</g>
<g class="st0">
	<path d="M533.8,105.4c1-1,2.3-1.6,3.8-1.6s2.8,0.5,3.8,1.6s1.5,2.3,1.5,3.9c0,1.6-0.5,2.9-1.5,3.9s-2.3,1.6-3.8,1.6
		s-2.8-0.5-3.8-1.6c-1-1-1.5-2.3-1.5-3.9C532.3,107.8,532.8,106.5,533.8,105.4z M535.3,112c0.7,0.7,1.5,1,2.4,1s1.7-0.3,2.4-1
		s1-1.6,1-2.7s-0.3-2-1-2.7c-0.7-0.7-1.5-1-2.4-1s-1.7,0.3-2.4,1c-0.7,0.7-1,1.6-1,2.7S534.6,111.3,535.3,112z"/>
</g>
<g class="st0">
	<path d="M544.5,114.5v-10.3h1.8v1.4h0.1c0.3-0.5,0.7-0.9,1.4-1.2c0.6-0.3,1.2-0.5,1.8-0.5c1.6,0,2.7,0.7,3.3,2c0.8-1.3,2-2,3.6-2
		c1.2,0,2.1,0.4,2.8,1.2c0.6,0.8,0.9,1.8,0.9,3.2v6.3h-1.9v-6c0-1-0.2-1.8-0.6-2.2s-1-0.7-1.7-0.7c-0.8,0-1.4,0.3-1.9,1
		c-0.5,0.6-0.7,1.4-0.7,2.2v5.7h-1.9v-6c0-1-0.2-1.8-0.6-2.2s-1-0.7-1.7-0.7c-0.8,0-1.4,0.3-1.9,1c-0.5,0.6-0.7,1.4-0.7,2.2v5.7
		H544.5z"/>
</g>
<g class="st0">
	<path d="M563.3,105.4c1-1,2.3-1.6,3.8-1.6s2.8,0.5,3.8,1.6c1,1,1.5,2.3,1.5,3.9c0,1.6-0.5,2.9-1.5,3.9c-1,1-2.3,1.6-3.8,1.6
		s-2.8-0.5-3.8-1.6s-1.5-2.3-1.5-3.9C561.8,107.8,562.3,106.5,563.3,105.4z M564.7,112c0.7,0.7,1.5,1,2.4,1s1.7-0.3,2.4-1
		c0.7-0.7,1-1.6,1-2.7s-0.3-2-1-2.7c-0.7-0.7-1.5-1-2.4-1s-1.7,0.3-2.4,1c-0.7,0.7-1,1.6-1,2.7S564,111.3,564.7,112z"/>
</g>
<g class="st0">
	<path d="M578.3,114.6c-1.1,0-1.9-0.3-2.5-0.9c-0.6-0.6-0.9-1.4-0.9-2.4v-5.4h-1.8v-1.8h1.8V101h1.9v3.2h2.5v1.8h-2.5v5.3
		c0,1.1,0.5,1.7,1.4,1.7c0.3,0,0.6-0.1,0.9-0.2l0.7,1.7C579.4,114.5,578.9,114.6,578.3,114.6z"/>
</g>
<g class="st0">
	<path d="M585.8,114.8c-1.6,0-2.8-0.5-3.8-1.6c-1-1-1.5-2.3-1.5-3.9c0-1.5,0.5-2.8,1.4-3.9s2.2-1.6,3.6-1.6c1.5,0,2.7,0.5,3.7,1.5
		s1.4,2.3,1.4,4l0,0.4h-8.1c0.1,1,0.4,1.9,1,2.5c0.6,0.6,1.4,0.9,2.2,0.9c1.4,0,2.3-0.6,2.8-1.8l1.7,0.7c-0.3,0.8-0.9,1.5-1.7,2
		C587.9,114.5,586.9,114.8,585.8,114.8z M588.6,108.1c0-0.6-0.3-1.1-0.8-1.7c-0.5-0.5-1.2-0.8-2.2-0.8c-0.7,0-1.3,0.2-1.9,0.7
		c-0.5,0.4-0.9,1.1-1.1,1.8H588.6z"/>
</g>
<g class="st0">
	<path d="M515.9,141.8v1.4h0.1c0.3-0.5,0.7-0.9,1.3-1.2c0.6-0.3,1.2-0.5,1.9-0.5c1.3,0,2.2,0.4,2.9,1.2s1,1.8,1,3.2v6.3h-1.9v-6
		c0-1.9-0.8-2.9-2.5-2.9c-0.8,0-1.4,0.3-2,1s-0.8,1.4-0.8,2.2v5.7H514v-10.3H515.9z"/>
</g>
<g class="st0">
	<path d="M526.3,143c1-1,2.3-1.6,3.8-1.6s2.8,0.5,3.8,1.6c1,1,1.5,2.3,1.5,3.9c0,1.6-0.5,2.9-1.5,3.9c-1,1-2.3,1.6-3.8,1.6
		s-2.8-0.5-3.8-1.6s-1.5-2.3-1.5-3.9C524.8,145.4,525.3,144.1,526.3,143z M527.7,149.6c0.7,0.7,1.5,1,2.4,1s1.7-0.3,2.4-1
		c0.7-0.7,1-1.6,1-2.7s-0.3-2-1-2.7c-0.7-0.7-1.5-1-2.4-1s-1.7,0.3-2.4,1c-0.7,0.7-1,1.6-1,2.7S527.1,148.9,527.7,149.6z"/>
</g>
<g class="st0">
	<path d="M538.8,141.8v1.4h0.1c0.3-0.5,0.7-0.9,1.3-1.2s1.2-0.5,1.9-0.5c1.3,0,2.2,0.4,2.9,1.2c0.7,0.8,1,1.8,1,3.2v6.3h-1.9v-6
		c0-1.9-0.8-2.9-2.5-2.9c-0.8,0-1.4,0.3-2,1c-0.5,0.6-0.8,1.4-0.8,2.2v5.7h-1.9v-10.3H538.8z"/>
	<path d="M548.3,146.4v-1.6h6.7v1.6H548.3z"/>
</g>
<g class="st0">
	<path d="M562.8,152.4c-0.8,0-1.5-0.2-2.1-0.5s-1.1-0.8-1.4-1.3h-0.1l0.1,1.4v4.5h-1.9v-14.8h1.8v1.4h0.1c0.3-0.5,0.8-0.9,1.4-1.3
		s1.3-0.5,2.1-0.5c1.3,0,2.5,0.5,3.4,1.6s1.4,2.4,1.4,3.9c0,1.6-0.5,2.9-1.4,3.9S564.1,152.4,562.8,152.4z M562.4,150.6
		c0.9,0,1.7-0.3,2.3-1c0.6-0.7,1-1.6,1-2.7s-0.3-2-1-2.7c-0.6-0.7-1.4-1-2.3-1c-0.9,0-1.7,0.3-2.3,1c-0.6,0.7-1,1.6-1,2.7
		c0,1.1,0.3,2,1,2.7C560.8,150.3,561.5,150.6,562.4,150.6z"/>
</g>
<g class="st0">
	<path d="M571.2,152.1h-1.9v-10.3h1.8v1.7h0.1c0.2-0.6,0.6-1,1.2-1.4c0.6-0.4,1.2-0.5,1.8-0.5s1.1,0.1,1.4,0.3l-0.7,1.8
		c-0.3-0.1-0.6-0.1-1-0.1c-0.7,0-1.3,0.3-1.9,0.8c-0.5,0.6-0.8,1.3-0.8,2.2V152.1z"/>
</g>
<g class="st0">
	<path d="M577.2,143c1-1,2.3-1.6,3.8-1.6s2.8,0.5,3.8,1.6c1,1,1.5,2.3,1.5,3.9c0,1.6-0.5,2.9-1.5,3.9c-1,1-2.3,1.6-3.8,1.6
		s-2.8-0.5-3.8-1.6s-1.5-2.3-1.5-3.9C575.7,145.4,576.2,144.1,577.2,143z M578.6,149.6c0.7,0.7,1.5,1,2.4,1s1.7-0.3,2.4-1
		c0.7-0.7,1-1.6,1-2.7s-0.3-2-1-2.7c-0.7-0.7-1.5-1-2.4-1s-1.7,0.3-2.4,1c-0.7,0.7-1,1.6-1,2.7S578,148.9,578.6,149.6z"/>
</g>
<g class="st0">
	<path d="M592.7,136.9c0.6,0,1.1,0.1,1.6,0.3l-0.7,1.7c-0.2-0.1-0.5-0.2-0.9-0.2c-0.5,0-0.9,0.2-1.2,0.5s-0.5,0.7-0.5,1.3v1.3h6.6
		v10.3h-1.9v-8.5h-4.6v8.5H589v-8.5h-1.9v-1.8h1.9v-1.4c0-1,0.3-1.9,1-2.5C590.7,137.3,591.6,136.9,592.7,136.9z M597.5,139.2
		c-0.3,0.3-0.6,0.4-1,0.4s-0.7-0.1-1-0.4c-0.3-0.3-0.4-0.6-0.4-1s0.1-0.7,0.4-1c0.3-0.3,0.6-0.4,1-0.4s0.7,0.1,1,0.4
		c0.3,0.3,0.4,0.6,0.4,1S597.8,138.9,597.5,139.2z"/>
</g>
<g class="st0">
	<path d="M604.4,152.2c-1.1,0-1.9-0.3-2.5-0.9c-0.6-0.6-0.9-1.4-0.9-2.4v-5.4h-1.8v-1.8h1.8v-3.2h1.9v3.2h2.5v1.8H603v5.3
		c0,1.1,0.5,1.7,1.4,1.7c0.3,0,0.6-0.1,0.9-0.2l0.7,1.7C605.5,152.1,605,152.2,604.4,152.2z"/>
</g>
<g class="st0">
	<path d="M519.5,190c-0.8,0-1.5-0.2-2.1-0.5s-1.1-0.8-1.4-1.3h-0.1v1.4H514v-15h1.9v4.7l-0.1,1.4h0.1c0.3-0.5,0.8-0.9,1.4-1.3
		s1.3-0.5,2.1-0.5c1.3,0,2.5,0.5,3.4,1.6c1,1,1.4,2.4,1.4,3.9c0,1.6-0.5,2.9-1.4,3.9C521.9,189.5,520.8,190,519.5,190z M519.1,188.2
		c0.9,0,1.7-0.3,2.3-1c0.6-0.7,1-1.6,1-2.7s-0.3-2-1-2.7c-0.6-0.7-1.4-1-2.3-1c-0.9,0-1.7,0.3-2.3,1c-0.6,0.7-1,1.6-1,2.7
		c0,1.1,0.3,2,1,2.7C517.5,187.9,518.2,188.2,519.1,188.2z"/>
	<path d="M535,189.7h-1.8v-1.4h-0.1c-0.3,0.5-0.7,0.9-1.3,1.2c-0.6,0.3-1.2,0.5-1.9,0.5c-1.3,0-2.3-0.4-2.9-1.2s-1-1.8-1-3.2v-6.3
		h1.9v6c0,1.9,0.8,2.9,2.5,2.9c0.8,0,1.4-0.3,2-1c0.5-0.6,0.8-1.4,0.8-2.2v-5.7h1.9V189.7z"/>
</g>
<g class="st0">
	<path d="M541.1,190c-1.1,0-2.1-0.3-2.8-0.8s-1.3-1.3-1.6-2.1l1.7-0.7c0.5,1.3,1.5,1.9,2.8,1.9c0.6,0,1.1-0.1,1.5-0.4
		c0.4-0.3,0.6-0.6,0.6-1c0-0.7-0.5-1.1-1.4-1.4l-2.1-0.5c-0.7-0.2-1.3-0.5-1.9-1s-0.9-1.1-0.9-1.9c0-0.9,0.4-1.6,1.2-2.2
		c0.8-0.6,1.8-0.9,2.9-0.9c0.9,0,1.7,0.2,2.4,0.6c0.7,0.4,1.2,1,1.5,1.8l-1.7,0.7c-0.4-0.9-1.2-1.4-2.4-1.4c-0.6,0-1.1,0.1-1.4,0.4
		c-0.4,0.2-0.6,0.6-0.6,1c0,0.6,0.5,1,1.4,1.2l2,0.5c1,0.2,1.7,0.6,2.1,1.2s0.7,1.2,0.7,1.8c0,0.9-0.4,1.7-1.1,2.3
		S542.3,190,541.1,190z"/>
</g>
<g class="st0">
	<path d="M514.4,227.3v-15h5.4c1.2,0,2.2,0.4,3.1,1.2c0.9,0.8,1.3,1.8,1.3,2.9c0,0.7-0.2,1.3-0.6,1.9c-0.4,0.5-0.9,1-1.5,1.2v0.1
		c0.7,0.3,1.4,0.7,1.8,1.3c0.5,0.6,0.7,1.3,0.7,2.1c0,1.2-0.5,2.3-1.4,3.1c-0.9,0.8-2,1.2-3.2,1.2H514.4z M516.3,218.7h3.5
		c0.7,0,1.3-0.2,1.8-0.7c0.4-0.5,0.7-1,0.7-1.6s-0.2-1.1-0.6-1.6c-0.4-0.5-1-0.7-1.7-0.7h-3.6V218.7z M516.3,225.4h3.9
		c0.7,0,1.3-0.3,1.8-0.8c0.5-0.5,0.7-1.1,0.7-1.7c0-0.6-0.2-1.2-0.7-1.7c-0.5-0.5-1.1-0.8-1.9-0.8h-3.8V225.4z"/>
</g>
<g class="st0">
	<path d="M525.4,227.3l5.7-15h2.2l5.7,15h-2.1l-1.4-4.1H529l-1.5,4.1H525.4z M529.6,221.4h5l-2.5-6.8h-0.1L529.6,221.4z"/>
	<path d="M540.6,227.3v-15h5.1c1.3,0,2.4,0.4,3.3,1.3c0.9,0.8,1.4,1.9,1.4,3.2c0,1.1-0.3,2-1,2.8s-1.5,1.3-2.6,1.5l0,0.1l4.2,6.1
		v0.1h-2.3l-4.1-6.1h-2.1v6.1H540.6z M542.6,219.4h3.1c0.8,0,1.4-0.3,2-0.8s0.8-1.1,0.8-1.9c0-0.7-0.2-1.3-0.7-1.8
		c-0.5-0.5-1.1-0.8-2-0.8h-3.2V219.4z"/>
	<path d="M557.9,227.3H556v-13.2h-4.2v-1.8h10.3v1.8h-4.2V227.3z"/>
</g>
<g class="st0">
	<path class="st1" d="M518.7,265.2c-1.6,0-2.8-0.5-3.8-1.6c-1-1-1.5-2.3-1.5-3.9c0-1.5,0.5-2.8,1.4-3.9s2.2-1.6,3.6-1.6
		c1.5,0,2.7,0.5,3.7,1.5s1.4,2.3,1.4,4l0,0.4h-8.1c0.1,1,0.4,1.9,1,2.5c0.6,0.6,1.4,0.9,2.2,0.9c1.4,0,2.3-0.6,2.8-1.8l1.7,0.7
		c-0.3,0.8-0.9,1.5-1.7,2C520.7,264.9,519.8,265.2,518.7,265.2z M521.5,258.5c0-0.6-0.3-1.1-0.8-1.7c-0.5-0.5-1.2-0.8-2.2-0.8
		c-0.7,0-1.3,0.2-1.9,0.7c-0.5,0.4-0.9,1.1-1.1,1.8H521.5z"/>
</g>
<g class="st0">
	<path class="st1" d="M530.1,265.2c-1.5,0-2.8-0.5-3.8-1.6c-1-1-1.5-2.3-1.5-3.9c0-1.6,0.5-2.9,1.5-3.9c1-1,2.3-1.6,3.8-1.6
		c1.1,0,2.1,0.3,2.9,0.8c0.8,0.6,1.3,1.3,1.7,2.1l-1.8,0.7c-0.5-1.3-1.5-1.9-2.9-1.9c-0.9,0-1.6,0.4-2.3,1.1c-0.7,0.7-1,1.6-1,2.7
		s0.3,2,1,2.7c0.7,0.7,1.4,1,2.3,1c1.4,0,2.4-0.6,3-1.9l1.7,0.7c-0.4,0.8-0.9,1.5-1.7,2.1C532.2,264.9,531.2,265.2,530.1,265.2z"/>
</g>
<g class="st0">
	<path class="st1" d="M537.1,255.8c1-1,2.3-1.6,3.8-1.6s2.8,0.5,3.8,1.6c1,1,1.5,2.3,1.5,3.9c0,1.6-0.5,2.9-1.5,3.9
		c-1,1-2.3,1.6-3.8,1.6s-2.8-0.5-3.8-1.6s-1.5-2.3-1.5-3.9C535.6,258.2,536.1,256.9,537.1,255.8z M538.6,262.4c0.7,0.7,1.5,1,2.4,1
		s1.7-0.3,2.4-1c0.7-0.7,1-1.6,1-2.7s-0.3-2-1-2.7c-0.7-0.7-1.5-1-2.4-1s-1.7,0.3-2.4,1c-0.7,0.7-1,1.6-1,2.7
		S537.9,261.7,538.6,262.4z"/>
	<path class="st1" d="M548,259.2v-1.6h6.7v1.6H548z"/>
	<path class="st1" d="M562,249.8c0.6,0,1.1,0.1,1.6,0.3l-0.7,1.7c-0.2-0.1-0.5-0.2-0.9-0.2c-0.5,0-0.9,0.2-1.2,0.5s-0.5,0.7-0.5,1.3
		v1.3h2.7v1.8h-2.7v8.5h-1.9v-8.5h-1.9v-1.8h1.9v-1.4c0-1,0.3-1.9,1-2.5C560,250.1,560.9,249.8,562,249.8z"/>
	<path class="st1" d="M566.7,264.9h-1.9v-10.3h1.8v1.7h0.1c0.2-0.6,0.6-1,1.2-1.4c0.6-0.4,1.2-0.5,1.8-0.5s1.1,0.1,1.4,0.3l-0.7,1.8
		c-0.3-0.1-0.6-0.1-1-0.1c-0.7,0-1.3,0.3-1.9,0.8c-0.5,0.6-0.8,1.3-0.8,2.2V264.9z"/>
</g>
<g class="st0">
	<path class="st1" d="M574.5,252c-0.3,0.3-0.6,0.4-1,0.4s-0.7-0.1-1-0.4c-0.3-0.3-0.4-0.6-0.4-1s0.1-0.7,0.4-1s0.6-0.4,1-0.4
		s0.7,0.1,1,0.4c0.3,0.3,0.4,0.6,0.4,1S574.8,251.7,574.5,252z M574.5,264.9h-1.9v-10.3h1.9V264.9z"/>
</g>
<g class="st0">
	<path class="st1" d="M581.6,265.2c-1.6,0-2.8-0.5-3.8-1.6c-1-1-1.5-2.3-1.5-3.9c0-1.5,0.5-2.8,1.4-3.9s2.2-1.6,3.6-1.6
		c1.5,0,2.7,0.5,3.7,1.5s1.4,2.3,1.4,4l0,0.4h-8.1c0.1,1,0.4,1.9,1,2.5c0.6,0.6,1.4,0.9,2.2,0.9c1.4,0,2.3-0.6,2.8-1.8l1.7,0.7
		c-0.3,0.8-0.9,1.5-1.7,2C583.7,264.9,582.7,265.2,581.6,265.2z M584.4,258.5c0-0.6-0.3-1.1-0.8-1.7c-0.5-0.5-1.2-0.8-2.2-0.8
		c-0.7,0-1.3,0.2-1.9,0.7c-0.5,0.4-0.9,1.1-1.1,1.8H584.4z"/>
	<path class="st1" d="M590,254.6v1.4h0.1c0.3-0.5,0.7-0.9,1.3-1.2c0.6-0.3,1.2-0.5,1.9-0.5c1.3,0,2.2,0.4,2.9,1.2s1,1.8,1,3.2v6.3
		h-1.9v-6c0-1.9-0.8-2.9-2.5-2.9c-0.8,0-1.4,0.3-2,1s-0.8,1.4-0.8,2.2v5.7h-1.9v-10.3H590z"/>
	<path class="st1" d="M603.9,265.2c-1.3,0-2.5-0.5-3.4-1.6s-1.4-2.4-1.4-3.9c0-1.6,0.5-2.9,1.4-3.9s2.1-1.6,3.4-1.6
		c0.8,0,1.5,0.2,2.1,0.5s1.1,0.8,1.4,1.3h0.1l-0.1-1.4v-4.7h1.9v15h-1.8v-1.4h-0.1c-0.3,0.5-0.8,0.9-1.4,1.3
		S604.7,265.2,603.9,265.2z M604.2,263.4c0.9,0,1.7-0.3,2.3-1c0.6-0.7,1-1.6,1-2.7c0-1.1-0.3-2-1-2.7c-0.6-0.7-1.4-1-2.3-1
		c-0.9,0-1.7,0.3-2.3,1c-0.6,0.7-1,1.6-1,2.7s0.3,2,1,2.7C602.5,263.1,603.3,263.4,604.2,263.4z"/>
	<path class="st1" d="M613.6,264.9h-1.9v-15h1.9V264.9z"/>
	<path class="st1" d="M618.7,269.4h-2l2.4-5.2l-4.2-9.6h2.1l3.1,7.4h0l3-7.4h2.1L618.7,269.4z"/>
</g>
<g class="st0">
	<path d="M518.7,302.8c-1.5,0-2.8-0.5-3.8-1.6s-1.5-2.3-1.5-3.9c0-1.6,0.5-2.9,1.5-3.9s2.3-1.6,3.8-1.6c1.1,0,2.1,0.3,2.9,0.8
		c0.8,0.6,1.3,1.3,1.7,2.1l-1.8,0.7c-0.5-1.3-1.5-1.9-2.9-1.9c-0.9,0-1.6,0.4-2.3,1.1c-0.7,0.7-1,1.6-1,2.7s0.3,2,1,2.7
		c0.7,0.7,1.4,1,2.3,1c1.4,0,2.4-0.6,3-1.9l1.7,0.7c-0.3,0.8-0.9,1.5-1.7,2.1C520.8,302.5,519.9,302.8,518.7,302.8z"/>
	<path d="M526.9,302.5H525v-15h1.9V302.5z"/>
	<path d="M531.4,289.6c-0.3,0.3-0.6,0.4-1,0.4s-0.7-0.1-1-0.4c-0.3-0.3-0.4-0.6-0.4-1s0.1-0.7,0.4-1s0.6-0.4,1-0.4s0.7,0.1,1,0.4
		c0.3,0.3,0.4,0.6,0.4,1S531.6,289.3,531.4,289.6z M531.4,302.5h-1.9v-10.3h1.9V302.5z"/>
</g>
<g class="st0">
	<path d="M533.9,302.5v-10.3h1.8v1.4h0.1c0.3-0.5,0.7-0.9,1.4-1.2c0.6-0.3,1.2-0.5,1.8-0.5c1.6,0,2.7,0.7,3.3,2c0.8-1.3,2-2,3.6-2
		c1.2,0,2.1,0.4,2.8,1.2c0.6,0.8,0.9,1.8,0.9,3.2v6.3h-1.9v-6c0-1-0.2-1.8-0.6-2.2c-0.4-0.4-1-0.7-1.7-0.7c-0.8,0-1.4,0.3-1.9,1
		c-0.5,0.6-0.7,1.4-0.7,2.2v5.7h-1.9v-6c0-1-0.2-1.8-0.6-2.2s-1-0.7-1.7-0.7c-0.8,0-1.4,0.3-1.9,1c-0.5,0.6-0.7,1.4-0.7,2.2v5.7
		H533.9z"/>
</g>
<g class="st0">
	<path d="M554.9,302.8c-1.1,0-2-0.3-2.7-0.9c-0.7-0.6-1.1-1.5-1.1-2.5c0-1.1,0.4-2,1.3-2.6c0.9-0.6,1.9-1,3.2-1
		c1.1,0,2.1,0.2,2.8,0.6v-0.3c0-0.8-0.3-1.4-0.8-1.8c-0.5-0.5-1.2-0.7-1.9-0.7c-0.6,0-1.1,0.1-1.5,0.4c-0.5,0.3-0.8,0.6-0.9,1.1
		l-1.8-0.8c0.2-0.6,0.7-1.2,1.4-1.7c0.7-0.5,1.6-0.8,2.8-0.8c1.3,0,2.4,0.4,3.3,1.2c0.9,0.8,1.3,1.9,1.3,3.3v6.2h-1.8V301h-0.1
		C557.5,302.2,556.4,302.8,554.9,302.8z M555.2,301c0.8,0,1.5-0.3,2.2-0.9c0.7-0.6,1-1.3,1-2.1c-0.5-0.4-1.4-0.7-2.5-0.7
		c-0.9,0-1.6,0.2-2.1,0.6c-0.5,0.4-0.7,0.9-0.7,1.4c0,0.5,0.2,0.9,0.7,1.2C554.2,300.9,554.7,301,555.2,301z"/>
</g>
<g class="st0">
	<path d="M566.7,302.6c-1.1,0-1.9-0.3-2.5-0.9c-0.6-0.6-0.9-1.4-0.9-2.4v-5.4h-1.8v-1.8h1.8V289h1.9v3.2h2.5v1.8h-2.5v5.3
		c0,1.1,0.5,1.7,1.4,1.7c0.3,0,0.6-0.1,0.9-0.2l0.7,1.7C567.8,302.5,567.3,302.6,566.7,302.6z"/>
</g>
<g class="st0">
	<path d="M574.2,302.8c-1.6,0-2.8-0.5-3.8-1.6c-1-1-1.5-2.3-1.5-3.9c0-1.5,0.5-2.8,1.4-3.9c0.9-1.1,2.2-1.6,3.6-1.6
		c1.5,0,2.7,0.5,3.7,1.5s1.4,2.3,1.4,4l0,0.4h-8.1c0.1,1,0.4,1.9,1,2.5c0.6,0.6,1.4,0.9,2.2,0.9c1.4,0,2.3-0.6,2.8-1.8l1.7,0.7
		c-0.3,0.8-0.9,1.5-1.7,2C576.3,302.5,575.3,302.8,574.2,302.8z M577,296.1c0-0.6-0.3-1.1-0.8-1.7c-0.5-0.5-1.2-0.8-2.2-0.8
		c-0.7,0-1.3,0.2-1.9,0.7c-0.5,0.4-0.9,1.1-1.1,1.8H577z"/>
</g>
</svg>
