<?xml version="1.0" encoding="utf-8"?>
<!-- Generator: Adobe Illustrator 22.1.0, SVG Export Plug-In . SVG Version: 6.00 Build 0)  -->
<svg version="1.1" id="图层_1" xmlns="http://www.w3.org/2000/svg" xmlns:xlink="http://www.w3.org/1999/xlink" x="0px" y="0px"
	 viewBox="0 0 658 352.8" style="enable-background:new 0 0 658 352.8;" xml:space="preserve">
<style type="text/css">
	.st0{fill:#38A338;}
	.st1{opacity:0.55;enable-background:new    ;}
	.st2{fill:#049604;}
	.st3{enable-background:new    ;}
	.st4{fill:#FFFFFF;}
	.st5{opacity:0.83;enable-background:new    ;}
</style>
<title>pj1_4</title>
<g>
	<rect x="301" y="44.3" class="st0" width="67.9" height="81.2"/>
</g>
<g class="st1">
	<rect x="115.7" y="44.3" class="st2" width="185.3" height="81.2"/>
</g>
<g class="st3">
	<path class="st4" d="M134.5,111.9V61.6h6.5v44.1h21.7v6.2H134.5z"/>
	<path class="st4" d="M203,67.8h-22.9v15.9h20.6v6h-20.6v15.9H203v6.2h-29.3V61.6H203V67.8z"/>
	<path class="st4" d="M230.1,113c-3.6,0-7.2-1.2-10.7-3.6c-3.5-2.4-5.8-5.7-6.8-10l5.9-2.4c0.7,2.8,2.1,5.1,4.3,7
		c2.2,1.9,4.6,2.8,7.3,2.8c2.8,0,5.2-0.7,7.2-2.2c2-1.5,3-3.5,3-6c0-2.8-1-5-3-6.5c-2-1.5-5.1-2.9-9.4-4.2
		c-4.4-1.4-7.8-3.2-10.1-5.4c-2.3-2.2-3.4-5.1-3.4-8.5c0-3.6,1.4-6.7,4.3-9.4c2.9-2.7,6.6-4,11.2-4c4.3,0,7.7,1.1,10.4,3.2
		c2.7,2.1,4.4,4.5,5.2,7l-5.9,2.5c-0.4-1.6-1.5-3.1-3.1-4.4c-1.7-1.4-3.8-2-6.4-2c-2.5,0-4.6,0.7-6.3,2.1c-1.8,1.4-2.6,3.1-2.6,5.2
		c0,1.9,0.8,3.5,2.4,4.7c1.6,1.3,4,2.4,7.1,3.5c2.5,0.8,4.5,1.6,6.2,2.3c1.7,0.7,3.3,1.7,5.1,3c1.7,1.2,3,2.8,3.9,4.6
		c0.9,1.8,1.3,4,1.3,6.4c0,2.4-0.5,4.6-1.5,6.5c-1,1.9-2.3,3.4-4,4.6c-1.7,1.1-3.4,2-5.4,2.6C234,112.7,232.1,113,230.1,113z"/>
	<path class="st4" d="M273.1,113c-3.6,0-7.2-1.2-10.7-3.6c-3.5-2.4-5.8-5.7-6.8-10l5.9-2.4c0.7,2.8,2.1,5.1,4.3,7
		c2.2,1.9,4.6,2.8,7.3,2.8c2.8,0,5.2-0.7,7.2-2.2c2-1.5,3-3.5,3-6c0-2.8-1-5-3-6.5c-2-1.5-5.1-2.9-9.4-4.2
		c-4.4-1.4-7.8-3.2-10.1-5.4c-2.3-2.2-3.4-5.1-3.4-8.5c0-3.6,1.4-6.7,4.3-9.4c2.9-2.7,6.6-4,11.2-4c4.3,0,7.7,1.1,10.4,3.2
		c2.7,2.1,4.4,4.5,5.2,7l-5.9,2.5c-0.4-1.6-1.5-3.1-3.1-4.4c-1.7-1.4-3.8-2-6.4-2c-2.5,0-4.6,0.7-6.3,2.1c-1.8,1.4-2.6,3.1-2.6,5.2
		c0,1.9,0.8,3.5,2.4,4.7c1.6,1.3,4,2.4,7.1,3.5c2.5,0.8,4.5,1.6,6.2,2.3c1.7,0.7,3.3,1.7,5.1,3c1.7,1.2,3,2.8,3.9,4.6
		c0.9,1.8,1.3,4,1.3,6.4c0,2.4-0.5,4.6-1.5,6.5c-1,1.9-2.3,3.4-4,4.6c-1.7,1.1-3.4,2-5.4,2.6C277.1,112.7,275.1,113,273.1,113z"/>
</g>
<g class="st3">
	<path class="st4" d="M323.2,68.8c-0.9,0.9-2,1.3-3.2,1.3c-1.3,0-2.3-0.4-3.2-1.3c-0.9-0.9-1.3-2-1.3-3.2s0.4-2.3,1.3-3.2
		c0.9-0.9,2-1.3,3.2-1.3c1.3,0,2.3,0.4,3.2,1.3c0.9,0.9,1.3,2,1.3,3.2S324.1,68,323.2,68.8z M323.2,111.9h-6.5V77.5h6.5V111.9z"/>
	<path class="st4" d="M344.4,113c-3.8,0-7-0.9-9.5-2.8c-2.5-1.9-4.3-4.2-5.5-7l5.8-2.4c1.8,4.3,4.9,6.5,9.3,6.5c2,0,3.7-0.4,4.9-1.3
		c1.3-0.9,1.9-2.1,1.9-3.5c0-2.2-1.6-3.8-4.7-4.6l-6.9-1.7c-2.2-0.6-4.3-1.6-6.2-3.2c-2-1.6-2.9-3.7-2.9-6.3c0-3,1.3-5.5,4-7.4
		c2.7-1.9,5.9-2.8,9.6-2.8c3,0,5.8,0.7,8.1,2.1c2.4,1.4,4.1,3.4,5.1,5.9l-5.6,2.3c-1.3-3-3.9-4.6-7.9-4.6c-1.9,0-3.5,0.4-4.8,1.2
		c-1.3,0.8-2,1.9-2,3.2c0,2,1.5,3.3,4.6,4l6.8,1.6c3.2,0.7,5.6,2,7.2,3.9c1.5,1.8,2.3,3.9,2.3,6.2c0,3.1-1.3,5.7-3.8,7.7
		C351.6,111.9,348.4,113,344.4,113z"/>
</g>
<g class="st3">
	<path class="st0" d="M380.1,111.9V61.6h6.5L404,92.2h0.3l17.5-30.6h6.5v50.2h-6.5V82l0.3-8.4h-0.3l-15.7,27.6h-3.8l-15.7-27.6h-0.3
		l0.3,8.4v29.8H380.1z"/>
</g>
<g class="st3">
	<path class="st0" d="M480.8,105.4c-4.9,5.1-11.1,7.6-18.4,7.6c-7.3,0-13.5-2.5-18.4-7.6c-4.9-5.1-7.4-11.3-7.4-18.6
		c0-7.3,2.5-13.6,7.4-18.6c4.9-5.1,11.1-7.6,18.4-7.6c7.3,0,13.4,2.5,18.4,7.6c5,5.1,7.4,11.3,7.4,18.6
		C488.2,94.1,485.8,100.3,480.8,105.4z M448.8,101.2c3.7,3.8,8.3,5.6,13.6,5.6c5.4,0,9.9-1.9,13.6-5.6c3.7-3.8,5.6-8.6,5.6-14.4
		c0-5.8-1.9-10.7-5.6-14.4c-3.7-3.8-8.3-5.6-13.6-5.6c-5.4,0-9.9,1.9-13.6,5.6c-3.7,3.8-5.6,8.6-5.6,14.4
		C443.2,92.6,445.1,97.4,448.8,101.2z"/>
	<path class="st0" d="M497.3,111.9V61.6h17.1c4.3,0,7.9,1.4,11.1,4.2c3.1,2.8,4.7,6.4,4.7,10.7c0,3.5-1.1,6.6-3.4,9.3
		c-2.3,2.7-5.1,4.4-8.6,5.1l-0.1,0.2l14.1,20.4v0.3h-7.6l-13.5-20.3h-7.2v20.3H497.3z M503.7,85.5h10.4c2.6,0,4.8-0.8,6.6-2.5
		c1.8-1.7,2.8-3.8,2.8-6.4c0-2.2-0.8-4.2-2.5-6c-1.6-1.8-3.8-2.7-6.5-2.7h-10.8V85.5z"/>
	<path class="st0" d="M568.6,67.8h-22.9v15.9h20.6v6h-20.6v15.9h22.9v6.2h-29.3V61.6h29.3V67.8z"/>
</g>
<g class="st5">
	<rect x="301" y="218" width="67.9" height="81.2"/>
</g>
<g class="st1">
	<rect x="115.7" y="218" width="185.3" height="81.2"/>
</g>
<g class="st3">
	<path class="st4" d="M134.5,285.6v-50.2h6.5v44.1h21.7v6.2H134.5z"/>
	<path class="st4" d="M203,241.6h-22.9v15.9h20.6v6h-20.6v15.9H203v6.2h-29.3v-50.2H203V241.6z"/>
	<path class="st4" d="M230.1,286.7c-3.6,0-7.2-1.2-10.7-3.6c-3.5-2.4-5.8-5.7-6.8-10l5.9-2.4c0.7,2.8,2.1,5.1,4.3,7
		c2.2,1.9,4.6,2.8,7.3,2.8c2.8,0,5.2-0.7,7.2-2.2c2-1.5,3-3.5,3-6c0-2.8-1-5-3-6.5c-2-1.5-5.1-2.9-9.4-4.2
		c-4.4-1.4-7.8-3.2-10.1-5.4c-2.3-2.2-3.4-5.1-3.4-8.5c0-3.6,1.4-6.7,4.3-9.4c2.9-2.7,6.6-4,11.2-4c4.3,0,7.7,1.1,10.4,3.2
		c2.7,2.1,4.4,4.5,5.2,7l-5.9,2.5c-0.4-1.6-1.5-3.1-3.1-4.4c-1.7-1.4-3.8-2-6.4-2c-2.5,0-4.6,0.7-6.3,2.1c-1.8,1.4-2.6,3.1-2.6,5.2
		c0,1.9,0.8,3.5,2.4,4.7c1.6,1.3,4,2.4,7.1,3.5c2.5,0.8,4.5,1.6,6.2,2.3c1.7,0.7,3.3,1.7,5.1,3c1.7,1.2,3,2.8,3.9,4.6
		c0.9,1.8,1.3,4,1.3,6.4c0,2.4-0.5,4.6-1.5,6.5c-1,1.9-2.3,3.4-4,4.6c-1.7,1.1-3.4,2-5.4,2.6C234,286.5,232.1,286.7,230.1,286.7z"/>
	<path class="st4" d="M273.1,286.7c-3.6,0-7.2-1.2-10.7-3.6c-3.5-2.4-5.8-5.7-6.8-10l5.9-2.4c0.7,2.8,2.1,5.1,4.3,7
		c2.2,1.9,4.6,2.8,7.3,2.8c2.8,0,5.2-0.7,7.2-2.2c2-1.5,3-3.5,3-6c0-2.8-1-5-3-6.5c-2-1.5-5.1-2.9-9.4-4.2
		c-4.4-1.4-7.8-3.2-10.1-5.4c-2.3-2.2-3.4-5.1-3.4-8.5c0-3.6,1.4-6.7,4.3-9.4c2.9-2.7,6.6-4,11.2-4c4.3,0,7.7,1.1,10.4,3.2
		c2.7,2.1,4.4,4.5,5.2,7l-5.9,2.5c-0.4-1.6-1.5-3.1-3.1-4.4c-1.7-1.4-3.8-2-6.4-2c-2.5,0-4.6,0.7-6.3,2.1c-1.8,1.4-2.6,3.1-2.6,5.2
		c0,1.9,0.8,3.5,2.4,4.7c1.6,1.3,4,2.4,7.1,3.5c2.5,0.8,4.5,1.6,6.2,2.3c1.7,0.7,3.3,1.7,5.1,3c1.7,1.2,3,2.8,3.9,4.6
		c0.9,1.8,1.3,4,1.3,6.4c0,2.4-0.5,4.6-1.5,6.5c-1,1.9-2.3,3.4-4,4.6c-1.7,1.1-3.4,2-5.4,2.6C277.1,286.5,275.1,286.7,273.1,286.7z"
		/>
</g>
<g class="st3">
	<path class="st4" d="M323.2,242.6c-0.9,0.9-2,1.3-3.2,1.3c-1.3,0-2.3-0.4-3.2-1.3c-0.9-0.9-1.3-2-1.3-3.2s0.4-2.3,1.3-3.2
		c0.9-0.9,2-1.3,3.2-1.3c1.3,0,2.3,0.4,3.2,1.3c0.9,0.9,1.3,2,1.3,3.2S324.1,241.7,323.2,242.6z M323.2,285.6h-6.5v-34.4h6.5V285.6z
		"/>
	<path class="st4" d="M344.4,286.7c-3.8,0-7-0.9-9.5-2.8c-2.5-1.9-4.3-4.2-5.5-7l5.8-2.4c1.8,4.3,4.9,6.5,9.3,6.5
		c2,0,3.7-0.4,4.9-1.3c1.3-0.9,1.9-2.1,1.9-3.5c0-2.2-1.6-3.8-4.7-4.6l-6.9-1.7c-2.2-0.6-4.3-1.6-6.2-3.2c-2-1.6-2.9-3.7-2.9-6.3
		c0-3,1.3-5.5,4-7.4c2.7-1.9,5.9-2.8,9.6-2.8c3,0,5.8,0.7,8.1,2.1c2.4,1.4,4.1,3.4,5.1,5.9l-5.6,2.3c-1.3-3-3.9-4.6-7.9-4.6
		c-1.9,0-3.5,0.4-4.8,1.2c-1.3,0.8-2,1.9-2,3.2c0,2,1.5,3.3,4.6,4l6.8,1.6c3.2,0.7,5.6,2,7.2,3.9c1.5,1.8,2.3,3.9,2.3,6.2
		c0,3.1-1.3,5.7-3.8,7.7C351.6,285.7,348.4,286.7,344.4,286.7z"/>
</g>
<g class="st3">
	<path d="M380.1,285.6v-50.2h6.5L404,266h0.3l17.5-30.6h6.5v50.2h-6.5v-29.8l0.3-8.4h-0.3L406.1,275h-3.8l-15.7-27.6h-0.3l0.3,8.4
		v29.8H380.1z"/>
</g>
<g class="st3">
	<path d="M480.8,279.1c-4.9,5.1-11.1,7.6-18.4,7.6c-7.3,0-13.5-2.5-18.4-7.6c-4.9-5.1-7.4-11.3-7.4-18.6c0-7.3,2.5-13.6,7.4-18.6
		c4.9-5.1,11.1-7.6,18.4-7.6c7.3,0,13.4,2.5,18.4,7.6c5,5.1,7.4,11.3,7.4,18.6C488.2,267.8,485.8,274.1,480.8,279.1z M448.8,274.9
		c3.7,3.8,8.3,5.6,13.6,5.6c5.4,0,9.9-1.9,13.6-5.6c3.7-3.8,5.6-8.6,5.6-14.4c0-5.8-1.9-10.7-5.6-14.4c-3.7-3.8-8.3-5.6-13.6-5.6
		c-5.4,0-9.9,1.9-13.6,5.6c-3.7,3.8-5.6,8.6-5.6,14.4C443.2,266.4,445.1,271.2,448.8,274.9z"/>
	<path d="M497.3,285.6v-50.2h17.1c4.3,0,7.9,1.4,11.1,4.2c3.1,2.8,4.7,6.4,4.7,10.7c0,3.5-1.1,6.6-3.4,9.3c-2.3,2.7-5.1,4.4-8.6,5.1
		l-0.1,0.2l14.1,20.4v0.3h-7.6l-13.5-20.3h-7.2v20.3H497.3z M503.7,259.2h10.4c2.6,0,4.8-0.8,6.6-2.5c1.8-1.7,2.8-3.8,2.8-6.4
		c0-2.2-0.8-4.2-2.5-6c-1.6-1.8-3.8-2.7-6.5-2.7h-10.8V259.2z"/>
	<path d="M568.6,241.6h-22.9v15.9h20.6v6h-20.6v15.9h22.9v6.2h-29.3v-50.2h29.3V241.6z"/>
</g>
</svg>
