<?xml version="1.0" encoding="utf-8"?>
<!-- Generator: Adobe Illustrator 22.1.0, SVG Export Plug-In . SVG Version: 6.00 Build 0)  -->
<svg version="1.1" id="图层_1" xmlns="http://www.w3.org/2000/svg" xmlns:xlink="http://www.w3.org/1999/xlink" x="0px" y="0px"
	 viewBox="0 0 618.5 376.5" style="enable-background:new 0 0 618.5 376.5;" xml:space="preserve">
<style type="text/css">
	.st0{fill:#3F3F3F;}
	.st1{enable-background:new    ;}
	.st2{fill:#FFFFFF;}
	.st3{fill:#38A338;}
	.st4{clip-path:url(#SVGID_2_);}
	.st5{clip-path:url(#SVGID_4_);}
</style>
<g>
	<g>
		<rect x="-98.8" y="185.7" class="st0" width="792" height="317.8"/>
	</g>
</g>
<title>pj1_5</title>
<g class="st1">
	<g>
		<g>
			<g>
				<path d="M397.1,147.9c-1.2,1.2-2.7,1.8-4.5,1.8s-3.3-0.6-4.5-1.8s-1.8-2.7-1.8-4.5s0.6-3.3,1.8-4.5c1.2-1.2,2.7-1.8,4.5-1.8
					s3.3,0.6,4.5,1.9s1.8,2.7,1.8,4.5C398.9,145.2,398.3,146.7,397.1,147.9z M389.3,146.9c0.9,0.9,2,1.4,3.3,1.4s2.4-0.5,3.3-1.4
					s1.4-2.1,1.4-3.5s-0.5-2.6-1.4-3.5s-2-1.4-3.3-1.4s-2.4,0.5-3.3,1.4s-1.4,2.1-1.4,3.5S388.4,146,389.3,146.9z"/>
			</g>
		</g>
	</g>
</g>
<g class="st1">
	<g>
		<g>
			<g>
				<path d="M401.9,141.2v1.2h0.1c0.2-0.4,0.6-0.7,1.1-1s1-0.4,1.6-0.4c1,0,1.8,0.3,2.4,1c0.5,0.6,0.8,1.5,0.8,2.6v5.1h-1.6v-4.9
					c0-1.5-0.7-2.3-2.1-2.3c-0.6,0-1.2,0.3-1.6,0.8s-0.6,1.1-0.6,1.8v4.6h-1.6v-8.3h1.5L401.9,141.2L401.9,141.2z"/>
			</g>
		</g>
	</g>
	<g>
		<g>
			<g>
				<path d="M414.9,149.5h-1.6v-12.2h1.6V149.5z"/>
			</g>
		</g>
	</g>
</g>
<g class="st1">
	<g>
		<g>
			<g>
				<path d="M418.5,139.1c-0.2,0.2-0.5,0.3-0.8,0.3s-0.6-0.1-0.8-0.3c-0.2-0.2-0.3-0.5-0.3-0.8s0.1-0.6,0.3-0.8
					c0.2-0.2,0.5-0.3,0.8-0.3s0.6,0.1,0.8,0.3c0.2,0.2,0.3,0.5,0.3,0.8S418.7,138.9,418.5,139.1z M418.5,149.5H417v-8.3h1.6v8.3
					H418.5z"/>
			</g>
		</g>
	</g>
</g>
<g class="st1">
	<g>
		<g>
			<g>
				<path d="M424.1,153.4c-1,0-1.8-0.2-2.4-0.7s-1.1-1.1-1.3-1.7l1.4-0.6c0.2,0.5,0.5,0.8,0.9,1.1s0.9,0.5,1.5,0.5
					c0.9,0,1.5-0.3,2-0.8s0.7-1.2,0.7-2.1v-0.8h-0.1c-0.3,0.4-0.7,0.7-1.2,1s-1.1,0.4-1.7,0.4c-1.1,0-2-0.4-2.8-1.3
					c-0.8-0.8-1.2-1.9-1.2-3.2s0.4-2.3,1.2-3.2c0.8-0.8,1.7-1.3,2.8-1.3c0.6,0,1.2,0.1,1.7,0.4c0.5,0.3,0.9,0.6,1.2,1h0.1v-1.2h1.5
					v7.9c0,1.4-0.4,2.5-1.2,3.3S425.3,153.4,424.1,153.4z M424.2,148.3c0.7,0,1.4-0.3,1.9-0.8s0.8-1.3,0.8-2.2s-0.3-1.6-0.8-2.2
					s-1.1-0.8-1.9-0.8c-0.7,0-1.3,0.3-1.9,0.8c-0.5,0.5-0.8,1.3-0.8,2.2s0.3,1.6,0.8,2.2C422.9,148.1,423.5,148.3,424.2,148.3z"/>
			</g>
		</g>
	</g>
</g>
<g class="st1">
	<g>
		<g>
			<g>
				<path d="M431.8,137.3v3.8l-0.1,1.2h0.1c0.2-0.4,0.6-0.7,1.1-1s1-0.4,1.6-0.4c1,0,1.8,0.3,2.4,1c0.5,0.6,0.8,1.5,0.8,2.6v5.1
					h-1.6v-4.9c0-1.5-0.7-2.3-2.1-2.3c-0.6,0-1.2,0.3-1.6,0.8s-0.6,1.1-0.6,1.8v4.6h-1.6v-12.2h1.6L431.8,137.3L431.8,137.3z"/>
			</g>
		</g>
	</g>
</g>
<g class="st1">
	<g>
		<g>
			<g>
				<path d="M442.7,149.6c-0.9,0-1.5-0.2-2-0.7s-0.7-1.1-0.7-2v-4.4h-1.5v-1.4h1.5v-2.5h1.6v2.5h2v1.4h-2v4.3c0,0.9,0.4,1.4,1.1,1.4
					c0.3,0,0.5,0,0.7-0.1l0.5,1.3C443.6,149.6,443.2,149.6,442.7,149.6z"/>
			</g>
		</g>
	</g>
	<g>
		<g>
			<g>
				<path d="M453.2,149.8c-0.6,0-1.2-0.1-1.7-0.4c-0.5-0.3-0.9-0.6-1.1-1h-0.1v1.2h-1.5v-12.2h1.6v3.8l-0.1,1.2h0.1
					c0.2-0.4,0.6-0.7,1.1-1s1.1-0.4,1.7-0.4c1.1,0,2,0.4,2.8,1.3c0.8,0.9,1.2,1.9,1.2,3.2s-0.4,2.3-1.2,3.2S454.3,149.8,453.2,149.8
					z M453,148.3c0.7,0,1.3-0.3,1.9-0.8s0.8-1.3,0.8-2.2s-0.3-1.6-0.8-2.2s-1.1-0.8-1.9-0.8c-0.7,0-1.4,0.3-1.9,0.8
					s-0.8,1.3-0.8,2.2s0.3,1.6,0.8,2.2C451.6,148.1,452.2,148.3,453,148.3z"/>
			</g>
		</g>
	</g>
</g>
<g class="st1">
	<g>
		<g>
			<g>
				<path d="M461.2,149.8c-0.9,0-1.6-0.3-2.2-0.8s-0.9-1.2-0.9-2c0-0.9,0.4-1.6,1.1-2.1s1.6-0.8,2.6-0.8c0.9,0,1.7,0.2,2.3,0.5v-0.2
					c0-0.6-0.2-1.1-0.6-1.5s-0.9-0.6-1.5-0.6c-0.5,0-0.9,0.1-1.2,0.3c-0.4,0.2-0.6,0.5-0.8,0.9l-1.4-0.6c0.2-0.5,0.6-1,1.1-1.4
					c0.6-0.4,1.3-0.6,2.2-0.6c1.1,0,1.9,0.3,2.7,0.9c0.7,0.6,1.1,1.5,1.1,2.6v5h-1.5v-1.2H464C463.4,149.3,462.4,149.8,461.2,149.8z
					 M461.5,148.3c0.6,0,1.2-0.2,1.8-0.7c0.5-0.5,0.8-1.1,0.8-1.7c-0.4-0.4-1.1-0.5-2-0.5c-0.8,0-1.3,0.2-1.7,0.5
					c-0.4,0.3-0.6,0.7-0.6,1.2c0,0.4,0.2,0.7,0.5,1C460.6,148.2,461,148.3,461.5,148.3z"/>
			</g>
		</g>
	</g>
</g>
<g class="st1">
	<g>
		<g>
			<g>
				<path d="M471,149.8c-1.2,0-2.3-0.4-3.1-1.3c-0.8-0.8-1.2-1.9-1.2-3.2s0.4-2.3,1.2-3.2c0.8-0.8,1.8-1.3,3.1-1.3
					c0.9,0,1.7,0.2,2.3,0.7c0.6,0.5,1.1,1,1.3,1.7l-1.4,0.6c-0.4-1-1.2-1.6-2.3-1.6c-0.7,0-1.3,0.3-1.8,0.8
					c-0.5,0.6-0.8,1.3-0.8,2.2s0.3,1.6,0.8,2.2c0.5,0.6,1.1,0.8,1.8,0.8c1.2,0,2-0.5,2.4-1.6l1.4,0.6c-0.3,0.7-0.7,1.2-1.4,1.7
					C472.7,149.5,472,149.8,471,149.8z"/>
			</g>
		</g>
	</g>
</g>
<g class="st1">
	<g>
		<g>
			<g>
				<path d="M477.7,137.3v7.5l3.6-3.7h2v0.1l-3.2,3.2l3.4,4.9v0.1h-1.9l-2.6-3.9l-1.3,1.3v2.7h-1.6v-12.2L477.7,137.3L477.7,137.3z"
					/>
			</g>
		</g>
	</g>
</g>
<g class="st1">
	<g>
		<g>
			<g>
				<path d="M487.8,153.4c-1,0-1.8-0.2-2.4-0.7s-1.1-1.1-1.3-1.7l1.4-0.6c0.2,0.5,0.5,0.8,0.9,1.1s0.9,0.5,1.5,0.5
					c0.9,0,1.5-0.3,2-0.8s0.7-1.2,0.7-2.1v-0.8h-0.1c-0.3,0.4-0.7,0.7-1.2,1s-1.1,0.4-1.7,0.4c-1.1,0-2-0.4-2.8-1.3
					c-0.8-0.8-1.2-1.9-1.2-3.2s0.4-2.3,1.2-3.2c0.8-0.8,1.7-1.3,2.8-1.3c0.6,0,1.2,0.1,1.7,0.4c0.5,0.3,0.9,0.6,1.2,1h0.1v-1.2h1.5
					v7.9c0,1.4-0.4,2.5-1.2,3.3S489,153.4,487.8,153.4z M487.9,148.3c0.7,0,1.4-0.3,1.9-0.8s0.8-1.3,0.8-2.2s-0.3-1.6-0.8-2.2
					s-1.1-0.8-1.9-0.8c-0.7,0-1.3,0.3-1.9,0.8c-0.5,0.5-0.8,1.3-0.8,2.2s0.3,1.6,0.8,2.2C486.5,148.1,487.2,148.3,487.9,148.3z"/>
			</g>
		</g>
	</g>
</g>
<g class="st1">
	<g>
		<g>
			<g>
				<path d="M495.5,149.5h-1.6v-8.3h1.5v1.4h0.1c0.2-0.5,0.5-0.8,1-1.1s1-0.4,1.4-0.4s0.9,0.1,1.2,0.2l-0.6,1.5
					c-0.2-0.1-0.5-0.1-0.8-0.1c-0.6,0-1.1,0.2-1.5,0.7c-0.4,0.4-0.7,1-0.7,1.8V149.5z"/>
			</g>
		</g>
	</g>
</g>
<g class="st1">
	<g>
		<g>
			<g>
				<path d="M500.3,142.2c0.8-0.8,1.8-1.3,3.1-1.3c1.2,0,2.3,0.4,3.1,1.3c0.8,0.8,1.2,1.9,1.2,3.2s-0.4,2.3-1.2,3.2
					c-0.8,0.8-1.8,1.3-3.1,1.3c-1.2,0-2.3-0.4-3.1-1.3c-0.8-0.8-1.2-1.9-1.2-3.2S499.5,143,500.3,142.2z M501.5,147.5
					c0.5,0.5,1.2,0.8,1.9,0.8c0.7,0,1.4-0.3,1.9-0.8s0.8-1.3,0.8-2.2s-0.3-1.6-0.8-2.2s-1.2-0.8-1.9-0.8c-0.7,0-1.4,0.3-1.9,0.8
					s-0.8,1.3-0.8,2.2S501,147,501.5,147.5z"/>
			</g>
		</g>
	</g>
</g>
<g class="st1">
	<g>
		<g>
			<g>
				<path d="M516.3,149.5h-1.5v-1.2h-0.1c-0.2,0.4-0.6,0.7-1.1,1s-1,0.4-1.5,0.4c-1,0-1.8-0.3-2.4-1s-0.8-1.5-0.8-2.6V141h1.6v4.8
					c0,1.6,0.7,2.3,2.1,2.3c0.6,0,1.2-0.3,1.6-0.8c0.4-0.5,0.6-1.1,0.6-1.8v-4.6h1.6L516.3,149.5L516.3,149.5z"/>
			</g>
		</g>
	</g>
	<g>
		<g>
			<g>
				<path d="M519.7,141.2v1.2h0.1c0.2-0.4,0.6-0.7,1.1-1s1-0.4,1.6-0.4c1,0,1.8,0.3,2.4,1c0.5,0.6,0.8,1.5,0.8,2.6v5.1h-1.6v-4.9
					c0-1.5-0.7-2.3-2.1-2.3c-0.6,0-1.2,0.3-1.6,0.8s-0.6,1.1-0.6,1.8v4.6h-1.6v-8.3h1.5L519.7,141.2L519.7,141.2z"/>
			</g>
		</g>
	</g>
</g>
<g class="st1">
	<g>
		<g>
			<g>
				<path d="M530.9,149.8c-1.1,0-2-0.4-2.8-1.3s-1.2-1.9-1.2-3.2s0.4-2.3,1.2-3.2c0.8-0.8,1.7-1.3,2.8-1.3c0.6,0,1.2,0.1,1.7,0.4
					c0.5,0.3,0.9,0.6,1.1,1h0.1l-0.1-1.2v-3.8h1.6v12.2h-1.5v-1.2h-0.1c-0.3,0.4-0.6,0.7-1.1,1C532.2,149.6,531.6,149.8,530.9,149.8
					z M531.2,148.3c0.7,0,1.4-0.3,1.9-0.8s0.8-1.3,0.8-2.2s-0.3-1.6-0.8-2.2s-1.1-0.8-1.9-0.8c-0.7,0-1.3,0.3-1.9,0.8
					s-0.8,1.3-0.8,2.2s0.3,1.6,0.8,2.2S530.5,148.3,531.2,148.3z"/>
			</g>
		</g>
	</g>
</g>
<g class="st1">
	<g>
		<g>
			<g>
				<path d="M540.3,149.8c-0.9,0-1.7-0.2-2.3-0.7s-1.1-1-1.3-1.7l1.4-0.6c0.4,1,1.2,1.6,2.3,1.6c0.5,0,0.9-0.1,1.2-0.3
					s0.5-0.5,0.5-0.8c0-0.5-0.4-0.9-1.1-1.1l-1.7-0.4c-0.5-0.1-1-0.4-1.5-0.8c-0.5-0.4-0.7-0.9-0.7-1.5c0-0.7,0.3-1.3,1-1.8
					s1.4-0.7,2.3-0.7c0.7,0,1.4,0.2,2,0.5s1,0.8,1.2,1.4l-1.4,0.6c-0.3-0.7-0.9-1.1-1.9-1.1c-0.5,0-0.9,0.1-1.2,0.3
					s-0.5,0.5-0.5,0.8c0,0.5,0.4,0.8,1.1,1l1.6,0.4c0.8,0.2,1.4,0.5,1.7,0.9c0.4,0.4,0.6,0.9,0.6,1.5c0,0.7-0.3,1.4-0.9,1.9
					C542,149.5,541.2,149.8,540.3,149.8z"/>
			</g>
		</g>
	</g>
</g>
<g class="st1">
	<g>
		<g>
			<g>
				<path class="st2" d="M397.1,345.9c-1.2,1.2-2.7,1.8-4.5,1.8s-3.3-0.6-4.5-1.8c-1.2-1.2-1.8-2.7-1.8-4.5s0.6-3.3,1.8-4.5
					c1.2-1.2,2.7-1.8,4.5-1.8s3.3,0.6,4.5,1.9s1.8,2.7,1.8,4.5C398.9,343.2,398.3,344.7,397.1,345.9z M389.3,344.9
					c0.9,0.9,2,1.4,3.3,1.4s2.4-0.5,3.3-1.4s1.4-2.1,1.4-3.5s-0.5-2.6-1.4-3.5s-2-1.4-3.3-1.4s-2.4,0.5-3.3,1.4s-1.4,2.1-1.4,3.5
					S388.4,344,389.3,344.9z"/>
			</g>
		</g>
	</g>
</g>
<g class="st1">
	<g>
		<g>
			<g>
				<path class="st2" d="M401.9,339.2v1.2h0.1c0.2-0.4,0.6-0.7,1.1-1s1-0.4,1.6-0.4c1,0,1.8,0.3,2.4,1c0.5,0.6,0.8,1.5,0.8,2.6v5.1
					h-1.6v-4.9c0-1.5-0.7-2.3-2.1-2.3c-0.6,0-1.2,0.3-1.6,0.8s-0.6,1.1-0.6,1.8v4.6h-1.6v-8.3h1.5L401.9,339.2L401.9,339.2z"/>
			</g>
		</g>
	</g>
</g>
<g class="st1">
	<g>
		<g>
			<g>
				<path class="st2" d="M416.8,347.8c-1.1,0-2-0.4-2.8-1.3c-0.8-0.8-1.2-1.9-1.2-3.2s0.4-2.3,1.2-3.2c0.8-0.8,1.7-1.3,2.8-1.3
					c0.6,0,1.2,0.1,1.7,0.4s0.9,0.6,1.1,1h0.1l-0.1-1.2v-3.8h1.6v12.2h-1.5v-1.2h-0.1c-0.2,0.4-0.6,0.7-1.1,1
					C418.1,347.6,417.5,347.8,416.8,347.8z M417.1,346.3c0.7,0,1.4-0.3,1.9-0.8s0.8-1.3,0.8-2.2s-0.3-1.6-0.8-2.2s-1.1-0.8-1.9-0.8
					c-0.7,0-1.3,0.3-1.9,0.8c-0.5,0.5-0.8,1.3-0.8,2.2c0,0.9,0.3,1.6,0.8,2.2C415.8,346.1,416.4,346.3,417.1,346.3z"/>
			</g>
		</g>
	</g>
</g>
<g class="st1">
	<g>
		<g>
			<g>
				<path class="st2" d="M425.7,347.8c-0.9,0-1.6-0.3-2.2-0.8s-0.9-1.2-0.9-2c0-0.9,0.4-1.6,1.1-2.1s1.6-0.8,2.6-0.8
					c0.9,0,1.7,0.2,2.3,0.5v-0.2c0-0.6-0.2-1.1-0.6-1.5s-0.9-0.6-1.5-0.6c-0.5,0-0.9,0.1-1.2,0.3c-0.4,0.2-0.6,0.5-0.8,0.9l-1.4-0.6
					c0.2-0.5,0.6-1,1.1-1.4c0.6-0.4,1.3-0.6,2.2-0.6c1.1,0,1.9,0.3,2.7,0.9c0.7,0.6,1.1,1.5,1.1,2.6v5h-1.5v-1.2h-0.1
					C427.8,347.3,426.9,347.8,425.7,347.8z M426,346.3c0.6,0,1.2-0.2,1.8-0.7c0.5-0.5,0.8-1.1,0.8-1.7c-0.4-0.4-1.1-0.5-2-0.5
					c-0.8,0-1.3,0.2-1.7,0.5c-0.4,0.3-0.6,0.7-0.6,1.2c0,0.4,0.2,0.7,0.5,1C425.1,346.2,425.5,346.3,426,346.3z"/>
			</g>
		</g>
	</g>
</g>
<g class="st1">
	<g>
		<g>
			<g>
				<path class="st2" d="M433.3,347.5h-1.6v-8.3h1.5v1.4h0.1c0.2-0.5,0.5-0.8,1-1.1s1-0.4,1.4-0.4s0.9,0.1,1.2,0.2l-0.6,1.5
					c-0.2-0.1-0.5-0.1-0.8-0.1c-0.6,0-1.1,0.2-1.5,0.7c-0.4,0.4-0.7,1-0.7,1.8V347.5z"/>
			</g>
		</g>
	</g>
</g>
<g class="st1">
	<g>
		<g>
			<g>
				<path class="st2" d="M439.6,335.3v7.5l3.6-3.7h2v0.1l-3.2,3.2l3.4,4.9v0.1h-1.9l-2.6-3.9l-1.3,1.3v2.7H438v-12.2H439.6z"/>
			</g>
		</g>
	</g>
	<g>
		<g>
			<g>
				<path class="st2" d="M454.4,347.8c-0.6,0-1.2-0.1-1.7-0.4s-0.9-0.6-1.1-1h-0.1v1.2H450v-12.2h1.6v3.8l-0.1,1.2h0.1
					c0.2-0.4,0.6-0.7,1.1-1s1.1-0.4,1.7-0.4c1.1,0,2,0.4,2.8,1.3s1.2,1.9,1.2,3.2s-0.4,2.3-1.2,3.2
					C456.4,347.3,455.5,347.8,454.4,347.8z M454.1,346.3c0.7,0,1.3-0.3,1.9-0.8c0.5-0.5,0.8-1.3,0.8-2.2c0-0.9-0.3-1.6-0.8-2.2
					c-0.5-0.5-1.1-0.8-1.9-0.8c-0.7,0-1.4,0.3-1.9,0.8s-0.8,1.3-0.8,2.2s0.3,1.6,0.8,2.2S453.4,346.3,454.1,346.3z"/>
			</g>
		</g>
	</g>
</g>
<g class="st1">
	<g>
		<g>
			<g>
				<path class="st2" d="M462.4,347.8c-0.9,0-1.6-0.3-2.2-0.8s-0.9-1.2-0.9-2c0-0.9,0.4-1.6,1.1-2.1s1.6-0.8,2.6-0.8
					c0.9,0,1.7,0.2,2.3,0.5v-0.2c0-0.6-0.2-1.1-0.6-1.5s-0.9-0.6-1.5-0.6c-0.5,0-0.9,0.1-1.2,0.3c-0.4,0.2-0.6,0.5-0.8,0.9l-1.4-0.6
					c0.2-0.5,0.6-1,1.1-1.4c0.6-0.4,1.3-0.6,2.2-0.6c1.1,0,1.9,0.3,2.7,0.9c0.7,0.6,1.1,1.5,1.1,2.6v5h-1.5v-1.2h-0.1
					C464.5,347.3,463.6,347.8,462.4,347.8z M462.7,346.3c0.6,0,1.2-0.2,1.8-0.7c0.5-0.5,0.8-1.1,0.8-1.7c-0.4-0.4-1.1-0.5-2-0.5
					c-0.8,0-1.3,0.2-1.7,0.5c-0.4,0.3-0.6,0.7-0.6,1.2c0,0.4,0.2,0.7,0.5,1C461.8,346.2,462.2,346.3,462.7,346.3z"/>
			</g>
		</g>
	</g>
</g>
<g class="st1">
	<g>
		<g>
			<g>
				<path class="st2" d="M472.2,347.8c-1.2,0-2.3-0.4-3.1-1.3c-0.8-0.8-1.2-1.9-1.2-3.2s0.4-2.3,1.2-3.2c0.8-0.8,1.8-1.3,3.1-1.3
					c0.9,0,1.7,0.2,2.3,0.7c0.6,0.5,1.1,1,1.3,1.7l-1.4,0.6c-0.4-1-1.2-1.6-2.3-1.6c-0.7,0-1.3,0.3-1.8,0.8
					c-0.5,0.6-0.8,1.3-0.8,2.2c0,0.9,0.3,1.6,0.8,2.2s1.1,0.8,1.8,0.8c1.2,0,2-0.5,2.4-1.6l1.4,0.6c-0.3,0.7-0.7,1.2-1.4,1.7
					C473.9,347.5,473.1,347.8,472.2,347.8z"/>
			</g>
		</g>
	</g>
</g>
<g class="st1">
	<g>
		<g>
			<g>
				<path class="st2" d="M478.8,335.3v7.5l3.6-3.7h2v0.1l-3.2,3.2l3.4,4.9v0.1h-1.9l-2.6-3.9l-1.3,1.3v2.7h-1.6v-12.2H478.8z"/>
			</g>
		</g>
	</g>
</g>
<g class="st1">
	<g>
		<g>
			<g>
				<path class="st2" d="M488.9,351.4c-1,0-1.8-0.2-2.4-0.7s-1.1-1.1-1.3-1.7l1.4-0.6c0.2,0.5,0.5,0.8,0.9,1.1
					c0.4,0.3,0.9,0.5,1.5,0.5c0.9,0,1.5-0.3,2-0.8s0.7-1.2,0.7-2.1v-0.8h-0.1c-0.3,0.4-0.7,0.7-1.2,1s-1.1,0.4-1.7,0.4
					c-1.1,0-2-0.4-2.8-1.3s-1.2-1.9-1.2-3.2s0.4-2.3,1.2-3.2c0.8-0.8,1.7-1.3,2.8-1.3c0.6,0,1.2,0.1,1.7,0.4s0.9,0.6,1.2,1h0.1v-1.2
					h1.5v7.9c0,1.4-0.4,2.5-1.2,3.3C491.1,351.1,490.1,351.4,488.9,351.4z M489,346.3c0.7,0,1.4-0.3,1.9-0.8s0.8-1.3,0.8-2.2
					s-0.3-1.6-0.8-2.2s-1.1-0.8-1.9-0.8c-0.7,0-1.3,0.3-1.9,0.8s-0.8,1.3-0.8,2.2c0,0.9,0.3,1.6,0.8,2.2S488.3,346.3,489,346.3z"/>
			</g>
		</g>
	</g>
</g>
<g class="st1">
	<g>
		<g>
			<g>
				<path class="st2" d="M496.7,347.5h-1.6v-8.3h1.5v1.4h0.1c0.2-0.5,0.5-0.8,1-1.1c0.5-0.3,1-0.4,1.4-0.4c0.5,0,0.9,0.1,1.2,0.2
					l-0.6,1.5c-0.2-0.1-0.5-0.1-0.8-0.1c-0.6,0-1.1,0.2-1.5,0.7c-0.4,0.4-0.7,1-0.7,1.8V347.5z"/>
			</g>
		</g>
	</g>
</g>
<g class="st1">
	<g>
		<g>
			<g>
				<path class="st2" d="M501.5,340.2c0.8-0.8,1.8-1.3,3.1-1.3c1.2,0,2.3,0.4,3.1,1.3c0.8,0.8,1.2,1.9,1.2,3.2s-0.4,2.3-1.2,3.2
					c-0.8,0.8-1.8,1.3-3.1,1.3c-1.2,0-2.3-0.4-3.1-1.3c-0.8-0.8-1.2-1.9-1.2-3.2S500.7,341,501.5,340.2z M502.6,345.5
					c0.5,0.5,1.2,0.8,1.9,0.8c0.7,0,1.4-0.3,1.9-0.8s0.8-1.3,0.8-2.2c0-0.9-0.3-1.6-0.8-2.2s-1.2-0.8-1.9-0.8
					c-0.7,0-1.4,0.3-1.9,0.8s-0.8,1.3-0.8,2.2C501.8,344.2,502.1,345,502.6,345.5z"/>
			</g>
		</g>
	</g>
</g>
<g class="st1">
	<g>
		<g>
			<g>
				<path class="st2" d="M517.5,347.5H516v-1.2h-0.1c-0.2,0.4-0.6,0.7-1.1,1s-1,0.4-1.5,0.4c-1,0-1.8-0.3-2.4-1s-0.8-1.5-0.8-2.6
					V339h1.6v4.8c0,1.6,0.7,2.3,2.1,2.3c0.6,0,1.2-0.3,1.6-0.8c0.4-0.5,0.6-1.1,0.6-1.8v-4.6h1.6L517.5,347.5L517.5,347.5z"/>
			</g>
		</g>
	</g>
	<g>
		<g>
			<g>
				<path class="st2" d="M520.9,339.2v1.2h0.1c0.2-0.4,0.6-0.7,1.1-1s1-0.4,1.6-0.4c1,0,1.8,0.3,2.4,1c0.5,0.6,0.8,1.5,0.8,2.6v5.1
					h-1.6v-4.9c0-1.5-0.7-2.3-2.1-2.3c-0.6,0-1.2,0.3-1.6,0.8s-0.6,1.1-0.6,1.8v4.6h-1.6v-8.3h1.5L520.9,339.2L520.9,339.2z"/>
			</g>
		</g>
	</g>
</g>
<g class="st1">
	<g>
		<g>
			<g>
				<path class="st2" d="M532.1,347.8c-1.1,0-2-0.4-2.8-1.3s-1.2-1.9-1.2-3.2s0.4-2.3,1.2-3.2c0.8-0.8,1.7-1.3,2.8-1.3
					c0.6,0,1.2,0.1,1.7,0.4s0.9,0.6,1.1,1h0.1l-0.1-1.2v-3.8h1.6v12.2H535v-1.2h-0.1c-0.3,0.4-0.6,0.7-1.1,1
					C533.3,347.6,532.7,347.8,532.1,347.8z M532.4,346.3c0.7,0,1.4-0.3,1.9-0.8s0.8-1.3,0.8-2.2s-0.3-1.6-0.8-2.2s-1.1-0.8-1.9-0.8
					c-0.7,0-1.3,0.3-1.9,0.8s-0.8,1.3-0.8,2.2c0,0.9,0.3,1.6,0.8,2.2S531.6,346.3,532.4,346.3z"/>
			</g>
		</g>
	</g>
</g>
<g class="st1">
	<g>
		<g>
			<g>
				<path class="st2" d="M541.4,347.8c-0.9,0-1.7-0.2-2.3-0.7s-1.1-1-1.3-1.7l1.4-0.6c0.4,1,1.2,1.6,2.3,1.6c0.5,0,0.9-0.1,1.2-0.3
					c0.3-0.2,0.5-0.5,0.5-0.8c0-0.5-0.4-0.9-1.1-1.1l-1.7-0.4c-0.5-0.1-1-0.4-1.5-0.8s-0.7-0.9-0.7-1.5c0-0.7,0.3-1.3,1-1.8
					s1.4-0.7,2.3-0.7c0.7,0,1.4,0.2,2,0.5s1,0.8,1.2,1.4l-1.4,0.6c-0.3-0.7-0.9-1.1-1.9-1.1c-0.5,0-0.9,0.1-1.2,0.3
					s-0.5,0.5-0.5,0.8c0,0.5,0.4,0.8,1.1,1l1.6,0.4c0.8,0.2,1.4,0.5,1.7,0.9c0.4,0.4,0.6,0.9,0.6,1.5c0,0.7-0.3,1.4-0.9,1.9
					C543.2,347.5,542.4,347.8,541.4,347.8z"/>
			</g>
		</g>
	</g>
</g>
<g>
	<g>
		<rect x="275.2" y="22.9" class="st3" width="67.9" height="81.2"/>
	</g>
</g>
<g>
	<g>
		<g>
			<defs>
				<rect id="SVGID_1_" x="89.9" y="23" width="185.3" height="81.2"/>
			</defs>
			<clipPath id="SVGID_2_">
				<use xlink:href="#SVGID_1_"  style="overflow:visible;"/>
			</clipPath>
			<g class="st4">
				<image style="overflow:visible;" width="187" height="82" xlink:href="3DB8B2D4.png"  transform="matrix(1 0 0 1 89 22.5)">
				</image>
			</g>
		</g>
	</g>
</g>
<g>
	<g>
		<path class="st2" d="M108.7,90.6V40.3h6.5v44.1h21.7v6.2C136.9,90.6,108.7,90.6,108.7,90.6z"/>
	</g>
	<g>
		<path class="st2" d="M177.2,46.5h-22.9v15.9h20.6v6h-20.6v15.9h22.9v6.2h-29.3V40.3h29.3V46.5z"/>
	</g>
	<g>
		<path class="st2" d="M204.3,91.7c-3.6,0-7.2-1.2-10.7-3.6s-5.8-5.7-6.8-10l5.9-2.4c0.7,2.8,2.1,5.1,4.3,7s4.6,2.8,7.3,2.8
			c2.8,0,5.2-0.7,7.2-2.2s3-3.5,3-6c0-2.8-1-5-3-6.5s-5.1-2.9-9.4-4.2c-4.4-1.4-7.8-3.2-10.1-5.4s-3.4-5.1-3.4-8.5
			c0-3.6,1.4-6.7,4.3-9.4c2.9-2.7,6.6-4,11.2-4c4.3,0,7.7,1.1,10.4,3.2c2.7,2.1,4.4,4.5,5.2,7l-5.9,2.5c-0.4-1.6-1.5-3.1-3.1-4.4
			c-1.7-1.4-3.8-2-6.4-2c-2.5,0-4.6,0.7-6.3,2.1c-1.8,1.4-2.6,3.1-2.6,5.2c0,1.9,0.8,3.4,2.4,4.7c1.6,1.3,4,2.4,7.1,3.5
			c2.5,0.8,4.5,1.6,6.2,2.3c1.7,0.7,3.3,1.7,5.1,3c1.7,1.2,3,2.8,3.9,4.6c0.9,1.8,1.3,4,1.3,6.4s-0.5,4.6-1.5,6.5s-2.3,3.4-4,4.6
			c-1.7,1.1-3.4,2-5.4,2.6C208.2,91.4,206.3,91.7,204.3,91.7z"/>
	</g>
	<g>
		<path class="st2" d="M247.3,91.7c-3.6,0-7.2-1.2-10.7-3.6s-5.8-5.7-6.8-10l5.9-2.4c0.7,2.8,2.1,5.1,4.3,7s4.6,2.8,7.3,2.8
			c2.8,0,5.2-0.7,7.2-2.2s3-3.5,3-6c0-2.8-1-5-3-6.5s-5.1-2.9-9.4-4.2c-4.4-1.4-7.8-3.2-10.1-5.4s-3.4-5.1-3.4-8.5
			c0-3.6,1.4-6.7,4.3-9.4c2.9-2.7,6.6-4,11.2-4c4.3,0,7.7,1.1,10.4,3.2c2.7,2.1,4.4,4.5,5.2,7l-5.9,2.5c-0.4-1.6-1.5-3.1-3.1-4.4
			c-1.7-1.4-3.8-2-6.4-2c-2.5,0-4.6,0.7-6.3,2.1c-1.8,1.4-2.6,3.1-2.6,5.2c0,1.9,0.8,3.4,2.4,4.7c1.6,1.3,4,2.4,7.1,3.5
			c2.5,0.8,4.5,1.6,6.2,2.3c1.7,0.7,3.3,1.7,5.1,3c1.7,1.2,3,2.8,3.9,4.6c0.9,1.8,1.3,4,1.3,6.4s-0.5,4.6-1.5,6.5s-2.3,3.4-4,4.6
			c-1.7,1.1-3.4,2-5.4,2.6C251.2,91.4,249.3,91.7,247.3,91.7z"/>
	</g>
	<g>
		<path class="st2" d="M297.4,47.6c-0.9,0.9-2,1.3-3.2,1.3c-1.3,0-2.3-0.4-3.2-1.3c-0.9-0.9-1.3-2-1.3-3.2c0-1.3,0.4-2.3,1.3-3.2
			s2-1.3,3.2-1.3c1.3,0,2.3,0.4,3.2,1.3c0.9,0.9,1.3,2,1.3,3.2C298.8,45.6,298.3,46.7,297.4,47.6z M297.4,90.6H291V56.2h6.5v34.4
			H297.4z"/>
	</g>
	<g>
		<path class="st2" d="M318.6,91.7c-3.8,0-7-0.9-9.5-2.8s-4.3-4.2-5.5-7l5.8-2.4c1.8,4.3,4.9,6.5,9.3,6.5c2,0,3.7-0.4,4.9-1.3
			c1.3-0.9,1.9-2.1,1.9-3.5c0-2.2-1.6-3.8-4.7-4.6l-6.9-1.7c-2.2-0.6-4.3-1.6-6.2-3.2c-2-1.6-2.9-3.7-2.9-6.3c0-3,1.3-5.5,4-7.4
			s5.9-2.8,9.6-2.8c3,0,5.8,0.7,8.1,2.1c2.4,1.4,4.1,3.4,5.1,5.9l-5.6,2.3c-1.3-3-3.9-4.6-7.9-4.6c-1.9,0-3.5,0.4-4.8,1.2
			s-2,1.9-2,3.2c0,2,1.5,3.3,4.6,4l6.8,1.6c3.2,0.7,5.6,2,7.2,3.9c1.5,1.8,2.3,3.9,2.3,6.2c0,3.1-1.3,5.7-3.8,7.7
			S322.6,91.7,318.6,91.7z"/>
	</g>
	<g>
		<path class="st3" d="M354.3,90.6V40.3h6.5l17.5,30.6h0.3L396,40.3h6.5v50.2H396V60.7l0.3-8.4H396l-15.7,27.6h-3.8l-15.7-27.6h-0.3
			l0.3,8.4v29.8L354.3,90.6L354.3,90.6z"/>
		<path class="st3" d="M404,92.1h-9.5V60.7l0.1-2.9l-13.4,23.6h-5.5l-13.4-23.6l0.1,2.9v31.4h-9.5V38.8h8.8l16.7,29.3l16.7-29.3h8.8
			L404,92.1L404,92.1z M397.5,89.1h3.5V41.8h-4.1l-17.5,30.6h-2l-17.5-30.6h-4.1V89h3.5V60.7l-0.3-9.9h2.7l15.7,27.6h2l15.7-27.6
			h2.7l-0.3,10L397.5,89.1z"/>
	</g>
	<g>
		<path class="st3" d="M455,84.1c-4.9,5.1-11.1,7.6-18.4,7.6s-13.5-2.5-18.4-7.6s-7.4-11.3-7.4-18.6s2.5-13.6,7.4-18.6
			c4.9-5.1,11.1-7.6,18.4-7.6s13.4,2.5,18.4,7.6s7.4,11.3,7.4,18.6S460,79,455,84.1z M423,79.9c3.7,3.8,8.3,5.6,13.6,5.6
			c5.4,0,9.9-1.9,13.6-5.6c3.7-3.8,5.6-8.6,5.6-14.4s-1.9-10.7-5.6-14.4c-3.7-3.8-8.3-5.6-13.6-5.6c-5.4,0-9.9,1.9-13.6,5.6
			c-3.7,3.8-5.6,8.6-5.6,14.4S419.3,76.1,423,79.9z"/>
		<path class="st3" d="M436.6,93.2c-7.7,0-14.3-2.7-19.5-8.1c-5.2-5.3-7.8-12-7.8-19.7s2.6-14.3,7.8-19.7c5.2-5.4,11.8-8.1,19.5-8.1
			s14.2,2.7,19.5,8.1c5.2,5.4,7.9,12,7.9,19.6c0,7.7-2.6,14.3-7.8,19.7l0,0C450.9,90.5,444.3,93.2,436.6,93.2z M436.6,40.7
			c-7,0-12.7,2.3-17.3,7.2c-4.6,4.8-7,10.7-7,17.6s2.3,12.8,7,17.6c4.7,4.8,10.4,7.2,17.3,7.2c7,0,12.7-2.3,17.3-7.2
			c4.6-4.8,7-10.7,7-17.6s-2.4-12.8-7-17.5C449.2,43.1,443.6,40.7,436.6,40.7z M436.6,87c-5.8,0-10.7-2.1-14.7-6.1s-6-9.2-6-15.5
			c0-6.2,2-11.4,6-15.5c4-4,8.9-6.1,14.7-6.1s10.7,2.1,14.7,6.1s6,9.2,6,15.5c0,6.2-2,11.4-6,15.5C447.3,85,442.4,87,436.6,87z
			 M436.6,46.9c-5,0-9.1,1.7-12.6,5.2s-5.1,7.9-5.1,13.4s1.7,9.9,5.1,13.4l0,0c3.5,3.5,7.6,5.2,12.6,5.2s9.1-1.7,12.6-5.2
			s5.1-7.9,5.1-13.4s-1.7-9.9-5.1-13.4C445.7,48.6,441.6,46.9,436.6,46.9z"/>
	</g>
	<g>
		<path class="st3" d="M471.5,90.6V40.3h17.1c4.3,0,7.9,1.4,11,4.2s4.7,6.4,4.7,10.7c0,3.5-1.1,6.6-3.4,9.3
			c-2.3,2.7-5.1,4.4-8.6,5.1l-0.1,0.2l14.1,20.4v0.3h-7.6l-13.5-20.3H478v20.3L471.5,90.6L471.5,90.6z M477.9,64.2h10.4
			c2.6,0,4.8-0.8,6.6-2.5c1.8-1.7,2.8-3.8,2.8-6.4c0-2.2-0.8-4.2-2.5-6c-1.6-1.8-3.8-2.7-6.5-2.7h-10.8V64.2z"/>
		<path class="st3" d="M507.8,92.1h-10l-13.5-20.3h-4.9v20.3H470V38.8h18.6c4.6,0,8.7,1.6,12.1,4.6c3.4,3.1,5.2,7.1,5.2,11.8
			c0,3.9-1.3,7.3-3.8,10.3c-2.1,2.4-4.6,4.1-7.5,5.1l13.3,19.2v2.3H507.8z M499.4,89.1h4.2l-13.3-19.2l1-1.6l0.6-0.1
			c3.1-0.6,5.6-2.1,7.7-4.6c2.1-2.4,3.1-5.2,3.1-8.3c0-3.9-1.4-7-4.2-9.6c-2.9-2.6-6.1-3.9-10-3.9H473V89h3.5V68.7h9.5L499.4,89.1z
			 M488.3,65.7h-11.9V45h12.3c3.1,0,5.7,1.1,7.6,3.2c1.9,2.1,2.8,4.5,2.8,7c0,3-1.1,5.5-3.3,7.5C493.8,64.7,491.3,65.7,488.3,65.7z
			 M479.4,62.7h8.9c2.2,0,4-0.7,5.6-2.1c1.5-1.4,2.3-3.1,2.3-5.3c0-1.8-0.7-3.5-2.1-5s-3.1-2.2-5.4-2.2h-9.3V62.7z"/>
	</g>
	<g>
		<path class="st3" d="M542.8,46.5h-22.9v15.9h20.6v6h-20.6v15.9h22.9v6.2h-29.3V40.3h29.3V46.5z"/>
		<path class="st3" d="M544.3,92.1H512V38.8h32.3V48h-22.9v12.9H542v9h-20.6v12.9h22.9L544.3,92.1L544.3,92.1z M514.9,89.1h26.3
			v-3.2h-22.9V67H539v-3h-20.6V45h22.9v-3.2H515v47.3H514.9z"/>
	</g>
</g>
<g>
	<g>
		<rect x="275.2" y="229.1" class="st3" width="67.9" height="81.2"/>
	</g>
</g>
<g>
	<g>
		<g>
			<defs>
				<rect id="SVGID_3_" x="89.9" y="229.1" width="185.3" height="81.2"/>
			</defs>
			<clipPath id="SVGID_4_">
				<use xlink:href="#SVGID_3_"  style="overflow:visible;"/>
			</clipPath>
			<g class="st5">
				
					<image style="overflow:visible;enable-background:new    ;" width="187" height="82" xlink:href="3DB8B2D3.png"  transform="matrix(1 0 0 1 89 228.5)">
				</image>
			</g>
		</g>
	</g>
</g>
<g>
	<g>
		<path class="st2" d="M108.7,296.7v-50.2h6.5v44.1h21.7v6.2h-28.2V296.7z"/>
	</g>
	<g>
		<path class="st2" d="M177.2,252.6h-22.9v15.9h20.6v6h-20.6v15.9h22.9v6.2h-29.3v-50.2h29.3V252.6z"/>
	</g>
	<g>
		<path class="st2" d="M204.3,297.8c-3.6,0-7.2-1.2-10.7-3.6s-5.8-5.7-6.8-10l5.9-2.4c0.7,2.8,2.1,5.1,4.3,7s4.6,2.8,7.3,2.8
			c2.8,0,5.2-0.7,7.2-2.2s3-3.5,3-6c0-2.8-1-5-3-6.5s-5.1-2.9-9.4-4.2c-4.4-1.4-7.8-3.2-10.1-5.4c-2.3-2.2-3.4-5.1-3.4-8.5
			c0-3.6,1.4-6.7,4.3-9.4c2.9-2.7,6.6-4,11.2-4c4.3,0,7.7,1.1,10.4,3.2c2.7,2.1,4.4,4.5,5.2,7l-5.9,2.5c-0.4-1.6-1.5-3.1-3.1-4.4
			c-1.7-1.4-3.8-2-6.4-2c-2.5,0-4.6,0.7-6.3,2.1c-1.8,1.4-2.6,3.1-2.6,5.2c0,1.9,0.8,3.5,2.4,4.7c1.6,1.3,4,2.4,7.1,3.5
			c2.5,0.8,4.5,1.6,6.2,2.3c1.7,0.7,3.3,1.7,5.1,3c1.7,1.2,3,2.8,3.9,4.6c0.9,1.8,1.3,4,1.3,6.4s-0.5,4.6-1.5,6.5s-2.3,3.4-4,4.6
			c-1.7,1.1-3.4,2-5.4,2.6C208.2,297.5,206.3,297.8,204.3,297.8z"/>
	</g>
	<g>
		<path class="st2" d="M247.3,297.8c-3.6,0-7.2-1.2-10.7-3.6s-5.8-5.7-6.8-10l5.9-2.4c0.7,2.8,2.1,5.1,4.3,7s4.6,2.8,7.3,2.8
			c2.8,0,5.2-0.7,7.2-2.2s3-3.5,3-6c0-2.8-1-5-3-6.5s-5.1-2.9-9.4-4.2c-4.4-1.4-7.8-3.2-10.1-5.4c-2.3-2.2-3.4-5.1-3.4-8.5
			c0-3.6,1.4-6.7,4.3-9.4c2.9-2.7,6.6-4,11.2-4c4.3,0,7.7,1.1,10.4,3.2c2.7,2.1,4.4,4.5,5.2,7l-5.9,2.5c-0.4-1.6-1.5-3.1-3.1-4.4
			c-1.7-1.4-3.8-2-6.4-2c-2.5,0-4.6,0.7-6.3,2.1c-1.8,1.4-2.6,3.1-2.6,5.2c0,1.9,0.8,3.5,2.4,4.7c1.6,1.3,4,2.4,7.1,3.5
			c2.5,0.8,4.5,1.6,6.2,2.3c1.7,0.7,3.3,1.7,5.1,3c1.7,1.2,3,2.8,3.9,4.6c0.9,1.8,1.3,4,1.3,6.4s-0.5,4.6-1.5,6.5s-2.3,3.4-4,4.6
			c-1.7,1.1-3.4,2-5.4,2.6C251.2,297.5,249.3,297.8,247.3,297.8z"/>
	</g>
	<g>
		<path class="st2" d="M297.4,253.7c-0.9,0.9-2,1.3-3.2,1.3c-1.3,0-2.3-0.4-3.2-1.3c-0.9-0.9-1.3-2-1.3-3.2s0.4-2.3,1.3-3.2
			s2-1.3,3.2-1.3c1.3,0,2.3,0.4,3.2,1.3c0.9,0.9,1.3,2,1.3,3.2S298.3,252.8,297.4,253.7z M297.4,296.7H291v-34.4h6.5v34.4H297.4z"/>
	</g>
	<g>
		<path class="st2" d="M318.6,297.8c-3.8,0-7-0.9-9.5-2.8s-4.3-4.2-5.5-7l5.8-2.4c1.8,4.3,4.9,6.5,9.3,6.5c2,0,3.7-0.4,4.9-1.3
			c1.3-0.9,1.9-2.1,1.9-3.5c0-2.2-1.6-3.8-4.7-4.6l-6.9-1.7c-2.2-0.6-4.3-1.6-6.2-3.2c-2-1.6-2.9-3.7-2.9-6.3c0-3,1.3-5.5,4-7.4
			s5.9-2.8,9.6-2.8c3,0,5.8,0.7,8.1,2.1c2.4,1.4,4.1,3.4,5.1,5.9l-5.6,2.3c-1.3-3-3.9-4.6-7.9-4.6c-1.9,0-3.5,0.4-4.8,1.2
			s-2,1.9-2,3.2c0,2,1.5,3.3,4.6,4l6.8,1.6c3.2,0.7,5.6,2,7.2,3.9c1.5,1.8,2.3,3.9,2.3,6.2c0,3.1-1.3,5.7-3.8,7.7
			S322.6,297.8,318.6,297.8z"/>
	</g>
	<g>
		<path class="st2" d="M354.3,296.7v-50.2h6.5l17.5,30.6h0.3l17.5-30.6h6.5v50.2H396v-29.8l0.3-8.4H396L380.3,286h-3.8l-15.7-27.6
			h-0.3l0.3,8.4v29.8h-6.5V296.7z"/>
		<path class="st2" d="M404,298.2h-9.5v-31.3l0.1-2.9l-13.4,23.6h-5.5L362.3,264l0.1,2.9v31.4h-9.5V245h8.8l16.7,29.3l16.7-29.3h8.8
			L404,298.2L404,298.2z M397.5,295.2h3.5V248h-4.1l-17.5,30.6h-2L359.9,248h-4.1v47.2h3.5v-28.3L359,257h2.7l15.7,27.6h2l15.7-27.6
			h2.7l-0.3,10L397.5,295.2z"/>
	</g>
	<g>
		<path class="st2" d="M455,290.2c-4.9,5.1-11.1,7.6-18.4,7.6s-13.5-2.5-18.4-7.6s-7.4-11.3-7.4-18.6s2.5-13.6,7.4-18.6
			c4.9-5.1,11.1-7.6,18.4-7.6s13.4,2.5,18.4,7.6s7.4,11.3,7.4,18.6C462.4,278.9,460,285.1,455,290.2z M423,286
			c3.7,3.8,8.3,5.6,13.6,5.6c5.4,0,9.9-1.9,13.6-5.6s5.6-8.6,5.6-14.4s-1.9-10.7-5.6-14.4s-8.3-5.6-13.6-5.6
			c-5.4,0-9.9,1.9-13.6,5.6s-5.6,8.6-5.6,14.4S419.3,282.2,423,286z"/>
		<path class="st2" d="M436.6,299.3c-7.7,0-14.3-2.7-19.5-8.1c-5.2-5.3-7.8-12-7.8-19.7s2.6-14.3,7.8-19.7
			c5.2-5.4,11.8-8.1,19.5-8.1s14.2,2.7,19.5,8.1c5.2,5.4,7.9,12,7.9,19.6c0,7.7-2.6,14.3-7.8,19.7l0,0
			C450.9,296.6,444.3,299.3,436.6,299.3z M436.6,246.8c-7,0-12.7,2.3-17.3,7.2c-4.6,4.8-7,10.7-7,17.6s2.3,12.8,7,17.6
			c4.7,4.8,10.4,7.2,17.3,7.2c7,0,12.7-2.3,17.3-7.2c4.6-4.8,7-10.7,7-17.6s-2.4-12.8-7-17.5C449.2,249.2,443.6,246.8,436.6,246.8z
			 M436.6,293.1c-5.8,0-10.7-2-14.7-6.1c-4-4-6-9.2-6-15.5s2-11.4,6-15.5c4-4,8.9-6.1,14.7-6.1s10.7,2,14.7,6.1c4,4,6,9.2,6,15.5
			s-2,11.4-6,15.5C447.3,291.1,442.4,293.1,436.6,293.1z M436.6,253c-5,0-9.1,1.7-12.6,5.2c-3.5,3.5-5.1,7.9-5.1,13.4
			s1.7,9.9,5.1,13.4c3.5,3.5,7.6,5.2,12.6,5.2s9.1-1.7,12.6-5.2s5.1-7.9,5.1-13.4s-1.7-9.9-5.1-13.4
			C445.7,254.7,441.6,253,436.6,253z"/>
	</g>
	<g>
		<path class="st2" d="M471.5,296.7v-50.2h17.1c4.3,0,7.9,1.4,11,4.2s4.7,6.4,4.7,10.7c0,3.5-1.1,6.6-3.4,9.3
			c-2.3,2.7-5.1,4.4-8.6,5.1l-0.1,0.2l14.1,20.4v0.3h-7.6l-13.5-20.3H478v20.3H471.5z M477.9,270.3h10.4c2.6,0,4.8-0.8,6.6-2.5
			c1.8-1.7,2.8-3.8,2.8-6.4c0-2.2-0.8-4.2-2.5-6c-1.6-1.8-3.8-2.7-6.5-2.7h-10.8V270.3z"/>
		<path class="st2" d="M507.8,298.2h-10l-13.5-20.3h-4.9v20.3H470V245h18.6c4.6,0,8.7,1.6,12.1,4.6c3.4,3.1,5.2,7.1,5.2,11.8
			c0,3.9-1.3,7.3-3.8,10.3c-2.1,2.4-4.6,4.1-7.5,5.1l13.3,19.2v2.2H507.8z M499.4,295.2h4.2L490.4,276l1-1.6l0.6-0.1
			c3.1-0.6,5.6-2.1,7.7-4.6c2.1-2.4,3.1-5.2,3.1-8.3c0-3.9-1.4-7-4.2-9.6c-2.9-2.6-6.1-3.9-10-3.9H473v47.2h3.5v-20.3h9.5
			L499.4,295.2z M488.3,271.8h-11.9v-20.7h12.3c3.1,0,5.7,1.1,7.6,3.2c1.9,2.1,2.8,4.5,2.8,7c0,3-1.1,5.5-3.3,7.5
			C493.8,270.8,491.3,271.8,488.3,271.8z M479.4,268.8h8.9c2.2,0,4-0.7,5.6-2.1c1.5-1.4,2.3-3.1,2.3-5.3c0-1.8-0.7-3.5-2.1-5
			s-3.1-2.2-5.4-2.2h-9.3V268.8z"/>
	</g>
	<g>
		<path class="st2" d="M542.8,252.6h-22.9v15.9h20.6v6h-20.6v15.9h22.9v6.2h-29.3v-50.2h29.3V252.6z"/>
		<path class="st2" d="M544.3,298.2H512V245h32.3v9.2h-22.9v12.9H542v9h-20.6V289h22.9L544.3,298.2L544.3,298.2z M514.9,295.2h26.3
			V292h-22.9v-18.9H539v-3h-20.6v-18.9h22.9V248H515v47.2H514.9z"/>
	</g>
</g>
</svg>
