<?xml version="1.0" encoding="utf-8"?>
<!-- Generator: Adobe Illustrator 22.1.0, SVG Export Plug-In . SVG Version: 6.00 Build 0)  -->
<svg version="1.1" id="图层_1" xmlns="http://www.w3.org/2000/svg" xmlns:xlink="http://www.w3.org/1999/xlink" x="0px" y="0px"
	 viewBox="0 0 742 475.3" style="enable-background:new 0 0 742 475.3;" xml:space="preserve">
<style type="text/css">
	.st0{fill:#F7F7F7;}
</style>
<title>pj5_1</title>
<path class="st0" d="M59.4,28.8h269.3c15.9,0,28.8,12.9,28.8,28.8v375.3c0,15.9-12.9,28.8-28.8,28.8H59.4
	c-15.9,0-28.8-12.9-28.8-28.8V57.5C30.7,41.6,43.5,28.8,59.4,28.8z"/>
<path d="M57,54.3h11.1v1.6h-9.3v5.5h8.3V63h-8.3v6.7H57V54.3z"/>
<path d="M70.1,64.1L70.1,64.1c0-3.3,2.6-6,5.9-6c3.3,0,6,2.6,6,5.9l0,0c0.1,3.3-2.6,5.9-5.8,6c-0.1,0-0.1,0-0.2,0
	c-3.2,0-5.9-2.6-5.9-5.8C70.1,64.2,70.1,64.1,70.1,64.1z M80.2,64.1L80.2,64.1c0.1-2.4-1.7-4.4-4.1-4.5c0,0-0.1,0-0.1,0
	c-2.3,0-4.2,1.9-4.1,4.3c0,0.1,0,0.1,0,0.2l0,0c-0.1,2.4,1.8,4.3,4.1,4.4c0,0,0.1,0,0.1,0c2.3,0,4.2-1.9,4.2-4.2
	C80.2,64.2,80.2,64.1,80.2,64.1z"/>
<path d="M84.3,64.1L84.3,64.1c0.1-3.3,2.9-5.8,6.2-5.7c3.1,0.1,5.6,2.6,5.7,5.7l0,0c0,3.3-2.6,5.9-5.9,5.9c0,0-0.1,0-0.1,0
	c-3.2,0-5.8-2.6-5.9-5.8C84.3,64.2,84.3,64.1,84.3,64.1z M94.5,64.1L94.5,64.1c0.1-2.4-1.8-4.4-4.2-4.4c0,0,0,0-0.1,0
	c-2.3,0-4.2,1.9-4.2,4.2c0,0.1,0,0.1,0,0.2l0,0c-0.1,2.4,1.8,4.3,4.1,4.4c0,0,0.1,0,0.1,0c2.3,0,4.2-1.9,4.2-4.2
	C94.5,64.2,94.5,64.1,94.5,64.1z"/>
<path d="M98.6,64L98.6,64c-0.2-3.1,2.2-5.7,5.2-5.9c0.1,0,0.1,0,0.2,0c1.8,0,3.4,0.9,4.3,2.4v-6.9h1.7v16.1h-1.7v-2.3
	c-0.9,1.5-2.6,2.5-4.3,2.5c-3.1-0.1-5.5-2.6-5.4-5.7C98.6,64.2,98.6,64.1,98.6,64z M108.4,64L108.4,64c0.1-2.3-1.7-4.3-4.1-4.4
	c0,0,0,0,0,0c-2.2,0-4,1.6-4,4.4l0,0c-0.2,2.3,1.5,4.2,3.8,4.4c0.1,0,0.1,0,0.2,0C106.7,68.3,108.5,66.4,108.4,64
	C108.5,64,108.5,64,108.4,64z"/>
<path d="M120.7,54.3h5.3c4.8,0,8.2,3.3,8.2,7.7V62c0,4.3-3.4,7.7-8.2,7.7h-5.3V54.3z M122.5,55.9v12.2h3.6c3.9,0,6.4-2.6,6.4-6l0,0
	c0.1-3.3-2.6-6-5.9-6.1c-0.2,0-0.3,0-0.5,0L122.5,55.9z"/>
<path d="M137,64L137,64c-0.2-3.1,2.2-5.7,5.3-5.9c0.1,0,0.1,0,0.2,0c3.4,0,5.3,2.7,5.3,6c0,0.2,0,0.4,0,0.6h-9
	c0.1,2.2,1.8,3.9,4,3.8c1.4,0,2.7-0.6,3.6-1.6l1,0.9c-1.1,1.4-2.9,2.2-4.7,2.2c-3.1,0-5.7-2.5-5.7-5.6C137,64.2,137,64.1,137,64z
	 M146,63.3c-0.2-2.1-1.4-3.9-3.6-3.9c-2,0-3.5,1.7-3.7,3.9H146z"/>
<path d="M150.8,53.6h1.7v16.1h-1.7V53.6z"/>
<path d="M156.5,54h1.9v1.9h-1.9V54z M156.6,58.4h1.7v11.3h-1.7V58.4z"/>
<path d="M161.1,58.3h1.9l3.8,9.4l3.9-9.4h1.8l-4.9,11.5h-1.5L161.1,58.3z"/>
<path d="M173.8,64L173.8,64c-0.2-3.1,2.2-5.7,5.3-5.9c0.1,0,0.1,0,0.2,0c3.4,0,5.3,2.7,5.3,6c0,0.2,0,0.4,0,0.6h-9
	c0.1,2.2,1.8,3.9,4,3.8c1.4,0,2.7-0.6,3.6-1.6l1.1,0.9c-1.2,1.4-2.9,2.2-4.7,2.2c-3.1,0-5.7-2.5-5.7-5.6
	C173.8,64.3,173.8,64.1,173.8,64z M182.8,63.3c-0.2-2.1-1.4-3.9-3.6-3.9c-2,0-3.5,1.7-3.7,3.9H182.8z"/>
<path d="M187.5,58.3h1.7v3c0.7-1.9,2.6-3.2,4.6-3.2V60h-0.1c-2.5,0-4.5,1.8-4.5,5.2v4.5h-1.7V58.3z"/>
<path d="M205,58.3h1.8L202,70.1c-1,2.4-2.1,3.2-3.8,3.2c-0.8,0-1.7-0.2-2.4-0.6l0.6-1.3c0.5,0.3,1.2,0.4,1.8,0.4
	c1,0,1.6-0.5,2.3-2.1l-5.2-11.3h1.9l4.1,9.5L205,58.3z"/>
<path d="M215.1,54.3h1.9l4.4,12.8l4.2-12.9h1.4l4.2,12.9l4.4-12.8h1.8L232,69.8h-1.5l-4.2-12.5l-4.2,12.5h-1.4L215.1,54.3z"/>
<path d="M238.3,64L238.3,64c-0.2-3.1,2.2-5.7,5.3-5.9c0.1,0,0.1,0,0.2,0c3.4,0,5.3,2.7,5.3,6c0,0.2,0,0.4,0,0.6h-9
	c0.1,2.2,1.8,3.9,4,3.8c1.4,0,2.7-0.6,3.6-1.6l1.1,0.9c-1.2,1.4-2.9,2.2-4.7,2.2c-3.1,0-5.7-2.5-5.7-5.6
	C238.3,64.3,238.3,64.1,238.3,64z M247.3,63.3c-0.2-2.1-1.4-3.9-3.6-3.9c-2,0-3.5,1.7-3.7,3.9H247.3z"/>
<path d="M253.7,67.5v2.2H252V53.6h1.7v7c0.9-1.5,2.6-2.5,4.4-2.5c3.1,0.1,5.5,2.6,5.4,5.7c0,0.1,0,0.2,0,0.2l0,0
	c0.2,3.1-2.1,5.7-5.2,5.9c-0.1,0-0.1,0-0.2,0C256.3,69.9,254.6,69,253.7,67.5z M261.7,64L261.7,64c0.2-2.3-1.5-4.2-3.8-4.4
	c-0.1,0-0.2,0-0.2,0c-2.3,0.1-4.2,2-4.1,4.4c0,0,0,0,0,0l0,0c-0.1,2.3,1.7,4.3,4.1,4.4c0,0,0,0,0,0C259.9,68.4,261.7,66.8,261.7,64z
	"/>
<path d="M265.7,68.2l0.9-1.2c1.1,0.9,2.5,1.4,3.9,1.5c1.4,0,2.4-0.7,2.4-1.8l0,0c0-1.2-1.3-1.6-2.8-2c-1.8-0.5-3.8-1.1-3.8-3.2l0,0
	c0-2,1.6-3.3,3.9-3.3c1.5,0,2.9,0.5,4.1,1.3l-0.8,1.3c-1-0.7-2.2-1.1-3.4-1.1c-1.4,0-2.2,0.7-2.2,1.7v0c0,1.1,1.4,1.5,2.9,2
	c1.8,0.5,3.6,1.2,3.6,3.3l0,0c0,2.2-1.8,3.4-4,3.4C268.7,69.9,267,69.3,265.7,68.2z"/>
<path d="M277.6,54h1.9v1.9h-1.9V54z M277.7,58.4h1.7v11.3h-1.7V58.4z"/>
<path d="M283.9,66.7v-6.9h-1.6v-1.5h1.6v-3.4h1.7v3.4h3.6v1.5h-3.6v6.6c-0.1,0.9,0.5,1.8,1.4,1.9c0.2,0,0.3,0,0.5,0
	c0.6,0,1.1-0.1,1.6-0.4v1.4c-0.6,0.3-1.3,0.5-2,0.5c-1.6,0.2-3-1-3.2-2.6C283.9,67.1,283.9,66.9,283.9,66.7z"/>
<path d="M291.2,64L291.2,64c-0.2-3.1,2.2-5.7,5.3-5.9c0.1,0,0.1,0,0.2,0c3.4,0,5.3,2.7,5.3,6c0,0.2,0,0.4,0,0.6h-9
	c0.1,2.2,1.8,3.9,4,3.8c1.4,0,2.7-0.6,3.6-1.6l1,0.9c-1.2,1.4-2.9,2.2-4.7,2.2c-3.1,0-5.7-2.5-5.7-5.6
	C291.2,64.3,291.2,64.1,291.2,64z M300.2,63.3c-0.2-2.1-1.4-3.9-3.6-3.9c-2,0-3.5,1.7-3.7,3.9H300.2z"/>
<path d="M56.3,94.2c0-4,2.2-7.2,6.1-9.4l0.7,1.1c-3.3,2.1-5.1,4.8-5.1,8.3s1.8,6.2,5.1,8.3l-0.7,1.1C58.5,101.4,56.3,98.2,56.3,94.2
	z"/>
<path d="M66.6,85.1h11.1v1.6h-9.4v5.3h8.4v1.6h-8.4v5.4h9.5v1.6H66.6V85.1z"/>
<path d="M80.2,97.2L80.2,97.2c0-2.4,2-3.7,4.9-3.7c1.2,0,2.4,0.2,3.5,0.5v-0.4c0-2-1.3-3.1-3.4-3.1c-1.2,0-2.4,0.3-3.5,0.8L81.2,90
	c1.3-0.6,2.7-1,4.1-1c1.3-0.1,2.7,0.3,3.7,1.2c0.8,0.9,1.2,2.1,1.2,3.3v7h-1.6v-1.8c-1,1.3-2.5,2-4.1,2
	C82.3,100.7,80.2,99.5,80.2,97.2z M88.5,96.3v-1.1c-1.1-0.3-2.2-0.5-3.3-0.5c-2.1,0-3.3,0.9-3.3,2.4l0,0c0,1.4,1.3,2.3,2.9,2.3
	C86.8,99.4,88.5,98.1,88.5,96.3z"/>
<path d="M94.2,97.5v-6.9h-1.6v-1.5h1.6v-3.4h1.7v3.4h3.6v1.5h-3.6v6.6c-0.1,0.9,0.5,1.8,1.4,1.9c0.2,0,0.3,0,0.5,0
	c0.6,0,1.1-0.1,1.7-0.4v1.4c-0.6,0.3-1.3,0.5-2,0.5c-1.6,0.2-3-0.9-3.2-2.5C94.2,97.9,94.2,97.7,94.2,97.5z"/>
<path d="M108.3,99.2l5.6-4.9c2.4-2.1,3.2-3.3,3.2-4.8c0-1.6-1.3-2.9-2.9-3c-0.1,0-0.1,0-0.2,0c-1.8,0-2.9,0.9-4.1,2.6l-1.3-0.9
	c1.4-2.1,2.8-3.3,5.5-3.3s4.8,1.8,4.8,4.3l0,0c0,2.2-1.2,3.6-3.9,6l-4.1,3.7h8.2v1.6h-10.8V99.2z"/>
<path d="M129.4,96.8h-8.1l-0.4-1.3l8.7-10.6h1.5v10.4h2.4v1.5H131v3.7h-1.7L129.4,96.8z M129.4,95.4v-7.9l-6.5,7.9L129.4,95.4z"/>
<path d="M135.6,102.4c1.1-0.4,1.6-1,1.5-1.9h-0.8v-2.3h2v2c0.2,1.5-0.9,2.8-2.4,3c0,0,0,0-0.1,0L135.6,102.4z"/>
<path d="M148.1,92.8L148.1,92.8c-0.1-4.3,3.2-7.8,7.5-8c0.1,0,0.2,0,0.3,0c2.1-0.1,4.2,0.6,5.8,2.1l-1.1,1.3
	c-1.3-1.2-2.9-1.8-4.7-1.8c-3.3,0.1-5.9,2.8-5.9,6.1c0,0.1,0,0.1,0,0.2v0.1c0,3.7,2.4,6.4,6.1,6.4c1.6,0,3.2-0.5,4.4-1.5v-3.8h-4.7
	v-1.6h6.4v6.1c-1.7,1.5-3.9,2.3-6.2,2.3c-4.2,0.2-7.7-3.1-7.8-7.3C148.1,93.3,148.1,93.1,148.1,92.8z"/>
<path d="M165.7,89.1h1.7v3c0.7-1.9,2.6-3.2,4.6-3.2v1.8h-0.1c-2.5,0-4.5,1.8-4.5,5.2v4.5h-1.7V89.1z"/>
<path d="M174.5,96.2v-7.1h1.7v6.7c0,2.1,1.1,3.4,3.1,3.4c1.9,0,3.4-1.4,3.4-3.3c0-0.1,0-0.2,0-0.3v-6.5h1.7v11.4h-1.7v-2
	c-0.8,1.4-2.3,2.3-3.9,2.2C176.1,100.7,174.5,98.9,174.5,96.2z"/>
<path d="M189.9,98.3v2.2h-1.7V84.4h1.7v7c0.9-1.5,2.6-2.5,4.4-2.5c3.1,0.1,5.5,2.6,5.4,5.7c0,0.1,0,0.2,0,0.2l0,0
	c0.2,3.1-2.1,5.7-5.2,5.9c-0.1,0-0.1,0-0.2,0C192.5,100.7,190.8,99.8,189.9,98.3z M197.9,94.8L197.9,94.8c0.2-2.3-1.5-4.2-3.8-4.4
	c-0.1,0-0.2,0-0.2,0c-2.3,0.1-4.2,2-4.1,4.4c0,0,0,0,0,0l0,0c-0.1,2.3,1.7,4.3,4.1,4.4c0,0,0,0,0,0
	C196.1,99.2,197.9,97.6,197.9,94.8z"/>
<path d="M202.8,84.4h1.7v6.7c0.8-1.4,2.3-2.3,3.9-2.2c2.8,0,4.4,1.8,4.4,4.6v7.1h-1.7v-6.7c0-2.1-1.1-3.4-3.1-3.4
	c-1.8,0-3.4,1.4-3.4,3.3c0,0.1,0,0.2,0,0.3v6.5h-1.7V84.4z"/>
<path d="M216.2,96.2v-7.1h1.7v6.7c0,2.1,1.1,3.4,3.1,3.4c1.9,0,3.4-1.4,3.4-3.3c0-0.1,0-0.2,0-0.3v-6.5h1.7v11.4h-1.7v-2
	c-0.8,1.4-2.3,2.3-3.9,2.2C217.8,100.7,216.2,98.9,216.2,96.2z"/>
<path d="M231.6,98.3v2.2h-1.7V84.4h1.7v7c0.9-1.6,2.6-2.5,4.4-2.6c3.1,0.1,5.5,2.6,5.4,5.7c0,0.1,0,0.2,0,0.2l0,0
	c0.2,3.1-2.1,5.7-5.2,5.9c-0.1,0-0.1,0-0.2,0C234.2,100.7,232.6,99.8,231.6,98.3z M239.7,94.8L239.7,94.8c0.2-2.3-1.5-4.2-3.8-4.4
	c-0.1,0-0.2,0-0.2,0c-2.3,0.1-4.2,2-4.1,4.4c0,0,0,0,0,0l0,0c-0.1,2.3,1.7,4.3,4.1,4.4c0,0,0,0,0.1,0
	C237.9,99.2,239.6,97.6,239.7,94.8L239.7,94.8z"/>
<path d="M250.4,94.8L250.4,94.8c-0.2-3.1,2.2-5.7,5.3-5.9c0.1,0,0.1,0,0.2,0c3.4,0,5.3,2.7,5.3,6c0,0.2,0,0.4,0,0.6h-9
	c0.1,2.2,1.8,3.9,4,3.8c1.4,0,2.7-0.6,3.6-1.6l1,1c-1.2,1.4-2.9,2.2-4.7,2.1c-3.1,0-5.7-2.5-5.7-5.6C250.4,95.1,250.4,95,250.4,94.8
	z M259.4,94.2c-0.2-2.1-1.4-3.9-3.6-3.9c-2,0-3.5,1.7-3.7,3.9H259.4z"/>
<path d="M264.7,97.5v-6.9h-1.6v-1.5h1.6v-3.4h1.7v3.4h3.6v1.5h-3.6v6.6c-0.1,0.9,0.5,1.8,1.4,1.9c0.2,0,0.3,0,0.5,0
	c0.6,0,1.1-0.1,1.6-0.4v1.4c-0.6,0.3-1.3,0.5-2,0.5c-1.6,0.2-3-1-3.2-2.6C264.7,97.9,264.7,97.7,264.7,97.5z"/>
<path d="M272,94.8L272,94.8c0-3.3,2.6-5.9,5.9-5.9c1.7,0,3.3,0.7,4.5,2l-1.1,1.2c-0.8-1-2.1-1.7-3.5-1.7c-2.3,0.1-4.1,2-4.1,4.3
	c0,0,0,0.1,0,0.1l0,0c-0.1,2.3,1.7,4.3,4.1,4.4c0,0,0.1,0,0.1,0c1.3,0,2.6-0.7,3.5-1.7l1.1,1c-2,2.5-5.7,2.9-8.3,0.9
	C272.8,98.3,272,96.6,272,94.8z"/>
<path d="M285.1,98.2h2v2.3h-2V98.2z"/>
<path d="M290,102.5c3.3-2.1,5.1-4.8,5.1-8.3s-1.8-6.2-5.1-8.3l0.7-1.1c3.9,2.2,6.1,5.4,6.1,9.4s-2.2,7.2-6.1,9.4L290,102.5z"/>
<path d="M55.8,153.1l0.9-1c1.1,1.1,2.7,1.8,4.3,1.7c1.7,0,2.8-0.9,2.8-2.1l0,0c0-1.2-0.6-1.8-3.3-2.4c-2.9-0.6-4.2-1.6-4.2-3.6l0,0
	c0-2,1.8-3.4,4.1-3.4c1.6,0,3.2,0.5,4.4,1.6l-0.8,1.1c-1-0.9-2.3-1.4-3.6-1.4c-1.6,0-2.7,0.9-2.7,2l0,0c0,1.2,0.7,1.9,3.4,2.4
	s4.1,1.6,4.1,3.6l0,0c0,2.2-1.8,3.6-4.3,3.6C59,155.1,57.2,154.4,55.8,153.1z"/>
<path d="M68.3,152.4v-5.6H67v-1.2h1.3v-2.8h1.4v2.8h3v1.2h-3v5.4c-0.1,0.8,0.4,1.5,1.2,1.6c0.1,0,0.3,0,0.4,0c0.5,0,0.9-0.1,1.3-0.3
	v1.2c-0.5,0.3-1.1,0.4-1.7,0.4c-1.3,0.2-2.5-0.8-2.6-2.1C68.3,152.8,68.3,152.6,68.3,152.4z"/>
<path d="M75.1,145.6h1.4v2.4c0.6-1.6,2.1-2.6,3.8-2.6v1.5h-0.1c-2,0-3.7,1.5-3.7,4.3v3.7h-1.4V145.6z"/>
<path d="M81.4,150.3L81.4,150.3c-0.1-2.5,1.8-4.7,4.3-4.8c0,0,0.1,0,0.1,0c2.8,0,4.3,2.2,4.3,4.9c0,0.1,0,0.3,0,0.4h-7.4
	c0.1,1.8,1.5,3.2,3.3,3.1c1.1,0,2.2-0.5,2.9-1.4l0.9,0.8c-0.9,1.1-2.4,1.8-3.8,1.7c-2.6,0-4.6-2.1-4.6-4.6
	C81.4,150.4,81.4,150.3,81.4,150.3z M88.8,149.7c-0.1-1.7-1.1-3.2-3-3.2c-1.7,0.1-3,1.5-3,3.2H88.8z"/>
<path d="M92.6,145.6H94v1.6c0.6-1.2,1.9-1.9,3.2-1.8c1.9-0.1,3.5,1.3,3.6,3.2c0,0.2,0,0.3,0,0.5v5.8h-1.4v-5.4
	c0-1.7-0.9-2.8-2.6-2.8c-1.5,0-2.8,1.2-2.8,2.7c0,0.1,0,0.2,0,0.3v5.3h-1.4V145.6z"/>
<path d="M103.6,156.5l0.6-1.1c1,0.8,2.3,1.2,3.6,1.2c1.7,0.2,3.2-1,3.4-2.7c0-0.2,0-0.4,0-0.6v-1.1c-0.8,1.2-2.2,2-3.7,2
	c-2.4,0-4.3-1.9-4.4-4.2c0,0,0-0.1,0-0.1l0,0c0-2.4,2-4.4,4.5-4.4c1.4,0,2.7,0.7,3.5,1.8v-1.7h1.4v7.7c0.1,1.2-0.4,2.4-1.2,3.3
	c-1,0.9-2.2,1.3-3.5,1.2C106.3,157.9,104.8,157.4,103.6,156.5z M111.3,149.8L111.3,149.8c-0.1-1.8-1.6-3.2-3.4-3.2c0,0,0,0,0,0
	c-1.7-0.1-3.1,1.2-3.2,2.9c0,0.1,0,0.1,0,0.2l0,0c0,1.7,1.4,3.2,3.1,3.2c0,0,0.1,0,0.1,0C109.6,153,111.2,151.6,111.3,149.8z"/>
<path d="M116.2,152.4v-5.6h-1.3v-1.2h1.3v-2.8h1.4v2.8h3v1.2h-3v5.4c-0.1,0.7,0.4,1.4,1.2,1.6c0.1,0,0.3,0,0.4,0
	c0.5,0,0.9-0.1,1.3-0.3v1.2c-0.5,0.3-1.1,0.4-1.7,0.4c-1.3,0.2-2.5-0.8-2.6-2.1C116.1,152.8,116.1,152.6,116.2,152.4z"/>
<path d="M123,141.7h1.4v5.5c0.6-1.2,1.9-1.9,3.2-1.8c1.9-0.1,3.5,1.3,3.6,3.2c0,0.2,0,0.3,0,0.5v5.8h-1.4v-5.4
	c0-1.7-0.9-2.8-2.6-2.8c-1.5,0-2.8,1.2-2.8,2.7c0,0.1,0,0.2,0,0.2v5.3H123V141.7z"/>
<path d="M133.3,153.7l0.7-1c0.9,0.7,2,1.2,3.2,1.2c1.1,0,1.9-0.6,1.9-1.5l0,0c0-0.9-1.1-1.3-2.3-1.6c-1.5-0.4-3.1-0.9-3.1-2.6l0,0
	c0-1.6,1.3-2.7,3.2-2.7c1.2,0,2.3,0.4,3.4,1l-0.6,1.1c-0.8-0.6-1.8-0.9-2.8-0.9c-1.1,0-1.8,0.6-1.8,1.4l0,0c0,0.9,1.1,1.2,2.4,1.6
	c1.4,0.4,3,1,3,2.7l0,0c0,1.8-1.5,2.8-3.3,2.8C135.7,155,134.4,154.6,133.3,153.7z"/>
<path d="M142.9,145.6h1.6v1.9h-1.6V145.6z M142.9,153h1.6v1.9h-1.6V153z"/>
<path d="M56,174.8h5v1.5h-5V174.8z"/>
<path d="M68.4,168.3h1.6l3.6,10.5l3.5-10.5h1.2l3.5,10.5l3.6-10.5h1.5L82.2,181H81l-3.5-10.2L74.1,181h-1.2L68.4,168.3z"/>
<path d="M88.8,168h1.6v1.5h-1.6V168z M88.9,171.6h1.4v9.3h-1.4L88.9,171.6z"/>
<path d="M93,176.3L93,176.3c-0.1-2.5,1.8-4.7,4.3-4.8c0.1,0,0.1,0,0.2,0c1.5,0,2.8,0.8,3.6,2v-5.6h1.4v13.1H101V179
	c-0.7,1.3-2.1,2.1-3.6,2.1c-2.5-0.1-4.5-2.1-4.4-4.7C93,176.4,93,176.3,93,176.3z M101.1,176.3L101.1,176.3c0.1-1.9-1.4-3.5-3.3-3.6
	c0,0,0,0,0,0c-1.8,0-3.3,1.5-3.3,3.3c0,0.1,0,0.2,0,0.3l0,0c-0.1,1.9,1.3,3.5,3.1,3.6c0.1,0,0.1,0,0.2,0
	C99.6,179.8,101.1,178.1,101.1,176.3L101.1,176.3z"/>
<path d="M104.9,176.3L104.9,176.3c-0.1-2.5,1.8-4.7,4.3-4.8c0,0,0.1,0,0.1,0c2.8,0,4.3,2.2,4.3,4.9c0,0.2,0,0.3,0,0.4h-7.4
	c0.1,1.8,1.5,3.2,3.3,3.1c1.1,0,2.2-0.5,2.9-1.3l0.9,0.8c-0.9,1.1-2.4,1.8-3.8,1.7c-2.6,0-4.6-2-4.7-4.6
	C104.9,176.5,104.9,176.4,104.9,176.3z M112.3,175.7c-0.1-1.7-1.1-3.2-3-3.2c-1.7,0.1-3,1.5-3,3.2H112.3z"/>
<path d="M121.5,171.6h1.4v2.4c0.6-1.6,2.1-2.6,3.8-2.6v1.5h-0.1c-2,0-3.7,1.5-3.7,4.3v3.7h-1.4V171.6z"/>
<path d="M127.7,178.2L127.7,178.2c0-2,1.6-3,4-3c1,0,1.9,0.1,2.9,0.4v-0.3c0-1.7-1-2.5-2.8-2.5c-1,0-1.9,0.2-2.8,0.7l-0.4-1.1
	c1.1-0.5,2.2-0.8,3.4-0.8c1.1-0.1,2.2,0.3,3,1c0.7,0.7,1.1,1.7,1,2.7v5.7h-1.4v-1.4c-0.8,1-2,1.6-3.4,1.6
	C129.4,181.1,127.7,180.1,127.7,178.2z M134.5,177.5v-0.9c-0.9-0.3-1.8-0.4-2.7-0.4c-1.7,0-2.7,0.8-2.7,1.9l0,0
	c0,1.2,1.1,1.9,2.4,1.9C133.1,180,134.5,178.9,134.5,177.5z"/>
<path d="M138.8,171.6h1.4v1.6c0.6-1.2,1.9-1.9,3.2-1.8c1.9-0.1,3.5,1.3,3.6,3.2c0,0.2,0,0.3,0,0.5v5.8h-1.4v-5.4
	c0-1.7-0.9-2.8-2.6-2.8c-1.5,0-2.8,1.2-2.8,2.7c0,0.1,0,0.2,0,0.2v5.3h-1.4V171.6z"/>
<path d="M149.8,182.5l0.6-1.1c1,0.8,2.3,1.2,3.6,1.2c1.7,0.2,3.2-1,3.4-2.7c0-0.2,0-0.4,0-0.6v-1.1c-0.8,1.2-2.2,2-3.6,2
	c-2.4,0-4.3-1.9-4.4-4.2c0,0,0-0.1,0-0.1l0,0c0-2.4,1.9-4.4,4.3-4.4c0,0,0.1,0,0.1,0c1.4,0,2.8,0.7,3.6,1.9v-1.7h1.4v7.7
	c0.1,1.2-0.4,2.4-1.2,3.3c-1,0.8-2.3,1.3-3.5,1.2C152.5,183.8,151,183.4,149.8,182.5z M157.4,175.8L157.4,175.8
	c0-1.8-1.5-3.2-3.3-3.2c0,0,0,0-0.1,0c-1.7-0.1-3.1,1.2-3.2,2.9c0,0.1,0,0.1,0,0.2l0,0c0,1.7,1.4,3.2,3.1,3.2c0,0,0.1,0,0.1,0
	C155.8,179,157.3,177.6,157.4,175.8z"/>
<path d="M161.3,176.3L161.3,176.3c-0.1-2.5,1.8-4.7,4.3-4.8c0,0,0.1,0,0.1,0c2.8,0,4.3,2.2,4.3,4.9c0,0.1,0,0.3,0,0.4h-7.4
	c0.1,1.8,1.5,3.2,3.3,3.1c1.1,0,2.2-0.5,2.9-1.3l0.9,0.8c-0.9,1.1-2.4,1.8-3.8,1.7c-2.6,0-4.6-2-4.7-4.6
	C161.2,176.5,161.2,176.4,161.3,176.3z M168.6,175.7c-0.1-1.7-1.1-3.2-3-3.2c-1.7,0.1-3,1.5-3,3.2H168.6z"/>
<path d="M177.3,176.3L177.3,176.3c0.1-2.7,2.4-4.8,5.1-4.6c2.5,0.1,4.5,2.1,4.6,4.6l0,0c0,2.7-2.1,4.8-4.8,4.9c0,0-0.1,0-0.1,0
	c-2.6,0-4.8-2.1-4.8-4.7C177.3,176.4,177.3,176.3,177.3,176.3z M185.6,176.3L185.6,176.3c0.1-1.9-1.5-3.6-3.4-3.6c0,0,0,0,0,0
	c-1.9,0-3.4,1.6-3.4,3.5c0,0.1,0,0.1,0,0.2l0,0c-0.1,1.9,1.4,3.5,3.4,3.6c0,0,0.1,0,0.1,0c1.9,0,3.4-1.6,3.4-3.5
	C185.6,176.4,185.6,176.3,185.6,176.3z"/>
<path d="M190,172.8h-1.3v-1.2h1.3v-0.8c-0.1-0.9,0.2-1.7,0.8-2.4c0.5-0.5,1.3-0.8,2-0.7c0.5,0,1,0.1,1.5,0.2v1.2
	c-0.4-0.1-0.9-0.2-1.4-0.2c-1.1,0-1.6,0.6-1.6,2v0.8h2.9v1.2h-2.9v8.1H190V172.8z"/>
<path d="M200.7,179.7l0.7-1c0.9,0.7,2,1.2,3.2,1.2c1.1,0,1.9-0.6,1.9-1.5l0,0c0-0.9-1.1-1.3-2.3-1.6c-1.5-0.4-3.1-0.9-3.1-2.6l0,0
	c0-1.6,1.3-2.7,3.2-2.7c1.2,0,2.3,0.4,3.4,1l-0.6,1.1c-0.8-0.6-1.8-0.9-2.8-0.9c-1.1,0-1.8,0.6-1.8,1.4l0,0c0,0.9,1.1,1.2,2.4,1.6
	c1.4,0.4,3,1,3,2.7l0,0c0,1.8-1.5,2.8-3.3,2.8C203.2,181,201.8,180.6,200.7,179.7z"/>
<path d="M209.9,176.3L209.9,176.3c-0.1-2.5,1.8-4.7,4.3-4.8c0,0,0.1,0,0.1,0c2.8,0,4.3,2.2,4.3,4.9c0,0.1,0,0.3,0,0.4h-7.4
	c0.1,1.8,1.5,3.2,3.3,3.1c1.1,0,2.2-0.5,2.9-1.3l0.9,0.8c-0.9,1.1-2.4,1.8-3.8,1.7c-2.6,0-4.7-2-4.7-4.6
	C209.9,176.5,209.9,176.4,209.9,176.3z M217.3,175.7c-0.1-1.7-1.1-3.2-3-3.2c-1.7,0.1-3,1.5-3,3.2H217.3z"/>
<path d="M221.3,167.7h1.4v13.1h-1.4V167.7z"/>
<path d="M225.3,176.3L225.3,176.3c-0.1-2.5,1.8-4.7,4.3-4.8c0,0,0.1,0,0.1,0c2.8,0,4.3,2.2,4.3,4.9c0,0.1,0,0.3,0,0.4h-7.4
	c0.1,1.8,1.5,3.1,3.3,3.1c1.1,0,2.2-0.5,2.9-1.3l0.9,0.8c-0.9,1.1-2.4,1.8-3.8,1.7c-2.6,0-4.7-2-4.7-4.6
	C225.3,176.4,225.3,176.3,225.3,176.3z M232.7,175.7c-0.1-1.7-1.1-3.2-3-3.2c-1.7,0.1-3,1.5-3,3.2H232.7z"/>
<path d="M236,176.3L236,176.3c0-2.7,2.1-4.8,4.8-4.9c1.4,0,2.7,0.6,3.7,1.7l-0.9,1c-0.7-0.9-1.7-1.4-2.8-1.4
	c-1.9,0.1-3.4,1.6-3.3,3.5c0,0,0,0,0,0.1l0,0c-0.1,1.9,1.4,3.5,3.3,3.6c0,0,0.1,0,0.1,0c1.1,0,2.1-0.5,2.9-1.4l0.9,0.8
	c-1.7,2.1-4.7,2.4-6.8,0.7C236.7,179.2,236,177.8,236,176.3L236,176.3z"/>
<path d="M247.3,178.4v-5.6H246v-1.2h1.3v-2.8h1.4v2.8h3v1.2h-3v5.4c-0.1,0.8,0.4,1.5,1.2,1.6c0.1,0,0.3,0,0.4,0
	c0.5,0,0.9-0.1,1.4-0.3v1.2c-0.5,0.3-1.1,0.4-1.7,0.4c-1.3,0.2-2.5-0.8-2.6-2.1C247.3,178.8,247.3,178.6,247.3,178.4z"/>
<path d="M254.1,168h1.6v1.5h-1.6V168z M254.2,171.6h1.4v9.3h-1.4V171.6z"/>
<path d="M258.2,176.3L258.2,176.3c0-2.7,2.2-4.9,4.9-4.9s4.9,2.2,4.9,4.9l0,0c0,2.7-2.1,4.8-4.8,4.9c0,0,0,0-0.1,0
	c-2.6,0-4.8-2.1-4.8-4.7C258.2,176.4,258.2,176.3,258.2,176.3z M266.5,176.3L266.5,176.3c0.1-1.9-1.5-3.6-3.4-3.6c0,0,0,0-0.1,0
	c-1.9,0-3.4,1.6-3.4,3.5c0,0,0,0.1,0,0.1l0,0c-0.1,1.9,1.4,3.5,3.4,3.6c0,0,0.1,0,0.1,0c1.9,0,3.4-1.5,3.4-3.4
	C266.5,176.4,266.5,176.3,266.5,176.3z"/>
<path d="M270.4,171.6h1.4v1.6c0.6-1.2,1.9-1.9,3.2-1.8c1.9-0.1,3.5,1.3,3.6,3.2c0,0.2,0,0.3,0,0.5v5.8h-1.4v-5.4
	c0-1.7-0.9-2.8-2.6-2.8c-1.5,0-2.8,1.2-2.8,2.7c0,0.1,0,0.2,0,0.2v5.3h-1.4V171.6z"/>
<path d="M280.8,179.7l0.7-1c0.9,0.7,2,1.2,3.2,1.2c1.1,0,1.9-0.6,1.9-1.5l0,0c0-0.9-1.1-1.3-2.3-1.6c-1.5-0.4-3.1-0.9-3.1-2.6l0,0
	c0-1.6,1.3-2.7,3.2-2.7c1.2,0,2.3,0.4,3.4,1l-0.6,1.1c-0.8-0.6-1.8-0.9-2.8-0.9c-1.1,0-1.8,0.6-1.8,1.4l0,0c0,0.9,1.1,1.2,2.4,1.6
	c1.4,0.4,3,1,3,2.7l0,0c0,1.8-1.5,2.8-3.3,2.8C283.2,181,281.9,180.6,280.8,179.7z"/>
<path d="M296.4,172.8h-1.3v-1.2h1.3v-0.8c-0.1-0.9,0.2-1.7,0.8-2.4c0.5-0.5,1.3-0.8,2-0.7c0.5,0,1,0.1,1.5,0.2v1.2
	c-0.4-0.1-0.9-0.2-1.4-0.2c-1.1,0-1.6,0.6-1.6,2v0.8h3v1.2h-2.9v8.1h-1.4L296.4,172.8z"/>
<path d="M302.5,171.6h1.4v2.4c0.6-1.6,2.1-2.6,3.8-2.6v1.5h-0.1c-2,0-3.7,1.5-3.7,4.3v3.7h-1.4V171.6z"/>
<path d="M308.8,176.3L308.8,176.3c0-2.7,2.2-4.9,4.9-4.9s4.9,2.2,4.9,4.9l0,0c0,2.7-2.1,4.8-4.8,4.9c0,0,0,0-0.1,0
	c-2.6,0-4.8-2.1-4.8-4.7C308.8,176.4,308.8,176.3,308.8,176.3z M317.1,176.3L317.1,176.3c0.1-1.9-1.5-3.6-3.4-3.6c0,0,0,0-0.1,0
	c-1.9,0-3.4,1.6-3.4,3.5c0,0,0,0.1,0,0.1l0,0c-0.1,1.9,1.4,3.5,3.4,3.6c0,0,0.1,0,0.1,0c1.9,0,3.4-1.5,3.4-3.4
	C317.1,176.4,317.1,176.3,317.1,176.3z"/>
<path d="M321,171.6h1.4v1.6c0.6-1.1,1.8-1.8,3-1.8c1.3,0,2.5,0.7,3,1.9c0.7-1.2,1.9-1.9,3.3-1.9c2.1,0,3.5,1.4,3.5,3.8v5.8h-1.4
	v-5.4c0-1.8-0.9-2.8-2.4-2.8c-1.4,0-2.6,1.2-2.6,2.6c0,0.1,0,0.2,0,0.3v5.4h-1.4v-5.5c0-1.7-0.9-2.8-2.4-2.8
	c-1.5,0.1-2.7,1.3-2.6,2.8c0,0,0,0.1,0,0.1v5.3H321V171.6z"/>
<path d="M55.8,202.3L55.8,202.3c-0.1-2.5,1.8-4.7,4.3-4.8c0.1,0,0.1,0,0.2,0c1.5,0,2.8,0.8,3.6,2v-5.6h1.4v13.1h-1.4V205
	c-0.7,1.3-2.1,2.1-3.6,2.1c-2.5-0.1-4.5-2.1-4.5-4.6C55.8,202.4,55.8,202.3,55.8,202.3z M63.9,202.3L63.9,202.3
	c0.1-1.9-1.4-3.5-3.3-3.6c0,0,0,0,0,0c-1.8,0-3.3,1.5-3.3,3.3c0,0.1,0,0.2,0,0.3l0,0c-0.1,1.9,1.3,3.5,3.1,3.6c0.1,0,0.1,0,0.2,0
	C62.5,205.8,64,204.2,63.9,202.3C63.9,202.3,63.9,202.3,63.9,202.3L63.9,202.3z"/>
<path d="M68.4,194H70v1.5h-1.6V194z M68.5,197.6h1.4v9.3h-1.4V197.6z"/>
<path d="M73.6,198.8h-1.3v-1.2h1.3v-0.8c-0.1-0.9,0.2-1.7,0.8-2.4c0.5-0.5,1.3-0.8,2-0.7c0.5,0,1,0.1,1.5,0.2v1.2
	c-0.4-0.1-0.9-0.2-1.3-0.2c-1.1,0-1.6,0.6-1.6,2v0.8h3v1.2h-3v8.1h-1.4V198.8z M80.2,198.8h-1.3v-1.2h1.3v-0.8
	c-0.1-0.9,0.2-1.7,0.8-2.4c0.5-0.5,1.3-0.8,2-0.7c0.5,0,1,0.1,1.5,0.2v1.2c-0.4-0.1-0.9-0.2-1.3-0.2c-1.1,0-1.6,0.6-1.6,2v0.8h2.9
	v1.2h-2.9v8.1h-1.4L80.2,198.8z"/>
<path d="M85.5,202.3L85.5,202.3c-0.2-2.5,1.8-4.7,4.3-4.9c0.1,0,0.1,0,0.2,0c2.8,0,4.3,2.2,4.3,4.9c0,0.1,0,0.3,0,0.4H87
	c0.1,1.8,1.5,3.2,3.3,3.1c1.1,0,2.2-0.5,2.9-1.3l0.9,0.8c-0.9,1.1-2.4,1.8-3.8,1.7c-2.6,0-4.7-2-4.7-4.6
	C85.5,202.5,85.5,202.4,85.5,202.3z M92.9,201.7c-0.1-1.7-1.1-3.2-3-3.2c-1.7,0.1-3,1.5-3,3.2H92.9z"/>
<path d="M96.8,197.6h1.4v2.4c0.6-1.6,2.1-2.6,3.8-2.6v1.5h-0.1c-2,0-3.7,1.5-3.7,4.3v3.7h-1.4V197.6z"/>
<path d="M103.1,202.3L103.1,202.3c-0.1-2.5,1.8-4.7,4.3-4.8c0,0,0.1,0,0.1,0c2.8,0,4.3,2.2,4.3,4.9c0,0.1,0,0.3,0,0.4h-7.4
	c0.1,1.8,1.5,3.2,3.3,3.1c1.1,0,2.2-0.5,2.9-1.3l0.9,0.8c-0.9,1.1-2.4,1.8-3.8,1.7c-2.6,0-4.6-2-4.7-4.6
	C103.1,202.4,103.1,202.4,103.1,202.3z M110.5,201.7c-0.1-1.7-1.1-3.2-3-3.2c-1.7,0.1-3,1.5-3,3.2H110.5z"/>
<path d="M114.3,197.6h1.4v1.6c0.6-1.2,1.9-1.9,3.2-1.8c1.9-0.1,3.5,1.3,3.6,3.2c0,0.2,0,0.3,0,0.5v5.8h-1.4v-5.4
	c0-1.7-0.9-2.8-2.6-2.8c-1.5,0-2.8,1.2-2.8,2.7c0,0.1,0,0.2,0,0.2v5.3h-1.4V197.6z"/>
<path d="M125.9,204.4v-5.6h-1.3v-1.2h1.3v-2.8h1.4v2.8h3v1.2h-3v5.4c-0.1,0.8,0.4,1.5,1.2,1.6c0.1,0,0.3,0,0.4,0
	c0.5,0,0.9-0.1,1.4-0.3v1.2c-0.5,0.3-1.1,0.4-1.7,0.4c-1.3,0.2-2.5-0.8-2.6-2.1C125.9,204.8,125.9,204.6,125.9,204.4z"/>
<path d="M138.1,197.6h1.4v2.4c0.6-1.6,2.1-2.6,3.8-2.6v1.5h-0.1c-2,0-3.7,1.5-3.7,4.3v3.7h-1.4V197.6z"/>
<path d="M144.4,202.3L144.4,202.3c-0.1-2.5,1.8-4.7,4.3-4.8c0,0,0.1,0,0.1,0c2.8,0,4.3,2.2,4.3,4.9c0,0.1,0,0.3,0,0.4h-7.4
	c0.1,1.8,1.5,3.2,3.3,3.1c1.1,0,2.2-0.5,2.9-1.3l0.9,0.8c-0.9,1.1-2.4,1.8-3.8,1.7c-2.6,0-4.7-2-4.7-4.6
	C144.4,202.5,144.4,202.4,144.4,202.3z M151.8,201.7c-0.1-1.7-1.1-3.2-3-3.2c-1.7,0.1-3,1.5-3,3.2H151.8z"/>
<path d="M154.9,205.7l0.7-1c0.9,0.7,2,1.2,3.2,1.2c1.1,0,1.9-0.6,1.9-1.5l0,0c0-0.9-1.1-1.3-2.3-1.6c-1.5-0.4-3.1-0.9-3.1-2.6l0,0
	c0-1.6,1.3-2.7,3.2-2.7c1.2,0,2.3,0.4,3.4,1l-0.6,1.1c-0.8-0.6-1.8-0.9-2.8-0.9c-1.1,0-1.8,0.6-1.8,1.4l0,0c0,0.9,1.1,1.2,2.4,1.6
	c1.4,0.4,3,1,3,2.7l0,0c0,1.8-1.4,2.8-3.3,2.8C157.3,207,156,206.6,154.9,205.7z"/>
<path d="M164.9,204.4v-5.6h-1.3v-1.2h1.3v-2.8h1.4v2.8h3v1.2h-3v5.4c-0.1,0.8,0.4,1.5,1.2,1.6c0.1,0,0.3,0,0.4,0
	c0.5,0,0.9-0.1,1.4-0.3v1.2c-0.5,0.3-1.1,0.4-1.7,0.4c-1.3,0.2-2.5-0.8-2.6-2.1C164.9,204.8,164.9,204.6,164.9,204.4z"/>
<path d="M171,204.2L171,204.2c0-2,1.6-3,4-3c1,0,1.9,0.1,2.9,0.4v-0.3c0-1.7-1-2.5-2.8-2.5c-1,0-1.9,0.2-2.8,0.7l-0.4-1.1
	c1.1-0.5,2.2-0.8,3.4-0.8c1.1-0.1,2.2,0.3,3,1c0.7,0.7,1,1.7,0.9,2.7v5.7h-1.3v-1.4c-0.8,1-2.1,1.6-3.4,1.6
	C172.7,207.1,171,206.1,171,204.2z M177.9,203.5v-0.9c-0.9-0.3-1.8-0.4-2.7-0.4c-1.8,0-2.7,0.8-2.7,1.9l0,0c0,1.2,1.1,1.9,2.3,1.9
	C176.4,206,177.9,204.9,177.9,203.5L177.9,203.5z"/>
<path d="M182,203.4v-5.8h1.4v5.4c-0.2,1.4,0.8,2.6,2.1,2.8c0.1,0,0.3,0,0.4,0c1.5,0,2.8-1.2,2.8-2.7c0-0.1,0-0.1,0-0.2v-5.3h1.4v9.3
	h-1.4v-1.6c-0.6,1.2-1.9,1.9-3.2,1.8c-1.9,0.1-3.5-1.3-3.6-3.2C182,203.7,182,203.5,182,203.4z"/>
<path d="M193.2,197.6h1.4v2.4c0.6-1.6,2.1-2.6,3.8-2.6v1.5h-0.1c-2,0-3.7,1.5-3.7,4.3v3.7h-1.4V197.6z"/>
<path d="M199.3,204.2L199.3,204.2c0-2,1.6-3,4-3c1,0,1.9,0.1,2.9,0.4v-0.3c0-1.7-1-2.5-2.8-2.5c-1,0-1.9,0.2-2.8,0.7l-0.4-1.1
	c1.1-0.5,2.2-0.8,3.4-0.8c1.1-0.1,2.2,0.3,3,1c0.7,0.7,1,1.7,0.9,2.7v5.7h-1.3v-1.4c-0.8,1-2.1,1.6-3.4,1.6
	C201.1,207.1,199.3,206.1,199.3,204.2z M206.2,203.5v-0.9c-0.9-0.3-1.8-0.4-2.7-0.4c-1.8,0-2.7,0.8-2.7,1.9l0,0
	c0,1.2,1.1,1.9,2.3,1.9C204.8,206,206.2,204.9,206.2,203.5z"/>
<path d="M210.5,197.6h1.4v1.6c0.6-1.2,1.9-1.9,3.2-1.8c1.9-0.1,3.5,1.3,3.6,3.2c0,0.2,0,0.3,0,0.5v5.8h-1.4v-5.4
	c0-1.7-0.9-2.8-2.6-2.8c-1.5,0-2.8,1.2-2.8,2.7c0,0.1,0,0.2,0,0.2v5.3h-1.4V197.6z"/>
<path d="M222,204.4v-5.6h-1.3v-1.2h1.3v-2.8h1.4v2.8h3v1.2h-3v5.4c-0.1,0.8,0.4,1.5,1.2,1.6c0.1,0,0.3,0,0.4,0
	c0.5,0,0.9-0.1,1.4-0.3v1.2c-0.5,0.3-1.1,0.4-1.7,0.4c-1.3,0.2-2.5-0.8-2.6-2.1C222,204.8,222,204.6,222,204.4z"/>
<path d="M228.1,205.7l0.7-1c0.9,0.7,2.1,1.2,3.3,1.2c1.1,0,1.9-0.6,1.9-1.5l0,0c0-0.9-1.1-1.3-2.3-1.6c-1.5-0.4-3.1-0.9-3.1-2.6l0,0
	c0-1.6,1.3-2.7,3.2-2.7c1.2,0,2.3,0.4,3.3,1l-0.6,1.1c-0.8-0.6-1.8-0.9-2.8-0.9c-1.1,0-1.8,0.6-1.8,1.4l0,0c0,0.9,1.1,1.2,2.4,1.6
	c1.4,0.4,3,1,3,2.7l0,0c0,1.8-1.5,2.8-3.3,2.8C230.5,207.1,229.2,206.6,228.1,205.7z"/>
<path d="M55.6,246.3h1.5l3.6,10.5l3.5-10.5h1.2l3.5,10.5l3.6-10.5H74L69.5,259h-1.2l-3.4-10.2L61.3,259h-1.2L55.6,246.3z"/>
<path d="M74.6,254.3L74.6,254.3c-0.2-2.5,1.8-4.7,4.3-4.9c0.1,0,0.1,0,0.2,0c2.8,0,4.3,2.2,4.3,4.9c0,0.1,0,0.3,0,0.4H76
	c0.1,1.8,1.5,3.2,3.3,3.1c1.1,0,2.2-0.5,2.9-1.3l0.9,0.8c-0.9,1.1-2.4,1.8-3.8,1.7c-2.6,0-4.7-2-4.7-4.6
	C74.6,254.4,74.6,254.3,74.6,254.3z M82,253.7c-0.1-1.7-1.1-3.2-3-3.2c-1.7,0.1-3,1.5-3,3.2H82z"/>
<path d="M85.1,256.2L85.1,256.2c0-2,1.6-3,4-3c1,0,1.9,0.1,2.9,0.4v-0.3c0-1.7-1-2.5-2.8-2.5c-1,0-1.9,0.2-2.8,0.7l-0.4-1.1
	c1.1-0.5,2.2-0.8,3.4-0.8c1.1-0.1,2.2,0.3,3,1c0.7,0.7,1.1,1.7,1,2.7v5.7h-1.4v-1.4c-0.8,1-2,1.6-3.4,1.6
	C86.8,259.1,85.1,258.1,85.1,256.2z M91.9,255.5v-0.9c-0.9-0.3-1.8-0.4-2.7-0.4c-1.7,0-2.7,0.8-2.7,1.9l0,0c0,1.2,1.1,1.9,2.3,1.9
	C90.6,258,92,256.9,91.9,255.5L91.9,255.5z"/>
<path d="M96.2,245.7h1.4v9.1l5-5.2h1.7l-3.9,4l4,5.3h-1.7l-3.3-4.3l-1.9,1.9v2.4h-1.3V245.7z"/>
<path d="M106.5,249.6h1.4v1.6c0.6-1.2,1.9-1.9,3.2-1.8c1.9-0.1,3.5,1.3,3.6,3.2c0,0.2,0,0.3,0,0.5v5.8h-1.4v-5.4
	c0-1.7-0.9-2.8-2.6-2.8c-1.5,0-2.8,1.2-2.8,2.7c0,0.1,0,0.2,0,0.2v5.3h-1.4V249.6z"/>
<path d="M117,254.3L117,254.3c-0.1-2.5,1.8-4.7,4.3-4.8c0,0,0.1,0,0.1,0c2.8,0,4.3,2.2,4.3,4.9c0,0.2,0,0.3,0,0.4h-7.4
	c0.1,1.8,1.5,3.2,3.3,3.2c1.1,0,2.2-0.5,2.9-1.3l0.9,0.8c-0.9,1.1-2.4,1.8-3.8,1.7c-2.6,0-4.6-2-4.7-4.6
	C117,254.5,117,254.4,117,254.3z M124.4,253.7c-0.2-1.7-1.1-3.2-3-3.2c-1.7,0.1-3,1.5-3,3.2H124.4z"/>
<path d="M127.4,257.7l0.7-1c0.9,0.7,2,1.1,3.2,1.2c1.1,0,1.9-0.6,1.9-1.5l0,0c0-0.9-1.1-1.3-2.3-1.6c-1.5-0.4-3.1-0.9-3.1-2.6l0,0
	c0-1.6,1.3-2.7,3.2-2.7c1.2,0,2.3,0.4,3.3,1l-0.6,1.1c-0.8-0.6-1.8-0.9-2.8-0.9c-1.1,0-1.8,0.6-1.8,1.4l0,0c0,0.9,1.1,1.2,2.4,1.6
	c1.4,0.4,3,1,3,2.7l0,0c0,1.8-1.5,2.8-3.3,2.8C129.9,259,128.5,258.6,127.4,257.7z"/>
<path d="M136.2,257.7l0.7-1c0.9,0.7,2.1,1.1,3.2,1.2c1.1,0,1.9-0.6,1.9-1.5l0,0c0-0.9-1.1-1.3-2.3-1.6c-1.5-0.4-3.1-0.9-3.1-2.6l0,0
	c0-1.6,1.3-2.7,3.2-2.7c1.2,0,2.3,0.4,3.4,1l-0.6,1.1c-0.8-0.6-1.8-0.9-2.8-0.9c-1.1,0-1.8,0.6-1.8,1.4l0,0c0,0.9,1.2,1.2,2.4,1.6
	c1.4,0.4,3,1,3,2.7l0,0c0,1.8-1.5,2.8-3.3,2.8C138.7,259,137.3,258.6,136.2,257.7z"/>
<path d="M145.9,249.6h1.6v1.9h-1.6V249.6z M145.9,257h1.6v1.9h-1.6V257z"/>
<path d="M56,278.8h5v1.5h-5V278.8z"/>
<path d="M69.4,272.3h4.7c2.8,0,4.7,1.5,4.7,4l0,0c0,2.7-2.3,4.1-5,4.1h-3v4.5h-1.4V272.3z M73.9,279.1c2.1,0,3.4-1.1,3.4-2.8l0,0
	c0-1.8-1.3-2.7-3.4-2.7h-3.2v5.5L73.9,279.1z"/>
<path d="M81.2,275.6h1.4v2.4c0.6-1.6,2.1-2.6,3.8-2.6v1.5h-0.1c-2,0-3.7,1.5-3.7,4.3v3.7h-1.4V275.6z"/>
<path d="M88.5,272h1.6v1.5h-1.6V272z M88.6,275.6H90v9.3h-1.4V275.6z"/>
<path d="M92.6,280.3L92.6,280.3c0-2.7,2.2-4.9,4.8-4.9c1.4,0,2.7,0.6,3.7,1.7l-0.9,1c-0.7-0.9-1.7-1.4-2.8-1.4
	c-1.9,0-3.4,1.6-3.4,3.5c0,0,0,0,0,0l0,0c-0.1,1.9,1.4,3.5,3.3,3.6c0,0,0.1,0,0.1,0c1.1,0,2.1-0.5,2.8-1.4l0.9,0.8
	c-1.7,2.1-4.7,2.4-6.8,0.7C93.2,283.1,92.6,281.7,92.6,280.3L92.6,280.3z"/>
<path d="M110.3,275.6h1.5l-3.9,9.6c-0.8,1.9-1.7,2.6-3.1,2.6c-0.7,0-1.4-0.1-2-0.5l0.5-1.1c0.5,0.2,1,0.4,1.5,0.3
	c0.8,0,1.3-0.4,1.9-1.8l-4.2-9.3h1.6l3.4,7.8L110.3,275.6z"/>
<path d="M111.8,286.5c0.9-0.3,1.3-0.8,1.2-1.6h-0.7V283h1.7v1.6c0.1,1.2-0.7,2.3-1.9,2.5c0,0-0.1,0-0.1,0L111.8,286.5z"/>
<path d="M122.3,275.6h1.4v1.6c0.6-1.1,1.8-1.8,3-1.8c1.3,0,2.5,0.7,3,1.9c0.7-1.2,1.9-1.9,3.3-1.9c2.1,0,3.4,1.4,3.4,3.8v5.8H135
	v-5.4c0-1.8-0.9-2.8-2.4-2.8c-1.4,0-2.6,1.2-2.6,2.6c0,0.1,0,0.2,0,0.3v5.4h-1.4v-5.5c0-1.7-0.9-2.8-2.4-2.8c-1.5,0-2.6,1.3-2.6,2.8
	c0,0.1,0,0.1,0,0.2v5.3h-1.4L122.3,275.6z"/>
<path d="M138.7,282.2L138.7,282.2c0-2,1.6-3,4-3c1,0,1.9,0.1,2.9,0.4v-0.3c0-1.7-1-2.5-2.8-2.5c-1,0-1.9,0.2-2.8,0.7l-0.4-1.1
	c1.1-0.5,2.2-0.8,3.4-0.8c1.1-0.1,2.2,0.3,3,1c0.7,0.7,1.1,1.7,1,2.7v5.7h-1.3v-1.4c-0.8,1-2.1,1.6-3.4,1.6
	C140.4,285.1,138.7,284.1,138.7,282.2z M145.6,281.5v-0.9c-0.9-0.3-1.8-0.4-2.7-0.4c-1.8,0-2.7,0.8-2.7,1.9l0,0
	c0,1.2,1.1,1.9,2.3,1.9C144.1,284,145.6,282.9,145.6,281.5z"/>
<path d="M149.8,275.6h1.4v1.6c0.6-1.2,1.9-1.9,3.2-1.8c1.9-0.1,3.5,1.3,3.6,3.2c0,0.2,0,0.3,0,0.5v5.8h-1.4v-5.4
	c0-1.7-0.9-2.8-2.6-2.8c-1.5,0-2.8,1.2-2.8,2.7c0,0.1,0,0.2,0,0.2v5.3h-1.4V275.6z"/>
<path d="M167.6,275.6h1.5l-3.9,9.6c-0.8,1.9-1.7,2.6-3.1,2.6c-0.7,0-1.4-0.1-2-0.5l0.5-1.1c0.5,0.2,1,0.4,1.5,0.3
	c0.8,0,1.4-0.4,1.9-1.8l-4.2-9.3h1.5l3.4,7.8L167.6,275.6z"/>
<path d="M176.7,275.6h1.4v2.4c0.6-1.6,2.1-2.6,3.8-2.6v1.5h-0.1c-2,0-3.7,1.5-3.7,4.3v3.7h-1.4V275.6z"/>
<path d="M183,280.3L183,280.3c-0.1-2.5,1.8-4.7,4.3-4.8c0,0,0.1,0,0.1,0c2.8,0,4.3,2.2,4.3,4.9c0,0.1,0,0.3,0,0.5h-7.4
	c0.1,1.8,1.5,3.2,3.3,3.1c1.1,0,2.2-0.5,2.9-1.3l0.9,0.8c-0.9,1.1-2.4,1.8-3.8,1.7c-2.6,0-4.6-2.1-4.6-4.6
	C183,280.4,183,280.3,183,280.3z M190.4,279.7c-0.1-1.7-1.1-3.2-3-3.2c-1.7,0.1-3,1.5-3,3.2H190.4z"/>
<path d="M193.4,283.7l0.7-1c0.9,0.7,2,1.1,3.2,1.2c1.1,0,1.9-0.6,1.9-1.5l0,0c0-0.9-1.1-1.3-2.3-1.6c-1.5-0.4-3.1-0.9-3.1-2.6l0,0
	c0-1.6,1.3-2.7,3.2-2.7c1.2,0,2.3,0.4,3.4,1l-0.6,1c-0.8-0.6-1.8-0.9-2.8-0.9c-1.1,0-1.8,0.6-1.8,1.4l0,0c0,0.9,1.1,1.2,2.4,1.6
	c1.4,0.4,3,1,3,2.7l0,0c0,1.8-1.5,2.8-3.3,2.8C195.9,285,194.6,284.6,193.4,283.7z"/>
<path d="M203.5,282.4v-5.6h-1.3v-1.2h1.3v-2.8h1.4v2.8h3v1.2h-3v5.4c-0.1,0.8,0.4,1.5,1.2,1.6c0.1,0,0.3,0,0.4,0
	c0.5,0,0.9-0.1,1.4-0.3v1.2c-0.5,0.3-1.1,0.4-1.7,0.4c-1.3,0.2-2.5-0.8-2.6-2.1C203.5,282.8,203.5,282.6,203.5,282.4z"/>
<path d="M209.6,282.2L209.6,282.2c0-2,1.6-3,4-3c1,0,1.9,0.1,2.9,0.4v-0.3c0-1.7-1-2.5-2.8-2.5c-1,0-1.9,0.2-2.8,0.7l-0.4-1.1
	c1.1-0.5,2.2-0.8,3.4-0.8c1.1-0.1,2.2,0.3,3,1c0.7,0.7,1,1.7,0.9,2.7v5.7h-1.3v-1.4c-0.8,1-2.1,1.6-3.4,1.6
	C211.3,285.1,209.6,284.1,209.6,282.2z M216.4,281.5v-0.9c-0.9-0.3-1.8-0.4-2.7-0.4c-1.8,0-2.7,0.8-2.7,1.9l0,0
	c0,1.2,1.1,1.9,2.3,1.9C215,284,216.4,282.9,216.4,281.5z"/>
<path d="M220.6,281.4v-5.8h1.4v5.4c-0.2,1.4,0.8,2.6,2.1,2.8c0.1,0,0.3,0,0.4,0c1.5,0,2.8-1.2,2.8-2.7c0-0.1,0-0.1,0-0.2v-5.3h1.4
	v9.3h-1.4v-1.6c-0.6,1.1-1.9,1.8-3.2,1.8c-1.9,0.1-3.5-1.3-3.6-3.2C220.5,281.7,220.5,281.5,220.6,281.4z"/>
<path d="M231.8,275.6h1.4v2.4c0.6-1.6,2.1-2.6,3.8-2.6v1.5h-0.1c-2,0-3.7,1.5-3.7,4.3v3.7h-1.4L231.8,275.6z"/>
<path d="M237.9,282.2L237.9,282.2c0-2,1.6-3,4-3c1,0,1.9,0.1,2.9,0.4v-0.3c0-1.7-1-2.5-2.8-2.5c-1,0-1.9,0.2-2.8,0.7l-0.4-1.1
	c1.1-0.5,2.2-0.8,3.4-0.8c1.1-0.1,2.2,0.3,3,1c0.7,0.7,1,1.7,0.9,2.7v5.7h-1.3v-1.4c-0.8,1-2.1,1.6-3.4,1.6
	C239.7,285.1,237.9,284.1,237.9,282.2z M244.8,281.5v-0.9c-0.9-0.3-1.8-0.4-2.7-0.4c-1.8,0-2.7,0.8-2.7,1.9l0,0
	c0,1.2,1.1,1.9,2.3,1.9C243.4,284,244.8,282.9,244.8,281.5z"/>
<path d="M249.1,275.6h1.4v1.6c0.6-1.2,1.9-1.9,3.2-1.8c1.9-0.1,3.5,1.3,3.6,3.2c0,0.2,0,0.3,0,0.5v5.8h-1.4v-5.4
	c0-1.7-0.9-2.8-2.6-2.8c-1.5,0-2.8,1.2-2.8,2.7c0,0.1,0,0.2,0,0.2v5.3h-1.4V275.6z"/>
<path d="M260.6,282.4v-5.6h-1.3v-1.2h1.3v-2.8h1.4v2.8h3v1.2h-3v5.4c-0.1,0.8,0.4,1.5,1.2,1.6c0.1,0,0.3,0,0.4,0
	c0.5,0,0.9-0.1,1.4-0.3v1.2c-0.5,0.3-1.1,0.4-1.7,0.4c-1.3,0.1-2.5-0.8-2.6-2.1C260.6,282.8,260.6,282.6,260.6,282.4z"/>
<path d="M266.6,283.7l0.7-1c0.9,0.7,2,1.1,3.2,1.2c1.1,0,1.9-0.6,1.9-1.5l0,0c0-0.9-1.1-1.3-2.3-1.6c-1.5-0.4-3.1-0.9-3.1-2.6l0,0
	c0-1.6,1.3-2.7,3.2-2.7c1.2,0,2.3,0.4,3.3,1l-0.6,1c-0.8-0.6-1.8-0.9-2.8-0.9c-1.1,0-1.8,0.6-1.8,1.4l0,0c0,0.9,1.1,1.2,2.4,1.6
	c1.5,0.4,3,1,3,2.7l0,0c0,1.8-1.5,2.8-3.3,2.8C269.1,285,267.7,284.6,266.6,283.7z"/>
<path d="M281.8,271.7h1.4v5.5c0.6-1.2,1.9-1.9,3.2-1.8c1.9-0.1,3.5,1.3,3.6,3.2c0,0.2,0,0.3,0,0.5v5.8h-1.4v-5.4
	c0-1.7-0.9-2.8-2.6-2.8c-1.5,0-2.8,1.2-2.8,2.7c0,0.1,0,0.2,0,0.2v5.3h-1.4V271.7z"/>
<path d="M292.2,282.2L292.2,282.2c0-2,1.6-3,4-3c1,0,1.9,0.1,2.9,0.4v-0.3c0-1.7-1-2.5-2.8-2.5c-1,0-1.9,0.2-2.8,0.7l-0.4-1.1
	c1.1-0.5,2.2-0.8,3.4-0.8c1.1-0.1,2.2,0.3,3,1c0.7,0.7,1.1,1.7,1,2.7v5.7H299v-1.4c-0.8,1-2,1.6-3.4,1.6
	C293.9,285.1,292.2,284.1,292.2,282.2z M299,281.5v-0.9c-0.9-0.3-1.8-0.4-2.7-0.4c-1.7,0-2.7,0.8-2.7,1.9l0,0c0,1.2,1.1,1.9,2.3,1.9
	C297.6,284,299,282.9,299,281.5L299,281.5z"/>
<path d="M302,275.6h1.5l3.1,7.7l3.1-7.7h1.5l-4,9.4H306L302,275.6z"/>
<path d="M312.4,280.3L312.4,280.3c-0.1-2.5,1.8-4.7,4.3-4.8c0,0,0.1,0,0.1,0c2.8,0,4.3,2.2,4.3,4.9c0,0.1,0,0.3,0,0.5h-7.4
	c0.1,1.8,1.5,3.2,3.3,3.1c1.1,0,2.2-0.5,2.9-1.3l0.9,0.8c-1,1.1-2.4,1.8-3.9,1.7c-2.6,0-4.6-2.1-4.6-4.6
	C312.4,280.4,312.4,280.3,312.4,280.3z M319.8,279.7c-0.1-1.7-1.1-3.2-3-3.2c-1.7,0.1-3,1.5-3,3.2H319.8z"/>
<path d="M63.9,300.8c-0.8-0.7-1.7-1.1-2.7-1.3v4.5c2.7,0.6,3.9,1.7,3.9,3.5s-1.6,3.3-3.8,3.4v1.8h-1.2v-1.8
	c-1.6-0.1-3.1-0.8-4.3-1.9l0.8-1.1c0.9,0.9,2.2,1.5,3.5,1.7v-4.5c-2.7-0.6-3.8-1.6-3.8-3.5l0,0c0-1.9,1.6-3.2,3.8-3.3v-1h1.2v1.1
	c1.3,0.1,2.5,0.6,3.4,1.4L63.9,300.8z M60.1,303.7v-4.3c-1.5,0.1-2.4,0.9-2.4,2S58.2,303.2,60.1,303.7z M61.1,305.4v4.3
	c1.5-0.1,2.5-0.9,2.5-2.1l0,0C63.7,306.5,63.2,305.9,61.1,305.4L61.1,305.4z"/>
<path d="M69.5,299.7l-2.4,0.7l-0.3-1.1l3.1-1.1h1v12.7h-1.4V299.7z"/>
<path d="M73.7,309.1l0.9-1c0.9,1,2.2,1.6,3.6,1.7c1.6,0.1,2.9-1.1,3-2.7c0,0,0-0.1,0-0.1l0,0c0-1.6-1.3-2.6-3.1-2.6
	c-0.9,0-1.8,0.3-2.7,0.7l-0.9-0.6l0.4-6.1h7.3v1.3h-6l-0.3,4c0.8-0.4,1.6-0.6,2.5-0.6c2.4,0,4.4,1.4,4.4,3.9l0,0
	c0,2.5-1.9,4.1-4.5,4.1C76.5,311.1,74.8,310.3,73.7,309.1z"/>
<path d="M90.1,306.3L90.1,306.3c0.1-2.7,2.4-4.8,5.1-4.6c2.5,0.1,4.5,2.1,4.6,4.6l0,0c0,2.7-2.1,4.8-4.8,4.9c0,0-0.1,0-0.1,0
	c-2.6,0-4.8-2.1-4.8-4.7C90.1,306.4,90.1,306.3,90.1,306.3z M98.4,306.3L98.4,306.3c0.1-1.9-1.5-3.6-3.4-3.6c0,0,0,0,0,0
	c-1.9,0-3.4,1.6-3.4,3.5c0,0.1,0,0.1,0,0.2l0,0c-0.1,1.9,1.4,3.5,3.4,3.6c0,0,0.1,0,0.1,0c1.9,0,3.4-1.6,3.4-3.5
	C98.4,306.3,98.4,306.3,98.4,306.3z"/>
<path d="M102.3,301.6h1.4v2.4c0.6-1.6,2.1-2.6,3.8-2.6v1.5h-0.1c-2,0-3.7,1.5-3.7,4.3v3.7h-1.4V301.6z"/>
<path d="M122.5,300.8c-0.8-0.7-1.7-1.1-2.7-1.3v4.5c2.7,0.6,3.9,1.7,3.9,3.5s-1.6,3.3-3.8,3.4v1.8h-1.2v-1.8
	c-1.6-0.1-3.1-0.8-4.3-1.9l0.8-1.1c0.9,0.9,2.2,1.5,3.5,1.7v-4.5c-2.7-0.6-3.8-1.6-3.8-3.5l0,0c0-1.9,1.6-3.2,3.8-3.3v-1h1.2v1.1
	c1.3,0.1,2.5,0.6,3.4,1.4L122.5,300.8z M118.8,303.7v-4.3c-1.5,0.1-2.4,0.9-2.4,2S116.8,303.2,118.8,303.7z M119.8,305.4v4.3
	c1.6-0.1,2.5-0.9,2.5-2.1l0,0C122.3,306.5,121.8,305.9,119.8,305.4L119.8,305.4z"/>
<path d="M125.8,309.8l4.6-4c1.9-1.7,2.6-2.7,2.6-4c0-1.3-1.1-2.4-2.4-2.4c0,0-0.1,0-0.1,0c-1.4,0-2.4,0.8-3.4,2.2l-1-0.8
	c1.1-1.7,2.3-2.7,4.5-2.7c2-0.1,3.8,1.4,3.9,3.4c0,0.1,0,0.1,0,0.2l0,0c0,1.8-1,3-3.2,4.9l-3.4,3h6.7v1.3h-8.8L125.8,309.8z"/>
<path d="M136.8,304.6L136.8,304.6c0-3.5,2.1-6.5,5.4-6.5s5.3,3,5.3,6.5l0,0c0,3.5-2.1,6.5-5.3,6.5S136.8,308.1,136.8,304.6z
	 M146,304.6L146,304.6c0-2.8-1.5-5.2-3.9-5.2s-3.8,2.4-3.8,5.2l0,0c0,2.8,1.5,5.2,3.9,5.2S146,307.4,146,304.6L146,304.6z"/>
<path d="M155,306.3L155,306.3c-0.2-2.5,1.8-4.7,4.3-4.8c0.1,0,0.1,0,0.2,0c1.5,0,2.8,0.8,3.6,2v-5.6h1.4V311H163v-2
	c-0.7,1.3-2.1,2.1-3.6,2.1c-2.5-0.1-4.5-2.1-4.4-4.6C155,306.4,155,306.3,155,306.3z M163.1,306.3L163.1,306.3
	c0.1-1.9-1.4-3.5-3.3-3.6c0,0,0,0,0,0c-1.8,0-3.3,1.5-3.3,3.3c0,0.1,0,0.2,0,0.3l0,0c-0.1,1.9,1.3,3.5,3.1,3.6c0.1,0,0.1,0,0.2,0
	C161.6,309.8,163.1,308.1,163.1,306.3L163.1,306.3z"/>
<path d="M166.9,306.3L166.9,306.3c-0.1-2.5,1.8-4.7,4.3-4.8c0,0,0.1,0,0.1,0c2.8,0,4.3,2.2,4.3,4.9c0,0.1,0,0.3,0,0.5h-7.4
	c0.1,1.8,1.5,3.2,3.3,3.1c1.1,0,2.2-0.5,2.9-1.3l0.9,0.8c-0.9,1.1-2.4,1.8-3.8,1.7c-2.6,0-4.7-2-4.7-4.6
	C166.9,306.5,166.9,306.4,166.9,306.3z M174.3,305.7c-0.1-1.7-1.1-3.2-3-3.2c-1.7,0.1-3,1.5-3,3.2H174.3z"/>
<path d="M178.2,297.7h1.4v13.1h-1.4V297.7z"/>
<path d="M182.9,298h1.6v1.5h-1.6V298z M183,301.6h1.4v9.3H183L183,301.6z"/>
<path d="M186.7,301.6h1.5l3.1,7.7l3.1-7.7h1.5l-4.1,9.4h-1.2L186.7,301.6z"/>
<path d="M197,306.3L197,306.3c-0.1-2.5,1.8-4.7,4.3-4.8c0,0,0.1,0,0.1,0c2.8,0,4.3,2.2,4.3,4.9c0,0.1,0,0.3,0,0.5h-7.4
	c0.1,1.8,1.5,3.2,3.3,3.1c1.1,0,2.2-0.5,2.9-1.3l0.9,0.8c-0.9,1.1-2.4,1.8-3.8,1.7c-2.6,0-4.7-2-4.7-4.6
	C197,306.5,197,306.4,197,306.3z M204.4,305.7c-0.1-1.7-1.1-3.2-3-3.2c-1.7,0.1-3,1.5-3,3.2H204.4z"/>
<path d="M208.3,301.6h1.4v2.4c0.6-1.6,2.1-2.6,3.8-2.6v1.5h-0.1c-2,0-3.7,1.5-3.7,4.3v3.7h-1.4V301.6z"/>
<path d="M222.5,301.6h1.5l-3.9,9.6c-0.8,1.9-1.7,2.6-3.1,2.6c-0.7,0-1.4-0.1-2-0.5l0.5-1.1c0.5,0.2,1,0.4,1.5,0.3
	c0.8,0,1.4-0.4,1.9-1.8l-4.2-9.3h1.5l3.4,7.8L222.5,301.6z"/>
<path d="M231.6,301.6h1.4v1.6c0.6-1.1,1.8-1.8,3-1.8c1.3-0.1,2.5,0.7,3,1.9c0.7-1.2,1.9-1.9,3.3-1.9c2.1,0,3.5,1.4,3.5,3.8v5.8h-1.4
	v-5.4c0-1.8-0.9-2.8-2.4-2.8c-1.4,0-2.6,1.2-2.6,2.6c0,0.1,0,0.2,0,0.3v5.4H238v-5.5c0-1.7-0.9-2.8-2.4-2.8c-1.5,0-2.6,1.3-2.6,2.8
	c0,0.1,0,0.1,0,0.2v5.3h-1.4L231.6,301.6z"/>
<path d="M248.8,298h1.6v1.5h-1.6V298z M248.8,301.6h1.4v9.3h-1.4V301.6z"/>
<path d="M253.4,301.6h1.4v1.6c0.6-1.2,1.9-1.9,3.2-1.8c1.9-0.1,3.5,1.3,3.6,3.2c0,0.2,0,0.3,0,0.5v5.8h-1.4v-5.4
	c0-1.7-0.9-2.8-2.6-2.8c-1.5,0-2.8,1.2-2.8,2.7c0,0.1,0,0.2,0,0.2v5.3h-1.4L253.4,301.6z"/>
<path d="M264.6,298h1.6v1.5h-1.6V298z M264.7,301.6h1.3v9.3h-1.4L264.7,301.6z"/>
<path d="M269.3,301.6h1.4v1.6c0.6-1.1,1.8-1.8,3-1.8c1.3,0,2.5,0.7,3,1.9c0.7-1.2,1.9-1.9,3.3-1.9c2.1,0,3.5,1.4,3.5,3.8v5.8H282
	v-5.4c0-1.8-0.9-2.8-2.4-2.8c-1.4,0-2.6,1.2-2.6,2.6c0,0.1,0,0.2,0,0.3v5.4h-1.4v-5.5c0-1.7-0.9-2.8-2.4-2.8
	c-1.5,0.1-2.7,1.3-2.6,2.8c0,0,0,0.1,0,0.1v5.3h-1.4L269.3,301.6z"/>
<path d="M286.2,307.4v-5.8h1.4v5.4c-0.2,1.4,0.8,2.6,2.1,2.8c0.1,0,0.3,0,0.4,0c1.5,0,2.8-1.2,2.8-2.7c0-0.1,0-0.1,0-0.2v-5.3h1.4
	v9.3H293v-1.6c-0.6,1.2-1.9,1.9-3.2,1.8c-1.9,0.1-3.5-1.3-3.6-3.2C286.2,307.7,286.2,307.5,286.2,307.4z"/>
<path d="M297.5,301.6h1.4v1.6c0.6-1.1,1.8-1.8,3-1.8c1.3-0.1,2.5,0.7,3,1.9c0.7-1.2,1.9-1.9,3.3-1.9c2.1,0,3.5,1.4,3.5,3.8v5.8h-1.4
	v-5.4c0-1.8-0.9-2.8-2.4-2.8c-1.4,0-2.6,1.2-2.6,2.6c0,0.1,0,0.2,0,0.3v5.4h-1.4v-5.5c0-1.7-0.9-2.8-2.4-2.8c-1.5,0-2.6,1.3-2.6,2.8
	c0,0.1,0,0.1,0,0.2v5.3h-1.4L297.5,301.6z"/>
<path d="M56,330.8h5v1.5h-5V330.8z"/>
<path d="M69.4,324.3h1.3l7.9,10.1v-10.1H80v12.6h-1.1l-8.1-10.3v10.3h-1.4V324.3z"/>
<path d="M82.8,332.3L82.8,332.3c-0.1-2.5,1.8-4.7,4.3-4.8c0,0,0.1,0,0.1,0c2.8,0,4.3,2.2,4.3,4.9c0,0.2,0,0.3,0,0.5h-7.4
	c0.1,1.8,1.5,3.2,3.3,3.1c1.1,0,2.2-0.5,2.9-1.3l0.9,0.8c-0.9,1.1-2.4,1.8-3.8,1.7c-2.6,0-4.6-2-4.6-4.6
	C82.8,332.5,82.8,332.4,82.8,332.3z M90.2,331.7c-0.2-1.7-1.1-3.2-3-3.2c-1.7,0.1-3,1.5-3,3.2H90.2z"/>
<path d="M93.4,332.3L93.4,332.3c-0.1-2.5,1.8-4.7,4.3-4.8c0,0,0.1,0,0.1,0c2.8,0,4.3,2.2,4.3,4.9c0,0.1,0,0.3,0,0.5h-7.4
	c0.1,1.8,1.5,3.2,3.3,3.1c1.1,0,2.2-0.5,2.9-1.3l0.9,0.8c-0.9,1.1-2.4,1.8-3.8,1.7c-2.6,0-4.6-2-4.6-4.6
	C93.4,332.5,93.4,332.4,93.4,332.3z M100.8,331.7c-0.2-1.7-1.1-3.2-3-3.2c-1.7,0.1-3,1.5-3,3.2H100.8z"/>
<path d="M104.1,332.3L104.1,332.3c-0.2-2.5,1.8-4.7,4.3-4.8c0.1,0,0.1,0,0.2,0c1.5,0,2.8,0.8,3.6,2v-5.6h1.4V337h-1.4v-2
	c-0.7,1.3-2.1,2.1-3.6,2.1c-2.5-0.1-4.5-2.1-4.4-4.6C104.1,332.4,104.1,332.3,104.1,332.3z M112.2,332.3L112.2,332.3
	c0.1-1.9-1.4-3.5-3.3-3.6c0,0,0,0,0,0c-1.8,0-3.3,1.5-3.3,3.3c0,0.1,0,0.2,0,0.3l0,0c-0.1,1.9,1.3,3.5,3.1,3.6c0.1,0,0.1,0,0.2,0
	C110.7,335.8,112.2,334.2,112.2,332.3C112.2,332.3,112.2,332.2,112.2,332.3L112.2,332.3z"/>
<path d="M122.5,334.4v-5.6h-1.3v-1.2h1.3v-2.8h1.4v2.8h3v1.2h-3v5.4c-0.1,0.8,0.4,1.5,1.2,1.6c0.1,0,0.3,0,0.4,0
	c0.5,0,0.9-0.1,1.3-0.3v1.2c-0.5,0.3-1.1,0.4-1.7,0.4c-1.3,0.2-2.5-0.8-2.6-2.1C122.5,334.8,122.5,334.6,122.5,334.4z"/>
<path d="M128.4,332.3L128.4,332.3c0.1-2.7,2.4-4.8,5.1-4.6c2.5,0.1,4.5,2.1,4.6,4.6l0,0c0,2.7-2.1,4.8-4.8,4.9c0,0-0.1,0-0.1,0
	c-2.6,0-4.8-2.1-4.8-4.7C128.4,332.4,128.4,332.3,128.4,332.3z M136.7,332.3L136.7,332.3c0.1-1.9-1.5-3.6-3.4-3.6c0,0,0,0,0,0
	c-1.9,0-3.4,1.6-3.4,3.5c0,0.1,0,0.1,0,0.2l0,0c-0.1,1.9,1.4,3.5,3.4,3.6c0,0,0.1,0,0.1,0c1.9,0,3.4-1.6,3.4-3.5
	C136.7,332.4,136.7,332.3,136.7,332.3L136.7,332.3z"/>
<path d="M145.5,332.3L145.5,332.3c0.1-2.7,2.4-4.8,5.1-4.6c2.5,0.1,4.5,2.1,4.6,4.6l0,0c0,2.7-2.1,4.8-4.8,4.9c0,0-0.1,0-0.1,0
	c-2.6,0-4.8-2.1-4.8-4.7C145.5,332.4,145.5,332.3,145.5,332.3z M153.7,332.3L153.7,332.3c0.1-1.9-1.5-3.6-3.4-3.6c0,0,0,0-0.1,0
	c-1.9,0-3.4,1.6-3.4,3.5c0,0,0,0.1,0,0.1l0,0c-0.1,1.9,1.4,3.5,3.4,3.6c0,0,0.1,0,0.1,0c1.9,0,3.4-1.5,3.4-3.4
	C153.7,332.4,153.7,332.3,153.7,332.3z"/>
<path d="M157.7,327.6h1.4v2.4c0.6-1.6,2.1-2.6,3.8-2.6v1.5h-0.1c-2,0-3.7,1.5-3.7,4.3v3.7h-1.4V327.6z"/>
<path d="M164,332.3L164,332.3c-0.2-2.5,1.8-4.7,4.3-4.8c0.1,0,0.1,0,0.2,0c1.5,0,2.8,0.8,3.6,2v-5.6h1.4V337H172v-2
	c-0.7,1.3-2.1,2.1-3.6,2.1c-2.5,0-4.5-2.1-4.5-4.6C164,332.4,164,332.3,164,332.3z M172.1,332.3L172.1,332.3
	c0.1-1.9-1.4-3.5-3.3-3.6c0,0,0,0-0.1,0c-1.8,0-3.3,1.5-3.3,3.3c0,0.1,0,0.2,0,0.3l0,0c-0.1,1.9,1.3,3.5,3.1,3.6c0.1,0,0.1,0,0.2,0
	C170.6,335.8,172.1,334.2,172.1,332.3C172.1,332.3,172.1,332.3,172.1,332.3L172.1,332.3z"/>
<path d="M176,332.3L176,332.3c-0.1-2.5,1.8-4.7,4.3-4.8c0,0,0.1,0,0.1,0c2.8,0,4.3,2.2,4.3,4.9c0,0.1,0,0.3,0,0.5h-7.4
	c0.1,1.8,1.5,3.2,3.3,3.1c1.1,0,2.2-0.5,2.9-1.3l0.9,0.8c-0.9,1.1-2.4,1.8-3.8,1.7c-2.6,0-4.7-2-4.7-4.6
	C176,332.5,176,332.4,176,332.3z M183.4,331.7c-0.1-1.7-1.1-3.2-3-3.2c-1.7,0.1-3,1.5-3,3.2H183.4z"/>
<path d="M187.2,327.6h1.4v2.4c0.6-1.6,2.1-2.6,3.8-2.6v1.5h-0.1c-2,0-3.7,1.5-3.7,4.3v3.7h-1.4V327.6z"/>
<path d="M199.3,332.3L199.3,332.3c0-2.7,2.2-4.8,4.9-4.8c2.7,0,4.8,2.2,4.8,4.8l0,0c0,2.7-2.1,4.8-4.8,4.9c0,0-0.1,0-0.1,0
	c-2.6,0-4.8-2.1-4.8-4.7C199.3,332.4,199.3,332.3,199.3,332.3z M207.6,332.3L207.6,332.3c0.1-1.9-1.5-3.6-3.4-3.6c0,0,0,0-0.1,0
	c-1.9,0-3.4,1.6-3.4,3.5c0,0,0,0.1,0,0.1l0,0c-0.1,1.9,1.4,3.5,3.4,3.6c0,0,0.1,0,0.1,0c1.9,0,3.4-1.5,3.4-3.4
	C207.6,332.4,207.6,332.3,207.6,332.3z"/>
<path d="M211.5,327.6h1.4v1.6c0.6-1.2,1.9-1.9,3.2-1.8c1.9-0.1,3.5,1.3,3.6,3.2c0,0.2,0,0.3,0,0.5v5.8h-1.4v-5.4
	c0-1.7-0.9-2.8-2.6-2.8c-1.5,0-2.8,1.2-2.8,2.7c0,0.1,0,0.2,0,0.2v5.3h-1.4V327.6z"/>
<path d="M222,332.3L222,332.3c0-2.7,2.2-4.9,4.8-4.9c1.4,0,2.7,0.6,3.7,1.7l-0.9,1c-0.7-0.9-1.7-1.4-2.8-1.4
	c-1.9,0.1-3.4,1.6-3.3,3.5c0,0,0,0,0,0.1l0,0c-0.1,1.9,1.4,3.5,3.3,3.6c0,0,0.1,0,0.1,0c1.1,0,2.1-0.5,2.8-1.4l0.9,0.8
	c-1.7,2.1-4.7,2.4-6.8,0.7C222.7,335.2,222,333.8,222,332.3L222,332.3z"/>
<path d="M232,332.3L232,332.3c-0.1-2.5,1.8-4.7,4.3-4.8c0,0,0.1,0,0.1,0c2.8,0,4.3,2.2,4.3,4.9c0,0.1,0,0.3,0,0.5h-7.4
	c0.1,1.8,1.5,3.2,3.3,3.1c1.1,0,2.2-0.5,2.9-1.3l0.9,0.8c-0.9,1.1-2.4,1.8-3.8,1.7c-2.6,0-4.7-2-4.7-4.6
	C232,332.5,232,332.4,232,332.3z M239.4,331.7c-0.1-1.7-1.1-3.2-3-3.2c-1.7,0.1-3,1.5-3,3.2H239.4z"/>
<path d="M248,334.2L248,334.2c0-2,1.6-3,4-3c1,0,1.9,0.1,2.9,0.4v-0.3c0-1.7-1-2.5-2.8-2.5c-1,0-1.9,0.2-2.8,0.7l-0.4-1.1
	c1.1-0.5,2.2-0.8,3.4-0.8c1.1-0.1,2.2,0.3,3,1c0.7,0.7,1.1,1.7,1,2.7v5.7h-1.3v-1.4c-0.8,1.1-2,1.7-3.4,1.6
	C249.7,337.1,248,336.1,248,334.2z M254.9,333.5v-0.9c-0.9-0.3-1.8-0.4-2.7-0.4c-1.8,0-2.7,0.8-2.7,1.9l0,0c0,1.2,1.1,1.9,2.3,1.9
	C253.4,336,254.8,334.9,254.9,333.5L254.9,333.5z"/>
<path d="M263.9,332.3L263.9,332.3c-0.2-2.5,1.8-4.7,4.3-4.8c0.1,0,0.1,0,0.2,0c1.5,0,2.8,0.8,3.6,2v-5.6h1.4V337H272v-2
	c-0.7,1.3-2.1,2.1-3.6,2.1c-2.5,0-4.5-2.1-4.5-4.6C263.9,332.4,263.9,332.3,263.9,332.3z M272,332.3L272,332.3
	c0.1-1.9-1.4-3.5-3.3-3.6c0,0,0,0,0,0c-1.8,0-3.3,1.5-3.3,3.3c0,0.1,0,0.2,0,0.3l0,0c-0.1,1.9,1.3,3.5,3.1,3.6c0.1,0,0.1,0,0.2,0
	C270.6,335.8,272.1,334.2,272,332.3C272,332.3,272,332.2,272,332.3L272,332.3z"/>
<path d="M275.7,334.2L275.7,334.2c0-2,1.6-3,4-3c1,0,1.9,0.1,2.9,0.4v-0.3c0-1.7-1-2.5-2.8-2.5c-1,0-1.9,0.2-2.8,0.7l-0.4-1.1
	c1.1-0.5,2.2-0.8,3.4-0.8c1.1-0.1,2.2,0.3,3,1c0.7,0.7,1,1.7,1,2.7v5.7h-1.3v-1.4c-0.8,1-2.1,1.6-3.4,1.6
	C277.5,337.1,275.7,336.1,275.7,334.2z M282.6,333.5v-0.9c-0.9-0.3-1.8-0.4-2.7-0.4c-1.8,0-2.7,0.8-2.7,1.9l0,0
	c0,1.2,1.1,1.9,2.3,1.9C281.2,336,282.6,334.9,282.6,333.5z"/>
<path d="M293.5,327.6h1.5l-3.9,9.6c-0.8,1.9-1.7,2.6-3.1,2.6c-0.7,0-1.4-0.1-2-0.5l0.5-1.1c0.5,0.2,1,0.4,1.5,0.3
	c0.8,0,1.4-0.4,1.9-1.8l-4.2-9.3h1.5l3.4,7.8L293.5,327.6z"/>
<path d="M294.9,338.5c0.9-0.3,1.3-0.8,1.2-1.6h-0.6V335h1.6v1.6c0.1,1.2-0.7,2.3-1.9,2.5c0,0-0.1,0-0.1,0L294.9,338.5z"/>
<path d="M305.4,327.6h1.4v1.6c0.6-1.2,1.9-1.9,3.2-1.8c1.9-0.1,3.5,1.3,3.6,3.2c0,0.2,0,0.3,0,0.5v5.8h-1.4v-5.4
	c0-1.7-0.9-2.8-2.6-2.8c-1.5,0-2.8,1.2-2.8,2.7c0,0.1,0,0.2,0,0.2v5.3h-1.4V327.6z"/>
<path d="M315.9,332.3L315.9,332.3c0-2.7,2.2-4.9,4.9-4.9s4.9,2.2,4.9,4.9l0,0c0,2.7-2.1,4.8-4.8,4.9c0,0,0,0-0.1,0
	c-2.6,0-4.8-2.1-4.8-4.7C315.9,332.4,315.9,332.3,315.9,332.3z M324.2,332.3L324.2,332.3c0.1-1.9-1.5-3.6-3.4-3.6c0,0,0,0-0.1,0
	c-1.9,0-3.4,1.6-3.4,3.5c0,0,0,0.1,0,0.1l0,0c-0.1,1.9,1.4,3.5,3.4,3.6c0,0,0.1,0,0.1,0c1.9,0,3.4-1.5,3.4-3.4
	C324.2,332.4,324.2,332.3,324.2,332.3z"/>
<path d="M55.6,361.7l0.7-1c0.9,0.7,2,1.1,3.2,1.2c1.1,0,1.9-0.6,1.9-1.5l0,0c0-0.9-1.1-1.3-2.3-1.6c-1.5-0.4-3.1-0.9-3.1-2.6l0,0
	c0-1.6,1.3-2.7,3.2-2.7c1.2,0,2.3,0.4,3.3,1l-0.6,1c-0.8-0.6-1.8-0.9-2.8-0.9c-1.1,0-1.8,0.6-1.8,1.4l0,0c0,0.9,1.2,1.2,2.4,1.6
	c1.5,0.4,3,1,3,2.7l0,0c0,1.8-1.5,2.8-3.3,2.8C58.1,363,56.7,362.6,55.6,361.7z"/>
<path d="M65.2,359.4v-5.8h1.4v5.4c0,1.7,0.9,2.8,2.6,2.8c1.5,0.1,2.8-1.1,2.8-2.6c0-0.1,0-0.2,0-0.3v-5.3h1.4v9.3H72v-1.6
	c-0.6,1.1-1.9,1.8-3.2,1.8c-1.9,0.1-3.5-1.3-3.6-3.2C65.2,359.7,65.2,359.5,65.2,359.4z"/>
<path d="M77.8,361.1v1.8h-1.4v-13.2h1.4v5.7c0.7-1.3,2.1-2.1,3.6-2.1c2.5,0.1,4.5,2.1,4.4,4.6c0,0.1,0,0.1,0,0.2l0,0
	c0.2,2.5-1.7,4.7-4.3,4.8c-0.1,0-0.1,0-0.2,0C79.9,363.1,78.6,362.3,77.8,361.1z M84.4,358.3L84.4,358.3c0.1-1.8-1.2-3.5-3.1-3.6
	c-0.1,0-0.1,0-0.2,0c-1.9,0.1-3.4,1.7-3.4,3.6c0,0,0,0,0,0l0,0c-0.1,1.9,1.4,3.5,3.3,3.6c0,0,0,0,0,0c1.8,0,3.3-1.5,3.3-3.3
	C84.4,358.5,84.4,358.4,84.4,358.3z"/>
<path d="M87.6,361.7l0.7-1c0.9,0.7,2.1,1.1,3.2,1.2c1.1,0,1.9-0.6,1.9-1.5l0,0c0-0.9-1.1-1.3-2.3-1.6c-1.5-0.4-3.1-0.9-3.1-2.6l0,0
	c0-1.6,1.3-2.7,3.2-2.7c1.2,0,2.3,0.4,3.3,1l-0.6,1c-0.8-0.6-1.8-0.9-2.8-0.9c-1.1,0-1.8,0.6-1.8,1.4l0,0c0,0.9,1.2,1.2,2.4,1.6
	c1.4,0.4,3,1,3,2.7l0,0c0,1.8-1.5,2.8-3.3,2.8C90.1,363,88.7,362.6,87.6,361.7z"/>
<path d="M96.8,358.3L96.8,358.3c0-2.7,2.2-4.9,4.8-4.9c1.4,0,2.7,0.6,3.7,1.7l-0.9,1c-0.7-0.9-1.7-1.4-2.8-1.4
	c-1.9,0.1-3.4,1.7-3.3,3.6c0,0,0,0,0,0.1l0,0c-0.1,1.9,1.4,3.5,3.3,3.6c0,0,0.1,0,0.1,0c1.1,0,2.1-0.5,2.8-1.4l0.9,0.8
	c-1.7,2.1-4.7,2.4-6.8,0.7C97.4,361.2,96.8,359.8,96.8,358.3L96.8,358.3z"/>
<path d="M107.6,353.6h1.4v2.4c0.6-1.6,2.1-2.6,3.8-2.6v1.5h-0.1c-2,0-3.7,1.5-3.7,4.3v3.7h-1.4L107.6,353.6z"/>
<path d="M115,350h1.6v1.5H115V350z M115.1,353.6h1.4v9.3H115L115.1,353.6z"/>
<path d="M119.7,353.6h1.3v1.9c0.7-1.3,2.1-2.1,3.6-2.1c2.5,0,4.5,2.1,4.5,4.6c0,0.1,0,0.1,0,0.2l0,0c0.2,2.5-1.8,4.7-4.3,4.8
	c-0.1,0-0.1,0-0.2,0c-1.5,0-2.8-0.8-3.6-2v4.7h-1.4L119.7,353.6z M127.7,358.3L127.7,358.3c0.1-1.9-1.3-3.5-3.1-3.6
	c-0.1,0-0.1,0-0.2,0c-1.9,0.1-3.4,1.7-3.4,3.6c0,0,0,0,0,0l0,0c-0.1,1.9,1.4,3.5,3.3,3.6c0,0,0,0,0,0c1.8,0,3.3-1.5,3.3-3.3
	C127.6,358.4,127.6,358.4,127.7,358.3L127.7,358.3z"/>
<path d="M132.1,360.4v-5.6h-1.3v-1.2h1.3v-2.8h1.4v2.8h3v1.2h-3v5.4c-0.1,0.8,0.4,1.5,1.2,1.6c0.1,0,0.3,0,0.4,0
	c0.5,0,0.9-0.1,1.4-0.3v1.2c-0.5,0.3-1.1,0.4-1.7,0.4c-1.3,0.2-2.5-0.8-2.6-2.1C132.1,360.8,132.1,360.6,132.1,360.4z"/>
<path d="M138.9,350h1.6v1.5h-1.6V350z M139,353.6h1.4v9.3H139V353.6z"/>
<path d="M143,358.3L143,358.3c0.1-2.7,2.4-4.8,5.1-4.6c2.5,0.1,4.5,2.1,4.6,4.6l0,0c0,2.7-2.1,4.8-4.8,4.9c0,0-0.1,0-0.1,0
	c-2.6,0-4.8-2.1-4.8-4.7C143,358.4,143,358.3,143,358.3z M151.3,358.3L151.3,358.3c0.1-1.9-1.5-3.6-3.4-3.6c0,0,0,0-0.1,0
	c-1.9,0-3.4,1.6-3.4,3.5c0,0,0,0.1,0,0.1l0,0c-0.1,1.9,1.4,3.5,3.4,3.6c0,0,0.1,0,0.1,0c1.9,0,3.4-1.5,3.5-3.4
	C151.3,358.4,151.3,358.3,151.3,358.3L151.3,358.3z"/>
<path d="M155.2,353.6h1.4v1.6c0.6-1.2,1.9-1.9,3.2-1.8c1.9-0.1,3.5,1.3,3.6,3.2c0,0.2,0,0.3,0,0.5v5.8H162v-5.4
	c0-1.7-0.9-2.8-2.6-2.8c-1.5,0-2.8,1.2-2.8,2.7c0,0.1,0,0.2,0,0.2v5.3h-1.4L155.2,353.6z"/>
<path d="M171,361.7l0.7-1c0.9,0.7,2,1.1,3.2,1.2c1.1,0,1.9-0.6,1.9-1.5l0,0c0-0.9-1.1-1.3-2.3-1.6c-1.5-0.4-3.1-0.9-3.1-2.6l0,0
	c0-1.6,1.3-2.7,3.2-2.7c1.2,0,2.3,0.4,3.4,1l-0.6,1c-0.8-0.6-1.8-0.9-2.8-0.9c-1.1,0-1.8,0.6-1.8,1.4l0,0c0,0.9,1.1,1.2,2.4,1.6
	c1.4,0.4,3,1,3,2.7l0,0c0,1.8-1.5,2.8-3.3,2.8C173.5,363,172.1,362.6,171,361.7z"/>
<path d="M180.1,358.3L180.1,358.3c-0.1-2.5,1.8-4.7,4.3-4.8c0,0,0.1,0,0.1,0c2.8,0,4.3,2.2,4.3,4.9c0,0.1,0,0.3,0,0.5h-7.4
	c0.1,1.8,1.5,3.2,3.3,3.1c1.1,0,2.2-0.5,2.9-1.3l0.9,0.8c-0.9,1.1-2.4,1.8-3.8,1.7c-2.6,0-4.7-2-4.7-4.6
	C180.1,358.5,180.1,358.4,180.1,358.3z M187.5,357.7c-0.1-1.7-1.1-3.2-3-3.2c-1.7,0.1-3,1.5-3,3.2H187.5z"/>
<path d="M191.3,353.6h1.4v2.4c0.6-1.6,2.1-2.6,3.8-2.6v1.5h-0.1c-2,0-3.7,1.5-3.7,4.3v3.7h-1.4V353.6z"/>
<path d="M197.7,353.6h1.5l3.1,7.7l3.1-7.7h1.5l-4,9.4h-1.2L197.7,353.6z"/>
<path d="M209.2,350h1.6v1.5h-1.6V350z M209.3,353.6h1.4v9.3h-1.4V353.6z"/>
<path d="M213.4,358.3L213.4,358.3c0-2.7,2.2-4.9,4.8-4.9c1.4,0,2.7,0.6,3.7,1.7l-0.9,1c-0.7-0.9-1.7-1.4-2.8-1.4
	c-1.9,0.1-3.4,1.6-3.3,3.5c0,0,0,0,0,0.1l0,0c-0.1,1.9,1.4,3.5,3.3,3.6c0,0,0.1,0,0.1,0c1.1,0,2.1-0.5,2.9-1.4l0.9,0.8
	c-1.7,2.1-4.7,2.4-6.8,0.7C214,361.2,213.4,359.8,213.4,358.3L213.4,358.3z"/>
<path d="M223.4,358.3L223.4,358.3c-0.1-2.5,1.8-4.7,4.4-4.8c0,0,0.1,0,0.1,0c2.8,0,4.3,2.2,4.3,4.9c0,0.1,0,0.3,0,0.5h-7.4
	c0.1,1.8,1.5,3.2,3.3,3.1c1.1,0,2.2-0.5,2.9-1.3l0.9,0.8c-1,1.1-2.4,1.8-3.9,1.7c-2.6,0-4.6-2.1-4.6-4.6
	C223.4,358.4,223.4,358.3,223.4,358.3z M230.8,357.7c-0.1-1.7-1.1-3.2-3-3.2c-1.7,0.1-3,1.5-3,3.2H230.8z"/>
<path class="st0" d="M411.3,28.8h269.3c15.9,0,28.8,12.9,28.8,28.8v375.3c0,15.9-12.9,28.8-28.8,28.8H411.3
	c-15.9,0-28.8-12.9-28.8-28.8V57.5C382.5,41.6,395.4,28.8,411.3,28.8z"/>
<path d="M404.4,54.3h1.7v13.8h8.7v1.6h-10.4L404.4,54.3z"/>
<path d="M416.8,64.1L416.8,64.1c0-3.3,2.7-5.9,5.9-5.9c3.3,0,5.9,2.7,5.9,5.9l0,0c0,3.3-2.6,5.9-5.9,5.9c0,0-0.1,0-0.1,0
	c-3.2,0-5.8-2.6-5.9-5.8C416.7,64.1,416.7,64.1,416.8,64.1z M426.9,64.1L426.9,64.1c0.1-2.4-1.8-4.4-4.2-4.4c0,0,0,0-0.1,0
	c-2.3,0-4.2,1.9-4.2,4.2c0,0.1,0,0.1,0,0.2l0,0c-0.1,2.4,1.8,4.3,4.1,4.4c0,0,0.1,0,0.1,0c2.3,0,4.2-1.9,4.2-4.2
	C426.9,64.2,426.9,64.1,426.9,64.1z"/>
<path d="M431,64.1L431,64.1c0-3.3,2.6-5.9,5.9-5.9c1.7,0,3.3,0.7,4.5,2l-1.1,1.2c-0.8-1-2.1-1.7-3.5-1.7c-2.3,0-4.2,2-4.1,4.3
	c0,0,0,0.1,0,0.1l0,0c-0.1,2.3,1.7,4.3,4.1,4.4c0,0,0.1,0,0.1,0c1.3,0,2.6-0.7,3.5-1.7l1.1,1c-2.1,2.5-5.8,2.9-8.3,0.8
	C431.8,67.4,431,65.8,431,64.1z"/>
<path d="M443.4,66.4L443.4,66.4c0-2.4,2-3.7,4.9-3.7c1.2,0,2.4,0.2,3.5,0.5v-0.4c0-2-1.3-3.1-3.4-3.1c-1.2,0-2.4,0.3-3.5,0.8
	l-0.5-1.4c1.3-0.6,2.7-0.9,4.1-0.9c1.3-0.1,2.7,0.4,3.7,1.3c0.8,0.9,1.2,2.1,1.2,3.3v7h-1.6V68c-1,1.3-2.5,2-4.1,2
	C445.5,69.9,443.4,68.7,443.4,66.4z M451.8,65.5v-1.1c-1.1-0.3-2.2-0.5-3.4-0.5c-2.1,0-3.3,0.9-3.3,2.4l0,0c0,1.4,1.3,2.3,2.9,2.3
	C450,68.6,451.8,67.3,451.8,65.5z"/>
<path d="M457.1,53.6h1.7v16.1h-1.7V53.6z"/>
<path d="M469.6,54.3h6.6c1.5-0.1,2.9,0.4,4,1.4c0.7,0.7,1,1.5,1,2.5l0,0c0,1.6-0.9,3-2.4,3.6c1.8,0.5,3.3,1.6,3.3,3.7l0,0
	c0,2.6-2.2,4.2-5.6,4.2h-6.8L469.6,54.3z M479.5,58.4c0-1.5-1.2-2.5-3.4-2.5h-4.7v5.3h4.5C478,61.2,479.5,60.2,479.5,58.4
	L479.5,58.4z M476.2,62.7h-4.9v5.4h5.2c2.3,0,3.8-1,3.8-2.8l0,0C480.3,63.7,478.9,62.7,476.2,62.7z"/>
<path d="M485.2,58.3h1.7v3c0.7-1.9,2.6-3.2,4.6-3.2V60h-0.1c-2.5,0-4.5,1.8-4.5,5.2v4.5h-1.7V58.3z"/>
<path d="M493,64L493,64c-0.2-3.1,2.2-5.7,5.3-5.9c0.1,0,0.1,0,0.2,0c3.4,0,5.3,2.7,5.3,6c0,0.2,0,0.4,0,0.6h-9
	c0.1,2.2,1.8,3.9,4,3.8c1.4,0,2.7-0.6,3.6-1.6l1,0.9c-1.2,1.4-2.9,2.2-4.8,2.2c-3.1,0-5.7-2.5-5.7-5.6C493,64.2,493,64.1,493,64z
	 M502,63.3c-0.2-2.1-1.4-3.9-3.6-3.9c-2,0-3.5,1.7-3.7,3.9H502z"/>
<path d="M505.8,66.4L505.8,66.4c0-2.4,2-3.7,4.9-3.7c1.2,0,2.4,0.2,3.5,0.5v-0.4c0-2-1.3-3.1-3.4-3.1c-1.2,0-2.4,0.3-3.5,0.8
	l-0.5-1.4c1.3-0.6,2.7-0.9,4.1-0.9c1.3-0.1,2.7,0.4,3.7,1.3c0.8,0.9,1.2,2.1,1.2,3.3v7h-1.6V68c-1,1.3-2.5,2-4.1,2
	C508,69.9,505.8,68.7,505.8,66.4z M514.2,65.5v-1.1c-1.1-0.3-2.2-0.5-3.3-0.5c-2.1,0-3.3,0.9-3.3,2.4l0,0c0,1.4,1.3,2.3,2.9,2.3
	C512.5,68.6,514.2,67.3,514.2,65.5L514.2,65.5z"/>
<path d="M519.4,53.6h1.7v11.1l6.1-6.4h2.1l-4.8,4.9l4.9,6.5h-2l-4.1-5.3l-2.3,2.3v3h-1.7L519.4,53.6z"/>
<path d="M532.6,59.8H531v-1.5h1.6v-1c-0.1-1.1,0.3-2.1,1-2.9c0.7-0.6,1.5-0.9,2.4-0.9c0.6,0,1.3,0.1,1.9,0.3v1.5
	c-0.5-0.2-1.1-0.3-1.7-0.3c-1.3,0-2,0.8-2,2.4v0.9h3.6v1.5h-3.6v9.9h-1.7L532.6,59.8z"/>
<path d="M538.8,66.4L538.8,66.4c0-2.4,2-3.7,4.9-3.7c1.2,0,2.4,0.2,3.5,0.5v-0.4c0-2-1.3-3.1-3.4-3.1c-1.2,0-2.4,0.3-3.5,0.8
	l-0.5-1.4c1.3-0.6,2.7-0.9,4.1-0.9c1.3-0.1,2.7,0.4,3.7,1.3c0.8,0.9,1.2,2.1,1.2,3.3v7h-1.6V68c-1,1.3-2.5,2-4.1,2
	C541,69.9,538.8,68.7,538.8,66.4z M547.2,65.5v-1.1c-1.1-0.3-2.2-0.5-3.3-0.5c-2.1,0-3.3,0.9-3.3,2.4l0,0c0,1.4,1.3,2.3,2.9,2.3
	C545.5,68.6,547.2,67.3,547.2,65.5z"/>
<path d="M551.5,68.2l0.9-1.2c1.1,0.9,2.5,1.4,3.9,1.5c1.4,0,2.4-0.7,2.4-1.8l0,0c0-1.2-1.3-1.6-2.8-2c-1.8-0.6-3.8-1.2-3.8-3.3l0,0
	c0-2,1.6-3.3,3.9-3.3c1.5,0,2.9,0.4,4.1,1.2l-0.8,1.3c-1-0.7-2.2-1.1-3.4-1.1c-1.3,0-2.2,0.7-2.2,1.7v0c0,1.1,1.4,1.5,2.9,2
	c1.8,0.5,3.7,1.2,3.7,3.3l0,0c0,2.2-1.8,3.4-4,3.4C554.5,69.9,552.8,69.3,551.5,68.2z"/>
<path d="M563.8,66.7v-6.9h-1.6v-1.5h1.6v-3.4h1.7v3.4h3.6v1.5h-3.6v6.6c-0.1,0.9,0.5,1.8,1.4,1.9c0.2,0,0.3,0,0.5,0
	c0.6,0,1.1-0.1,1.6-0.3v1.4c-0.6,0.3-1.3,0.5-2,0.5c-1.6,0.2-3-0.9-3.2-2.5C563.7,67.1,563.7,66.9,563.8,66.7z"/>
<path d="M404.4,85.1h6.6c1.6-0.1,3.2,0.5,4.4,1.6c0.8,0.8,1.2,1.9,1.2,3l0,0c0,2.6-1.8,4-4.2,4.5l4.7,6.3H415l-4.5-6h-4.4v6h-1.7
	L404.4,85.1z M410.8,92.9c2.3,0,4-1.2,4-3.2l0,0c0-1.9-1.5-3-3.9-3h-4.8V93L410.8,92.9z"/>
<path d="M419,94.8L419,94.8c-0.2-3.1,2.2-5.7,5.3-5.9c0.1,0,0.1,0,0.2,0c3.4,0,5.3,2.7,5.3,6c0,0.2,0,0.4,0,0.6h-9
	c0.1,2.2,1.8,3.9,4,3.8c1.4,0,2.7-0.6,3.6-1.6l1,1c-1.2,1.4-2.9,2.2-4.7,2.1c-3.1,0-5.7-2.5-5.7-5.6C419,95.1,419,95,419,94.8z
	 M428,94.2c-0.2-2.1-1.4-3.9-3.6-3.9c-2,0-3.5,1.7-3.7,3.9H428z"/>
<path d="M431.8,99l0.9-1.2c1.1,0.9,2.5,1.4,3.9,1.5c1.4,0,2.4-0.7,2.4-1.8l0,0c0-1.2-1.3-1.6-2.8-2c-1.8-0.5-3.8-1.1-3.8-3.2l0,0
	c0-2,1.6-3.3,3.9-3.3c1.5,0,2.9,0.5,4.1,1.3l-0.8,1.3c-1-0.7-2.2-1.1-3.4-1.1c-1.3,0-2.2,0.7-2.2,1.7v0c0,1.1,1.4,1.5,2.9,2
	c1.8,0.5,3.6,1.2,3.6,3.3l0,0c0,2.2-1.8,3.4-4,3.4C434.8,100.6,433.2,100.1,431.8,99z"/>
<path d="M444.1,97.5v-6.9h-1.6v-1.5h1.6v-3.4h1.7v3.4h3.6v1.5h-3.6v6.6c-0.1,0.9,0.5,1.8,1.4,1.9c0.2,0,0.3,0,0.5,0
	c0.6,0,1.1-0.1,1.6-0.4v1.4c-0.6,0.3-1.3,0.5-2,0.5c-1.6,0.2-3-1-3.2-2.6C444.1,97.9,444.1,97.7,444.1,97.5z"/>
<path d="M451.5,97.2L451.5,97.2c0-2.4,2-3.7,4.9-3.7c1.2,0,2.4,0.2,3.5,0.5v-0.4c0-2-1.3-3.1-3.4-3.1c-1.2,0-2.4,0.3-3.5,0.8
	l-0.5-1.4c1.3-0.6,2.7-0.9,4.1-0.9c1.3-0.1,2.7,0.4,3.7,1.3c0.8,0.9,1.2,2.1,1.2,3.3v7h-1.6v-1.8c-1,1.3-2.5,2-4.1,2
	C453.7,100.7,451.5,99.5,451.5,97.2z M459.9,96.3v-1.1c-1.1-0.3-2.2-0.5-3.4-0.5c-2.1,0-3.3,0.9-3.3,2.4l0,0c0,1.4,1.3,2.3,2.9,2.3
	C458.2,99.4,459.9,98.1,459.9,96.3z"/>
<path d="M465,96.2v-7.1h1.7v6.7c0,2.1,1.1,3.4,3.1,3.4c1.9,0,3.4-1.4,3.4-3.3c0-0.1,0-0.2,0-0.3v-6.5h1.7v11.4h-1.7v-2
	c-0.8,1.4-2.3,2.3-3.9,2.2C466.6,100.7,465,98.9,465,96.2z"/>
<path d="M478.7,89.1h1.7v3c0.7-1.9,2.6-3.2,4.6-3.2v1.8h-0.1c-2.5,0-4.5,1.8-4.5,5.2v4.5h-1.7L478.7,89.1z"/>
<path d="M486.2,97.2L486.2,97.2c0-2.4,2-3.7,4.9-3.7c1.2,0,2.4,0.2,3.5,0.5v-0.4c0-2-1.3-3.1-3.4-3.1c-1.2,0-2.4,0.3-3.5,0.8
	l-0.5-1.4c1.3-0.6,2.7-0.9,4.1-0.9c1.3-0.1,2.7,0.3,3.7,1.2c0.8,0.9,1.2,2.1,1.2,3.3v7h-1.6v-1.8c-1,1.3-2.5,2-4.1,2
	C488.3,100.7,486.2,99.5,486.2,97.2z M494.6,96.3v-1.1c-1.1-0.3-2.2-0.5-3.4-0.5c-2.1,0-3.3,0.9-3.3,2.4l0,0c0,1.4,1.3,2.3,2.9,2.3
	C492.9,99.4,494.6,98.1,494.6,96.3z"/>
<path d="M499.8,89.1h1.7v2c0.8-1.4,2.3-2.3,3.9-2.2c2.8,0,4.4,1.8,4.4,4.6v7.1H508v-6.7c0-2.1-1.1-3.4-3.1-3.4
	c-1.9,0-3.4,1.5-3.4,3.3c0,0.1,0,0.2,0,0.3v6.5h-1.7V89.1z"/>
<path d="M513.9,97.5v-6.9h-1.6v-1.5h1.6v-3.4h1.7v3.4h3.6v1.5h-3.6v6.6c-0.1,0.9,0.5,1.8,1.4,1.9c0.2,0,0.3,0,0.5,0
	c0.6,0,1.1-0.1,1.7-0.4v1.4c-0.6,0.3-1.3,0.5-2,0.5c-1.6,0.2-3-0.9-3.2-2.5C513.9,97.9,513.9,97.7,513.9,97.5z"/>
<path d="M521.3,99l0.9-1.2c1.1,0.9,2.5,1.4,3.9,1.5c1.4,0,2.3-0.7,2.3-1.8l0,0c0-1.2-1.3-1.6-2.8-2c-1.8-0.5-3.8-1.1-3.8-3.2l0,0
	c0-2,1.6-3.3,3.9-3.3c1.5,0,2.9,0.5,4.1,1.3l-0.8,1.2c-1-0.7-2.2-1.1-3.4-1.1c-1.3,0-2.2,0.7-2.2,1.7v0c0,1.1,1.4,1.5,2.9,2
	c1.8,0.5,3.7,1.2,3.7,3.3l0,0c0,2.2-1.8,3.4-4,3.4C524.3,100.6,522.6,100.1,521.3,99z"/>
<path d="M403.1,155.4l0.9-1c1.1,1.1,2.7,1.8,4.3,1.8c1.7,0,2.8-0.9,2.8-2.1l0,0c0-1.2-0.6-1.8-3.3-2.4c-2.9-0.6-4.2-1.6-4.2-3.6l0,0
	c0-2,1.7-3.4,4.1-3.4c1.6,0,3.2,0.5,4.4,1.6l-0.8,1.1c-1-0.9-2.3-1.4-3.6-1.4c-1.6,0-2.7,0.9-2.7,2l0,0c0,1.2,0.6,1.9,3.4,2.4
	s4.1,1.6,4.1,3.6l0,0c0,2.2-1.8,3.6-4.3,3.6C406.4,157.5,404.5,156.8,403.1,155.4z"/>
<path d="M415.6,154.8v-5.6h-1.3V148h1.3v-2.8h1.4v2.8h3v1.2h-3v5.4c-0.1,0.8,0.4,1.4,1.2,1.6c0.1,0,0.3,0,0.4,0
	c0.5,0,0.9-0.1,1.4-0.3v1.2c-0.5,0.3-1.1,0.4-1.7,0.4c-1.3,0.1-2.5-0.8-2.6-2.1C415.6,155.2,415.6,155,415.6,154.8z"/>
<path d="M422.4,148h1.4v2.4c0.6-1.6,2.1-2.6,3.8-2.6v1.5h-0.1c-2,0-3.7,1.5-3.7,4.3v3.7h-1.4L422.4,148z"/>
<path d="M428.7,152.7L428.7,152.7c-0.1-2.5,1.8-4.7,4.3-4.8c0,0,0.1,0,0.1,0c2.8,0,4.3,2.2,4.3,4.9c0,0.1,0,0.3,0,0.4h-7.4
	c0.1,1.8,1.5,3.2,3.3,3.1c1.1,0,2.2-0.5,2.9-1.3l0.9,0.8c-0.9,1.1-2.4,1.8-3.8,1.7c-2.6,0-4.6-2-4.7-4.6
	C428.7,152.9,428.7,152.8,428.7,152.7z M436.1,152.1c-0.1-1.7-1.1-3.2-3-3.2c-1.7,0.1-3,1.5-3,3.2H436.1z"/>
<path d="M440,148h1.4v1.6c0.6-1.2,1.9-1.9,3.2-1.8c1.9-0.1,3.5,1.3,3.6,3.2c0,0.2,0,0.3,0,0.5v5.8h-1.4v-5.4c0-1.7-0.9-2.8-2.6-2.8
	c-1.5,0-2.8,1.2-2.8,2.7c0,0.1,0,0.2,0,0.2v5.3H440V148z"/>
<path d="M451,158.9l0.6-1.1c1,0.8,2.3,1.2,3.6,1.2c1.7,0.2,3.2-1,3.4-2.7c0-0.2,0-0.4,0-0.6v-1.1c-0.8,1.2-2.2,2-3.7,2
	c-2.4,0-4.3-1.9-4.4-4.2c0,0,0-0.1,0-0.1l0,0c0-2.4,2-4.4,4.5-4.4c1.4,0,2.7,0.7,3.5,1.8V148h1.4v7.7c0.1,1.2-0.4,2.4-1.2,3.3
	c-1,0.9-2.2,1.3-3.5,1.2C453.7,160.2,452.2,159.8,451,158.9z M458.6,152.2L458.6,152.2c-0.1-1.8-1.6-3.2-3.4-3.2c0,0,0,0-0.1,0
	c-1.7-0.1-3.1,1.2-3.2,2.9c0,0.1,0,0.1,0,0.2l0,0c0,1.7,1.4,3.2,3.1,3.2c0,0,0.1,0,0.1,0C457,155.4,458.5,154,458.6,152.2
	L458.6,152.2z"/>
<path d="M463.5,154.8v-5.6h-1.3V148h1.3v-2.8h1.4v2.8h3v1.2h-3v5.4c-0.1,0.8,0.4,1.5,1.2,1.6c0.1,0,0.3,0,0.4,0
	c0.5,0,0.9-0.1,1.4-0.3v1.2c-0.5,0.3-1.1,0.4-1.7,0.4c-1.3,0.2-2.5-0.8-2.6-2.1C463.5,155.2,463.5,155,463.5,154.8z"/>
<path d="M470.3,144.1h1.4v5.5c0.6-1.2,1.9-1.9,3.2-1.8c1.9-0.1,3.5,1.3,3.6,3.2c0,0.2,0,0.3,0,0.5v5.8H477v-5.4
	c0-1.7-0.9-2.8-2.6-2.8c-1.5,0-2.8,1.2-2.8,2.7c0,0.1,0,0.2,0,0.3v5.3h-1.4L470.3,144.1z"/>
<path d="M480.6,156.1l0.7-1c0.9,0.7,2,1.2,3.2,1.2c1.1,0,1.9-0.6,1.9-1.5l0,0c0-0.9-1.1-1.3-2.3-1.6c-1.5-0.4-3.1-0.9-3.1-2.6l0,0
	c0-1.6,1.3-2.7,3.2-2.7c1.2,0,2.3,0.4,3.4,1l-0.6,1c-0.8-0.6-1.8-0.9-2.8-0.9c-1.1,0-1.8,0.6-1.8,1.4l0,0c0,0.9,1.1,1.2,2.4,1.6
	c1.4,0.4,3,1,3,2.7l0,0c0,1.8-1.5,2.8-3.3,2.8C483.1,157.4,481.7,156.9,480.6,156.1z"/>
<path d="M490.3,148h1.7v1.9h-1.7V148z M490.3,155.4h1.7v1.9h-1.7V155.4z"/>
<path d="M403.3,177.1h5v1.5h-5V177.1z"/>
<path d="M416.7,170.7h9.1v1.3h-7.6v4.5h6.8v1.3h-6.8v5.5h-1.4V170.7z"/>
<path d="M428.3,174h1.4v2.4c0.6-1.6,2.1-2.6,3.8-2.6v1.5h-0.1c-2,0-3.7,1.5-3.7,4.3v3.7h-1.4V174z"/>
<path d="M434.6,178.7L434.6,178.7c-0.1-2.5,1.8-4.7,4.3-4.8c0,0,0.1,0,0.1,0c2.8,0,4.3,2.2,4.3,4.9c0,0.1,0,0.3,0,0.4H436
	c0.1,1.8,1.5,3.2,3.3,3.1c1.1,0,2.2-0.5,2.9-1.3l0.9,0.8c-0.9,1.1-2.4,1.8-3.8,1.7c-2.6,0-4.6-2-4.7-4.6
	C434.6,178.8,434.6,178.7,434.6,178.7z M442,178.1c-0.1-1.7-1.1-3.2-3-3.2c-1.7,0.1-3,1.5-3,3.2H442z"/>
<path d="M445,182.1l0.7-1c0.9,0.7,2.1,1.2,3.3,1.2c1.1,0,1.9-0.6,1.9-1.5l0,0c0-0.9-1.1-1.3-2.3-1.6c-1.5-0.4-3.1-0.9-3.1-2.6l0,0
	c0-1.6,1.3-2.7,3.2-2.7c1.2,0,2.3,0.4,3.4,1l-0.6,1c-0.8-0.6-1.8-0.9-2.8-0.9c-1.1,0-1.8,0.6-1.8,1.4l0,0c0,0.9,1.2,1.2,2.4,1.6
	c1.4,0.4,3,1,3,2.7l0,0c0,1.8-1.5,2.8-3.3,2.8C447.5,183.4,446.1,183,445,182.1z"/>
<path d="M454.8,170.1h1.4v5.5c0.6-1.2,1.9-1.9,3.2-1.8c1.9-0.1,3.5,1.3,3.6,3.2c0,0.2,0,0.3,0,0.5v5.8h-1.4v-5.4
	c0-1.7-0.9-2.8-2.6-2.8c-1.5,0-2.8,1.2-2.8,2.7c0,0.1,0,0.2,0,0.3v5.3h-1.4L454.8,170.1z"/>
<path d="M471.5,170.7h9.1v1.3h-7.6v4.5h6.8v1.3h-6.8v5.5h-1.4V170.7z"/>
<path d="M482.2,178.7L482.2,178.7c0-2.7,2.2-4.9,4.9-4.9s4.9,2.2,4.9,4.9l0,0c0,2.7-2.1,4.8-4.8,4.9c0,0,0,0-0.1,0
	c-2.6,0-4.8-2.1-4.8-4.7C482.2,178.8,482.2,178.7,482.2,178.7z M490.5,178.7L490.5,178.7c0.1-1.9-1.5-3.6-3.4-3.6c0,0,0,0-0.1,0
	c-1.9,0-3.4,1.6-3.4,3.5c0,0,0,0.1,0,0.1l0,0c-0.1,1.9,1.4,3.5,3.4,3.6c0,0,0.1,0,0.1,0c1.9,0,3.4-1.5,3.4-3.4
	C490.5,178.8,490.5,178.7,490.5,178.7z"/>
<path d="M493.9,178.7L493.9,178.7c0-2.7,2.2-4.9,4.9-4.9s4.9,2.2,4.9,4.9l0,0c0,2.7-2.1,4.8-4.8,4.9c0,0-0.1,0-0.1,0
	c-2.6,0-4.8-2.1-4.8-4.7C493.9,178.8,493.9,178.7,493.9,178.7z M502.1,178.7L502.1,178.7c0.1-1.9-1.5-3.6-3.4-3.6c0,0,0,0-0.1,0
	c-1.9,0-3.4,1.6-3.4,3.5c0,0,0,0.1,0,0.1l0,0c-0.1,1.9,1.4,3.5,3.4,3.6c0,0,0.1,0,0.1,0c1.9,0,3.4-1.5,3.4-3.4
	C502.1,178.8,502.1,178.7,502.1,178.7L502.1,178.7z"/>
<path d="M505.5,178.7L505.5,178.7c-0.1-2.5,1.8-4.7,4.3-4.8c0.1,0,0.1,0,0.2,0c1.5,0,2.8,0.8,3.6,2v-5.6h1.4v13.1h-1.4v-1.9
	c-0.7,1.3-2.1,2.1-3.6,2.1c-2.5,0-4.5-2.1-4.5-4.6C505.5,178.8,505.5,178.7,505.5,178.7z M513.6,178.7L513.6,178.7
	c0.1-1.9-1.4-3.5-3.3-3.6c0,0,0,0,0,0c-1.8,0-3.3,1.5-3.3,3.3c0,0.1,0,0.2,0,0.3l0,0c-0.1,1.9,1.3,3.5,3.1,3.6c0.1,0,0.1,0,0.2,0
	C512.1,182.2,513.7,180.6,513.6,178.7C513.6,178.7,513.6,178.7,513.6,178.7L513.6,178.7z"/>
<path d="M403,248.7h1.5l3.6,10.5l3.5-10.5h1.2l3.5,10.5l3.6-10.5h1.5l-4.5,12.7h-1.2l-3.5-10.2l-3.5,10.2h-1.2L403,248.7z"/>
<path d="M421.9,256.7L421.9,256.7c-0.1-2.5,1.8-4.7,4.4-4.8c0,0,0.1,0,0.1,0c2.8,0,4.3,2.2,4.3,4.9c0,0.1,0,0.3,0,0.5h-7.4
	c0.1,1.8,1.5,3.2,3.3,3.1c1.1,0,2.2-0.5,2.9-1.3l0.9,0.8c-0.9,1.1-2.4,1.8-3.8,1.7c-2.6,0-4.6-2-4.7-4.6
	C421.9,256.8,421.9,256.8,421.9,256.7z M429.3,256.1c-0.1-1.7-1.1-3.2-3-3.2c-1.7,0.1-3,1.5-3,3.2H429.3z"/>
<path d="M432.4,258.6L432.4,258.6c0-2,1.6-3,4-3c1,0,1.9,0.1,2.9,0.4v-0.3c0-1.7-1-2.5-2.8-2.5c-1,0-1.9,0.2-2.8,0.7l-0.4-1.1
	c1.1-0.5,2.2-0.8,3.4-0.8c1.1-0.1,2.2,0.3,3,1c0.7,0.7,1.1,1.7,1,2.7v5.7h-1.3v-1.4c-0.8,1-2.1,1.6-3.4,1.6
	C434.2,261.5,432.4,260.5,432.4,258.6z M439.3,257.9V257c-0.9-0.3-1.8-0.4-2.7-0.4c-1.8,0-2.7,0.8-2.7,1.9l0,0
	c0,1.2,1.1,1.9,2.3,1.9C437.9,260.4,439.3,259.3,439.3,257.9z"/>
<path d="M443.5,248.1h1.4v9.1l5-5.2h1.7l-3.9,4l4,5.3h-1.6l-3.3-4.3l-1.9,1.9v2.4h-1.4V248.1z"/>
<path d="M453.8,252h1.4v1.6c0.6-1.2,1.9-1.9,3.2-1.8c1.9-0.1,3.5,1.3,3.6,3.2c0,0.2,0,0.3,0,0.5v5.8h-1.4v-5.4
	c0-1.7-0.9-2.8-2.6-2.8c-1.5,0-2.8,1.2-2.8,2.7c0,0.1,0,0.2,0,0.3v5.3h-1.4L453.8,252z"/>
<path d="M464.3,256.7L464.3,256.7c-0.1-2.5,1.8-4.7,4.3-4.8c0,0,0.1,0,0.1,0c2.8,0,4.3,2.2,4.3,4.9c0,0.1,0,0.3,0,0.5h-7.4
	c0.1,1.7,1.5,3.1,3.3,3.1c1.1,0,2.2-0.5,2.9-1.3l0.9,0.8c-0.9,1.1-2.3,1.8-3.8,1.7c-2.6,0-4.7-2-4.7-4.6
	C464.3,256.9,464.3,256.8,464.3,256.7z M471.7,256.1c-0.1-1.7-1.1-3.2-3-3.2c-1.7,0.1-3,1.5-3,3.2H471.7z"/>
<path d="M474.8,260.1l0.7-1c0.9,0.7,2,1.1,3.2,1.2c1.1,0,1.9-0.6,1.9-1.5l0,0c0-0.9-1.1-1.3-2.3-1.6c-1.5-0.4-3.1-0.9-3.1-2.6l0,0
	c0-1.6,1.3-2.7,3.2-2.7c1.2,0,2.3,0.4,3.4,1l-0.6,1c-0.8-0.6-1.8-0.9-2.8-0.9c-1.1,0-1.8,0.6-1.8,1.4l0,0c0,0.9,1.1,1.2,2.4,1.6
	c1.4,0.4,3,1,3,2.7l0,0c0,1.8-1.5,2.8-3.3,2.8C477.2,261.4,475.9,260.9,474.8,260.1z"/>
<path d="M483.5,260.1l0.7-1c0.9,0.7,2,1.1,3.2,1.2c1.1,0,1.9-0.6,1.9-1.5l0,0c0-0.9-1.1-1.3-2.3-1.6c-1.5-0.4-3.1-0.9-3.1-2.6l0,0
	c0-1.6,1.3-2.7,3.2-2.7c1.2,0,2.3,0.4,3.4,1l-0.6,1c-0.8-0.6-1.8-0.9-2.8-0.9c-1.1,0-1.8,0.6-1.8,1.4l0,0c0,0.9,1.1,1.2,2.4,1.6
	c1.4,0.4,3,1,3,2.7l0,0c0,1.8-1.5,2.8-3.3,2.8C486,261.4,484.7,260.9,483.5,260.1z"/>
<path d="M493.2,252h1.7v1.9h-1.7V252z M493.2,259.4h1.7v1.9h-1.7V259.4z"/>
<path d="M403.3,281.1h5v1.5h-5V281.1z"/>
<path d="M421.4,274.6h1.3l5.7,12.7h-1.5l-1.5-3.3h-6.9l-1.5,3.3h-1.5L421.4,274.6z M424.9,282.7l-2.9-6.4l-2.9,6.4H424.9z"/>
<path d="M430.8,274.1h1.4v13.1h-1.4V274.1z"/>
<path d="M434.6,286.1l0.7-1c0.9,0.7,2,1.1,3.2,1.2c1.1,0,1.9-0.6,1.9-1.5l0,0c0-0.9-1.1-1.3-2.3-1.6c-1.5-0.4-3.1-0.9-3.1-2.6l0,0
	c0-1.6,1.3-2.7,3.2-2.7c1.2,0,2.3,0.4,3.4,1l-0.6,1c-0.8-0.6-1.8-0.9-2.8-0.9c-1.1,0-1.8,0.6-1.8,1.4l0,0c0,0.9,1.1,1.2,2.4,1.6
	c1.4,0.4,3,1,3,2.7l0,0c0,1.8-1.5,2.8-3.3,2.8C437.1,287.4,435.7,287,434.6,286.1z"/>
<path d="M443.8,282.7L443.8,282.7c0.1-2.7,2.4-4.8,5.1-4.6c2.5,0.1,4.5,2.1,4.6,4.6l0,0c0,2.7-2.1,4.8-4.8,4.9c0,0,0,0-0.1,0
	c-2.6,0-4.8-2.1-4.8-4.7C443.8,282.8,443.8,282.7,443.8,282.7z M452.1,282.7L452.1,282.7c0.1-1.9-1.5-3.6-3.4-3.6c0,0,0,0-0.1,0
	c-1.9,0-3.4,1.6-3.4,3.4c0,0.1,0,0.1,0,0.2l0,0c-0.1,1.9,1.4,3.5,3.4,3.6c0,0,0.1,0,0.1,0c1.9,0,3.4-1.5,3.4-3.4
	C452.1,282.8,452.1,282.7,452.1,282.7z"/>
<path d="M461.4,278h1.4v1.9c0.7-1.3,2.1-2.1,3.6-2.1c2.5,0.1,4.5,2.1,4.4,4.6c0,0.1,0,0.1,0,0.2l0,0c0.2,2.5-1.7,4.7-4.3,4.8
	c-0.1,0-0.1,0-0.2,0c-1.5,0-2.8-0.8-3.6-2v4.7h-1.4V278z M469.4,282.7L469.4,282.7c0.1-1.8-1.2-3.5-3.1-3.6c-0.1,0-0.1,0-0.2,0
	c-1.9,0.1-3.4,1.7-3.4,3.6c0,0,0,0,0,0l0,0c-0.1,1.9,1.4,3.5,3.3,3.6c0,0,0,0,0,0c1.8,0,3.3-1.5,3.3-3.3
	C469.4,282.9,469.4,282.8,469.4,282.7L469.4,282.7z"/>
<path d="M473.4,278h1.4v2.4c0.6-1.6,2.1-2.6,3.8-2.6v1.5h-0.1c-2,0-3.7,1.5-3.7,4.3v3.7h-1.4V278z"/>
<path d="M480.7,274.4h1.6v1.5h-1.6V274.4z M480.8,278h1.4v9.3h-1.4V278z"/>
<path d="M484.8,282.7L484.8,282.7c0-2.7,2.2-4.9,4.8-4.9c1.4,0,2.7,0.6,3.7,1.7l-0.9,1c-0.7-0.9-1.7-1.4-2.8-1.4
	c-1.9,0.1-3.4,1.6-3.3,3.5c0,0,0,0.1,0,0.1l0,0c-0.1,1.9,1.4,3.5,3.3,3.6c0,0,0.1,0,0.1,0c1.1,0,2.1-0.5,2.8-1.4l0.9,0.8
	c-1.7,2.1-4.7,2.4-6.8,0.7C485.5,285.6,484.8,284.2,484.8,282.7L484.8,282.7z"/>
<path d="M502.5,278h1.5l-3.9,9.6c-0.8,1.9-1.7,2.6-3.1,2.6c-0.7,0-1.4-0.1-2-0.5l0.5-1.1c0.5,0.2,1,0.4,1.5,0.3
	c0.8,0,1.4-0.4,1.9-1.8l-4.3-9.3h1.5l3.4,7.8L502.5,278z"/>
<path d="M504,288.9c0.9-0.3,1.3-0.8,1.2-1.6h-0.6v-1.9h1.7v1.6c0.1,1.2-0.7,2.3-1.9,2.5c0,0-0.1,0-0.1,0L504,288.9z"/>
<path d="M514.5,274.1h1.4v5.5c0.6-1.2,1.9-1.9,3.2-1.8c1.9-0.1,3.5,1.3,3.6,3.2c0,0.2,0,0.3,0,0.5v5.8h-1.4v-5.4
	c0-1.7-0.9-2.8-2.6-2.8c-1.5,0-2.8,1.2-2.8,2.7c0,0.1,0,0.2,0,0.2v5.3h-1.4V274.1z"/>
<path d="M524.9,284.6L524.9,284.6c0-2,1.6-3,4-3c1,0,1.9,0.1,2.9,0.4v-0.3c0-1.7-1-2.5-2.8-2.5c-1,0-1.9,0.2-2.8,0.7l-0.4-1.1
	c1.1-0.5,2.2-0.8,3.4-0.8c1.1-0.1,2.2,0.3,3,1c0.7,0.7,1.1,1.7,1,2.7v5.7h-1.3v-1.4c-0.8,1-2,1.6-3.4,1.6
	C526.6,287.5,524.9,286.5,524.9,284.6z M531.7,283.9V283c-0.9-0.3-1.8-0.4-2.7-0.4c-1.7,0-2.7,0.8-2.7,1.9l0,0
	c0,1.2,1.1,1.9,2.3,1.9C530.3,286.4,531.7,285.3,531.7,283.9z"/>
<path d="M536,278h1.4v2.4c0.6-1.6,2.1-2.6,3.8-2.6v1.5h-0.1c-2,0-3.7,1.5-3.7,4.3v3.7H536V278z"/>
<path d="M542.4,282.7L542.4,282.7c-0.2-2.5,1.8-4.7,4.3-4.8c0.1,0,0.1,0,0.2,0c1.5,0,2.8,0.8,3.6,2v-5.6h1.4v13.1h-1.4v-1.9
	c-0.7,1.3-2.1,2.1-3.6,2.1c-2.5,0-4.5-2.1-4.5-4.6C542.4,282.8,542.4,282.7,542.4,282.7z M550.4,282.7L550.4,282.7
	c0.1-1.9-1.4-3.5-3.3-3.6c0,0,0,0,0,0c-1.8,0-3.3,1.5-3.3,3.3c0,0.1,0,0.2,0,0.3l0,0c-0.1,1.9,1.3,3.5,3.1,3.6c0.1,0,0.1,0,0.2,0
	C549,286.2,550.5,284.6,550.4,282.7C550.4,282.7,550.4,282.6,550.4,282.7L550.4,282.7z"/>
<path d="M560.8,284.8v-5.6h-1.3V278h1.3v-2.8h1.4v2.8h3v1.2h-3v5.4c-0.1,0.8,0.4,1.5,1.2,1.6c0.1,0,0.3,0,0.4,0
	c0.5,0,0.9-0.1,1.3-0.3v1.2c-0.5,0.3-1.1,0.4-1.7,0.4c-1.3,0.1-2.5-0.8-2.6-2.1C560.7,285.2,560.7,285,560.8,284.8z"/>
<path d="M566.7,282.7L566.7,282.7c0.1-2.7,2.4-4.8,5.1-4.6c2.5,0.1,4.5,2.1,4.6,4.6l0,0c0,2.7-2.1,4.8-4.8,4.9c0,0-0.1,0-0.1,0
	c-2.6,0-4.8-2.1-4.8-4.7C566.7,282.8,566.7,282.7,566.7,282.7z M575,282.7L575,282.7c0.1-1.9-1.5-3.6-3.4-3.6c0,0,0,0-0.1,0
	c-1.9,0-3.4,1.6-3.4,3.5c0,0,0,0.1,0,0.1l0,0c-0.1,1.9,1.4,3.5,3.4,3.6c0,0,0.1,0,0.1,0c1.9,0,3.4-1.5,3.5-3.4
	C575,282.8,575,282.7,575,282.7L575,282.7z"/>
<path d="M583.6,284.6L583.6,284.6c0-2,1.6-3,4-3c1,0,1.9,0.1,2.9,0.4v-0.3c0-1.7-1-2.5-2.8-2.5c-1,0-1.9,0.2-2.8,0.7l-0.4-1.1
	c1.1-0.5,2.2-0.8,3.4-0.8c1.1-0.1,2.2,0.3,3,1c0.7,0.7,1.1,1.7,1,2.7v5.7h-1.3v-1.4c-0.8,1-2.1,1.6-3.4,1.6
	C585.3,287.5,583.6,286.5,583.6,284.6z M590.5,283.9V283c-0.9-0.3-1.8-0.4-2.7-0.4c-1.8,0-2.7,0.8-2.7,1.9l0,0
	c0,1.2,1.1,1.9,2.3,1.9C589,286.4,590.5,285.3,590.5,283.9z"/>
<path d="M595.2,279.2H594V278h1.3v-0.8c-0.1-0.9,0.2-1.7,0.8-2.4c0.5-0.5,1.3-0.8,2-0.7c0.5,0,1,0.1,1.5,0.2v1.2
	c-0.4-0.1-0.9-0.2-1.3-0.2c-1.1,0-1.6,0.6-1.6,2v0.7h3v1.2h-2.9v8.1h-1.4L595.2,279.2z M601.9,279.2h-1.3V278h1.3v-0.8
	c-0.1-0.9,0.2-1.7,0.8-2.4c0.5-0.5,1.3-0.8,2-0.7c0.5,0,1,0.1,1.5,0.2v1.2c-0.4-0.1-0.9-0.2-1.3-0.2c-1.1,0-1.6,0.6-1.6,2v0.7h2.9
	v1.2h-2.9v8.1h-1.4V279.2z"/>
<path d="M607.2,282.7L607.2,282.7c0.1-2.7,2.4-4.8,5.1-4.6c2.5,0.1,4.5,2.1,4.6,4.6l0,0c0,2.7-2.2,4.8-4.8,4.8c0,0,0,0-0.1,0
	c-2.6,0-4.8-2.1-4.8-4.7C607.2,282.7,607.2,282.7,607.2,282.7z M615.5,282.7L615.5,282.7c0.1-1.9-1.4-3.6-3.4-3.7c0,0-0.1,0-0.1,0
	c-1.9,0-3.4,1.6-3.4,3.5c0,0,0,0.1,0,0.1l0,0c-0.1,1.9,1.4,3.5,3.4,3.6c0,0,0.1,0,0.1,0C613.9,286.2,615.5,284.7,615.5,282.7
	C615.5,282.7,615.5,282.7,615.5,282.7z"/>
<path d="M619.4,278h1.4v2.4c0.6-1.6,2.1-2.6,3.8-2.6v1.5h-0.1c-2,0-3.7,1.5-3.7,4.3v3.7h-1.4V278z"/>
<path d="M625.8,282.7L625.8,282.7c-0.1-2.5,1.8-4.7,4.3-4.8c0.1,0,0.1,0,0.2,0c1.5,0,2.8,0.8,3.6,2v-5.6h1.4v13.1h-1.4v-1.9
	c-0.7,1.3-2.1,2.1-3.6,2.1c-2.5,0-4.5-2.1-4.5-4.6C625.7,282.8,625.8,282.7,625.8,282.7z M633.8,282.7L633.8,282.7
	c0.1-1.9-1.4-3.5-3.3-3.6c0,0,0,0,0,0c-1.8,0-3.3,1.5-3.3,3.3c0,0.1,0,0.2,0,0.3l0,0c-0.1,1.9,1.3,3.5,3.1,3.6c0.1,0,0.1,0,0.2,0
	C632.4,286.2,633.9,284.6,633.8,282.7C633.8,282.7,633.8,282.7,633.8,282.7L633.8,282.7z"/>
<path d="M643,284.6L643,284.6c0-2,1.6-3,4-3c1,0,1.9,0.1,2.9,0.4v-0.3c0-1.7-1-2.5-2.8-2.5c-1,0-1.9,0.2-2.8,0.7l-0.4-1.1
	c1.1-0.5,2.2-0.8,3.4-0.8c1.1-0.1,2.2,0.3,3,1c0.7,0.7,1.1,1.7,1,2.7v5.7h-1.3v-1.4c-0.8,1-2,1.6-3.4,1.6
	C644.7,287.5,643,286.5,643,284.6z M649.9,283.9V283c-0.9-0.3-1.8-0.4-2.7-0.4c-1.7,0-2.7,0.8-2.7,1.9l0,0c0,1.2,1.1,1.9,2.3,1.9
	C648.4,286.4,649.8,285.3,649.9,283.9L649.9,283.9z"/>
<path d="M654.5,284.8v-5.6h-1.3V278h1.3v-2.8h1.4v2.8h3v1.2h-3v5.4c-0.1,0.8,0.4,1.4,1.2,1.6c0.1,0,0.3,0,0.4,0
	c0.5,0,0.9-0.1,1.3-0.3v1.2c-0.5,0.3-1.1,0.4-1.7,0.4c-1.3,0.2-2.5-0.8-2.6-2.1C654.4,285.2,654.4,285,654.5,284.8z"/>
<path d="M666,284.6L666,284.6c0-2,1.6-3,4-3c1,0,1.9,0.1,2.9,0.4v-0.3c0-1.7-1-2.5-2.8-2.5c-1,0-1.9,0.2-2.8,0.7l-0.4-1.1
	c1.1-0.5,2.2-0.8,3.4-0.8c1.1-0.1,2.2,0.3,3,1c0.7,0.7,1.1,1.7,1,2.7v5.7h-1.4v-1.4c-0.8,1-2.1,1.6-3.4,1.6
	C667.7,287.5,666,286.5,666,284.6z M672.9,283.9V283c-0.9-0.3-1.8-0.4-2.7-0.4c-1.8,0-2.7,0.8-2.7,1.9l0,0c0,1.2,1.1,1.9,2.3,1.9
	C671.4,286.4,672.8,285.3,672.9,283.9L672.9,283.9z"/>
<path d="M403.8,300.1h1.4v13.1h-1.4V300.1z"/>
<path d="M407.9,308.7L407.9,308.7c0.1-2.7,2.4-4.8,5.1-4.6c2.5,0.1,4.5,2.1,4.6,4.6l0,0c0,2.7-2.1,4.8-4.8,4.9c0,0-0.1,0-0.1,0
	c-2.6,0-4.8-2.1-4.8-4.7C407.9,308.8,407.9,308.7,407.9,308.7z M416.2,308.7L416.2,308.7c0.1-1.9-1.4-3.6-3.4-3.7c0,0-0.1,0-0.1,0
	c-1.9,0-3.4,1.6-3.4,3.5c0,0,0,0.1,0,0.1l0,0c-0.1,1.9,1.4,3.5,3.4,3.6c0,0,0,0,0.1,0C414.6,312.2,416.2,310.7,416.2,308.7
	C416.2,308.7,416.2,308.7,416.2,308.7z"/>
<path d="M420.1,304h1.4v1.6c0.6-1.2,1.9-1.9,3.2-1.8c1.9-0.1,3.5,1.3,3.6,3.2c0,0.2,0,0.3,0,0.5v5.8h-1.4v-5.4
	c0-1.7-0.9-2.8-2.6-2.8c-1.5,0-2.8,1.2-2.8,2.7c0,0.1,0,0.2,0,0.2v5.3h-1.4V304z"/>
<path d="M431.1,314.9l0.6-1.1c1,0.8,2.3,1.2,3.6,1.2c1.7,0.2,3.2-1,3.4-2.7c0-0.2,0-0.4,0-0.6v-1.1c-0.8,1.2-2.2,2-3.7,2
	c-2.4,0-4.3-1.9-4.4-4.2c0,0,0-0.1,0-0.1l0,0c0-2.4,2-4.4,4.5-4.4c1.4,0,2.7,0.7,3.5,1.8V304h1.4v7.7c0.1,1.2-0.4,2.4-1.2,3.3
	c-1,0.9-2.2,1.3-3.5,1.2C433.8,316.2,432.3,315.8,431.1,314.9z M438.7,308.2L438.7,308.2c-0.1-1.8-1.6-3.2-3.4-3.2c0,0,0,0-0.1,0
	c-1.7-0.1-3.1,1.2-3.2,2.9c0,0.1,0,0.1,0,0.2l0,0c0,1.7,1.4,3.2,3.1,3.2c0,0,0.1,0,0.1,0C437.1,311.4,438.6,310,438.7,308.2z"/>
<path d="M442.7,307.1h5v1.5h-5V307.1z"/>
<path d="M451,310.8v-5.6h-1.3V304h1.3v-2.8h1.4v2.8h3v1.2h-3v5.4c-0.1,0.8,0.4,1.5,1.2,1.6c0.1,0,0.3,0,0.4,0c0.5,0,0.9-0.1,1.4-0.3
	v1.2c-0.5,0.3-1.1,0.4-1.7,0.4c-1.3,0.2-2.5-0.8-2.6-2.1C451,311.2,451,311,451,310.8z"/>
<path d="M456.9,308.7L456.9,308.7c-0.1-2.5,1.8-4.7,4.3-4.8c0,0,0.1,0,0.1,0c2.8,0,4.3,2.2,4.3,4.9c0,0.1,0,0.3,0,0.5h-7.4
	c0.1,1.8,1.5,3.2,3.3,3.1c1.1,0,2.2-0.5,2.9-1.3l0.9,0.8c-0.9,1.1-2.4,1.8-3.8,1.7c-2.6,0-4.6-2-4.6-4.6
	C456.9,308.8,456.9,308.7,456.9,308.7z M464.3,308.1c-0.1-1.7-1.1-3.2-3-3.2c-1.7,0.1-3,1.5-3,3.2H464.3z"/>
<path d="M468.1,304h1.4v2.4c0.6-1.6,2.1-2.6,3.8-2.6v1.5h-0.1c-2,0-3.7,1.5-3.7,4.3v3.7h-1.4V304z"/>
<path d="M475.4,304h1.4v1.6c0.6-1.1,1.8-1.8,3-1.8c1.3,0,2.5,0.7,3,1.9c0.7-1.2,1.9-1.9,3.3-1.9c2.1,0,3.5,1.4,3.5,3.8v5.8h-1.4
	v-5.4c0-1.8-0.9-2.8-2.4-2.8c-1.4,0-2.6,1.2-2.6,2.6c0,0.1,0,0.2,0,0.3v5.4h-1.4v-5.5c0-1.7-0.9-2.8-2.4-2.8c-1.5,0-2.7,1.3-2.6,2.8
	c0,0.1,0,0.1,0,0.2v5.3h-1.4L475.4,304z"/>
<path d="M403.3,333.1h5v1.5h-5V333.1z"/>
<path d="M416.7,326.7h1.3l8,10.1v-10.1h1.4v12.6h-1.1l-8.2-10.3v10.3h-1.4L416.7,326.7z"/>
<path d="M430.1,334.7L430.1,334.7c-0.1-2.5,1.8-4.7,4.3-4.8c0,0,0.1,0,0.1,0c2.8,0,4.3,2.2,4.3,4.9c0,0.1,0,0.3,0,0.5h-7.4
	c0.1,1.8,1.5,3.2,3.3,3.1c1.1,0,2.2-0.5,2.9-1.3l0.9,0.8c-0.9,1.1-2.4,1.8-3.8,1.7c-2.6,0-4.7-2-4.7-4.6
	C430.1,334.9,430.1,334.8,430.1,334.7z M437.5,334.1c-0.1-1.7-1.1-3.2-3-3.2c-1.7,0.1-3,1.5-3,3.2H437.5z"/>
<path d="M440.8,334.7L440.8,334.7c-0.1-2.5,1.8-4.7,4.3-4.8c0,0,0.1,0,0.1,0c2.8,0,4.3,2.2,4.3,4.9c0,0.1,0,0.3,0,0.5h-7.4
	c0.1,1.8,1.5,3.2,3.3,3.1c1.1,0,2.2-0.5,2.9-1.3l0.9,0.8c-0.9,1.1-2.4,1.8-3.8,1.7c-2.6,0-4.6-2-4.7-4.6
	C440.8,334.9,440.8,334.8,440.8,334.7z M448.2,334.1c-0.1-1.7-1.1-3.2-3-3.2c-1.7,0.1-3,1.5-3,3.2H448.2z"/>
<path d="M451.5,334.7L451.5,334.7c-0.1-2.5,1.8-4.7,4.3-4.8c0.1,0,0.1,0,0.2,0c1.5,0,2.8,0.8,3.6,2v-5.6h1.4v13.1h-1.4v-1.9
	c-0.7,1.3-2.1,2.1-3.6,2.1c-2.5,0-4.5-2.1-4.5-4.6C451.4,334.8,451.4,334.7,451.5,334.7z M459.5,334.7L459.5,334.7
	c0.1-1.9-1.4-3.5-3.3-3.6c0,0,0,0,0,0c-1.8,0-3.3,1.5-3.3,3.3c0,0.1,0,0.2,0,0.3l0,0c-0.1,1.9,1.3,3.5,3.1,3.6c0.1,0,0.1,0,0.2,0
	C458.1,338.2,459.6,336.6,459.5,334.7C459.5,334.7,459.5,334.7,459.5,334.7L459.5,334.7z"/>
<path d="M469.8,336.8v-5.6h-1.3V330h1.3v-2.8h1.4v2.8h3v1.2h-3v5.4c-0.1,0.8,0.4,1.5,1.2,1.6c0.1,0,0.2,0,0.4,0
	c0.5,0,0.9-0.1,1.4-0.3v1.2c-0.5,0.3-1.1,0.4-1.7,0.4c-1.3,0.2-2.5-0.8-2.6-2.1C469.8,337.2,469.8,337,469.8,336.8z"/>
<path d="M475.8,334.7L475.8,334.7c0-2.7,2.2-4.9,4.9-4.9s4.9,2.2,4.9,4.9l0,0c0,2.7-2.1,4.8-4.8,4.9c0,0-0.1,0-0.1,0
	c-2.6,0-4.8-2.1-4.8-4.7C475.8,334.8,475.8,334.7,475.8,334.7z M484,334.7L484,334.7c0.1-1.9-1.5-3.6-3.4-3.6c0,0,0,0-0.1,0
	c-1.9,0-3.4,1.6-3.4,3.5c0,0,0,0.1,0,0.1l0,0c-0.1,1.9,1.4,3.5,3.4,3.6c0,0,0.1,0,0.1,0c1.9,0,3.4-1.5,3.4-3.4
	C484.1,334.8,484.1,334.7,484,334.7z"/>
<path d="M493.4,330h1.4v1.9c0.7-1.3,2.1-2.1,3.6-2.1c2.5,0,4.5,2.1,4.5,4.6c0,0.1,0,0.1,0,0.2l0,0c0.2,2.5-1.8,4.7-4.3,4.8
	c-0.1,0-0.1,0-0.2,0c-1.5,0-2.8-0.8-3.6-2v4.7h-1.4V330z M501.4,334.7L501.4,334.7c0.1-1.8-1.2-3.5-3.1-3.6c-0.1,0-0.1,0-0.2,0
	c-1.9,0.1-3.4,1.7-3.4,3.6c0,0,0,0,0,0l0,0c-0.1,1.9,1.4,3.5,3.3,3.6c0,0,0,0,0,0c1.8,0,3.3-1.5,3.3-3.3
	C501.4,334.9,501.4,334.8,501.4,334.7L501.4,334.7z"/>
<path d="M505.3,326.1h1.4v5.5c0.6-1.2,1.9-1.9,3.2-1.8c1.9-0.1,3.5,1.3,3.6,3.2c0,0.2,0,0.3,0,0.5v5.8h-1.4v-5.4
	c0-1.7-0.9-2.8-2.6-2.8c-1.5,0-2.8,1.2-2.8,2.7c0,0.1,0,0.2,0,0.2v5.3h-1.4V326.1z"/>
<path d="M523.1,330h1.5l-3.9,9.6c-0.8,1.9-1.7,2.6-3.1,2.6c-0.7,0-1.4-0.1-2-0.5l0.5-1.1c0.5,0.2,1,0.4,1.5,0.3
	c0.8,0,1.3-0.4,1.9-1.8l-4.2-9.3h1.5l3.4,7.8L523.1,330z"/>
<path d="M525.6,338.1l0.7-1c0.9,0.7,2,1.2,3.2,1.2c1.1,0,1.9-0.6,1.9-1.5l0,0c0-0.9-1.1-1.3-2.3-1.6c-1.5-0.4-3.1-0.9-3.1-2.6l0,0
	c0-1.6,1.3-2.7,3.2-2.7c1.2,0,2.3,0.4,3.3,1l-0.6,1c-0.8-0.6-1.8-0.9-2.8-0.9c-1.1,0-1.8,0.6-1.8,1.4l0,0c0,0.9,1.2,1.2,2.4,1.6
	c1.4,0.4,3,1,3,2.7l0,0c0,1.8-1.5,2.8-3.3,2.8C528.1,339.4,526.7,339,525.6,338.1z"/>
<path d="M535.4,326.4h1.6v1.5h-1.6V326.4z M535.5,330h1.4v9.3h-1.4V330z"/>
<path d="M539.5,334.7L539.5,334.7c0-2.7,2.2-4.9,4.8-4.9c1.4,0,2.7,0.6,3.7,1.7l-0.9,1c-0.7-0.9-1.7-1.4-2.8-1.4
	c-1.9,0.1-3.4,1.6-3.3,3.5c0,0,0,0.1,0,0.1l0,0c-0.1,1.9,1.4,3.5,3.3,3.6c0,0,0.1,0,0.1,0c1.1,0,2.1-0.5,2.8-1.4l0.9,0.8
	c-1.7,2.1-4.7,2.4-6.8,0.7C540.2,337.6,539.5,336.2,539.5,334.7L539.5,334.7z"/>
<path d="M549.7,336.6L549.7,336.6c0-2,1.6-3,4-3c1,0,1.9,0.1,2.9,0.4v-0.3c0-1.7-1-2.5-2.8-2.5c-1,0-1.9,0.2-2.8,0.7l-0.4-1.1
	c1.1-0.5,2.2-0.8,3.4-0.8c1.1-0.1,2.2,0.3,3,1c0.7,0.7,1.1,1.7,1,2.7v5.7h-1.3v-1.4c-0.8,1.1-2,1.7-3.4,1.6
	C551.4,339.5,549.7,338.5,549.7,336.6z M556.5,335.9V335c-0.9-0.3-1.8-0.4-2.7-0.4c-1.8,0-2.7,0.8-2.7,1.9l0,0
	c0,1.2,1.1,1.9,2.3,1.9C555.2,338.4,556.5,337.3,556.5,335.9z"/>
<path d="M560.9,326.1h1.4v13.1h-1.4V326.1z"/>
<path d="M565.7,326.1h1.4v13.1h-1.4V326.1z"/>
<path d="M577.3,330h1.5l-3.9,9.6c-0.8,1.9-1.7,2.6-3.1,2.6c-0.7,0-1.4-0.1-2-0.5l0.5-1.1c0.5,0.2,1,0.4,1.5,0.3
	c0.8,0,1.3-0.4,1.9-1.8l-4.2-9.3h1.5l3.4,7.8L577.3,330z"/>
<path d="M586.2,340.9l0.6-1.1c1,0.8,2.3,1.2,3.6,1.2c1.7,0.2,3.2-1,3.4-2.7c0-0.2,0-0.4,0-0.6v-1.1c-0.8,1.2-2.2,2-3.7,2
	c-2.4,0-4.3-1.9-4.4-4.2c0,0,0-0.1,0-0.1l0,0c0-2.4,2-4.4,4.5-4.4c1.4,0,2.7,0.7,3.5,1.8V330h1.4v7.7c0.1,1.2-0.3,2.4-1.2,3.3
	c-1,0.9-2.2,1.3-3.5,1.2C588.9,342.2,587.5,341.8,586.2,340.9z M593.9,334.2L593.9,334.2c-0.1-1.8-1.6-3.2-3.4-3.2c0,0,0,0-0.1,0
	c-1.7-0.1-3.1,1.2-3.2,2.9c0,0.1,0,0.1,0,0.2l0,0c0,1.7,1.4,3.2,3.1,3.2c0,0,0.1,0,0.1,0C592.2,337.4,593.8,336,593.9,334.2
	L593.9,334.2z"/>
<path d="M597.7,334.7L597.7,334.7c0-2.7,2.2-4.9,4.9-4.9c2.7,0,4.8,2.2,4.8,4.9l0,0c0,2.7-2.1,4.8-4.8,4.9c0,0-0.1,0-0.1,0
	c-2.6,0-4.8-2.1-4.8-4.7C597.7,334.8,597.7,334.7,597.7,334.7z M606,334.7L606,334.7c0.1-1.9-1.5-3.6-3.4-3.6c0,0,0,0-0.1,0
	c-1.9,0-3.4,1.6-3.4,3.5c0,0,0,0.1,0,0.1l0,0c-0.1,1.9,1.4,3.5,3.4,3.6c0,0,0.1,0,0.1,0c1.9,0,3.4-1.5,3.4-3.4
	C606,334.8,606,334.7,606,334.7L606,334.7z"/>
<path d="M615.8,336.8v-5.6h-1.3V330h1.3v-2.8h1.4v2.8h3v1.2h-3v5.4c-0.1,0.8,0.4,1.5,1.2,1.6c0.1,0,0.3,0,0.4,0
	c0.5,0,0.9-0.1,1.3-0.3v1.2c-0.5,0.3-1.1,0.4-1.7,0.4c-1.3,0.2-2.5-0.8-2.6-2.1C615.8,337.2,615.8,337,615.8,336.8z"/>
<path d="M641.5,336.8v-5.6h-1.3V330h1.3v-2.8h1.4v2.8h3v1.2h-3v5.4c-0.1,0.8,0.4,1.5,1.2,1.6c0.1,0,0.3,0,0.4,0
	c0.5,0,0.9-0.1,1.3-0.3v1.2c-0.5,0.3-1.1,0.4-1.7,0.4c-1.3,0.2-2.5-0.8-2.6-2.1C641.5,337.2,641.5,337,641.5,336.8z"/>
<path d="M648.3,326.1h1.4v5.5c0.6-1.2,1.9-1.9,3.2-1.8c1.9-0.1,3.5,1.3,3.6,3.2c0,0.2,0,0.3,0,0.5v5.8h-1.4v-5.4
	c0-1.7-0.9-2.8-2.6-2.8c-1.5,0-2.8,1.2-2.8,2.7c0,0.1,0,0.2,0,0.3v5.3h-1.4V326.1z"/>
<path d="M658.8,334.7L658.8,334.7c-0.1-2.5,1.8-4.7,4.3-4.8c0,0,0.1,0,0.1,0c2.8,0,4.3,2.2,4.3,4.9c0,0.1,0,0.3,0,0.5h-7.4
	c0.1,1.8,1.5,3.2,3.3,3.1c1.1,0,2.2-0.5,2.9-1.3l0.9,0.8c-0.9,1.1-2.4,1.8-3.8,1.7c-2.6,0-4.6-2-4.7-4.6
	C658.8,334.8,658.8,334.8,658.8,334.7z M666.2,334.1c-0.1-1.7-1.1-3.2-3-3.2c-1.7,0.1-3,1.5-3,3.2H666.2z"/>
<path d="M403.7,356h1.4v1.9c0.7-1.3,2.1-2.1,3.6-2.1c2.5,0.1,4.5,2.1,4.4,4.6c0,0.1,0,0.1,0,0.2l0,0c0.2,2.5-1.7,4.7-4.3,4.8
	c-0.1,0-0.1,0-0.2,0c-1.5,0-2.8-0.8-3.6-2v4.7h-1.4V356z M411.7,360.7L411.7,360.7c0.1-1.8-1.2-3.5-3.1-3.6c-0.1,0-0.1,0-0.2,0
	c-1.9,0.1-3.4,1.7-3.4,3.6c0,0,0,0,0,0l0,0c-0.1,1.9,1.4,3.5,3.3,3.6c0,0,0,0,0,0c1.8,0,3.3-1.5,3.3-3.3
	C411.7,360.9,411.7,360.8,411.7,360.7L411.7,360.7z"/>
<path d="M415.8,352.1h1.4v13.1h-1.4V352.1z"/>
<path d="M419.7,362.6L419.7,362.6c0-2,1.6-3,4-3c1,0,1.9,0.1,2.9,0.4v-0.3c0-1.7-1-2.5-2.8-2.5c-1,0-1.9,0.2-2.8,0.7l-0.4-1.1
	c1.1-0.5,2.2-0.8,3.4-0.8c1.1-0.1,2.2,0.3,3,1c0.7,0.7,1,1.7,1,2.7v5.7h-1.3v-1.4c-0.8,1-2.1,1.6-3.4,1.6
	C421.4,365.5,419.7,364.5,419.7,362.6z M426.6,361.9V361c-0.9-0.3-1.8-0.4-2.7-0.4c-1.7,0-2.7,0.8-2.7,1.9l0,0
	c0,1.2,1.1,1.9,2.3,1.9C425.1,364.4,426.6,363.3,426.6,361.9z"/>
<path d="M430.3,360.7L430.3,360.7c0-2.7,2.2-4.9,4.8-4.9c1.4,0,2.7,0.6,3.7,1.7l-0.9,1c-0.7-0.9-1.7-1.4-2.8-1.5
	c-1.9,0.1-3.4,1.6-3.3,3.5c0,0,0,0.1,0,0.1l0,0c-0.1,1.9,1.4,3.5,3.3,3.6c0,0,0.1,0,0.1,0c1.1,0,2.1-0.5,2.8-1.4l0.9,0.8
	c-1.7,2.1-4.7,2.4-6.8,0.7C430.9,363.5,430.3,362.1,430.3,360.7L430.3,360.7z"/>
<path d="M440.3,360.7L440.3,360.7c-0.1-2.5,1.8-4.7,4.3-4.8c0,0,0.1,0,0.1,0c2.8,0,4.3,2.2,4.3,4.9c0,0.1,0,0.3,0,0.5h-7.4
	c0.1,1.8,1.5,3.2,3.3,3.1c1.1,0,2.2-0.5,2.9-1.3l0.9,0.8c-0.9,1.1-2.4,1.8-3.8,1.7c-2.6,0-4.7-2-4.7-4.6
	C440.2,360.9,440.2,360.8,440.3,360.7z M447.6,360.1c-0.1-1.7-1.1-3.2-3-3.2c-1.7,0.1-3,1.5-3,3.2H447.6z"/>
<path d="M457.4,362.8v-5.6h-1.3V356h1.3v-2.8h1.4v2.8h3v1.2h-3v5.4c-0.1,0.8,0.4,1.5,1.2,1.6c0.1,0,0.3,0,0.4,0
	c0.5,0,0.9-0.1,1.4-0.3v1.2c-0.5,0.3-1.1,0.4-1.7,0.4c-1.3,0.2-2.5-0.8-2.6-2.1C457.3,363.2,457.3,363,457.4,362.8z"/>
<path d="M463.3,360.7L463.3,360.7c0.1-2.7,2.4-4.8,5.1-4.6c2.5,0.1,4.5,2.1,4.6,4.6l0,0c0,2.7-2.1,4.8-4.8,4.9c0,0-0.1,0-0.1,0
	c-2.6,0-4.8-2.1-4.8-4.7C463.3,360.8,463.3,360.7,463.3,360.7z M471.6,360.7L471.6,360.7c0.1-1.9-1.5-3.6-3.4-3.6c0,0,0,0-0.1,0
	c-1.9,0-3.4,1.6-3.4,3.4c0,0.1,0,0.1,0,0.2l0,0c-0.1,1.9,1.4,3.5,3.4,3.6c0,0,0.1,0,0.1,0c1.9,0,3.4-1.5,3.4-3.4
	C471.6,360.8,471.6,360.7,471.6,360.7z"/>
<path d="M480.3,360.7L480.3,360.7c-0.1-2.5,1.8-4.7,4.3-4.8c0,0,0.1,0,0.1,0c2.8,0,4.3,2.2,4.3,4.9c0,0.2,0,0.3,0,0.5h-7.4
	c0.1,1.7,1.5,3.1,3.3,3.1c1.1,0,2.2-0.4,3-1.3l0.9,0.8c-1,1.1-2.4,1.8-3.9,1.7c-2.6,0-4.6-2-4.7-4.6
	C480.3,360.8,480.3,360.7,480.3,360.7z M487.7,360.1c-0.1-1.7-1.1-3.2-3-3.2c-1.7,0.1-3,1.5-3,3.2H487.7z"/>
<path d="M490.9,362.6L490.9,362.6c0-2,1.6-3,4-3c1,0,1.9,0.1,2.9,0.4v-0.3c0-1.7-1-2.5-2.8-2.5c-1,0-1.9,0.2-2.8,0.7l-0.4-1.1
	c1.1-0.5,2.2-0.8,3.4-0.8c1.1-0.1,2.2,0.3,3,1c0.7,0.7,1.1,1.7,1,2.7v5.7h-1.3v-1.4c-0.8,1-2,1.6-3.4,1.6
	C492.6,365.5,490.9,364.5,490.9,362.6z M497.7,361.9V361c-0.9-0.3-1.8-0.4-2.7-0.4c-1.7,0-2.7,0.8-2.7,1.9l0,0
	c0,1.2,1.1,1.9,2.3,1.9C496.3,364.4,497.7,363.3,497.7,361.9L497.7,361.9z"/>
<path d="M502.4,362.8v-5.6h-1.3V356h1.3v-2.8h1.4v2.8h3v1.2h-3v5.4c-0.1,0.8,0.4,1.4,1.2,1.6c0.1,0,0.3,0,0.4,0
	c0.5,0,0.9-0.1,1.4-0.3v1.2c-0.5,0.3-1.1,0.4-1.7,0.4c-1.3,0.2-2.5-0.8-2.6-2.1C502.4,363.2,502.4,363,502.4,362.8z"/>
<path d="M403.3,385.1h5v1.5h-5V385.1z"/>
<path d="M416.7,378.7h1.3l8,10.1v-10.1h1.4v12.6h-1.1l-8.2-10.3v10.3h-1.4L416.7,378.7z"/>
<path d="M430.1,386.7L430.1,386.7c0.1-2.7,2.4-4.8,5.1-4.6c2.5,0.1,4.5,2.1,4.6,4.6l0,0c0,2.7-2.1,4.8-4.8,4.9c0,0-0.1,0-0.1,0
	c-2.6,0-4.8-2.1-4.8-4.7C430.1,386.8,430.1,386.7,430.1,386.7z M438.4,386.7L438.4,386.7c0.1-1.9-1.5-3.6-3.4-3.6c0,0,0,0-0.1,0
	c-1.9,0-3.4,1.6-3.4,3.4c0,0.1,0,0.1,0,0.2l0,0c-0.1,1.9,1.4,3.5,3.4,3.6c0,0,0.1,0,0.1,0c1.9,0,3.4-1.5,3.4-3.4
	C438.4,386.8,438.4,386.7,438.4,386.7z"/>
<path d="M447,388.6L447,388.6c0-2,1.6-3,4-3c1,0,1.9,0.1,2.9,0.4v-0.3c0-1.7-1-2.5-2.8-2.5c-1,0-1.9,0.2-2.8,0.7l-0.4-1.1
	c1.1-0.5,2.2-0.8,3.4-0.8c1.1-0.1,2.2,0.3,3,1c0.7,0.7,1.1,1.7,1,2.7v5.7h-1.3v-1.4c-0.8,1-2.1,1.6-3.4,1.6
	C448.8,391.5,447,390.5,447,388.6z M453.9,387.9V387c-0.9-0.3-1.8-0.4-2.7-0.4c-1.8,0-2.7,0.8-2.7,1.9l0,0c0,1.2,1.1,1.9,2.3,1.9
	C452.5,390.4,453.9,389.3,453.9,387.9z"/>
<path d="M457.6,386.7L457.6,386.7c-0.2-2.5,1.8-4.7,4.3-4.8c0.1,0,0.1,0,0.2,0c1.5,0,2.8,0.8,3.6,2v-5.6h1.4v13.1h-1.4v-1.9
	c-0.7,1.3-2.1,2.1-3.6,2.1c-2.5,0-4.5-2.1-4.5-4.6C457.6,386.8,457.6,386.8,457.6,386.7z M465.6,386.7L465.6,386.7
	c0.1-1.9-1.4-3.5-3.3-3.6c0,0,0,0-0.1,0c-1.8,0-3.3,1.5-3.3,3.3c0,0.1,0,0.2,0,0.3l0,0c-0.1,1.9,1.3,3.5,3.1,3.6c0.1,0,0.1,0,0.2,0
	C464.2,390.2,465.7,388.6,465.6,386.7C465.7,386.7,465.7,386.7,465.6,386.7L465.6,386.7z"/>
<path d="M469.2,382h1.5l3.1,7.7l3.2-7.7h1.5l-4,9.4h-1.2L469.2,382z"/>
<path d="M479.5,388.6L479.5,388.6c0-2,1.6-3,4-3c1,0,1.9,0.1,2.9,0.4v-0.3c0-1.7-1-2.5-2.8-2.5c-1,0-1.9,0.2-2.8,0.7l-0.4-1.1
	c1.1-0.5,2.2-0.8,3.4-0.8c1.1-0.1,2.2,0.3,3,1c0.7,0.7,1.1,1.7,1,2.7v5.7h-1.3v-1.4c-0.8,1-2.1,1.6-3.4,1.6
	C481.2,391.5,479.5,390.5,479.5,388.6z M486.3,387.9V387c-0.9-0.3-1.8-0.4-2.7-0.4c-1.8,0-2.7,0.8-2.7,1.9l0,0
	c0,1.2,1.1,1.9,2.3,1.9C485,390.4,486.4,389.3,486.3,387.9L486.3,387.9z"/>
<path d="M490.6,382h1.4v1.6c0.6-1.2,1.9-1.9,3.2-1.8c1.9-0.1,3.5,1.3,3.6,3.2c0,0.2,0,0.3,0,0.5v5.8h-1.4v-5.4
	c0-1.7-0.9-2.8-2.6-2.8c-1.5,0-2.8,1.2-2.8,2.7c0,0.1,0,0.2,0,0.3v5.3h-1.4L490.6,382z"/>
<path d="M501.1,386.7L501.1,386.7c0-2.7,2.2-4.9,4.8-4.9c1.4,0,2.7,0.6,3.7,1.7l-0.9,1c-0.7-0.9-1.7-1.4-2.8-1.4
	c-1.9,0.1-3.4,1.6-3.3,3.5c0,0,0,0.1,0,0.1l0,0c-0.1,1.9,1.4,3.5,3.3,3.6c0,0,0.1,0,0.1,0c1.1,0,2.1-0.5,2.9-1.4l0.9,0.8
	c-1.7,2.1-4.7,2.4-6.8,0.7C501.8,389.6,501.1,388.2,501.1,386.7L501.1,386.7z"/>
<path d="M511.1,386.7L511.1,386.7c-0.1-2.5,1.8-4.7,4.3-4.8c0,0,0.1,0,0.1,0c2.8,0,4.3,2.2,4.3,4.9c0,0.1,0,0.3,0,0.5h-7.4
	c0.1,1.8,1.5,3.2,3.3,3.1c1.1,0,2.2-0.5,2.9-1.3l0.9,0.8c-0.9,1.1-2.4,1.8-3.8,1.7c-2.6,0-4.6-2-4.7-4.6
	C511.1,386.9,511.1,386.8,511.1,386.7z M518.5,386.1c-0.2-1.7-1.1-3.2-3-3.2c-1.7,0.1-3,1.5-3,3.2H518.5z"/>
<path d="M521.8,386.7L521.8,386.7c-0.2-2.5,1.8-4.7,4.3-4.8c0.1,0,0.1,0,0.2,0c1.5,0,2.8,0.8,3.6,2v-5.6h1.4v13.1h-1.4v-1.9
	c-0.7,1.3-2.1,2.1-3.6,2.1c-2.5,0-4.5-2.1-4.5-4.6C521.8,386.8,521.8,386.8,521.8,386.7z M529.9,386.7L529.9,386.7
	c0.1-1.9-1.4-3.5-3.3-3.6c0,0,0,0,0,0c-1.8,0-3.3,1.5-3.3,3.3c0,0.1,0,0.2,0,0.3l0,0c-0.1,1.9,1.3,3.5,3.1,3.6c0.1,0,0.1,0,0.2,0
	C528.5,390.2,530,388.6,529.9,386.7C529.9,386.7,529.9,386.7,529.9,386.7L529.9,386.7z"/>
<path d="M539.1,386.7L539.1,386.7c0.1-2.7,2.4-4.8,5.1-4.6c2.5,0.1,4.5,2.1,4.6,4.6l0,0c0,2.7-2.2,4.8-4.8,4.8c0,0,0,0,0,0
	c-2.6,0-4.8-2-4.9-4.7C539.1,386.8,539.1,386.7,539.1,386.7z M547.4,386.7L547.4,386.7c0.1-1.9-1.4-3.6-3.4-3.7c0,0,0,0-0.1,0
	c-1.9,0-3.4,1.6-3.4,3.5c0,0,0,0.1,0,0.1l0,0c-0.1,1.9,1.4,3.5,3.4,3.6c0,0,0.1,0,0.1,0C545.9,390.2,547.5,388.6,547.4,386.7
	C547.4,386.7,547.4,386.7,547.4,386.7z"/>
<path d="M551.3,382h1.4v2.4c0.6-1.6,2.1-2.6,3.8-2.6v1.5h-0.1c-2,0-3.7,1.5-3.7,4.3v3.7h-1.4V382z"/>
<path d="M557.7,386.7L557.7,386.7c-0.1-2.5,1.8-4.7,4.3-4.8c0.1,0,0.1,0,0.2,0c1.5,0,2.8,0.8,3.6,2v-5.6h1.4v13.1h-1.4v-1.9
	c-0.7,1.3-2.1,2.1-3.6,2.1c-2.5,0-4.5-2.1-4.5-4.6C557.7,386.8,557.7,386.7,557.7,386.7z M565.8,386.7L565.8,386.7
	c0.1-1.9-1.4-3.5-3.3-3.6c0,0,0,0,0,0c-1.8,0-3.3,1.5-3.3,3.3c0,0.1,0,0.2,0,0.3l0,0c-0.1,1.9,1.3,3.5,3.1,3.6c0.1,0,0.1,0,0.2,0
	C564.3,390.2,565.9,388.6,565.8,386.7C565.8,386.7,565.8,386.7,565.8,386.7L565.8,386.7z"/>
<path d="M569.6,386.7L569.6,386.7c-0.1-2.5,1.8-4.7,4.3-4.8c0,0,0.1,0,0.1,0c2.8,0,4.3,2.2,4.3,4.9c0,0.1,0,0.3,0,0.5H571
	c0.1,1.8,1.5,3.2,3.3,3.1c1.1,0,2.2-0.5,2.9-1.3l0.9,0.8c-0.9,1.1-2.4,1.8-3.8,1.7c-2.6,0-4.6-2.1-4.6-4.6
	C569.6,386.8,569.6,386.7,569.6,386.7z M577,386.1c-0.2-1.7-1.1-3.2-3-3.2c-1.7,0.1-3,1.5-3,3.2H577z"/>
<path d="M580.9,382h1.4v2.4c0.6-1.6,2.1-2.6,3.8-2.6v1.5h0c-2,0-3.7,1.5-3.7,4.3v3.7h-1.4L580.9,382z"/>
<path d="M585.8,392.9c0.9-0.3,1.3-0.8,1.2-1.6h-0.6v-1.9h1.6v1.6c0.1,1.2-0.7,2.3-1.9,2.5c0,0-0.1,0-0.1,0L585.8,392.9z"/>
<path d="M596.3,382h1.4v1.6c0.6-1.2,1.9-1.9,3.2-1.8c1.9-0.1,3.5,1.3,3.6,3.2c0,0.2,0,0.3,0,0.5v5.8h-1.4v-5.4
	c0-1.7-0.9-2.8-2.6-2.8c-1.5,0-2.8,1.2-2.8,2.7c0,0.1,0,0.2,0,0.2v5.3h-1.4V382z"/>
<path d="M606.9,386.7L606.9,386.7c-0.1-2.5,1.8-4.7,4.3-4.8c0,0,0.1,0,0.1,0c2.8,0,4.3,2.2,4.3,4.9c0,0.2,0,0.3,0,0.5h-7.4
	c0.1,1.8,1.5,3.2,3.3,3.1c1.1,0,2.2-0.5,2.9-1.3l0.9,0.8c-0.9,1.1-2.4,1.8-3.8,1.7c-2.6,0-4.6-2-4.7-4.6
	C606.9,386.9,606.9,386.8,606.9,386.7z M614.3,386.1c-0.1-1.7-1.1-3.2-3-3.2c-1.7,0.1-3,1.5-3,3.2H614.3z"/>
<path d="M617.5,386.7L617.5,386.7c-0.1-2.5,1.8-4.7,4.4-4.8c0,0,0.1,0,0.1,0c2.8,0,4.3,2.2,4.3,4.9c0,0.1,0,0.3,0,0.5h-7.4
	c0.1,1.8,1.5,3.2,3.3,3.1c1.1,0,2.2-0.5,2.9-1.3l0.9,0.8c-0.9,1.1-2.4,1.8-3.8,1.7c-2.6,0-4.7-2-4.7-4.6
	C617.5,386.9,617.5,386.8,617.5,386.7z M624.9,386.1c-0.2-1.7-1.1-3.2-3-3.2c-1.7,0.1-3,1.5-3,3.2H624.9z"/>
<path d="M628.2,386.7L628.2,386.7c-0.2-2.5,1.8-4.7,4.3-4.8c0.1,0,0.1,0,0.2,0c1.5,0,2.8,0.8,3.6,2v-5.6h1.4v13.1h-1.4v-1.9
	c-0.7,1.3-2.1,2.1-3.6,2.1c-2.5,0-4.5-2.1-4.5-4.6C628.2,386.8,628.2,386.7,628.2,386.7z M636.3,386.7L636.3,386.7
	c0.1-1.9-1.4-3.5-3.3-3.6c0,0,0,0-0.1,0c-1.8,0-3.3,1.5-3.3,3.3c0,0.1,0,0.2,0,0.3l0,0c-0.1,1.9,1.3,3.5,3.1,3.6c0.1,0,0.1,0,0.2,0
	C634.8,390.2,636.3,388.6,636.3,386.7C636.3,386.7,636.3,386.7,636.3,386.7L636.3,386.7z"/>
<path d="M646.6,388.8v-5.6h-1.3V382h1.3v-2.8h1.4v2.8h3v1.2h-3v5.4c-0.1,0.8,0.4,1.5,1.2,1.6c0.1,0,0.3,0,0.4,0
	c0.5,0,0.9-0.1,1.3-0.3v1.2c-0.5,0.3-1.1,0.4-1.7,0.4c-1.3,0.2-2.5-0.8-2.6-2.1C646.6,389.2,646.6,389,646.6,388.8z"/>
<path d="M652.5,386.7L652.5,386.7c0.1-2.7,2.4-4.8,5.1-4.6c2.5,0.1,4.5,2.1,4.6,4.6l0,0c0,2.7-2.1,4.8-4.8,4.9c0,0-0.1,0-0.1,0
	c-2.6,0-4.8-2.1-4.8-4.7C652.5,386.8,652.5,386.7,652.5,386.7z M660.8,386.7L660.8,386.7c0.1-1.9-1.5-3.6-3.4-3.6c0,0,0,0-0.1,0
	c-1.9,0-3.4,1.6-3.4,3.5c0,0,0,0.1,0,0.1l0,0c-0.1,1.9,1.4,3.5,3.4,3.6c0,0,0.1,0,0.1,0c1.9,0,3.4-1.6,3.4-3.5
	C660.8,386.8,660.8,386.7,660.8,386.7z"/>
<path d="M402.9,408h1.5l2.5,7.5l2.5-7.5h1.1l2.5,7.5l2.5-7.5h1.4l-3.3,9.4h-1.2l-2.5-7.4l-2.5,7.4h-1.2L402.9,408z"/>
<path d="M418.1,414.6L418.1,414.6c0-2,1.6-3,4-3c1,0,1.9,0.1,2.9,0.4v-0.3c0-1.7-1-2.5-2.8-2.5c-1,0-1.9,0.2-2.8,0.7l-0.4-1.1
	c1.1-0.5,2.2-0.8,3.4-0.8c1.1-0.1,2.2,0.3,3,1c0.7,0.7,1.1,1.7,1,2.7v5.7H425v-1.4c-0.8,1-2,1.6-3.4,1.6
	C419.9,417.5,418.1,416.5,418.1,414.6z M425,413.9V413c-0.9-0.3-1.8-0.4-2.7-0.4c-1.7,0-2.7,0.8-2.7,1.9l0,0c0,1.2,1.1,1.9,2.3,1.9
	C423.6,416.4,425,415.3,425,413.9L425,413.9z"/>
<path d="M429.3,404.4h1.6v1.5h-1.6V404.4z M429.4,408h1.4v9.3h-1.4V408z"/>
<path d="M434.5,414.8v-5.6h-1.3V408h1.3v-2.8h1.4v2.8h3v1.2h-3v5.4c-0.1,0.8,0.4,1.5,1.2,1.6c0.1,0,0.3,0,0.4,0
	c0.5,0,0.9-0.1,1.4-0.3v1.2c-0.5,0.3-1.1,0.4-1.7,0.4c-1.3,0.1-2.5-0.8-2.6-2.1C434.5,415.2,434.5,415,434.5,414.8z"/>
<path d="M447.2,409.2h-1.3V408h1.3v-0.8c-0.1-0.9,0.2-1.7,0.8-2.4c0.5-0.5,1.3-0.8,2-0.7c0.5,0,1,0.1,1.5,0.2v1.2
	c-0.4-0.1-0.9-0.2-1.4-0.2c-1.1,0-1.6,0.6-1.6,2v0.7h3v1.2h-2.9v8.1h-1.4V409.2z"/>
<path d="M452.5,412.7L452.5,412.7c0.1-2.7,2.4-4.8,5.1-4.6c2.5,0.1,4.5,2.1,4.6,4.6l0,0c0,2.7-2.1,4.8-4.8,4.9c0,0-0.1,0-0.1,0
	c-2.6,0-4.8-2.1-4.8-4.7C452.5,412.8,452.5,412.7,452.5,412.7z M460.8,412.7L460.8,412.7c0.1-1.9-1.5-3.6-3.4-3.6c0,0,0,0-0.1,0
	c-1.9,0-3.4,1.6-3.4,3.4c0,0.1,0,0.1,0,0.2l0,0c-0.1,1.9,1.4,3.5,3.4,3.6c0,0,0.1,0,0.1,0c1.9,0,3.4-1.5,3.4-3.4
	C460.8,412.8,460.8,412.7,460.8,412.7z"/>
<path d="M464.7,408h1.4v2.4c0.6-1.6,2.1-2.6,3.8-2.6v1.5h-0.1c-2,0-3.7,1.5-3.7,4.3v3.7h-1.4V408z"/>
<path d="M477.9,414.8v-5.6h-1.3V408h1.3v-2.8h1.4v2.8h3v1.2h-3v5.4c-0.1,0.8,0.4,1.4,1.2,1.6c0.1,0,0.3,0,0.4,0
	c0.5,0,0.9-0.1,1.4-0.3v1.2c-0.5,0.3-1.1,0.4-1.7,0.4c-1.3,0.2-2.5-0.8-2.6-2.1C477.9,415.2,477.9,415,477.9,414.8z"/>
<path d="M484.7,404.1h1.4v5.5c0.6-1.2,1.9-1.9,3.2-1.8c1.9-0.1,3.5,1.3,3.6,3.2c0,0.2,0,0.3,0,0.5v5.8h-1.4v-5.4
	c0-1.7-0.9-2.8-2.6-2.8c-1.5,0-2.8,1.2-2.8,2.7c0,0.1,0,0.2,0,0.2v5.3h-1.4V404.1z"/>
<path d="M495.2,412.7L495.2,412.7c-0.1-2.5,1.8-4.7,4.3-4.8c0,0,0.1,0,0.1,0c2.8,0,4.3,2.2,4.3,4.9c0,0.2,0,0.3,0,0.5h-7.4
	c0.1,1.8,1.5,3.2,3.3,3.1c1.1,0,2.2-0.5,2.9-1.3l0.9,0.8c-0.9,1.1-2.4,1.8-3.8,1.7c-2.6,0-4.6-2-4.7-4.6
	C495.2,412.9,495.2,412.8,495.2,412.7z M502.6,412.1c-0.1-1.7-1.1-3.2-3-3.2c-1.7,0.1-3,1.5-3,3.2H502.6z"/>
<path d="M511.3,412.7L511.3,412.7c0-2.7,2.2-4.9,4.8-4.9c1.4,0,2.7,0.6,3.7,1.7l-0.9,1c-0.7-0.9-1.7-1.4-2.9-1.5
	c-1.9,0.1-3.4,1.6-3.3,3.5c0,0,0,0.1,0,0.1l0,0c-0.1,1.9,1.4,3.5,3.3,3.6c0,0,0.1,0,0.1,0c1.1,0,2.1-0.5,2.8-1.4l0.9,0.8
	c-1.7,2.1-4.7,2.4-6.8,0.7C511.9,415.5,511.2,414.1,511.3,412.7L511.3,412.7z"/>
<path d="M521.3,412.7L521.3,412.7c0.1-2.7,2.4-4.8,5.1-4.6c2.5,0.1,4.5,2.1,4.6,4.6l0,0c0,2.7-2.1,4.8-4.8,4.9c0,0-0.1,0-0.1,0
	c-2.6,0-4.8-2.1-4.8-4.7C521.3,412.8,521.3,412.7,521.3,412.7z M529.6,412.7L529.6,412.7c0.1-1.9-1.4-3.6-3.4-3.7c0,0-0.1,0-0.1,0
	c-1.9,0-3.4,1.6-3.4,3.4c0,0.1,0,0.1,0,0.2l0,0c-0.1,1.9,1.4,3.5,3.4,3.6c0,0,0.1,0,0.1,0C528,416.2,529.6,414.7,529.6,412.7
	C529.6,412.7,529.6,412.7,529.6,412.7z"/>
<path d="M532.9,412.7L532.9,412.7c0-2.7,2.2-4.9,4.8-4.9c2.7,0,4.9,2.2,4.9,4.9l0,0c0,2.7-2.1,4.8-4.8,4.9c0,0,0,0-0.1,0
	c-2.6,0-4.8-2.1-4.8-4.7C532.9,412.8,532.9,412.7,532.9,412.7z M541.2,412.7L541.2,412.7c0.1-1.9-1.5-3.6-3.4-3.6c0,0,0,0-0.1,0
	c-1.9,0-3.4,1.6-3.4,3.4c0,0.1,0,0.1,0,0.2l0,0c-0.1,1.9,1.4,3.5,3.4,3.6c0,0,0.1,0,0.1,0c1.9,0,3.4-1.5,3.4-3.4
	C541.2,412.8,541.2,412.7,541.2,412.7L541.2,412.7z"/>
<path d="M545.1,404.1h1.4v9.1l5-5.2h1.7l-3.9,4l4,5.3h-1.7l-3.3-4.3l-1.9,1.9v2.4h-1.4V404.1z"/>
<path d="M555.4,404.4h1.6v1.5h-1.6L555.4,404.4z M555.5,408h1.4v9.3h-1.4V408z"/>
<path d="M560.1,408h1.4v1.6c0.6-1.2,1.9-1.9,3.2-1.8c1.9-0.1,3.5,1.3,3.6,3.2c0,0.2,0,0.3,0,0.5v5.8h-1.4v-5.4
	c0-1.7-0.9-2.8-2.6-2.8c-1.5,0-2.8,1.2-2.8,2.7c0,0.1,0,0.2,0,0.3v5.3h-1.4V408z"/>
<path d="M571.1,418.9l0.6-1.1c1,0.8,2.3,1.2,3.6,1.2c1.7,0.2,3.2-1,3.4-2.7c0-0.2,0-0.4,0-0.6v-1.1c-0.8,1.2-2.2,2-3.7,2
	c-2.4,0-4.3-1.9-4.4-4.2c0,0,0-0.1,0-0.1l0,0c0-2.4,2-4.4,4.5-4.4c1.4,0,2.7,0.7,3.5,1.8V408h1.4v7.7c0.1,1.2-0.4,2.4-1.2,3.3
	c-1,0.9-2.2,1.3-3.5,1.2C573.8,420.2,572.3,419.8,571.1,418.9z M578.7,412.2L578.7,412.2c-0.1-1.8-1.6-3.2-3.4-3.2c0,0,0,0-0.1,0
	c-1.7-0.1-3.1,1.2-3.2,2.9c0,0.1,0,0.1,0,0.2l0,0c0,1.7,1.4,3.2,3.1,3.2c0,0,0.1,0,0.1,0C577.1,415.4,578.6,414,578.7,412.2
	C578.7,412.2,578.7,412.2,578.7,412.2z"/>
<path d="M589,414.8v-5.6h-1.3V408h1.3v-2.8h1.4v2.8h3v1.2h-3v5.4c-0.1,0.8,0.4,1.5,1.2,1.6c0.1,0,0.3,0,0.4,0c0.5,0,0.9-0.1,1.3-0.3
	v1.2c-0.5,0.3-1.1,0.4-1.7,0.4c-1.3,0.1-2.5-0.8-2.6-2.1C589,415.2,589,415,589,414.8z"/>
<path d="M595.8,404.4h1.6v1.5h-1.6V404.4z M595.9,408h1.4v9.3h-1.4V408z"/>
<path d="M600.5,408h1.4v1.6c0.6-1.1,1.8-1.8,3-1.8c1.3,0,2.5,0.7,3,1.9c0.7-1.2,1.9-1.9,3.3-1.9c2.2,0,3.5,1.4,3.5,3.8v5.8h-1.4
	v-5.4c0-1.8-0.9-2.8-2.4-2.8c-1.4,0-2.6,1.2-2.6,2.6c0,0.1,0,0.2,0,0.3v5.4h-1.4v-5.5c0-1.7-0.9-2.8-2.4-2.8c-1.5,0-2.7,1.3-2.6,2.8
	c0,0.1,0,0.1,0,0.2v5.3h-1.4V408z"/>
<path d="M617.1,412.7L617.1,412.7c-0.1-2.5,1.8-4.7,4.3-4.8c0,0,0.1,0,0.1,0c2.8,0,4.3,2.2,4.3,4.9c0,0.1,0,0.3,0,0.5h-7.4
	c0.1,1.8,1.5,3.2,3.3,3.1c1.1,0,2.2-0.5,2.9-1.3l0.9,0.8c-0.9,1.1-2.4,1.8-3.8,1.7c-2.6,0-4.6-2-4.7-4.6
	C617.1,412.9,617.1,412.8,617.1,412.7z M624.5,412.1c-0.2-1.7-1.1-3.2-3-3.2c-1.7,0.1-3,1.5-3,3.2H624.5z"/>
<path d="M622.5,334.5L622.5,334.5c0.1-2.7,2.4-4.8,5.1-4.6c2.5,0.1,4.5,2.1,4.6,4.6l0,0c0,2.7-2.1,4.8-4.8,4.9c0,0-0.1,0-0.1,0
	c-2.6,0-4.8-2.1-4.8-4.7C622.5,334.6,622.5,334.5,622.5,334.5z M630.8,334.5L630.8,334.5c0.1-1.9-1.5-3.6-3.4-3.6c0,0,0,0-0.1,0
	c-1.9,0-3.4,1.6-3.4,3.5c0,0,0,0.1,0,0.1l0,0c-0.1,1.9,1.4,3.5,3.4,3.6c0,0,0.1,0,0.1,0c1.9,0,3.4-1.6,3.4-3.5
	C630.8,334.6,630.8,334.5,630.8,334.5z"/>
</svg>
