<svg id="图层_1" data-name="图层 1" xmlns="http://www.w3.org/2000/svg" viewBox="0 0 603 274.89"><defs><style>.cls-1{fill:#f2b53b;}.cls-2{fill:#fff;}.cls-3{fill:#adadad;}.cls-4{fill:#5b5b5b;}</style></defs><title>pj5_6</title><rect class="cls-1" x="168.32" y="87.49" width="211.18" height="64.55" rx="9.46" ry="9.46"/><path class="cls-1" d="M190.73,192.45H195V165.17h-4.31v-2.45h12.91c7.53,0,10.42,4,10.42,8,0,3.91-2.5,6.6-6.07,7.68,4.41,1.12,7,3.57,7,7.77,0,4.94-4,8.71-10.76,8.71h-13.5ZM203,177.29c5.67,0,8.36-2.59,8.36-6.35,0-3.57-2.69-5.77-7.77-5.77h-5.73v12.12Zm1.37,15.16c5.18,0,7.92-2.78,7.92-6.31,0-4.3-3.52-6.5-9.29-6.5h-5.14v12.81Z"/><path class="cls-1" d="M234.89,176.32a2.07,2.07,0,0,1-2,2.1,2.37,2.37,0,0,1-2.2-1.66c-1.62.44-3.52,2.39-4.6,4.54v11.35h4v2.25h-9.93v-2.25h3.43v-16h-3.43v-2.25H226V179c1.47-2.83,4.11-5,6.12-5C233.91,174,234.89,175.09,234.89,176.32Z"/><path class="cls-1" d="M239.64,185.22c.39,5.18,3.52,7.77,8.46,7.77,2.83,0,4.64-.88,7.09-2.3l-.25,2.55a13.53,13.53,0,0,1-7.18,2c-6.51,0-10.76-4.4-10.76-10.61,0-5.63,3.71-10.71,9.92-10.71,5.92,0,9.15,4.64,9.15,9.63a6.84,6.84,0,0,1-.15,1.62Zm.05-2.21h13.84c-.3-4-2.55-6.79-6.85-6.79C243.11,176.22,240.18,178.86,239.69,183Z"/><path class="cls-1" d="M259.89,189.32c0-3.71,3.32-6.21,7.77-6.21a20,20,0,0,1,6.26,1.18v-3.43a4.39,4.39,0,0,0-1-2.93,6.1,6.1,0,0,0-4.69-1.71,5.93,5.93,0,0,0-3.72,1.07,2.75,2.75,0,0,1,.34,1.32,1.8,1.8,0,0,1-1.86,1.86,1.86,1.86,0,0,1-1.9-1.95c0-2.3,2.79-4.55,7.43-4.55,2.79,0,4.94.83,6.26,2.25a5.71,5.71,0,0,1,1.52,4.06v12.37h3.42v2.25H274v-2.79a10.57,10.57,0,0,1-7.24,3.18C262.62,195.29,259.89,192.75,259.89,189.32Zm14,.39v-3.47a21,21,0,0,0-6.16-1c-3.62,0-5.38,1.76-5.38,4s1.66,3.91,4.89,3.91A9,9,0,0,0,273.92,189.71Z"/><path class="cls-1" d="M282.33,192.65h3.43v-31.3h-3.43V159.1h5.92V185l9.78-8.51h-4.55v-2.15h11.4v2.25h-3.57L294,182.87l6.89,9.78h4v2.25h-5.33l-7.34-10.71-4,3.37v5.09h3.67v2.25h-9.59Z"/><path class="cls-1" d="M317.05,161.06a2.76,2.76,0,0,0-1.85,1,6.37,6.37,0,0,0-1.23,4.35v8h5.33v2.25H314v16h4v2.25h-9.93v-2.25h3.43v-16h-3.72v-2.25h3.72v-7.19c0-3.13.54-5.28,2-6.7a5.61,5.61,0,0,1,4.25-1.76c2,0,3.42.88,3.42,2.45a1.8,1.8,0,0,1-1.81,1.9A2.31,2.31,0,0,1,317.05,161.06Z"/><path class="cls-1" d="M323.12,189.32c0-3.71,3.32-6.21,7.77-6.21a20,20,0,0,1,6.26,1.18v-3.43a4.39,4.39,0,0,0-1-2.93,6.08,6.08,0,0,0-4.69-1.71,6,6,0,0,0-3.72,1.07,2.75,2.75,0,0,1,.35,1.32,1.8,1.8,0,0,1-1.86,1.86,1.86,1.86,0,0,1-1.91-1.95c0-2.3,2.79-4.55,7.43-4.55,2.79,0,4.94.83,6.26,2.25a5.71,5.71,0,0,1,1.52,4.06v12.37H343v2.25h-5.72v-2.79a10.57,10.57,0,0,1-7.24,3.18C325.86,195.29,323.12,192.75,323.12,189.32Zm14,.39v-3.47a21,21,0,0,0-6.16-1c-3.62,0-5.38,1.76-5.38,4s1.67,3.91,4.89,3.91A9,9,0,0,0,337.15,189.71Z"/><path class="cls-1" d="M359.89,180.18a1.89,1.89,0,0,1-1.95-1.91,2.29,2.29,0,0,1,.34-1.27,7.38,7.38,0,0,0-4-.88c-3.13,0-5,1.71-5,3.42,0,2.06,2.15,2.69,5.67,3.57,3.77.93,7.58,2.06,7.58,6.21,0,3.72-3.71,6-8,6-2.93,0-5.77-.88-7.19-2.3a3.48,3.48,0,0,1-1.12-2.49,1.88,1.88,0,0,1,1.81-2A1.78,1.78,0,0,1,350,190.3a2.71,2.71,0,0,1-.44,1.42c.58.63,2.44,1.42,5,1.42,3.18,0,5.63-1.42,5.63-3.67s-2.4-3-5.23-3.72c-4.65-1.12-8.07-2.2-8.07-6.11,0-3.08,3-5.67,7.53-5.67,2.88,0,5.08.83,6.26,2a3.13,3.13,0,0,1,1,2.25A1.78,1.78,0,0,1,359.89,180.18Z"/><path class="cls-1" d="M370,193a6.26,6.26,0,0,1-.49-2.64V176.61h-3.72v-2.25h3.72V169l2.49-.88v6.21h6.36v2.25H372v13.54a4,4,0,0,0,.3,1.67c.39.73,1.17,1.07,2.54,1.07a8,8,0,0,0,3.76-1.32l-.39,2.59a8.45,8.45,0,0,1-4.15,1.13A4.07,4.07,0,0,1,370,193Z"/><path class="cls-2" d="M190.74,128c0-2.18,1.29-3.58,3.11-3.58a3,3,0,0,1,3.12,2.85,3.86,3.86,0,0,1-.67,2.24,9.87,9.87,0,0,0,6.23,1.82c4.16,0,6.81-2,6.81-5.41,0-3.22-3.12-4.72-6.76-6.08-6.13-2.28-10.55-4.36-10.55-10.44,0-5.35,4.27-9.35,10.86-9.35,6,0,10.66,3.22,10.66,7a3.06,3.06,0,0,1-3,3.38,3,3,0,0,1-3.17-3,3.05,3.05,0,0,1,.57-1.82,8.36,8.36,0,0,0-5.09-1.46c-3.79,0-6.08,2-6.08,4.89,0,3.27,3.07,4.67,7,6.18,5.88,2.18,10.29,4.31,10.29,10.34,0,6.23-4.88,9.92-11.58,9.92S190.74,131.7,190.74,128Z"/><path class="cls-2" d="M218.85,131.13h3.63V116.32h-3.63v-3.84H227v18.65h3.59v3.74H218.85ZM221,104.47a3.25,3.25,0,0,1,6.49,0,3.33,3.33,0,0,1-3.27,3.28A3.25,3.25,0,0,1,221,104.47Z"/><path class="cls-2" d="M234.17,131.13h3.49V116.32h-3.49v-3.84h7.75v3.89c1.87-2.18,4.62-4.31,7.89-4.31a6.24,6.24,0,0,1,5.46,2.55,5.24,5.24,0,0,1,.68,1.56c2.28-2.29,5-4.11,7.89-4.11,3.22,0,5.2,1.2,6.24,3.22a9.93,9.93,0,0,1,.88,4.26v11.59h3.48v3.74H263.17v-3.74h3.32v-10.6a7.09,7.09,0,0,0-.41-2.55,3,3,0,0,0-3.17-1.81c-2.29,0-4.42,1.35-6.39,3.27v11.69h3.27v3.74H248.72v-3.74h3.33v-10.6a7.16,7.16,0,0,0-.37-2.55,3.07,3.07,0,0,0-3.16-1.81c-2.4,0-4.53,1.45-6.45,3.32v11.64h3.28v3.74H234.17Z"/><path class="cls-2" d="M276.63,141.31h3.48v-25h-3.48v-3.84h7.74v2.91a9.41,9.41,0,0,1,7.17-3.33c5.87,0,10.44,4.68,10.44,11.48,0,6.45-4.52,11.75-10.86,11.75a10.22,10.22,0,0,1-6.54-2.39v8.41h4v3.74H276.63Zm20.73-17.72c0-4.67-2.86-7.63-6.65-7.63a8.42,8.42,0,0,0-6.13,2.86v10.44a9.36,9.36,0,0,0,6,2.13C294.4,131.39,297.36,128.32,297.36,123.59Z"/><path class="cls-2" d="M305.62,131.13h3.64V100.68h-3.64V96.84h8.11v34.29h3.58v3.74H305.62Z"/><path class="cls-2" d="M324.33,145.21c-2.5,0-4.26-1.4-4.26-3.17a2.38,2.38,0,0,1,2.44-2.55,2.6,2.6,0,0,1,2.44,1.87,4.91,4.91,0,0,0,2.29-2c.41-.68.88-1.51,1.4-2.55l1.51-3.11-8.26-17.36H319v-3.84h10.91v3.69h-3.43s5.87,13.3,5.82,13.3l5.92-13.3h-3.58v-3.69h10.8v3.84h-2.91L332,138.82a24.43,24.43,0,0,1-1.77,3C328.54,144,326.61,145.21,324.33,145.21Z"/><path class="cls-2" d="M354.68,115.32c7.9-11,1.46-22.33,9.87-30.21,12-11.27,19.55,1.46,36.3-3.87,12.15-3.86,18.4,10.17,27.57,14.12,18.69,8,6.36,40.79-6.18,48.21-14.35,8.48-10.89,15.09-27.78,17.07-12.46,1.46-23.11-8.39-31.12-12C356.1,145.29,344.64,129.56,354.68,115.32Z"/><path class="cls-1" d="M391.93,163.85c-8.94,0-16.75-4.78-23.15-8.68a66.35,66.35,0,0,0-6.71-3.79c-5-2.27-11.2-9-13.5-17.49a23.6,23.6,0,0,1,3.61-20.33v0c3.36-4.69,3.74-9.38,4.15-14.35.46-5.64.94-11.46,6.12-16.31,7.85-7.35,14.5-5.92,20.94-4.54,4.84,1,9.84,2.12,16.52,0,9.56-3,16.2,3.11,21.55,8,2.77,2.56,5.4,5,8.16,6.17,6.79,2.93,10.83,9.09,11.35,17.35.84,13.18-7.35,30.48-17.18,36.3a42.56,42.56,0,0,0-10.32,8.44c-3.93,4.13-7.31,7.7-18.67,9A25.56,25.56,0,0,1,391.93,163.85Zm-34.76-46.76a17.45,17.45,0,0,0-2.7,15.2c1.9,7,7.07,12.12,10.14,13.53A73.8,73.8,0,0,1,372,150c6.6,4,14.1,8.59,22.13,7.66,9.16-1.08,11.33-3.38,14.94-7.18a49,49,0,0,1,11.65-9.5c7.05-4.16,14.95-18.76,14.19-30.64-.38-6-3-10.1-7.67-12.12-3.72-1.61-6.86-4.5-9.89-7.3-5.84-5.4-9.81-8.54-15.54-6.71-8.24,2.62-14.58,1.26-19.67.16-6-1.29-10-2.14-15.47,3-3.46,3.24-3.79,7.26-4.21,12.35C362,105,361.5,111,357.17,117.09Z"/><circle class="cls-1" cx="392.74" cy="118.78" r="18.55"/><path class="cls-2" d="M384.66,117.66a2.25,2.25,0,0,1-.85-.16c-1-.42-2-1.52-1.07-4.36,1.45-4.46,6.16-8.49,15-6.4a2.3,2.3,0,0,1-1,4.47c-3.41-.81-6-.56-7.77.73a5.41,5.41,0,0,0-1.95,2.92,2.33,2.33,0,0,1-.21,1.52A2.45,2.45,0,0,1,384.66,117.66Z"/><path d="M519.06,234.85H89.84v-187H519.06Zm-428.29-.94H518.12V48.78H90.77Z"/><polygon class="cls-3" points="186.94 136.21 181.15 136.21 181.15 96.27 186.94 96.27 186.94 97.21 182.09 97.21 182.09 135.27 186.94 135.27 186.94 136.21"/><path class="cls-4" d="M174.75,115.63l2.42-3H178l-2.82,3.49,2.93,3.65h-.85l-2.53-3.18-2.52,3.18h-.82l2.91-3.64-2.8-3.5h.85Z"/><polygon class="cls-3" points="186.56 87.78 180.78 87.78 180.78 48.76 186.56 48.76 186.56 49.69 181.71 49.69 181.71 86.84 186.56 86.84 186.56 87.78"/><path class="cls-4" d="M174.37,67.21l2.43-3h.82l-2.81,3.49,2.93,3.65h-.86l-2.52-3.18-2.52,3.18H171l2.92-3.64-2.81-3.5H172Z"/><path class="cls-4" d="M121.88,141.67l3.66-3.3c1.61-1.48,2.17-2.32,2.17-3.35a2.11,2.11,0,0,0-2.22-2.1,3.36,3.36,0,0,0-2.87,1.82l-.54-.37a3.82,3.82,0,0,1,3.48-2.1,2.75,2.75,0,0,1,2.92,2.69v0c0,1.34-.73,2.24-2.45,3.81l-3,2.72h5.55v.7h-6.7Z"/><path class="cls-4" d="M133.46,138.1l2.42-3h.83l-2.82,3.49,2.93,3.66H136L133.45,139l-2.53,3.18h-.82l2.91-3.64-2.8-3.51h.85Z"/><polygon class="cls-3" points="129.8 130.24 90.77 130.24 90.77 124.45 91.71 124.45 91.71 129.3 128.86 129.3 128.86 124.45 129.8 124.45 129.8 130.24"/><polygon class="cls-3" points="167.88 130.24 128.86 130.24 128.86 124.45 129.8 124.45 129.8 129.3 166.94 129.3 166.94 124.45 167.88 124.45 167.88 130.24"/><path class="cls-4" d="M472.48,130.09l3.66-3.3c1.61-1.47,2.17-2.31,2.17-3.35a2.11,2.11,0,0,0-2.21-2.1,3.37,3.37,0,0,0-2.88,1.82l-.54-.37a3.82,3.82,0,0,1,3.49-2.1,2.75,2.75,0,0,1,2.91,2.69v0c0,1.35-.73,2.24-2.45,3.81l-3,2.72h5.55v.7h-6.7Z"/><path class="cls-4" d="M484.06,126.52l2.42-3h.83L484.5,127l2.92,3.66h-.85l-2.52-3.18-2.52,3.18h-.83l2.91-3.64-2.8-3.51h.86Z"/><polygon class="cls-3" points="480.4 118.3 441.37 118.3 441.37 112.52 442.31 112.52 442.31 117.36 479.46 117.36 479.46 112.52 480.4 112.52 480.4 118.3"/><polygon class="cls-3" points="518.48 118.3 479.46 118.3 479.46 112.52 480.4 112.52 480.4 117.36 517.54 117.36 517.54 112.52 518.48 112.52 518.48 118.3"/><polygon class="cls-3" points="186.56 234.23 180.78 234.23 180.78 195.21 186.56 195.21 186.56 196.14 181.71 196.14 181.71 233.29 186.56 233.29 186.56 234.23"/><path class="cls-4" d="M174.37,213.66l2.43-3h.82l-2.81,3.49,2.93,3.65h-.86l-2.52-3.18-2.52,3.18H171l2.92-3.64-2.81-3.5H172Z"/><rect class="cls-3" x="189.48" y="96.27" width="2.81" height="0.94"/><path class="cls-3" d="M294.63,97.21H289v-.94h5.68Zm-11.37,0h-5.68v-.94h5.68Zm-11.37,0H266.2v-.94h5.69Zm-11.37,0h-5.69v-.94h5.69Zm-11.37,0h-5.69v-.94h5.69Zm-11.37,0h-5.69v-.94h5.69Zm-11.37,0h-5.69v-.94h5.69Zm-11.38,0h-5.68v-.94H215Zm-11.37,0H198v-.94h5.68Z"/><rect class="cls-3" x="300.32" y="96.27" width="2.81" height="0.94"/><path class="cls-3" d="M303.13,136.21h-1.05v-.94h1.05Zm-6.68,0h-5.63v-.94h5.63Zm-11.26,0h-5.63v-.94h5.63Zm-11.26,0H268.3v-.94h5.63Zm-11.26,0H257v-.94h5.63Zm-11.26,0h-5.63v-.94h5.63Zm-11.26,0h-5.63v-.94h5.63Zm-11.26,0h-5.63v-.94h5.63Zm-11.26,0H212v-.94h5.63Zm-11.26,0h-5.63v-.94h5.63Zm-11.26,0h-5.63v-.94h5.63Z"/></svg>