<svg id="图层_1" data-name="图层 1" xmlns="http://www.w3.org/2000/svg" viewBox="0 0 666.55 450.66"><defs><style>.cls-1{fill:#424242;}.cls-2{fill:#e8a718;}.cls-3{fill:#fff;}.cls-4{fill:#c1c1c1;}.cls-5{fill:#f5f1e5;}.cls-6{fill:#23a2c9;}.cls-7{fill:#1c839b;}.cls-8{fill:#28b7ce;}.cls-9{fill:#73bdd9;}.cls-10{fill:#6a91ad;}</style></defs><title>pj5_3</title><rect class="cls-1" x="358.7" width="307.84" height="450.67"/><rect class="cls-2" x="136.22" y="70.66" width="134" height="43.75"/><path class="cls-2" d="M150.47,139.17H153V123.66h-2.55v-3.43h8.95c5.47,0,8.16,2.52,8.16,5.88a5.13,5.13,0,0,1-3.81,5c2.79.81,4.45,2.45,4.45,5.23,0,3.71-3,6.26-8.43,6.26h-9.32Zm9-9.46c2.69,0,4.18-1.22,4.18-3.16s-1.56-3-4.28-3h-2.52v6.11Zm.41,9.52c2.65,0,4.42-1.08,4.42-3.23s-1.63-3.23-4.52-3.23h-2.93v6.46Z"/><path class="cls-2" d="M183.79,129.88a2.27,2.27,0,0,1-2.21,2.32,2.31,2.31,0,0,1-2.17-1.33,6.15,6.15,0,0,0-3,2.82v5.85H179v3.06h-8.5v-3.06h2.21v-8.7h-2.21v-3.13h5.78v3.36c1.26-2,2.83-3.63,4.73-3.63A2.45,2.45,0,0,1,183.79,129.88Z"/><path class="cls-2" d="M188.79,136.41c.51,2.31,2.42,3.33,4.9,3.33a11,11,0,0,0,5.4-1.56l-.3,3.33a11,11,0,0,1-5.65,1.36c-4.86,0-8.22-3.06-8.22-7.68a7.42,7.42,0,0,1,7.54-7.75c4.76,0,7.24,3.19,7.24,7.14a10.74,10.74,0,0,1-.16,1.83Zm0-2.58H196a3.31,3.31,0,0,0-3.57-3.4A3.64,3.64,0,0,0,188.76,133.83Z"/><path class="cls-2" d="M201.61,138.69c0-2.79,2.45-4.49,6-4.49a17.23,17.23,0,0,1,3.78.41v-1.19a3.28,3.28,0,0,0-.58-2,3.46,3.46,0,0,0-2.92-1.09,3.89,3.89,0,0,0-1.47.24,2.76,2.76,0,0,1,.14.75,1.93,1.93,0,0,1-2,1.94,1.91,1.91,0,0,1-2-2c0-1.84,1.87-3.77,5.92-3.77,2.55,0,4.28.71,5.34,2a5.8,5.8,0,0,1,1.15,3.74v6.36h2.21v3.06h-5.74V141a7.89,7.89,0,0,1-5,1.9C203.89,142.87,201.61,141.48,201.61,138.69Zm9.76.17v-2.35a13.61,13.61,0,0,0-3.06-.34c-1.8,0-2.89.82-2.89,2.18,0,1.19.88,1.84,2.21,1.84A6.41,6.41,0,0,0,211.37,138.86Z"/><path class="cls-2" d="M218.37,139.54h2.21v-18.7h-2.21v-3.13h5.92v16.7l4.35-3.74h-2.07v-3h8.8v3.13h-2.75l-3.47,2.92,3.77,5.71h2.45v3.13h-4.66l-4.28-6.7-2.14,1.8v1.91h1.87v3h-7.79Z"/><path class="cls-2" d="M245,120.67a1.77,1.77,0,0,0-.78.61,5.21,5.21,0,0,0-.68,3v3.44h3.87v3.13H243.5v8.7h2.89v3.06h-8.81v-3.06h2.25v-8.7h-2.55v-3.13h2.55v-2.89c0-2.72.47-4.42,1.9-5.81a5.64,5.64,0,0,1,4.08-1.57c1.94,0,3.3,1,3.3,2.52a2,2,0,0,1-2,2.11A2.25,2.25,0,0,1,245,120.67Z"/><path class="cls-2" d="M249.07,138.69c0-2.79,2.45-4.49,6-4.49a17.05,17.05,0,0,1,3.77.41v-1.19a3.22,3.22,0,0,0-.58-2,3.45,3.45,0,0,0-2.92-1.09,3.83,3.83,0,0,0-1.46.24,2.75,2.75,0,0,1,.13.75,1.93,1.93,0,0,1-2,1.94,1.91,1.91,0,0,1-2-2c0-1.84,1.87-3.77,5.91-3.77,2.55,0,4.29.71,5.34,2a5.8,5.8,0,0,1,1.15,3.74v6.36h2.21v3.06H258.9V141a7.87,7.87,0,0,1-5,1.9C251.35,142.87,249.07,141.48,249.07,138.69Zm9.76.17v-2.35a13.54,13.54,0,0,0-3.06-.34c-1.8,0-2.89.82-2.89,2.18,0,1.19.89,1.84,2.21,1.84A6.39,6.39,0,0,0,258.83,138.86Z"/><path class="cls-2" d="M276.92,133a1.82,1.82,0,0,1-2-1.83,1.94,1.94,0,0,1,.07-.65,5.91,5.91,0,0,0-2.11-.37c-1.66,0-2.48.74-2.48,1.53s.85,1.29,3.13,1.9c3.57.95,5.64,1.84,5.64,4.52,0,3.13-2.92,4.8-6.29,4.8-2.27,0-4.72-.82-5.71-1.81a2.62,2.62,0,0,1-.85-2,2,2,0,0,1,2-2,1.92,1.92,0,0,1,2,2,3.27,3.27,0,0,1-.07.62,7.5,7.5,0,0,0,2.69.47c1.49,0,2.72-.51,2.72-1.6,0-.74-.65-1.19-2.93-1.8-4.11-1.09-5.84-2.07-5.84-4.62,0-2.31,1.9-4.73,6.08-4.73a7.84,7.84,0,0,1,5,1.7,2.65,2.65,0,0,1,.81,1.91A1.82,1.82,0,0,1,276.92,133Z"/><path class="cls-2" d="M284.23,140.83a4.77,4.77,0,0,1-.51-2.34v-7.65h-2.89v-3.13h2.89v-3.13l3.67-1.6v4.73h4.52v3.13h-4.52v6.93a2.07,2.07,0,0,0,.24,1.09,1.66,1.66,0,0,0,1.56.71,7.48,7.48,0,0,0,2.93-.78l-.31,3.2a7.91,7.91,0,0,1-3.57.88A4.17,4.17,0,0,1,284.23,140.83Z"/><path class="cls-3" d="M150.58,99.62A2.37,2.37,0,0,1,152.92,97a2.33,2.33,0,0,1,2.45,2.21,2.81,2.81,0,0,1-.31,1.36,6.25,6.25,0,0,0,3.54.95c2.45,0,4-1.09,4-3s-1.87-2.72-4.11-3.5c-4.15-1.49-7.07-2.82-7.07-7,0-3.57,2.89-6.35,7.41-6.35,4.18,0,7.41,2.14,7.41,4.82A2.27,2.27,0,0,1,164,89a2.33,2.33,0,0,1-2.45-2.28,2.05,2.05,0,0,1,.24-1,5.57,5.57,0,0,0-3-.68c-2.21,0-3.5,1.12-3.5,2.75,0,1.84,1.87,2.65,4.12,3.47,4,1.43,7,2.82,7,7s-3.29,6.66-7.88,6.66C154.15,104.82,150.58,102.34,150.58,99.62Z"/><path class="cls-3" d="M169.17,101.35h2.28v-8.7h-2.28V89.52h6v11.83h2.21v3.06h-8.2Zm1.3-16.55A2.52,2.52,0,0,1,173,82.35a2.46,2.46,0,0,1,2.45,2.45,2.51,2.51,0,0,1-2.52,2.44A2.45,2.45,0,0,1,170.47,84.8Z"/><path class="cls-3" d="M179.51,101.35h2.21v-8.7h-2.21V89.52h5.78v2.35a6.91,6.91,0,0,1,5-2.62,4.21,4.21,0,0,1,3.53,1.6,4,4,0,0,1,.48.85,7.33,7.33,0,0,1,5-2.45c2.08,0,3.5.75,4.25,2.14a5.81,5.81,0,0,1,.61,2.79v7.17h2.21v3.06h-7.92v-3.06h2V95.06a3.3,3.3,0,0,0-.24-1.39,1.76,1.76,0,0,0-1.77-1,6.07,6.07,0,0,0-3.64,1.66v7.07h2v3.06H189v-3.06h2V95.06a3.3,3.3,0,0,0-.24-1.39,1.72,1.72,0,0,0-1.77-1,6,6,0,0,0-3.63,1.66v7.07h2v3.06h-7.89Z"/><path class="cls-3" d="M207.53,108h2.21V92.65h-2.21V89.52h5.78v1.7a6,6,0,0,1,4.42-2c3.87,0,6.79,3.16,6.79,7.65,0,4.32-3.09,7.79-7,7.79a6.57,6.57,0,0,1-4.05-1.43V108h2.42v3.06h-8.33Zm13.19-11.09c0-2.85-1.7-4.48-3.81-4.48a5.1,5.1,0,0,0-3.47,1.49v6.39a5.9,5.9,0,0,0,3.47,1.16C218.88,101.49,220.72,99.89,220.72,96.93Z"/><path class="cls-3" d="M226.57,101.35h2.31V82.66h-2.31V79.53h6v21.82h2.21v3.06h-8.22Z"/><path class="cls-3" d="M239.66,111.18c-2,0-3.2-1.16-3.2-2.35a1.76,1.76,0,0,1,1.84-1.9,1.7,1.7,0,0,1,1.63,1.12,2.23,2.23,0,0,0,1.19-.88,7,7,0,0,0,.68-1.16l1.12-2.34-5.3-11h-1.84V89.52h7.68v3h-2.17l3.43,7.85,3.47-7.85h-2.31v-3h7.65v3.13h-1.81l-7,14.79a8.7,8.7,0,0,1-1.16,1.8A5.16,5.16,0,0,1,239.66,111.18Z"/><rect class="cls-2" x="429.23" y="70.66" width="134" height="43.75"/><path class="cls-3" d="M443.49,139.17H446V123.66h-2.55v-3.43h8.94c5.47,0,8.16,2.52,8.16,5.88a5.13,5.13,0,0,1-3.81,5c2.79.81,4.45,2.45,4.45,5.23,0,3.71-3,6.26-8.43,6.26h-9.31Zm9-9.46c2.69,0,4.18-1.22,4.18-3.16s-1.56-3-4.28-3h-2.52v6.11Zm.41,9.52c2.65,0,4.42-1.08,4.42-3.23s-1.63-3.23-4.52-3.23h-2.93v6.46Z"/><path class="cls-3" d="M476.8,129.88a2.27,2.27,0,0,1-2.21,2.32,2.32,2.32,0,0,1-2.17-1.33,6.19,6.19,0,0,0-3,2.82v5.85h2.59v3.06h-8.5v-3.06h2.21v-8.7h-2.21v-3.13h5.78v3.36c1.25-2,2.82-3.63,4.72-3.63A2.44,2.44,0,0,1,476.8,129.88Z"/><path class="cls-3" d="M481.8,136.41c.51,2.31,2.42,3.33,4.9,3.33a11,11,0,0,0,5.4-1.56l-.3,3.33a11,11,0,0,1-5.64,1.36c-4.87,0-8.23-3.06-8.23-7.68a7.43,7.43,0,0,1,7.55-7.75c4.76,0,7.24,3.19,7.24,7.14a10.73,10.73,0,0,1-.17,1.83Zm0-2.58H489a3.31,3.31,0,0,0-3.57-3.4A3.64,3.64,0,0,0,481.77,133.83Z"/><path class="cls-3" d="M494.62,138.69c0-2.79,2.45-4.49,6-4.49a17.13,17.13,0,0,1,3.77.41v-1.19a3.22,3.22,0,0,0-.58-2,3.46,3.46,0,0,0-2.92-1.09,3.83,3.83,0,0,0-1.46.24,3.19,3.19,0,0,1,.13.75,1.93,1.93,0,0,1-2,1.94,1.91,1.91,0,0,1-2-2c0-1.84,1.87-3.77,5.92-3.77,2.55,0,4.28.71,5.34,2a5.8,5.8,0,0,1,1.15,3.74v6.36h2.21v3.06h-5.74V141a7.87,7.87,0,0,1-5,1.9C496.9,142.87,494.62,141.48,494.62,138.69Zm9.76.17v-2.35a13.54,13.54,0,0,0-3.06-.34c-1.8,0-2.89.82-2.89,2.18,0,1.19.88,1.84,2.21,1.84A6.39,6.39,0,0,0,504.38,138.86Z"/><path class="cls-3" d="M511.38,139.54h2.21v-18.7h-2.21v-3.13h5.92v16.7l4.35-3.74h-2.07v-3h8.8v3.13h-2.75l-3.47,2.92,3.77,5.71h2.45v3.13h-4.65l-4.29-6.7-2.14,1.8v1.91h1.87v3h-7.79Z"/><path class="cls-3" d="M538,120.67a1.77,1.77,0,0,0-.78.61,5.21,5.21,0,0,0-.68,3v3.44h3.87v3.13h-3.87v8.7h2.89v3.06h-8.81v-3.06h2.25v-8.7h-2.55v-3.13h2.55v-2.89c0-2.72.47-4.42,1.9-5.81a5.67,5.67,0,0,1,4.08-1.57c1.94,0,3.3,1,3.3,2.52a2,2,0,0,1-2,2.11A2.25,2.25,0,0,1,538,120.67Z"/><path class="cls-3" d="M542.09,138.69c0-2.79,2.44-4.49,6-4.49a17.05,17.05,0,0,1,3.77.41v-1.19a3.22,3.22,0,0,0-.58-2,3.45,3.45,0,0,0-2.92-1.09,3.87,3.87,0,0,0-1.46.24,2.76,2.76,0,0,1,.14.75,1.94,1.94,0,0,1-2,1.94,1.91,1.91,0,0,1-2-2c0-1.84,1.87-3.77,5.91-3.77,2.55,0,4.29.71,5.34,2a5.8,5.8,0,0,1,1.16,3.74v6.36h2.21v3.06h-5.75V141a7.87,7.87,0,0,1-5,1.9C544.36,142.87,542.09,141.48,542.09,138.69Zm9.75.17v-2.35a13.54,13.54,0,0,0-3.06-.34c-1.8,0-2.89.82-2.89,2.18,0,1.19.89,1.84,2.21,1.84A6.39,6.39,0,0,0,551.84,138.86Z"/><path class="cls-3" d="M569.93,133a1.82,1.82,0,0,1-2-1.83,1.94,1.94,0,0,1,.07-.65,5.9,5.9,0,0,0-2.1-.37c-1.67,0-2.49.74-2.49,1.53s.85,1.29,3.13,1.9c3.57.95,5.64,1.84,5.64,4.52,0,3.13-2.92,4.8-6.28,4.8-2.28,0-4.73-.82-5.72-1.81a2.62,2.62,0,0,1-.85-2,2,2,0,0,1,2-2,1.91,1.91,0,0,1,2,2,3.27,3.27,0,0,1-.07.62,7.55,7.55,0,0,0,2.69.47c1.49,0,2.72-.51,2.72-1.6,0-.74-.65-1.19-2.93-1.8-4.11-1.09-5.84-2.07-5.84-4.62,0-2.31,1.9-4.73,6.08-4.73a7.84,7.84,0,0,1,5,1.7,2.66,2.66,0,0,1,.82,1.91A1.83,1.83,0,0,1,569.93,133Z"/><path class="cls-3" d="M577.24,140.83a4.77,4.77,0,0,1-.51-2.34v-7.65h-2.89v-3.13h2.89v-3.13l3.67-1.6v4.73h4.52v3.13H580.4v6.93a2.07,2.07,0,0,0,.24,1.09,1.66,1.66,0,0,0,1.56.71,7.48,7.48,0,0,0,2.93-.78l-.31,3.2a7.91,7.91,0,0,1-3.57.88A4.17,4.17,0,0,1,577.24,140.83Z"/><path class="cls-3" d="M443.59,99.62A2.37,2.37,0,0,1,445.93,97a2.33,2.33,0,0,1,2.45,2.21,2.93,2.93,0,0,1-.3,1.36,6.19,6.19,0,0,0,3.53.95c2.45,0,4-1.09,4-3s-1.87-2.72-4.11-3.5c-4.15-1.49-7.07-2.82-7.07-7,0-3.57,2.89-6.35,7.41-6.35,4.18,0,7.41,2.14,7.41,4.82A2.27,2.27,0,0,1,457,89a2.32,2.32,0,0,1-2.44-2.28,2.06,2.06,0,0,1,.23-1,5.55,5.55,0,0,0-2.95-.68c-2.21,0-3.51,1.12-3.51,2.75,0,1.84,1.87,2.65,4.12,3.47,4,1.43,7,2.82,7,7s-3.29,6.66-7.88,6.66C447.16,104.82,443.59,102.34,443.59,99.62Z"/><path class="cls-3" d="M462.19,101.35h2.27v-8.7h-2.27V89.52h6v11.83h2.21v3.06h-8.19Zm1.29-16.55A2.52,2.52,0,0,1,466,82.35a2.46,2.46,0,0,1,2.45,2.45,2.51,2.51,0,0,1-2.51,2.44A2.45,2.45,0,0,1,463.48,84.8Z"/><path class="cls-3" d="M472.52,101.35h2.21v-8.7h-2.21V89.52h5.78v2.35a6.91,6.91,0,0,1,5-2.62,4.2,4.2,0,0,1,3.53,1.6,4,4,0,0,1,.48.85,7.33,7.33,0,0,1,5-2.45c2.08,0,3.51.75,4.25,2.14a5.81,5.81,0,0,1,.62,2.79v7.17h2.2v3.06h-7.92v-3.06h2V95.06a3.3,3.3,0,0,0-.24-1.39,1.75,1.75,0,0,0-1.77-1,6,6,0,0,0-3.63,1.66v7.07h2v3.06H482v-3.06h2V95.06a3.3,3.3,0,0,0-.24-1.39,1.71,1.71,0,0,0-1.76-1,6,6,0,0,0-3.64,1.66v7.07h2v3.06h-7.89Z"/><path class="cls-3" d="M500.54,108h2.21V92.65h-2.21V89.52h5.78v1.7a6,6,0,0,1,4.42-2c3.87,0,6.8,3.16,6.8,7.65,0,4.32-3.1,7.79-7,7.79a6.59,6.59,0,0,1-4.05-1.43V108h2.42v3.06h-8.33Zm13.19-11.09c0-2.85-1.7-4.48-3.81-4.48a5.1,5.1,0,0,0-3.47,1.49v6.39a5.92,5.92,0,0,0,3.47,1.16C511.89,101.49,513.73,99.89,513.73,96.93Z"/><path class="cls-3" d="M519.58,101.35h2.31V82.66h-2.31V79.53h6v21.82h2.21v3.06h-8.22Z"/><path class="cls-3" d="M532.67,111.18c-2,0-3.2-1.16-3.2-2.35a1.76,1.76,0,0,1,1.84-1.9,1.7,1.7,0,0,1,1.63,1.12,2.23,2.23,0,0,0,1.19-.88,7,7,0,0,0,.68-1.16l1.12-2.34-5.3-11h-1.84V89.52h7.69v3H534.3l3.43,7.85,3.47-7.85h-2.31v-3h7.65v3.13h-1.8l-7,14.79a8.7,8.7,0,0,1-1.16,1.8A5.16,5.16,0,0,1,532.67,111.18Z"/><path class="cls-4" d="M13.93,25.06h.93l4.38,10.31,4.41-10.31h.88L19.6,36.34h-.74Z"/><path class="cls-4" d="M25,32.2v0a4,4,0,0,1,3.87-4.26c2.29,0,3.74,1.85,3.74,4.27,0,.15,0,.19,0,.32H25.87a3.24,3.24,0,0,0,3.2,3.22,3.67,3.67,0,0,0,2.8-1.28l.54.48A4.29,4.29,0,0,1,29,36.45,4,4,0,0,1,25,32.2Zm6.77-.4c-.12-1.65-1.06-3.17-2.93-3.17a3.18,3.18,0,0,0-3,3.17Z"/><path class="cls-4" d="M34.94,28.1h.78v2.32A3.86,3.86,0,0,1,39.34,28v.87h-.08c-1.89,0-3.54,1.42-3.54,4.08v3.34h-.78Z"/><path class="cls-4" d="M40.63,35.24l.47-.63A4.8,4.8,0,0,0,44,35.69c1.1,0,2-.61,2-1.56v0c0-1-1-1.31-2.16-1.63-1.33-.39-2.8-.78-2.8-2.24v0a2.39,2.39,0,0,1,2.68-2.26,5.45,5.45,0,0,1,2.9.9l-.42.65a4.7,4.7,0,0,0-2.51-.81c-1.12,0-1.85.6-1.85,1.42v0c0,.91,1.1,1.25,2.27,1.59s2.69.85,2.69,2.29v0A2.53,2.53,0,0,1,44,36.42,5.65,5.65,0,0,1,40.63,35.24Z"/><path class="cls-4" d="M49.31,24.9h1V26h-1Zm.09,3.2h.79v8.16H49.4Z"/><path class="cls-4" d="M52.71,32.21v0a4.22,4.22,0,0,1,4.21-4.27,4.17,4.17,0,0,1,4.18,4.24v0a4.2,4.2,0,1,1-8.39,0Zm7.54,0v0a3.42,3.42,0,0,0-3.36-3.54,3.38,3.38,0,0,0-3.33,3.51v0a3.43,3.43,0,0,0,3.36,3.54A3.37,3.37,0,0,0,60.25,32.21Z"/><path class="cls-4" d="M63.51,28.1h.79v1.52a3.18,3.18,0,0,1,2.94-1.71,3.11,3.11,0,0,1,3.27,3.36v5h-.79V31.41a2.49,2.49,0,0,0-2.59-2.78,2.79,2.79,0,0,0-2.83,2.91v4.72h-.79Z"/><path class="cls-4" d="M82.56,25h.8l5.21,11.28h-.91l-1.42-3.13H79.63L78.2,36.26h-.86Zm3.32,7.39-2.94-6.48-3,6.48Z"/><path class="cls-4" d="M13.93,267.37h.93l4.38,10.31,4.41-10.31h.88L19.6,278.66h-.74Z"/><path class="cls-4" d="M25,274.51v0a4,4,0,0,1,3.87-4.26c2.29,0,3.74,1.86,3.74,4.27a3.11,3.11,0,0,1,0,.32H25.87a3.23,3.23,0,0,0,3.2,3.22,3.67,3.67,0,0,0,2.8-1.28l.54.48A4.26,4.26,0,0,1,29,278.77,4.06,4.06,0,0,1,25,274.51Zm6.77-.4c-.12-1.65-1.06-3.17-2.93-3.17a3.18,3.18,0,0,0-3,3.17Z"/><path class="cls-4" d="M34.94,270.41h.78v2.32a3.88,3.88,0,0,1,3.62-2.45v.87h-.08c-1.89,0-3.54,1.42-3.54,4.08v3.35h-.78Z"/><path class="cls-4" d="M40.63,277.55l.47-.62A4.85,4.85,0,0,0,44,278c1.1,0,2-.61,2-1.55v0c0-1-1-1.31-2.16-1.63-1.33-.38-2.8-.78-2.8-2.24v0a2.4,2.4,0,0,1,2.68-2.26,5.45,5.45,0,0,1,2.9.9l-.42.65a4.7,4.7,0,0,0-2.51-.81c-1.12,0-1.85.61-1.85,1.42v0c0,.92,1.1,1.25,2.27,1.59s2.69.85,2.69,2.29v0A2.53,2.53,0,0,1,44,278.74,5.66,5.66,0,0,1,40.63,277.55Z"/><path class="cls-4" d="M49.31,267.21h1v1.07h-1Zm.09,3.2h.79v8.17H49.4Z"/><path class="cls-4" d="M52.71,274.53v0a4.22,4.22,0,0,1,4.21-4.27,4.17,4.17,0,0,1,4.18,4.24v0a4.2,4.2,0,1,1-8.39,0Zm7.54,0v0A3.41,3.41,0,0,0,56.89,271a3.37,3.37,0,0,0-3.33,3.5v0A3.43,3.43,0,0,0,56.92,278,3.36,3.36,0,0,0,60.25,274.53Z"/><path class="cls-4" d="M63.51,270.41h.79v1.52a3.18,3.18,0,0,1,2.94-1.71,3.11,3.11,0,0,1,3.27,3.36v5h-.79v-4.85a2.49,2.49,0,0,0-2.59-2.79,2.8,2.8,0,0,0-2.83,2.91v4.73h-.79Z"/><path class="cls-4" d="M78.3,267.37h4.62a4.11,4.11,0,0,1,2.92,1,2.45,2.45,0,0,1,.72,1.76v0a2.77,2.77,0,0,1-1.91,2.65c1.35.36,2.53,1.12,2.53,2.68v0c0,1.87-1.6,3.06-4,3.06H78.3Zm7.41,2.83c0-1.23-1-2.06-2.8-2.06H79.13v4.4h3.7c1.68,0,2.88-.82,2.88-2.3Zm-2.79,3.11H79.13v4.5H83.2c1.92,0,3.13-.88,3.13-2.29v0C86.33,274.11,85.13,273.31,82.92,273.31Z"/><path class="cls-5" d="M542,270.5v0a3.88,3.88,0,1,1,7.75,0v0a3.88,3.88,0,0,1-3.89,4A3.84,3.84,0,0,1,542,270.5Zm7.15,0v0a3.33,3.33,0,0,0-3.29-3.47,3.3,3.3,0,0,0-3.27,3.44v0a3.33,3.33,0,0,0,3.29,3.46A3.29,3.29,0,0,0,549.18,270.5Z"/><path class="cls-5" d="M551.6,268.71h.54v1.05a2.19,2.19,0,0,1,2-1.18,2.14,2.14,0,0,1,2.25,2.31v3.44h-.54V271a1.71,1.71,0,0,0-1.78-1.91,1.92,1.92,0,0,0-2,2v3.25h-.54Z"/><path class="cls-5" d="M561.76,266.62h2.57a3.84,3.84,0,0,1,4.09,3.83v0a3.86,3.86,0,0,1-4.09,3.85h-2.57Zm.58.53v6.65h2a3.28,3.28,0,0,0,3.5-3.3v0a3.3,3.3,0,0,0-3.5-3.33Z"/><path class="cls-5" d="M569.78,272.7v0c0-1.17,1-1.83,2.46-1.83a6.89,6.89,0,0,1,1.86.24v-.24a1.62,1.62,0,0,0-1.85-1.72,3.79,3.79,0,0,0-1.76.45l-.2-.47a4.46,4.46,0,0,1,2-.48,2.45,2.45,0,0,1,1.77.61,2.12,2.12,0,0,1,.57,1.59v3.5h-.52v-.94a2.56,2.56,0,0,1-2.15,1.07A2,2,0,0,1,569.78,272.7Zm4.33-.48v-.63a7.5,7.5,0,0,0-1.91-.26c-1.18,0-1.84.53-1.84,1.31v0c0,.82.76,1.29,1.62,1.29A1.93,1.93,0,0,0,574.11,272.22Z"/><path class="cls-5" d="M576.56,268.71h.54v1.6a2.64,2.64,0,0,1,2.48-1.68v.59h-.05A2.5,2.5,0,0,0,577.1,272v2.3h-.54Z"/><path class="cls-5" d="M581,266.29h.54v6l3.47-3.6h.72l-2.45,2.49,2.53,3.13h-.69l-2.22-2.74L581.5,273v1.37H581Z"/><path class="cls-5" d="M590.54,266.62h3.18a2.79,2.79,0,0,1,2,.69,1.65,1.65,0,0,1,.5,1.21v0a1.93,1.93,0,0,1-1.31,1.83c.92.24,1.74.77,1.74,1.83v0c0,1.29-1.1,2.11-2.77,2.11h-3.34Zm5.09,1.95c0-.85-.69-1.42-1.92-1.42h-2.6v3h2.54c1.16,0,2-.56,2-1.59Zm-1.91,2.14h-2.61v3.09h2.8c1.32,0,2.15-.61,2.15-1.58v0C596.06,271.26,595.24,270.71,593.72,270.71Z"/><path class="cls-5" d="M597.9,272.7v0c0-1.17,1-1.83,2.45-1.83a6.89,6.89,0,0,1,1.86.24v-.24a1.62,1.62,0,0,0-1.85-1.72,3.82,3.82,0,0,0-1.76.45l-.19-.47a4.43,4.43,0,0,1,2-.48,2.45,2.45,0,0,1,1.77.61,2.16,2.16,0,0,1,.57,1.59v3.5h-.53v-.94a2.54,2.54,0,0,1-2.14,1.07A2,2,0,0,1,597.9,272.7Zm4.32-.48v-.63a7.41,7.41,0,0,0-1.9-.26c-1.19,0-1.85.53-1.85,1.31v0c0,.82.77,1.29,1.63,1.29A1.92,1.92,0,0,0,602.22,272.22Z"/><path class="cls-5" d="M604.29,271.54v0a2.88,2.88,0,0,1,5.1-1.9L609,270a2.53,2.53,0,0,0-1.87-.92,2.32,2.32,0,0,0-2.27,2.41v0a2.36,2.36,0,0,0,2.31,2.43,2.51,2.51,0,0,0,1.88-.93l.38.33a2.88,2.88,0,0,1-5.15-1.81Z"/><path class="cls-5" d="M611,266.29h.54v6l3.48-3.6h.72l-2.46,2.49,2.53,3.13h-.68l-2.22-2.74L611.49,273v1.37H611Z"/><path class="cls-5" d="M616.73,275.25l.32-.44a3.64,3.64,0,0,0,2.27.79,2,2,0,0,0,2.2-2.18v-.81a2.82,2.82,0,0,1-2.35,1.3,2.66,2.66,0,0,1-2.69-2.64v0a2.67,2.67,0,0,1,2.69-2.67,2.82,2.82,0,0,1,2.35,1.26v-1.13h.54v4.75a2.6,2.6,0,0,1-.72,1.9,2.86,2.86,0,0,1-2,.75A4.25,4.25,0,0,1,616.73,275.25Zm4.82-4v0a2.23,2.23,0,0,0-2.32-2.13,2.07,2.07,0,0,0-2.17,2.12v0a2.13,2.13,0,0,0,2.17,2.14A2.24,2.24,0,0,0,621.55,271.26Z"/><path class="cls-5" d="M624.1,268.71h.54v1.6a2.64,2.64,0,0,1,2.49-1.68v.59h-.06a2.5,2.5,0,0,0-2.43,2.81v2.3h-.54Z"/><path class="cls-5" d="M627.84,271.54v0a2.9,2.9,0,0,1,2.89-2.94,2.87,2.87,0,0,1,2.88,2.92v0a2.91,2.91,0,0,1-2.9,2.94A2.87,2.87,0,0,1,627.84,271.54Zm5.18,0v0a2.35,2.35,0,0,0-2.31-2.43,2.32,2.32,0,0,0-2.29,2.41v0a2.36,2.36,0,0,0,2.31,2.43A2.31,2.31,0,0,0,633,271.54Z"/><path class="cls-5" d="M635.16,272.15v-3.44h.53v3.34a1.71,1.71,0,0,0,1.79,1.91,1.91,1.91,0,0,0,1.94-2v-3.25H640v5.62h-.54v-1.05a2.19,2.19,0,0,1-2,1.18A2.13,2.13,0,0,1,635.16,272.15Z"/><path class="cls-5" d="M642,268.71h.54v1.05a2.19,2.19,0,0,1,2-1.18,2.14,2.14,0,0,1,2.25,2.31v3.44h-.54V271a1.71,1.71,0,0,0-1.79-1.91,1.91,1.91,0,0,0-1.94,2v3.25H642Z"/><path class="cls-5" d="M648.39,271.54v0a2.8,2.8,0,0,1,2.73-2.94,2.72,2.72,0,0,1,2.31,1.34v-3.63H654v8h-.54v-1.26a2.72,2.72,0,0,1-2.31,1.39A2.79,2.79,0,0,1,648.39,271.54Zm5.07,0v0a2.34,2.34,0,0,0-2.29-2.41,2.2,2.2,0,0,0-2.2,2.4v0a2.26,2.26,0,0,0,2.2,2.42A2.35,2.35,0,0,0,653.46,271.53Z"/><path class="cls-5" d="M655.53,273.62l.32-.43a3.22,3.22,0,0,0,2,.74c.76,0,1.35-.42,1.35-1.07v0c0-.66-.7-.9-1.48-1.12s-1.93-.54-1.93-1.54v0a1.65,1.65,0,0,1,1.85-1.56,3.82,3.82,0,0,1,2,.62l-.28.45a3.26,3.26,0,0,0-1.73-.56c-.77,0-1.28.42-1.28,1v0c0,.63.76.86,1.56,1.09s1.85.58,1.85,1.57v0a1.74,1.74,0,0,1-1.93,1.64A3.79,3.79,0,0,1,655.53,273.62Z"/><path class="cls-5" d="M542,28.18v0a3.88,3.88,0,1,1,7.75,0v0a3.89,3.89,0,0,1-3.89,4A3.84,3.84,0,0,1,542,28.18Zm7.15,0v0a3.33,3.33,0,0,0-3.29-3.46,3.3,3.3,0,0,0-3.27,3.44v0a3.33,3.33,0,0,0,3.29,3.47A3.3,3.3,0,0,0,549.18,28.18Z"/><path class="cls-5" d="M551.6,26.4h.54v1.05a2.19,2.19,0,0,1,2-1.18,2.14,2.14,0,0,1,2.25,2.31V32h-.54V28.68a1.71,1.71,0,0,0-1.78-1.91,1.92,1.92,0,0,0-2,2V32h-.54Z"/><path class="cls-5" d="M561.76,24.31h2.57a3.84,3.84,0,0,1,4.09,3.83v0A3.85,3.85,0,0,1,564.33,32h-2.57Zm.58.53v6.65h2a3.28,3.28,0,0,0,3.5-3.31v0a3.3,3.3,0,0,0-3.5-3.32Z"/><path class="cls-5" d="M569.78,30.38v0c0-1.16,1-1.82,2.46-1.82a6.89,6.89,0,0,1,1.86.24v-.24a1.62,1.62,0,0,0-1.85-1.72,3.79,3.79,0,0,0-1.76.45l-.2-.47a4.47,4.47,0,0,1,2-.49,2.41,2.41,0,0,1,1.77.62,2.09,2.09,0,0,1,.57,1.58V32h-.52v-.93A2.56,2.56,0,0,1,572,32.15,2,2,0,0,1,569.78,30.38Zm4.33-.47v-.64A7.56,7.56,0,0,0,572.2,29c-1.18,0-1.84.53-1.84,1.31v0c0,.82.76,1.29,1.62,1.29A1.93,1.93,0,0,0,574.11,29.91Z"/><path class="cls-5" d="M576.56,26.4h.54V28a2.66,2.66,0,0,1,2.48-1.69v.6h-.05a2.5,2.5,0,0,0-2.43,2.8V32h-.54Z"/><path class="cls-5" d="M581,24h.54v6L585,26.4h.72l-2.45,2.49L585.77,32h-.69l-2.22-2.74-1.36,1.38V32H581Z"/><path class="cls-5" d="M590.54,24.31h3.18a2.79,2.79,0,0,1,2,.68,1.67,1.67,0,0,1,.5,1.21v0a1.91,1.91,0,0,1-1.31,1.82c.92.24,1.74.77,1.74,1.84v0c0,1.29-1.1,2.1-2.77,2.1h-3.34Zm5.09,2c0-.85-.69-1.42-1.92-1.42h-2.6v3h2.54c1.16,0,2-.57,2-1.59Zm-1.91,2.13h-2.61v3.1h2.8c1.32,0,2.15-.61,2.15-1.58v0C596.06,28.94,595.24,28.39,593.72,28.39Z"/><path class="cls-5" d="M597.9,30.38v0c0-1.16,1-1.82,2.45-1.82a6.89,6.89,0,0,1,1.86.24v-.24a1.61,1.61,0,0,0-1.85-1.72,3.82,3.82,0,0,0-1.76.45l-.19-.47a4.43,4.43,0,0,1,2-.49,2.41,2.41,0,0,1,1.77.62,2.13,2.13,0,0,1,.57,1.58V32h-.53v-.93a2.54,2.54,0,0,1-2.14,1.07A2,2,0,0,1,597.9,30.38Zm4.32-.47v-.64a7.47,7.47,0,0,0-1.9-.25c-1.19,0-1.85.53-1.85,1.31v0c0,.82.77,1.29,1.63,1.29A1.92,1.92,0,0,0,602.22,29.91Z"/><path class="cls-5" d="M604.29,29.23v0a2.89,2.89,0,0,1,5.1-1.91l-.38.4a2.53,2.53,0,0,0-1.87-.92,2.31,2.31,0,0,0-2.27,2.41v0a2.36,2.36,0,0,0,2.31,2.43,2.48,2.48,0,0,0,1.88-.94l.38.33a2.87,2.87,0,0,1-5.15-1.8Z"/><path class="cls-5" d="M611,24h.54v6L615,26.4h.72l-2.46,2.49L615.76,32h-.68l-2.22-2.74-1.37,1.38V32H611Z"/><path class="cls-5" d="M616.73,32.94l.32-.44a3.7,3.7,0,0,0,2.27.79,2,2,0,0,0,2.2-2.18V30.3a2.82,2.82,0,0,1-2.35,1.3A2.66,2.66,0,0,1,616.48,29v0a2.67,2.67,0,0,1,2.69-2.66,2.81,2.81,0,0,1,2.35,1.25V26.4h.54v4.74a2.61,2.61,0,0,1-.72,1.91,2.86,2.86,0,0,1-2,.75A4.25,4.25,0,0,1,616.73,32.94Zm4.82-4v0a2.22,2.22,0,0,0-2.32-2.13,2.07,2.07,0,0,0-2.17,2.12v0a2.13,2.13,0,0,0,2.17,2.15A2.25,2.25,0,0,0,621.55,28.94Z"/><path class="cls-5" d="M624.1,26.4h.54V28a2.66,2.66,0,0,1,2.49-1.69v.6h-.06a2.5,2.5,0,0,0-2.43,2.8V32h-.54Z"/><path class="cls-5" d="M627.84,29.23v0a2.89,2.89,0,1,1,5.77,0v0a2.91,2.91,0,0,1-2.9,2.94A2.87,2.87,0,0,1,627.84,29.23Zm5.18,0v0a2.35,2.35,0,0,0-2.31-2.43,2.32,2.32,0,0,0-2.29,2.41v0a2.36,2.36,0,0,0,2.31,2.43A2.31,2.31,0,0,0,633,29.23Z"/><path class="cls-5" d="M635.16,29.83V26.4h.53v3.34a1.71,1.71,0,0,0,1.79,1.91,1.92,1.92,0,0,0,1.94-2V26.4H640V32h-.54V31a2.19,2.19,0,0,1-2,1.18A2.14,2.14,0,0,1,635.16,29.83Z"/><path class="cls-5" d="M642,26.4h.54v1.05a2.19,2.19,0,0,1,2-1.18,2.14,2.14,0,0,1,2.25,2.31V32h-.54V28.68a1.71,1.71,0,0,0-1.79-1.91,1.91,1.91,0,0,0-1.94,2V32H642Z"/><path class="cls-5" d="M648.39,29.23v0a2.8,2.8,0,0,1,2.73-2.94,2.72,2.72,0,0,1,2.31,1.34V24H654v8h-.54V30.76a2.72,2.72,0,0,1-2.31,1.39A2.79,2.79,0,0,1,648.39,29.23Zm5.07,0v0a2.34,2.34,0,0,0-2.29-2.41,2.2,2.2,0,0,0-2.2,2.4v0a2.26,2.26,0,0,0,2.2,2.42A2.35,2.35,0,0,0,653.46,29.22Z"/><path class="cls-5" d="M655.53,31.31l.32-.43a3.28,3.28,0,0,0,2,.74c.76,0,1.35-.42,1.35-1.07v0c0-.66-.7-.9-1.48-1.12s-1.93-.54-1.93-1.54v0a1.65,1.65,0,0,1,1.85-1.55,3.74,3.74,0,0,1,2,.62l-.28.45a3.26,3.26,0,0,0-1.73-.56c-.77,0-1.28.42-1.28,1v0c0,.63.76.86,1.56,1.09s1.85.58,1.85,1.57v0a1.73,1.73,0,0,1-1.93,1.64A3.84,3.84,0,0,1,655.53,31.31Z"/><g id="_Group_" data-name="&lt;Group&gt;"><polygon class="cls-6" points="165.34 312.4 164.62 374.59 138.76 381.87 138.76 313.02 165.34 312.4"/><polygon class="cls-7" points="165.34 312.4 138.76 313.02 152.4 301.16 165.34 312.4"/><polygon class="cls-8" points="152.4 295.18 152.4 301.16 130.29 301.37 130.29 295.96 152.4 295.18"/><polygon class="cls-5" points="152.4 301.16 138.76 313.02 116.72 313.02 130.13 301.37 130.29 301.37 152.4 301.16"/><polygon class="cls-9" points="138.76 313.02 138.76 381.87 116.72 376.25 116.72 313.02 138.76 313.02"/></g><path class="cls-10" d="M196,339.43a1.81,1.81,0,0,1-.51,1.33,1.79,1.79,0,0,1-1.32.51h-6.54a1.85,1.85,0,0,1-1.34-.51,1.82,1.82,0,0,1-.52-1.33v-6.59H188v6.39h5.61V333l-7.17-8.67a3,3,0,0,1-.75-2v-5.26a1.78,1.78,0,0,1,1.86-1.85h6.54a1.76,1.76,0,0,1,1.32.52,1.79,1.79,0,0,1,.51,1.33v6h-2.31v-5.85H188v5.48l7.2,8.67a3,3,0,0,1,.72,1.94Z"/><path class="cls-10" d="M202.11,321.58h-2.24V318.8h2.24Zm0,19.69H199.9V325.12h2.17Z"/><path class="cls-10" d="M222.06,341.27h-2.21V327.1l-4.81.13v14h-2.19V327.1l-4.82.13v14h-2.2V325.12H208v.45l2.59-.35a22.14,22.14,0,0,1,2.61-.2,1.78,1.78,0,0,1,1.49.62c.93-.13,1.86-.25,2.78-.39a24.33,24.33,0,0,1,2.74-.23,1.61,1.61,0,0,1,1.82,1.81Z"/><path class="cls-10" d="M234.93,337.8a3.41,3.41,0,0,1-1,2.49,3.32,3.32,0,0,1-2.46,1h-3.63v6.13h-2.21V325.12h2.21v.45l2.62-.33a20.29,20.29,0,0,1,2.6-.22,1.62,1.62,0,0,1,1.85,1.81Zm-2.21-.33V327.1l-4.86.13v12.1h3A1.62,1.62,0,0,0,232.72,337.47Z"/><path class="cls-10" d="M240.77,341.27H238.6v-26h2.17Z"/><path class="cls-10" d="M253.62,325.12l-3.88,16-1.61,6.26H246l1.63-6.26-4-16h2.28l2.75,12.72,2.79-12.72Z"/><path class="cls-10" d="M196.23,368.23a1.76,1.76,0,0,1-1.84,1.84h-8.57v-26h8.5a1.76,1.76,0,0,1,1.84,1.85v7.72a2.08,2.08,0,0,1-.93,1.72l-1.82,1.1,2,1.26a1.82,1.82,0,0,1,.86,1.66ZM193.84,354v-7.82h-5.71v9.38h3.4Zm.07,14.08v-9l-2.35-1.53h-3.43V368Z"/><path class="cls-10" d="M208.45,359.23h-2.18V355.9l-4.06.13v14H200V353.92h2.21v.45l2.2-.35a16,16,0,0,1,2.21-.2,1.61,1.61,0,0,1,1.83,1.81Z"/><path class="cls-10" d="M220.29,368.2a1.65,1.65,0,0,1-1.86,1.87h-5.32a1.65,1.65,0,0,1-1.86-1.87V355.8a1.65,1.65,0,0,1,1.86-1.88h5.32a1.66,1.66,0,0,1,1.86,1.88v5.81l-.75.78H213.4v5.84h4.74v-3h2.15Zm-2.15-7.57v-4.87H213.4v4.87Z"/><path class="cls-10" d="M233.07,370.07h-2.18v-.44l-2.62.34a21,21,0,0,1-2.61.2,1.59,1.59,0,0,1-1.81-1.79v-5.89a1.65,1.65,0,0,1,1.88-1.86h5.2v-4.87h-4.75v2.76H224V355.8a1.65,1.65,0,0,1,1.86-1.88h5.31a1.65,1.65,0,0,1,1.86,1.88Zm-2.14-2v-5.72H226v5.82Z"/><path class="cls-10" d="M245.75,370.07h-2.41l-4.44-8.23v8.23h-2.21v-26h2.21v16.5l4.15-6.67h2.37V354l-4.7,7.14Z"/><path class="cls-10" d="M254.19,346h-3.13v7.88h2.76v1.94h-2.76v14.21h-2.17V355.86H247v-1.94h1.88V346a1.65,1.65,0,0,1,1.86-1.88h3.44Z"/><path class="cls-10" d="M265.29,370.07h-2.17v-.44l-2.63.34a20.94,20.94,0,0,1-2.6.2,1.59,1.59,0,0,1-1.81-1.79v-5.89a1.65,1.65,0,0,1,1.87-1.86h5.2v-4.87H258.4v2.76h-2.14V355.8a1.65,1.65,0,0,1,1.86-1.88h5.31a1.65,1.65,0,0,1,1.86,1.88Zm-2.14-2v-5.72h-4.93v5.82Z"/><path class="cls-10" d="M277.61,368.2a1.65,1.65,0,0,1-1.88,1.87h-5.06a1.66,1.66,0,0,1-1.88-1.87v-3.67H271v3.64h4.47v-3.23l-5.78-4.73a2.09,2.09,0,0,1-.83-1.72V355.8a1.66,1.66,0,0,1,1.87-1.88h5a1.66,1.66,0,0,1,1.88,1.88V359h-2.14v-3.19H271v2.82l5.83,4.73a2.15,2.15,0,0,1,.81,1.76Z"/><path class="cls-10" d="M286.92,370.07h-3.13a1.65,1.65,0,0,1-1.86-1.87V355.86H280v-1.94h1.95v-5h2.17v5h2.82v1.94H284.1v12.27h2.82Z"/><g id="_Group_2" data-name="&lt;Group&gt;"><polygon class="cls-6" points="477.86 312.4 477.13 374.59 451.27 381.87 451.27 313.02 477.86 312.4"/><polygon class="cls-7" points="477.86 312.4 451.27 313.02 464.91 301.16 477.86 312.4"/><polygon class="cls-8" points="464.91 295.18 464.91 301.16 442.8 301.37 442.8 295.96 464.91 295.18"/><polygon class="cls-5" points="464.91 301.16 451.27 313.02 429.23 313.02 442.64 301.37 442.8 301.37 464.91 301.16"/><polygon class="cls-9" points="451.27 313.02 451.27 381.87 429.23 376.25 429.23 313.02 451.27 313.02"/></g><path class="cls-5" d="M508.46,339.43a1.81,1.81,0,0,1-.51,1.33,1.77,1.77,0,0,1-1.32.51h-6.54a1.85,1.85,0,0,1-1.34-.51,1.82,1.82,0,0,1-.52-1.33v-6.59h2.31v6.39h5.61V333L499,324.37a3,3,0,0,1-.75-2v-5.26a1.78,1.78,0,0,1,1.86-1.85h6.54a1.74,1.74,0,0,1,1.32.52,1.79,1.79,0,0,1,.51,1.33v6h-2.31v-5.85h-5.61v5.48l7.2,8.67a3,3,0,0,1,.72,1.94Z"/><path class="cls-5" d="M514.62,321.58h-2.24V318.8h2.24Zm0,19.69h-2.17V325.12h2.17Z"/><path class="cls-5" d="M534.57,341.27h-2.2V327.1l-4.82.13v14h-2.19V327.1l-4.82.13v14h-2.2V325.12h2.2v.45l2.59-.35a22.29,22.29,0,0,1,2.61-.2,1.8,1.8,0,0,1,1.5.62c.92-.13,1.85-.25,2.77-.39a24.33,24.33,0,0,1,2.74-.23,1.61,1.61,0,0,1,1.82,1.81Z"/><path class="cls-5" d="M547.44,337.8a3.41,3.41,0,0,1-1,2.49,3.3,3.3,0,0,1-2.46,1h-3.63v6.13h-2.21V325.12h2.21v.45l2.62-.33a20.56,20.56,0,0,1,2.61-.22,1.61,1.61,0,0,1,1.84,1.81Zm-2.21-.33V327.1l-4.86.13v12.1h3A1.62,1.62,0,0,0,545.23,337.47Z"/><path class="cls-5" d="M553.28,341.27h-2.17v-26h2.17Z"/><path class="cls-5" d="M566.13,325.12l-3.88,16-1.61,6.26h-2.18l1.63-6.26-4-16h2.27l2.76,12.72,2.78-12.72Z"/><path class="cls-5" d="M508.74,368.23a1.75,1.75,0,0,1-1.84,1.84h-8.57v-26h8.5a1.76,1.76,0,0,1,1.84,1.85v7.72a2.06,2.06,0,0,1-.93,1.72l-1.82,1.1,2,1.26a1.82,1.82,0,0,1,.86,1.66ZM506.35,354v-7.82h-5.71v9.38H504Zm.07,14.08v-9l-2.34-1.53h-3.44V368Z"/><path class="cls-5" d="M521,359.23h-2.17V355.9l-4.07.13v14h-2.21V353.92h2.21v.45l2.21-.35a15.74,15.74,0,0,1,2.2-.2,1.61,1.61,0,0,1,1.83,1.81Z"/><path class="cls-5" d="M532.8,368.2a1.65,1.65,0,0,1-1.86,1.87h-5.32a1.64,1.64,0,0,1-1.85-1.87V355.8a1.65,1.65,0,0,1,1.85-1.88h5.32a1.65,1.65,0,0,1,1.86,1.88v5.81l-.75.78h-6.14v5.84h4.75v-3h2.14Zm-2.14-7.57v-4.87h-4.75v4.87Z"/><path class="cls-5" d="M545.58,370.07h-2.17v-.44l-2.63.34a20.94,20.94,0,0,1-2.6.2,1.59,1.59,0,0,1-1.81-1.79v-5.89a1.65,1.65,0,0,1,1.87-1.86h5.2v-4.87h-4.75v2.76h-2.14V355.8a1.65,1.65,0,0,1,1.86-1.88h5.31a1.65,1.65,0,0,1,1.86,1.88Zm-2.14-2v-5.72h-4.93v5.82Z"/><path class="cls-5" d="M558.26,370.07h-2.4l-4.45-8.23v8.23H549.2v-26h2.21v16.5l4.15-6.67h2.37V354l-4.7,7.14Z"/><path class="cls-5" d="M566.7,346h-3.12v7.88h2.75v1.94h-2.75v14.21H561.4V355.86h-1.87v-1.94h1.87V346a1.65,1.65,0,0,1,1.86-1.88h3.44Z"/><path class="cls-5" d="M577.8,370.07h-2.17v-.44L573,370a21.22,21.22,0,0,1-2.61.2,1.59,1.59,0,0,1-1.81-1.79v-5.89a1.65,1.65,0,0,1,1.88-1.86h5.19v-4.87h-4.75v2.76h-2.14V355.8a1.65,1.65,0,0,1,1.86-1.88h5.31a1.65,1.65,0,0,1,1.86,1.88Zm-2.14-2v-5.72h-4.93v5.82Z"/><path class="cls-5" d="M590.12,368.2a1.65,1.65,0,0,1-1.87,1.87h-5.07a1.65,1.65,0,0,1-1.87-1.87v-3.67h2.17v3.64H588v-3.23l-5.78-4.73a2.11,2.11,0,0,1-.83-1.72V355.8a1.66,1.66,0,0,1,1.88-1.88h5a1.66,1.66,0,0,1,1.88,1.88V359H588v-3.19h-4.47v2.82l5.83,4.73a2.15,2.15,0,0,1,.81,1.76Z"/><path class="cls-5" d="M599.44,370.07H596.3a1.65,1.65,0,0,1-1.86-1.87V355.86H592.5v-1.94h1.94v-5h2.17v5h2.83v1.94h-2.83v12.27h2.83Z"/></svg>