<?xml version="1.0" encoding="utf-8"?>
<!-- Generator: Adobe Illustrator 22.1.0, SVG Export Plug-In . SVG Version: 6.00 Build 0)  -->
<svg version="1.1" id="Layer_1" xmlns="http://www.w3.org/2000/svg" xmlns:xlink="http://www.w3.org/1999/xlink" x="0px" y="0px"
	 viewBox="0 0 475.3 357.1" style="enable-background:new 0 0 475.3 357.1;" xml:space="preserve">
<style type="text/css">
	.st0{fill:#00B084;}
	.st1{fill:#F5F4CD;}
	.st2{fill:#F4BECF;}
	.st3{fill:#B3A06F;}
	.st4{fill:#D9C085;}
	.st5{fill:#6A7080;}
	.st6{fill:#538FAB;}
	.st7{fill:#F6A7A7;}
	.st8{fill:#F27773;}
	.st9{fill:#FFFFFF;}
</style>
<rect x="-98.6" y="-108.7" class="st0" width="667" height="577"/>
<title>资源 3</title>
<g id="图层_2">
	<g id="_3">
		<g id="RABBIT">
			<g>
				
					<ellipse transform="matrix(0.9602 -0.2793 0.2793 0.9602 -31.3559 68.7236)" class="st1" cx="225.5" cy="144.4" rx="5.2" ry="12.4"/>
			</g>
			<g>
				
					<ellipse transform="matrix(0.9602 -0.2793 0.2793 0.9602 -31.3559 68.7236)" class="st2" cx="225.5" cy="144.4" rx="4" ry="9.6"/>
			</g>
			<g>
				
					<ellipse transform="matrix(0.2793 -0.9602 0.9602 0.2793 42.7125 343.7356)" class="st1" cx="250.3" cy="143.4" rx="12.4" ry="5.2"/>
			</g>
			<g>
				
					<ellipse transform="matrix(0.2793 -0.9602 0.9602 0.2793 42.7125 343.7356)" class="st2" cx="250.3" cy="143.4" rx="9.6" ry="4"/>
			</g>
			<g>
				<polygon class="st3" points="260.3,166.7 257.9,164.8 248.8,176.4 251.2,178.3 				"/>
			</g>
			<g>
				<polygon class="st4" points="221.8,219.8 215,221.6 215.2,214.4 248.1,172.8 254.7,178.2 				"/>
			</g>
			<g>
				<polygon class="st3" points="256.4,182.6 243.5,172.1 245.8,169.2 258.7,179.7 				"/>
			</g>
			<g>
				<rect x="213.1" y="196.4" transform="matrix(0.6197 -0.7849 0.7849 0.6197 -65.3954 258.9301)" width="42.8" height="1"/>
			</g>
			<g>
				<ellipse class="st1" cx="242.7" cy="215.4" rx="2.1" ry="9.5"/>
			</g>
			<g>
				<ellipse class="st1" cx="232.2" cy="215.4" rx="2.1" ry="9.5"/>
			</g>
			<g>
				<path class="st5" d="M234.3,210.1c0,2.3,0.4,2.3-2,2.3c-2.8,0-2.2,0-2.2-2.3s0.9-4.2,2.1-4.2S234.3,207.7,234.3,210.1z"/>
			</g>
			<g>
				<path class="st5" d="M244.8,210.1c0,2.3,0.3,2.3-2,2.3c-2.8,0-2.2,0-2.2-2.3s0.9-4.2,2.1-4.2S244.8,207.7,244.8,210.1z"/>
			</g>
			<g>
				<path class="st6" d="M233.1,185.7h8.9c1.7,0,3.3,1,4,2.6l1.1,6.6v15.6h-19.4l0.3-16l0.5-5.6
					C229.3,186.9,231.1,185.7,233.1,185.7z"/>
			</g>
			<g>
				<path class="st1" d="M235,181.9h4.8l0,0v6.1c0,1.1-0.9,2-2,2h-0.8c-1.1,0-2-0.9-2-2L235,181.9L235,181.9z"/>
			</g>
			<g>
				<path class="st1" d="M232.3,149.8h11.3c6.8,0,12.3,5.5,12.3,12.3l0,0v8.7c0,8.4-6.8,15.1-15.1,15.1h-5.9
					c-8.4,0-15.1-6.8-15.1-15.1v-8.5C219.8,155.4,225.4,149.8,232.3,149.8L232.3,149.8z"/>
			</g>
			<g>
				<path d="M227.7,160h0.6c0.8,0,1.5,0.7,1.5,1.5v7.1l0,0h-3.6l0,0v-7.1C226.2,160.7,226.9,160,227.7,160z"/>
			</g>
			<g>
				<path d="M246.8,160h0.6c0.8,0,1.5,0.7,1.5,1.5l0,0v7.1l0,0h-3.6l0,0v-7.1C245.3,160.7,246,160,246.8,160z"/>
			</g>
			<g>
				
					<ellipse transform="matrix(0.4338 -0.901 0.901 0.4338 -46.626 315.4998)" class="st1" cx="227.7" cy="194.8" rx="9.4" ry="2.8"/>
			</g>
			<g>
				<path class="st5" d="M244.8,221.7c0.6-3.6,0.7-1.3-1.9-1.3c-2.2,0-2.7-1.1-2.7-0.3c0,1,0.1,4.2,0.1,4.2c0,0.8,0.6,1.4,1.5,1.4
					h1.2h0.2c2.2,0,4.5-0.9,4.5-1.9C247.6,223,246.4,222.1,244.8,221.7z"/>
			</g>
			<g>
				<path class="st6" d="M228.2,188.7c-1.4,2-2.1,2.4,0.3,3.6c4,2,3.2,0.5,3.8-1.7c0.4-1.3,0.8-4.2-1-4.4
					C230,186.7,229,187.5,228.2,188.7z"/>
			</g>
			<g>
				
					<ellipse transform="matrix(0.901 -0.4338 0.4338 0.901 -60.1378 126.7563)" class="st1" cx="247.7" cy="195.1" rx="2.8" ry="9.4"/>
			</g>
			<g>
				<path class="st6" d="M247.2,188.7c1.4,2,2.1,2.4-0.3,3.6c-4,2-3.2,0.5-3.8-1.7c-0.4-1.3-0.8-4.2,1-4.4
					C245.3,186.7,246.4,187.5,247.2,188.7z"/>
			</g>
			<g>
				<path class="st5" d="M229.8,221.7c-0.6-3.6-0.7-1.3,1.9-1.3c2.2,0,2.7-1.1,2.7-0.3c0,1-0.1,4.2-0.1,4.2c0,0.8-0.6,1.4-1.4,1.4
					h-1.2h-0.2c-2.2,0-4.5-0.9-4.5-1.9C227,223,228.3,222.1,229.8,221.7z"/>
			</g>
			<g>
				<ellipse class="st7" cx="247.1" cy="168.6" rx="4.5" ry="1.3"/>
			</g>
			<g>
				<ellipse class="st7" cx="228" cy="168.6" rx="4.5" ry="1.3"/>
			</g>
			<g>
				<path class="st8" d="M237.5,172.9h0.7c0.3,0,0.6,0.3,0.6,0.6c0,0.1,0,0.2-0.1,0.3l-0.4,0.6l-0.3,0.4c-0.2,0.3-0.6,0.4-0.9,0.3
					c-0.1-0.1-0.2-0.1-0.3-0.3l-0.3-0.4l-0.4-0.6c-0.2-0.3-0.1-0.6,0.2-0.8c0.1,0,0.2-0.1,0.3-0.1L237.5,172.9z"/>
			</g>
			<g>
				<path d="M241.8,179.7c0,0.7-0.5,1.4-1.1,1.6c-2.1,0.3-4.3,0.3-6.4,0c-0.7-0.2-1.2-0.9-1.1-1.6l0,0c0-0.9,0.7-1.7,1.6-1.7
					c0,0,0,0,0,0h5.4C241.1,178,241.9,178.8,241.8,179.7C241.8,179.7,241.8,179.7,241.8,179.7L241.8,179.7z"/>
			</g>
			<g>
				<path class="st9" d="M236.7,177.9h0.2c0.3,0,0.6,0.3,0.6,0.6v0.2c0,0.3-0.3,0.6-0.6,0.6h-0.2c-0.3,0-0.6-0.3-0.6-0.6v-0.2
					C236.1,178.1,236.4,177.9,236.7,177.9z"/>
			</g>
			<g>
				<path class="st9" d="M238.4,177.9h0.2c0.3,0,0.6,0.3,0.6,0.6v0.2c0,0.3-0.3,0.6-0.6,0.6h-0.2c-0.3,0-0.6-0.3-0.6-0.6v-0.2
					C237.8,178.1,238.1,177.9,238.4,177.9z"/>
			</g>
		</g>
	</g>
</g>
</svg>
